<svg id="Layer_2" data-name="Layer 2" xmlns="http://www.w3.org/2000/svg" viewBox="0 0 1000 1000"><defs><style>.cls-1{fill:#9f8f4a;}</style></defs><path class="cls-1" d="M98.61,358.84c.11-.38.1-.93.35-1.11,2.08-1.48,4.2-2.9,6.3-4.32,0,1.69.07,3.38.12,5.32l3.2-.48c-.45-1.45-.1-2.87-2-3.08-.51-.05-.92-1.1-1.38-1.7-2.65-4.17-2.5-5.68,0-9.7,3.61-5.89,8.91-10.12,13.94-14.61,3.49-3.11,7.18-6,10.64-9.14,2.95-2.69,5.58-5.74,8.59-8.35,3.32-2.86,7-5.23,9.06-9.41a6.34,6.34,0,0,1,4.38-3c5.07-.39,8.64-3.38,12.23-6.29,5.39-4.38,10.6-9,15.83-13.56,1.46-1.28,2.75-2.15,4.95-1.82,2.94.45,4.17-1.07,3.35-4.1a3,3,0,0,1,.66-3.22c2.11-2.21,4.24-4.4,6.42-6.66l3.28,1.51c-.27,1.69-.61,3.33-.76,5-.1,1.09-.25,2.42.27,3.21.3.45,2.41.44,2.81-.07a5.23,5.23,0,0,0,1-3.54c-.32-2.48-1.24-4.89-1.56-7.37a3.36,3.36,0,0,1,1.49-2.44,38.33,38.33,0,0,1,4.66-2.36,41.21,41.21,0,0,0,4.81,3,3.33,3.33,0,0,0,2.9-.11c.57-.45.65-1.85.54-2.78-.41-3.51.25-6.41,3.66-8.22.77-.41,1.28-1.3,2-2l2.65,1.34-1,2.64,3.88-.32c-.45-1.42-.76-2.37-1.13-3.55l-1.81,1.31a19.08,19.08,0,0,0-1.17-3.15c-2-3.55-1.78-5.6,1.23-8,7.36-6,14.62-12.07,22.14-17.84,7.27-5.57,14.82-10.78,22.25-16.14.64-.46,1.35-.81,2-1.19l4,3c-.34,1.71-.8,3.67-1.09,5.65-.1.69.12,2,.35,2.06a5.89,5.89,0,0,0,2.95-.27,1.9,1.9,0,0,0,.68-1.72c-1.44-2.48.05-5.39-1.41-8.07,2.6-1.19,3.28-3.2,1.87-5.87,1.06-.82,2-1.57,2.93-2.28,8.5-6.48,17-12.9,25.49-19.42A246.77,246.77,0,0,1,337.2,154a140,140,0,0,0,15.07-9.83c8.62-6.23,17.61-11.59,28-14.3a11.83,11.83,0,0,0,3.19-1.57c1.6-1,1.56-1.06,4.1-.52.56-1.62,3.12-1.68,3.09-4,0-.29,1-.7,1.62-.86,3.21-.9,6.42-1.79,9.66-2.56a11.83,11.83,0,0,1,2.64.11,2.2,2.2,0,0,0,1.3-.29c2.43-2.06,5.49-1.68,8.3-2.17.77-.13,1.71.57,2.54,1,2,.94,4,1.93,6.19,3,2.22-4.26,5.61-4.23,8.92-2.47,4.13,2.19,8.71,2.75,13,4.29,12.43,4.43,25,8.57,37.44,12.94,5.28,1.85,10.49,3.91,15.65,6.09,1.25.52,2.22,1.81,3.19,2.87,2.07,2.24,4,4.61,6.1,6.83a6.06,6.06,0,0,0,2.37,1.44c2.08.73,3.45-.42,2.77-2.58-.93-2.9,1-5.09,1.58-7.57.25-1.16,2.64-1.85,4.25-2.88.59.42,1.31.93,2,1.43.56,2.24.56,2.24,2.93,1.71-.29-.8-.58-1.57-.89-2.42l-2.15.83a16,16,0,0,0-.29-2.61c-.2-.72-1.4-.43-1.19-2.16.26-2.07.45-3.7,2.16-4.79,6-3.8,11.71-8,18-11.09a178,178,0,0,1,23.74-9.33c6.28-2,12.86-3.38,19.65-2.07,2.59.5,5.31.23,7.93.62,1.36.19,2.6,1.08,3.92,1.58a5,5,0,0,0,1.59.27c2.19.08,4.37.12,5.09,3.28,1.83-1.7,3.65-1.56,5.55-.85a75.57,75.57,0,0,0,15.57,3.52c4,.57,7.83,2.47,11.74,3.79a16.66,16.66,0,0,0,3.37,1.12,18.75,18.75,0,0,1,9.09,3.8c8.62,6.07,17.32,12,25.92,18.11a30.36,30.36,0,0,1,3.82,3.94,36.55,36.55,0,0,0,3.08,3c1.23,1,2.6,1.83,3.9,2.72-.21.89-.38,1.64-.66,2.83l6.86.65c.29.89.72,2.19,1,3.18l13.17,6.71-8.05,2.46c0,.21,0,.43,0,.64a50.58,50.58,0,0,0,5.5.08,3.15,3.15,0,0,1,3.53,1.89c1,1.86,3.37,3,2.44,5.88-.21.67,2.3,3.07,2.59,2.91,3-1.62,4.07,1.6,6.16,2,2.46-2,4-1.57,5.89,1.82a5.3,5.3,0,0,1,5.89.83c.4.34,1.12.73,1.11,1.07-.13,3.54,2.71,5.54,4.58,8.42l-3.83.84,3.42,5.89-3.7.05,3.37,2.21c-2.21,3.94-4.43,7.87-6.62,11.81-.71,1.27-2.32,2.33-.67,4.15.35.38-.34,1.74-.58,2.64-.29,1.09-.61,2.17-1,3.63,3.47-.44,3-4.08,5.21-5l1.12,1.73c3.47-4,4.43-8.71,4.51-13.55.06-3.27.71-6,3.63-7.9,2.1-1.36,1.63-3.65,1.61-6.18,2.86,2.88,3.72,7.24,8.65,7.09l-2.06,3.9c2.39,0,4.41.38,6.22-.07,2-.51,3,.37,4,1.59l-3,3c-1.34-1.66-2.77-1.42-4,0a2.1,2.1,0,0,0,.32,2c1,1,2.24.33,3.53-1.76.07-.1,0-.26,0-.39l2,.82,2.8-2.16c2.76,1.06,5.11,2.37,5.55,5.64s-2.93,2.46-4.75,4.48c2.83.1,5.32-.37,7.31.42s3.6,2.82,5.54,4.46c-2.86,4.22,2,5.06,3,8.32l1.51-2.39,4.17,2.28,1.53-1.91,4.39,1.31c-1.43,3.55-1,7.25-3.25,10.67-3,4.51-4.91,9.75-7.37,14.63-1.36,2.68-2.91,5.28-4.37,7.91l.59.62c.63-.44,1.5-.75,1.85-1.35,3.82-6.7,8.77-12.77,11.22-20.24a20.4,20.4,0,0,1,2.07-3.59l3.68,2.51c-.24-1.53-.37-2.4-.5-3.26l.64-.37a57.56,57.56,0,0,1,4.25,5,3.5,3.5,0,0,1,.13,2.89,90.08,90.08,0,0,1-4.16,8.2c-2.44,4.26-5,8.41-7.52,12.66a4.28,4.28,0,0,0-.38,3c6.41-5.41,8.76-13.66,14.28-19.64-2.66,7.28-6.49,14-9.56,21.15,2.92-.88,4.08-3.27,5-5.49a68.92,68.92,0,0,1,3.28-6.07c1.57-3.07,2.71-6.37,4.11-9.76l6-1.24c1.81.46,3.44.84,5,1.29,2.94.82,5.89,1.53,7.61,4.54,1.13,2,3,3.18,4.9,4.52,3,2.12,5.48,5,8.17,7.51,1,.91,1.8,1.95,2.82,2.77q11.38,9.17,22.82,18.25a12.09,12.09,0,0,0,3.25,2.27,18.13,18.13,0,0,1,8,5.69c1.19,1.38,3.06,2.21,4.13,3.66,2.43,3.28,4.56,6.79,6.92,10.38l-2.83,1.26c-.17,1.72.92,2.24,2.08,2.65,1.38.5,2.85.8,4.16,1.43,2.64,1.25,3.18,2.75,2.35,5.69a5.08,5.08,0,0,0,1.39,5.51,17.6,17.6,0,0,0,5.27,3.53c2.59,1,3.37,2.75,3.68,5.12.51,3.89,1.43,4.83,5,5.57a4.66,4.66,0,0,1,2.59,1.39c1.52,2,2.79,4.17,4.26,6.44l-1.68.77c0,.25-.09.6,0,.73a76.94,76.94,0,0,0,5.65,5.63c2,1.67,3.08,3.32,1.53,5.81-.21.33-.49.85-.37,1.11a10.43,10.43,0,0,1,.31,9c1.4,1.59-.11,2.93-.63,4.53a9,9,0,0,0,2.3.89c2.26.16,3.81,1,4.21,3.44.25,1.54,1.55,1.62,2.74,1.84,1.41.26,2.9,1,2.69,2.43a4.63,4.63,0,0,1-2.35,2.9,76.28,76.28,0,0,1-9.87,4.29,5.22,5.22,0,0,0-3.64,3.82c-.38,1.91-1.47,2.67-2.83,3.54a46.4,46.4,0,0,1-4,2.73,75.61,75.61,0,0,1-8,3.49c-2.38.87-5,1.14-7.29,2.13a22.07,22.07,0,0,1-9.33,1.71,23.56,23.56,0,0,0-7,1.29,5.39,5.39,0,0,1-6.12-1.64,3.92,3.92,0,0,0-4.65-1.1c-4.19,1.36-8.48,2.4-12.68,3.72a49.55,49.55,0,0,0-4.72,2.13c-3.7,1.61-7.4,3.23-11.43.85a4.19,4.19,0,0,0-2.27-.54c-4.15.31-7-1.63-8.68-5.19-2.33-4.9-7.26-4.34-11.31-5.59-.49-.16-1.39.64-2,1.15-3.72,3.32-8,3.54-12.42,2-18.29-6.36-36.34-13.32-53.62-22.13-9.88-5-19.9-9.88-30.57-12.91-9.17-2.59-17.84-6.25-26.77-10.1l13-16.65c-1.86-.38-2.44.88-3.25,1.72-3.63,3.75-7.25,7.49-10.77,11.33-1.55,1.7-3.09,2.17-5.27,1.29-9.13-3.7-18.83-4.86-28.48-6.22l-36.92-5.2c-.89-.12-1.77-.34-3.25-.64,3.17-3.28,7.38-5.25,7.88-10.79-2,1.58-3.45,2.87-5,4s-3.47,2.41-5.65,3.92l.36-3.9c-.42,0-.74,0-.81.06-1,1.54-2,3.11-3,4.69a8.63,8.63,0,0,1-2.86-9.47,82.31,82.31,0,0,0,2.41-10.89c.25-1.61-.32-3.36-.6-5.84-2.12,2.62-2.55,5-3.21,7.36a64.14,64.14,0,0,1-2.57,8.39c-1.7,3.87-2.86,4.19-6.94,2.77-1.24-.43-2.43-1-3.79-1.6a16.37,16.37,0,0,0-1.56,1.09,12.8,12.8,0,0,1-11.46,3.17c-4.76-.91-9-2.54-12-6.54l-5.23-6.93c-6.51,2.22-13.46,1.8-20.37,1.68-8.84-.14-17.24,1.16-25,5.69-5.24,3-11,4.23-17,2.56a17.68,17.68,0,0,1-6.59-3.52c-5.81-5-9.35-11.26-9.19-19.35a9.65,9.65,0,0,0-1.61-.3,11.93,11.93,0,0,0-1.83.35c.29,2.2.61,4.28.84,6.38.59,5.52-1.52,7.95-7,7.42A53.4,53.4,0,0,1,456,328c-4.31-1.31-7.27-4.35-9.37-8.27-.49-.92-1-1.83-2-3.65-.37,4.07-1.47,6.89-3.95,9.05-.5.43-.42,1.49-.63,2.26A7.16,7.16,0,0,1,429,331.56c-.71-.51-.89-1.75-1.34-2.71-.25.33-.6.77-1.22,1.56L422,324.88a22.66,22.66,0,0,0-1.21,2.79c-.73,2.68-1.93,4.91-4.58,6.24a7.85,7.85,0,0,0-2.12,2.3c-3.3,4.07-6.74,5.05-11.62,3.5a4.2,4.2,0,0,0-2.92.24c-3.59,1.86-7.07,1.42-10.87.5-5.86-1.42-10.21-5-14.56-8.75-1.76-1.52-3.68-2.86-5.53-4.29l-.68.66c1.73,3.21,4,6.25,5,9.67s.68,7.26.91,10.44c-2.47,2-4.46,3.66-6.54,5.2a20.61,20.61,0,0,1-4.07,2.5c-6.63,2.82-13.38,5.36-19.95,8.31a63.2,63.2,0,0,1-20.92,5,28.22,28.22,0,0,0-5.52.75,8.56,8.56,0,0,0-3.64,2.14c-3.25,3.35-6.25,6.95-9.52,10.28a9.62,9.62,0,0,1-4,2.42c-4,1.18-8,2.15-12,3a14,14,0,0,0-6.11,2.76A18.49,18.49,0,0,1,266.27,395c-4.71-.74-9,.79-13,3.11A137,137,0,0,1,224,410.85c-6,1.77-12.13,3.06-18,5.16a14.52,14.52,0,0,1-5.52.43,66.85,66.85,0,0,0-17.5,1.48,22.87,22.87,0,0,1-6.35.34c-6.4-.45-12.78-1.07-19.17-1.66a59.66,59.66,0,0,1-8.15-1,10.2,10.2,0,0,1-4.44-2.5,17.12,17.12,0,0,0-8.46-4.25c-2.86-.63-5.82-.93-8.59-1.84-4.27-1.41-7.93-3.39-9.14-8.57-1.27-5.4-3.48-10.58-5.61-16.84-.7,1.5-1.23,2.15-1.27,2.84a5.71,5.71,0,0,0,.58,2.31c1,2.61,2.26,5.15,3.09,7.82s1.16,5.18,1.78,8c-1.79.23-2.47-.94-3.17-2.23-1.58-2.93-3.18-5.85-4.86-8.72a30.35,30.35,0,0,0-2.57-3.17c-.68,3.15,1.13,4.52,1.76,6.23a52.21,52.21,0,0,0,2.68,5.41c-3.48.27-5.18-.8-5.82-3.73a40,40,0,0,1-.63-4.76c-.6-6.5-1.1-7-7.42-7.67-.12-1.24-.6-2.62-.33-3.83.92-4.13-1.49-6.47-4.26-8.7A16,16,0,0,1,90.71,370c-1.24-1.36-1.17-2.61.81-3.66A30.22,30.22,0,0,0,94.89,368c1.87.66,3.66-.66,2.91-2.32-1.17-2.63.08-4.64.81-6.86ZM256.79,277c-.55,1.72-1.05,3.44,1,5.77l-1-5.77c-.43-1.73-.87-3.47-1.3-5.2l-1,.31C255.36,273.71,253.87,276.09,256.79,277Zm188.77,14.56c-.23,1.27-.47,2.53-.71,3.8l.56.06.15-3.85q-.37-3.27-.76-6.54C444.56,287.28,443.58,289.69,445.56,291.56ZM146.39,408.48c-.42-2.45-1.07-4.77-3.47-6.1-.16-1.35-.31-2.7-.52-4.5,1.19,1.31,2.13,2.36,3.11,3.37.08.08.43-.09.73-.16,0-1.06-.08-2.14-.12-3.21l.84-.25c.34.85,1.08,1.77.94,2.52-.85,4.56,1.8,7.51,4.6,10.35.53.54,1.62.53,2.45.78.12,1.16.42,2.14,2.23,1.42l-2.4-1.28c-.57-1.3-.84-2.91-1.77-3.86-2.88-2.95-3.91-6.64-4.62-10.44-.66-3.5-1-7.08-1.44-10.61-.61-4.61-1.21-9.22-1.88-13.81a11.2,11.2,0,0,0-.95-2.33c-1.68,1.71-1.63,3.56-1.86,5.37s1.08,3.79-.59,5.88a16,16,0,0,1-1.35-2.3c-1.82-5.15-3.69-10.29-5.32-15.49a13.67,13.67,0,0,0-3.37-6.35c-.42,2.14-1.19,3.83-1,5.39.61,4.68.06,9.5,2,14,1.37,3.2,2.23,6.58-.29,9.71.61.86.93,1.78,1.55,2.09,2.71,1.37,3.89,3.81,5.09,6.37s2.68,4.82,4,7.22l3.43,6.12c.56,2.31,2.14,3.82,3.54,5.47l.84-.7Q148.62,410.84,146.39,408.48Zm590.35-91.41c3.11-.43,4.38-3.13,6.28-5.05-3.11.47-4.77,2.68-6.19,5.16-2.7.49-3.82,2.71-5.2,4.65A7.25,7.25,0,0,0,736.74,317.07Zm81.06,27.57c1-.42,2.38-.57,3.07-1.32,5.41-5.89,10.71-11.89,16-17.89a6.11,6.11,0,0,0,.73-1.64,7.16,7.16,0,0,0-3.16,2.36c-1,1.09-1.73,2.63-2.94,3.22-3.71,1.81-5.5,5.26-7.85,8.28-1.85,2.39-3.86,4.65-5.79,7,.59,1.85-1,2.57-1.92,3.58-3.26,3.74-6.62,7.39-10.31,11.48C810,358.48,820,348.85,821.52,345ZM290.93,303.46c-1.19.3-2.3.54-3.11-.86-1.32-2.3-2.74-4.56-4.18-6.79-1.7-2.64-3.47-5.24-5.21-7.85-.25,5.17,2.09,9.48,3.23,14.3a78.08,78.08,0,0,1-8.9-5.27,5.22,5.22,0,0,1-1.72-2.14c-.78-1.81-1.35-3.7-2.06-5.7l1.75-1.59a96.09,96.09,0,0,1-14.08-30.93,9.67,9.67,0,0,1-1,1.74c-1.58,1.56,0,4.64-2.72,5.61.28,1.68.56,3.36.89,5.36.69-.79,1.08-1.24,1.38-1.57,5.63,7.86,9.19,16.78,13.59,25.41-.38.63-.83,1.4-1.28,2.16,2.37,4.23,6.22,6.75,9.72,9.6,1.38,1.13,2.52,2.65,4.84,2.17a3.84,3.84,0,0,1,3,1.62,86.42,86.42,0,0,1,5.76,10.45c1.22,2.75,1.44,5.95,2.69,8.68A54.34,54.34,0,0,0,303.86,343a6.53,6.53,0,0,0,2.09.87c-.4-5.42-5.82-8.25-5.83-13.78a10.92,10.92,0,0,1,5.89,5.42,22,22,0,0,0,2,3.44c3.3,4,6.71,7.89,10.28,12.06l4.18-2.23c-6.74-3.95-11.27-9.41-15.57-14.95-3.33-4.29-5.93-9.14-8.77-13.8a25,25,0,0,1-2.19-4.65c-.49-1.37.19-2.28,1.8-2.47,1.16,1.93,2.35,3.82,3.46,5.76a47.19,47.19,0,0,0,3.13,5.57c1.26,1.63,1.4,4.19,4.2,5.6a14.43,14.43,0,0,0-.59-3.4c-1.39-2.87-2.93-5.67-4.4-8.49-2-3.91-4.66-7.57-5-12.35-3,1-2.27,3.29-2,5.29l-2.3.86c-2.2-2.56-4-5-3.42-8.43,1.16-.41,1.16-.41.3-1.94Zm362.49,33.28c.26.25.51.51.76.77a18.66,18.66,0,0,0,3.31-1.94c3.27-3,6.51-6,9.59-9.11a24.64,24.64,0,0,0,2.68-4.27c1.33-2.13,2.3-4.65,4.08-6.32a79,79,0,0,0,11.66-14.69,29.51,29.51,0,0,1,8.67-8.61c5.84-3.89,9.3-9.7,12.75-15.53.55-.94,1.05-1.93-.76-2.77l-8,11.53a2.65,2.65,0,0,1,.29-2c3.52-6.12,7.2-12.15,10.5-18.38a15,15,0,0,0,1.81-7.15,6.5,6.5,0,0,1,1.59-4.67c2.26-2.8,4.53-5.59,6.73-8.44a12.07,12.07,0,0,0,1.46-2.75c.12-.28-.16-.72-.32-1.35l-1.64.83-2.2-2.38a70.83,70.83,0,0,0-2.31,8.2c-.36,2.36-1.79,3.86-3.31,5.26s-3,2.85-5.31,1.54A47.47,47.47,0,0,1,697.54,271c-3.6,5-7.62,9.62-11.2,14.6-2.53,3.52-5,6.85-9.69,7.1-.57-2.93-3-3.34-5.31-4.37-4.24,4.8-5.06,11.12-8.76,16.64l5.93-.62a20.11,20.11,0,0,1,0,2.34,36.4,36.4,0,0,1-5.67,14.85c-2.33,3.57-4.71,7.12-7,10.73C654.9,333.66,654.21,335.23,653.42,336.74ZM392,174.91c.41.16.88.37,1.35.55,4.3,1.68,6.31,1,9-2.88a30.47,30.47,0,0,1,2.67-4c.93-1,2.26-2.24,3.42-2.25,2.27,0,5.2-1.24,6.54,2.08a1.78,1.78,0,0,0,1.36.71c2.49.13,5.16.66,7-1.6a3.88,3.88,0,0,1,4.31-1.32c3,.81,5.95,1.82,9.36,2.89.76-1.1,2.73-2.12,1.33-5.11-2.44,2.46-4.64.92-6.7-.19-1.9-1-5.18.43-5.55-2.52-1.94-.18-3.77-.84-5.27-.41-5.92,1.74-10.89.23-15.34-3.73a13.31,13.31,0,0,0-2.4-2.08c-.85-.43-2.42-.91-2.83-.5-2.42,2.36-5.34,1.51-7.77,1.45l-2.81,5.55c.37,1.1.79,2.63,1.39,4.09a3,3,0,0,1-.81,3.65c-2.66,2.14-5.33,4.24-9.22,3.69-1.73-.25-4.22-.22-5.28.81-2.27,2.17-3.76.95-6.18-1.27.39,3.15.64,5.2.89,7.25l-2.22,2.68c-1.66-4.23-1.66-4.23-3.83-4.38,2.11,8.26,4.2,16.4,6.29,24.55,2.34-.46,2.23-1.85,1.82-3.41-.69-2.58-1.42-5.15-2-7.76-.32-1.45-.66-3.05.82-4.26,1.24,1.36.61,3.65,2.83,4.44,1.05-2.42,2.07-4.74,3-6.94l2.6.39c.48-1.59.91-3,1.26-4.13l5.15-2.45,1.39,1.44,1.4,1.44C389.6,177.24,389.6,177.24,392,174.91ZM831,305.67c-5.78-6.71-12-5.75-14.61,2a12.09,12.09,0,0,1-5.17,6.86,11.86,11.86,0,0,0-2.72,2.32c-3,3.43-5.6,7.16-8.79,10.36q-11,11.06-22.49,21.66c-2.68,2.47-6,4.25-9.23,6.48.67.47,1.06.94,1.53,1,4.13.91,8.23,1.14,12-1.37,3.32-2.23,6.69-4.41,9.79-6.92,10.53-8.53,19.38-18.73,28.43-28.74,2.82-3.11,5.1-6.5,5.9-10.94l2.78,1ZM618.8,328.3l14.91-16.71c2.48,3.78-1.89,6.08-1.82,9.14l5.19.48c1.4-2.93,1.26-6.52,4.85-7.55,1.15-9.58,2.24-19,3.46-28.38a19.33,19.33,0,0,1,1.62-5.69c3.06-6.51,6.34-12.91,9.45-19.4,2.92-6.06,3.94-12.56,4-19.3a116.91,116.91,0,0,1-7,20.09l-2-1.86c-.6.9-1.06,1.5-1.44,2.16-3.18,5.4-6.25,10.86-9.54,16.18-1.54,2.49-3.67,4.6-5.18,7.09-1.37,2.24-3.09,4.49-2.92,7.63l2.93-1.58c-.66,3.31-1,6.09-1.81,8.76a12.34,12.34,0,0,1-2.44,4.07c-4.82,5.87-9.76,11.65-14.58,17.52a12.88,12.88,0,0,0-1.38,2.95c4.18-1.71,5.67-6,9.2-8.07-1,2-2.21,3.72-3.21,5.6S617.62,324.49,618.8,328.3Zm33.36-143.5c-.78-2.2,1.27-4.39-.95-6.73a25.56,25.56,0,0,0-1.12,3.1c-.75,3.65-1.31,7.35-2.16,11-1.32,5.66-4,10.31-10,12.22l-2.15-2.11c-1.84,4-3.37,7.87-5.36,11.47-1.66,3-3.45,6.2-6,8.45a8.21,8.21,0,0,0-2.92,6l5.4,1.15c2.87-6.64,5.57-12.89,8.28-19.14-.25,9.21-4.39,16.94-8.88,25,.9-.1,1.55,0,1.81-.22,2.07-2.06,4.15-4.13,6.08-6.33s3.51-4.71,6.58-6a5.93,5.93,0,0,0,3.34-6.29c-.54-3.13.53-5.44,2.13-7.81,6.3-9.33,11.77-19.07,14.5-30.12a22.91,22.91,0,0,0,.26-2.63c-4,2.52-3.7,6.73-5.68,10-.32-1.9,1.22-3.53-.87-5.19Zm87.21,164.38a25.74,25.74,0,0,1,2.75-2.82,16.51,16.51,0,0,1,3.15-1.71,151.28,151.28,0,0,0,29.21-18c1.31-1,3-2.61,3-4,0-2.08,1.12-2.66,2.37-3.63a27.61,27.61,0,0,0,4.68-4.28c1.61-2,2.15-4.29-.11-6.24l1.46-4.5-.84-.59-2.82,2.41c-1.08.94-2,2.49-3.25,2.7-1.83.3-2.74,1.41-3.87,2.51-5,4.81-9.21,10.44-15.82,13.32-.91.39-1.49,1.51-2.22,2.29l.5.47,2.35-.8a161.68,161.68,0,0,0-24.62,21ZM562.93,290.44l.91.34q4.75-16.54,9.5-33.1l1,.22c.26,10.5-3.3,20.39-5.71,31a7.22,7.22,0,0,0,3-5.14q2.42-12,4.75-23.93c.79-4,1.81-8.1,2.19-12.2.85-9.3,1.32-18.63,2.06-27.94.19-2.36-.65-3.67-3-4.33-2.56,5.66-4.86,11.13-5.58,17.22-.6,5-1.71,10-2.64,15C568,255,565.59,262.27,566.56,270a13.19,13.19,0,0,1-.46,4C565.07,279.48,564,285,562.93,290.44Zm-390.1,57.71c2.22,3.18,4.34,5.9,6.13,8.82,3.54,5.79,7.19,11.56,10.27,17.6,2.47,4.84,5.53,9.21,9.74,12.39,4.88,3.69,10.34,6.61,15.61,9.77a13.37,13.37,0,0,0,3.26,1c1.18-3.62,1.19-3.64-1.27-5-1.27-.72-2.65-1.25-3.89-2-3.92-2.47-8.15-4.67-10.91-8.52q-5.24-7.32-9.9-15a8.89,8.89,0,0,1-1.18-7.28l2.38,1.64c-3.19-9.87-8.06-18.46-9.72-28.17-.4-2.32-1.52-4.51-2.32-6.75,0-.08-.22-.13-.34-.13a2.74,2.74,0,0,0-.62.12c-.64,4.51-1.76,9.07,2.16,13,.54.54,1,2.11.64,2.48-1.64,1.85-.12,3.13.41,4.69,2,5.78,6.54,11.13,3.07,17.88-3.14-4.62-6.28-9.21-9.42-13.82C176,349.32,175.26,347.6,172.83,348.15Zm288.8-106.87a4.46,4.46,0,0,0-2.44,4.3,129.57,129.57,0,0,1-1.49,24.72c-1.32,9,.1,18.09.56,27.13,0,.23.26.45.47.81,1.75.48,3,.22,3.26-2,.27-2.79.56-5.58.9-8.36,1.2-9.92,2.34-19.83,3.8-29.72C467.56,252.26,468,245.72,461.63,241.28ZM858.94,360.84a42.31,42.31,0,0,0-4.54.32c-1.48.27-2.92.8-4.5,1.25.52-5.67,1.81-7.53-2.48-12.52l-2.28,1.78c-.2-3.21-2.66-1.5-4.29-1.88-.06-1.06.25-2.42-.21-2.76-2.14-1.6-.86-3.48-.56-5.23-6.82-1.37-16.88,3.65-19.69,9.84a22.91,22.91,0,0,0,10.49,1.29c2.42-.17,3.48.36,4,2.56.07.33.51.57.85.94l3.09-.6,1.57,2.59c-.94,2.07-3.31,3.26-2.44,6,3.53.93,5.36-3.1,8.72-3.11a11.8,11.8,0,0,0-.65,2.51c0,.85,0,2.06.47,2.48a3,3,0,0,0,2.52,0c1.46-.61,2.76-1.61,4.19-2.32s2.81-1.54,4.71-.33l-2.39,5.52A9.1,9.1,0,0,0,858.94,360.84ZM595.65,131l-1.46,15.47c1.65.54,2.07-.46,2.46-1.5.66-1.74,1.39-3.46,2-5.22.81-2.52,2.65-3,5.14-2.89-.37,2.43-3.52,3.09-3.15,6.39,2.25-2.15,4-3.87,5.63-5.39,2.75.39,5.34.42,7.7,1.17,3.13,1,4.71-1.9,8-2.87-1.34,3.24-.43,5.47,1.49,7.24a4.29,4.29,0,0,1,1.38,4.55c-.22,1,.24,2.22.52,4.23l6.84-5c.16,1.63.27,2.83.41,4.32,2.47-1.41,2.24-3.48,2.11-5.43-.14-2.13-1.31-2.75-3.23-1.72-1.22.66-2.33,1.52-3.25,2.12-.7-2.28-1.33-4.22-1.89-6.18s-1.22-4.18-1.67-6.31-1.31-2.76-3.23-1.58c-1.55.94-3,2.06-4.65,3.21-.86-6.48-4.24-8.71-9.25-6.5-.83-.43-1.66-.83-2.47-1.29s-1.75-1-2.59-1.57C599.4,130.17,599.25,130.28,595.65,131ZM452.28,291l1.05-.12c.12-.63.24-1.26.35-1.9a111.51,111.51,0,0,0,1.21-25.09c0-.89-.25-2.31.2-2.61,1.73-1.14,1.12-2.72.76-3.92a31.58,31.58,0,0,1-1.19-9.85c0-1.61.07-3.49-2.14-4.52a40.24,40.24,0,0,1-2.62,6.2,5.92,5.92,0,0,0-.77,4.5c.73,5,1.56,9.91,1.94,14.9.46,6.09.48,12.22.74,18.33C451.87,288.3,452.12,289.66,452.28,291Zm308,19.58-2.22-7c-1.22,2.16-2,3.72-3,5.2s-2.11,3-3.17,4.5c.86-3.41,3.26-6.31,1.42-10.05a14.39,14.39,0,0,0-1.93,3.42c-.83,1.8-1.56,3.66-2.56,5.37A32.87,32.87,0,0,1,741,321.4c-1.29,1-2.42,2.17-.72,4.1l2.88-1.24c3.17-1.38,5.13-5,9.13-4.91.18,0,.39-.33.57-.53ZM177.52,387.42c.33-3.14-3.44-4.5-2.86-8,3.66,5.14,6.34,10.69,13.18,13.05-1.86-2.46-3.79-4.14-4.55-6.24a54,54,0,0,0-4.06-8.84,15.2,15.2,0,0,0-7.19-6.72c-.43,2.25-2.71,3.61-1.87,6.31,1,3,1.5,6.15,2.11,8.77C174.1,386.32,175.59,386.8,177.52,387.42Zm477.06-171.5.89.62c1.93-.82,2.65-2.72,3.51-4.45,3.54-7.12,7.09-14.23,10.57-21.38a52.07,52.07,0,0,0,4.78-18.45c.09-1.09.45-2.42-1.65-3-.28,1.26-.58,2.34-.78,3.45-.6,3.39-.62,7-1.86,10.14-3.13,7.91-6.73,15.63-10.3,23.35C658.21,209.55,656.31,212.69,654.58,215.92ZM442.93,305.31l.66-.07c-.47-9.8-.84-19.61-1.46-29.4-.14-2.13-1.14-4.21-1.8-6.53-3.42,3-3.43,3-2.88,6.27.77,4.59,1.51,9.18,2.36,13.75C440.8,294.67,441.88,300,442.93,305.31Zm-287.87,17-1.2.21c-.11,1.15-.53,2.38-.27,3.44,2.15,8.82,3.35,18,8.83,25.67a5.44,5.44,0,0,1,.54,1.48c1.59,4.51,3.16,9,4.76,13.53a15.91,15.91,0,0,0,.8,1.6,2.19,2.19,0,0,0,.58-2c-1.79-5.25-3.3-10.64-5.56-15.69a88.79,88.79,0,0,1-6.4-20.84A73.51,73.51,0,0,0,155.06,322.34ZM549.58,133.77c-4.25,2.38-6.41,5.53-6,10.26.14,1.83-.43,3.7-.41,5.55a59.49,59.49,0,0,0,.65,5.95C550.61,148.91,549.73,141.38,549.58,133.77ZM353.07,178.88h-1a31.21,31.21,0,0,0,.49,5.75c1.22,4.49,2.74,8.89,4.12,13.34.89,2.88,2.41,5.18,5.46,6.11C362,200.42,355.93,183.61,353.07,178.88Zm182.68-39.17c-5.52,1.08-7.9,2.84-10,7.2,2.1.65,4.41,1,6.25,2.05s3.18,3,5.16,4.9A61.28,61.28,0,0,0,535.75,139.71Zm52.34-8.6-8.11.79c-.46,1.78-.54,3,.55,4.38a17.24,17.24,0,0,1,2.18,4.6c.45,1.18.68,2.45,1.07,3.92C586.85,141.11,587.9,137.76,588.09,131.11ZM708.83,353.22c9.85-2.77,23.89-15.65,24.75-21.53-3.9,3.74-7.71,7.7-11.84,11.29S713.15,349.82,708.83,353.22Zm-50.2-59.62c-1.69,5.25-1.89,7.67-.74,11.66,3.35-5.74,8.36-9.93,9.27-16.81-.77.15-1.15.11-1.25.26-1,1.66-2,3.36-3.18,5.27ZM312.71,329.38l.72-.23c0-.38.22-.83.08-1.13-2.18-5-4.36-10-6.63-14.93-1.44-3.14-3-6.21-4.52-9.32-.75-1.51-1.56-2.84-3.42-1.51,2.32,4.71,4.5,9.25,6.78,13.74S310.38,324.92,312.71,329.38ZM261.87,235c3.73.63,4.78-.44,3.72-3.47-.17-.48-.77-1.06-.64-1.33,1.39-2.84-1.11-5-1.36-7.52-.13-1.33-1.32-2.55-2.18-4.07-1.22,1.69-2.1,2.93-3.17,4.43l5,4.67C262.78,230,262.35,232.34,261.87,235Zm259.67-72.44c-.37,2.16-.79,4.65-1.33,7.8,1.38-.29,2.73-.18,3.35-.81s.45-1.91.38-2.9c0-.71-.74-1.4-.72-2.09.08-4-1.29-7.43-3.6-10.94-1.09,1.56-2,2.8-3,4.26Zm32.51-31.3c.23,3.16.43,6,.64,8.87l4.84.45c.74-2.7,1.58-5.32.79-8.21ZM354.19,196c-.68-2.29-1.49-4.52-2-6.83-1-4.33-2.81-8.68-.13-13.09.16-.26-.37-.94-.93-2.27a17.13,17.13,0,0,0-.75,2.62c-.28,4.5-.56,9-.72,13.51a17.84,17.84,0,0,0,.47,3.9C350.54,196,351.86,196.65,354.19,196ZM805.91,355.28c4.3-4.42,8-9.95,8.85-13.37-4.42,3.16-7.49,7.11-11.09,10.8ZM590.52,140.89a14.49,14.49,0,0,0,4.08-10.95l-5.26,1.56C589.75,134.72,590.14,137.81,590.52,140.89ZM436.26,303c.57-5.32-.64-10.41-2.1-15.45-.1-.33-1-.44-1.91-.82C434,292.44,433.48,298,436.26,303ZM316.61,225.78l1,.15c.35-.77,1.19-1.73,1-2.28a53.36,53.36,0,0,0-5.68-11.18C312,218.1,314.64,221.82,316.61,225.78ZM308,223.56a14.92,14.92,0,0,0-.5-10.41c-.56-1.51-1.47-2.13-3.35-.74C306,215.74,303.68,220.47,308,223.56Zm579,136.78c-3.09,1.5-1.68,4.89-3.13,7.15s-2.62,4.91-3.9,7.39l.92.41C885.93,371.64,885.64,365.65,886.93,360.34ZM578.53,132.43c-3.19,0-3.15,0-3.63,1.75-.87,3.14,0,5.95,1.88,9.59C577.44,139.52,578,136.17,578.53,132.43ZM429.17,305.83c2.61-3.87,1-13.93-2.35-16.44.71,3.15,1.48,5.76,1.86,8.43S429,303.16,429.17,305.83Zm246.67-86.21c3.93-6.42,5.69-13.17,4.58-16.36Q678.13,211.46,675.84,219.62ZM808.06,345l-.52-.69-14,10.8.54.72A53.59,53.59,0,0,0,808.06,345Zm22.75-23.72c-3.51,1.16-4.48,2.18-3.93,3.85s1.71,1.71,5.4,0C831.83,324,831.37,322.76,830.81,321.31ZM613.7,339.5c2.7-3.19,5.86-5.91,7.22-10-2.61,2.09-5,4.34-7.38,6.64C612.56,337.08,612.34,338.14,613.7,339.5Zm93-122.68c2.38.07,3.55-1,3.57-2.61,0-1.26-.2-2.5-1.89-2.46s-3.3,1.74-3,3.13A5.66,5.66,0,0,0,706.67,216.82ZM425.79,306.39c.55-4.09-.11-7-3.09-9.6C423.49,303.66,423.52,303.77,425.79,306.39Zm348-16.53.68.82c1.72-1.16,3.84-2,5-3.57s3.8-2.46,3.36-5.74ZM740,226.81c-.42-.39-1-1.48-1.91-1.69-1.49-.38-3.57,1.53-3.54,3a2.14,2.14,0,0,0,2.25,2.23C738.53,230.44,739.79,229.33,740,226.81Zm-518.82,121c2.21,3.82,3.87,8,7.25,11.06C226.68,354.81,225.17,350.54,221.22,347.85ZM467,279.58l-1.1-.08-1.53,16.28C464.66,290.31,467.21,285.11,467,279.58ZM851.14,400.3c2,.34,3.54-.7,3.49-2.22a2.86,2.86,0,0,0-1.15-2.13c-1.17-.6-3.35,1.08-3.28,2.51C850.24,399.19,850.91,399.88,851.14,400.3Zm-543-94.05c.44,4.17,4.26,9.32,7.21,10.46C312.86,313.11,310.5,309.68,308.14,306.25Zm563.42,79.66c2.72-1.78,5.16-3.75,5.81-7.18C875.09,380.85,872.3,382.52,871.56,385.91Zm-75.47-28.43c-4.67.71-6,1.49-7.46,4.2C792.12,361.5,793,361.05,796.09,357.48ZM519.74,151.81c-.24-1-.47-2-.68-2.89-3.85.05-4.09.42-3.29,4.08ZM315.51,205l-2.94,1.58c.8,2.23,1.69,4.1,3.61,5.39ZM435.06,326.66h1c.41-3,1.22-6-.13-9.11Zm447.07-4.5c0-2.68-1.37-3.59-2.92-4-.17,1.75-.33,3.31-.43,4.86,0,.17.33.37.65.68ZM831.2,337.5c2.62-1.51,5.25-3,6-6.26C833.82,332,832.65,334.9,831.2,337.5ZM260.66,213.29l-3.2,1.82c.48.67.84,1.56,1.49,1.94s1.61.22,2.79.33C261.39,216,261.13,215.06,260.66,213.29ZM725.71,193.9c-.22-1.88-.13-4-3-3.81C722.15,192.74,723.82,193.42,725.71,193.9ZM817.4,335.46l.72.52c3.17-2.79,3.21-2.86,4.14-6.58C820.41,331.72,818.91,333.59,817.4,335.46ZM842,311.92a25.23,25.23,0,0,0,2.47-2.66c.1-.14-.89-1.36-1-1.3a23.85,23.85,0,0,0-2.85,1.64ZM577.94,147.07c3.06-.42,3.13-.76,1.5-6.27C578.88,143.13,578.46,144.88,577.94,147.07Zm141.5,53.65c1.54,1.2,2.84.9,3.74-.82a1.69,1.69,0,0,0-.54-1.57c-1.46-.58-2.47.21-3.16,1.48C719.37,200,719.45,200.31,719.44,200.72Zm-72.36,141.6a18.77,18.77,0,0,0-6.2,6A9.49,9.49,0,0,0,647.08,342.32ZM322.38,220l1-.19c.76-2.23-.61-3.74-2.48-5.12Zm398.19,55.16c2.51-.95,3.12-2.55,3.59-4.81C721.68,271.2,721.14,272.84,720.57,275.12ZM494.43,151.28c-1.14-.89-1.78-1.77-2.26-1.69a3.48,3.48,0,0,0-1.85,1.49c-.13.17.6,1.38.89,1.36A14,14,0,0,0,494.43,151.28Zm-67,164.35c.12,2.3.23,4.61.35,6.91C429.56,320.15,428.71,317.88,427.47,315.63Zm224.64-91.84c2.35-2.44,2.35-2.44,2-5.46ZM595.17,120c-.69.86-1.32,1.36-1.49,2-.08.32.66.86,1,1.29.51-.49,1.2-.9,1.47-1.51C596.31,121.42,595.67,120.78,595.17,120Zm273,263.65c-1-.64-1.61-1.3-1.91-1.18a9.68,9.68,0,0,0-2,1.5c.43.4,1,1.2,1.27,1.13A11.89,11.89,0,0,0,868.15,383.6ZM454.7,294.2l1.36-.06c-.11-1.67-.23-3.35-.34-5l-.84,0ZM765,306.82c-1.83-.7-2.51.22-3.13,1.72C763.85,309.46,764.56,308.61,765,306.82Zm131.86,44.41-1.35,3C897.58,353.7,898.18,353,896.87,351.23ZM393.57,132.14c-1.54-.12-2.25.57-1.86,2.1a1.41,1.41,0,0,0,1.28.46C394.22,134.18,394.38,133.26,393.57,132.14Zm171.11-12.43c-.81-.44-1.46-1-1.74-.9a3,3,0,0,0-1.29,1.52c-.07.17.92,1.1,1.13,1A8.7,8.7,0,0,0,564.68,119.71Zm21-7.06c-.53.8-1,1.25-1.11,1.77-.05.29.57.7.88,1,.37-.42.9-.79,1-1.27C586.58,113.89,586.1,113.41,585.68,112.65ZM294.13,214.46l-.83.66,2.57,2.92C295.74,216.47,295.77,214.85,294.13,214.46ZM569.56,114c.09-.44.18-.88.26-1.31-1.05-.69-2.41.16-3.72.74ZM218.73,354l.37-.34-2.28-2.73-.51.46Zm653.59-29.82c-.19-.33-.38-.66-.58-1a16.38,16.38,0,0,0-1.74,1.09c-.07.06.28.65.43,1Zm-680,65.26.61-.55-2.21-1.66c-.11.14-.21.28-.31.43Zm66.25-99.91.65-.34c-.26-.86-.51-1.72-.77-2.58l-.44.11C258.22,287.67,258.41,288.6,258.59,289.54Zm96.21-84.76-1,.61c.6,1.14,1.19,2.28,1.79,3.41l.86-.44C355.92,207.17,355.36,206,354.8,204.78Zm307.65,98.77-1-.65-1.87,2.93.9.58C661.16,305.46,661.81,304.51,662.45,303.55Zm125.39-56.06-.33.74,1.56.35c0-.19.14-.52.09-.54C788.74,247.83,788.28,247.66,787.84,247.49ZM225.78,260l.37-1-1.93-.48-.24.65ZM589.11,116.51c.54-.87.91-1.48,1.26-2.11,0,0-.43-.39-.62-.36C588.61,114.25,588.11,114.82,589.11,116.51ZM735,329.06c-.09.3-.19.6-.29.9l1.56.57a4.54,4.54,0,0,0,.25-.89A13.23,13.23,0,0,0,735,329.06Zm-633.7,36.07-.7-.07c-.15.21-.47.47-.42.63a5.23,5.23,0,0,0,.59,1.12C100.94,366.25,101.11,365.69,101.29,365.13Zm574-142.46-.77-.26-.74,2.1.79.27Zm-6.66-70.83-.64.4a4.37,4.37,0,0,0,.55.78,1.17,1.17,0,0,0,.53-.32A5.38,5.38,0,0,0,668.61,151.84ZM560.53,129.23c.48.41.89.87,1,.82a2.7,2.7,0,0,0,.89-1c.05-.08-.49-.69-.66-.65A4.55,4.55,0,0,0,560.53,129.23ZM162.74,357.79l.34-.14-.63-1.6-.46.2ZM863.65,393.6c.24.19.48.38.71.58l1.27-1.8-.49-.37Z"/><path class="cls-1" d="M424.26,427.15c1.68-2.53,4-2.25,6.31-1.81,4.2.79,8.4,1.63,12.61,2.3,2.24.36,3.65,1.33,4.13,3.63a10,10,0,0,0,1.16,2.23l5.19-2c.21,1.72.4,3.13.54,4.55.53,5.32,1,10.63,1.54,16,.2,2,.48,4.14-2.36,4.67,1.15,2.6,2.12,4.74,3,6.91a12.38,12.38,0,0,1,.14,9.38,8.53,8.53,0,0,0-.5,4.28c1.75,8.61,3.68,17.19,5.6,26l3.61-.27a30.4,30.4,0,0,0,.52-11.28c-1-8.88-2.19-17.73-3.13-26.62a43.85,43.85,0,0,1-.07-9.58,23.12,23.12,0,0,0-.61-8.3c-1.17-4.76-1.31-9.51.62-14.17,1.5-3.62,3.63-6.21,8-5.77a19.72,19.72,0,0,0,2.87-.11c2,1.71-.66,5.95,4,6,.5-3.45,1-6.7,1.48-10.18a32.47,32.47,0,0,1,11.14,1.82c1.43.45,2.65,2.19,3.55,3.61,1.48,2.33,2.62,4.88,4,7.55l3.44-1.37c-.12-2.94-.24-5.7-.39-9.21l10.49,5.84c1.34-2.31,2.53-4.36,3.91-6.72,2,3.51,5,3.24,8.12,2.73,5.4-.88,10.87-1.31,16.25-2.28a5.52,5.52,0,0,1,5.87,2.4c4.91,6.32,6.72,13.57,4.39,21.13-2,6.34-1.43,12.71-1.54,19,0,2.82,1.63,5.77,1.74,8.85a63.81,63.81,0,0,0,1.23,11.07l3.26-34.72h.35c-.46,13.16-1,26.32-1.37,39.48-.35,11,2.15,21.47,6.31,31.58.09.22.37.35.72.65,1-2.87,2-5.64,2.82-8.47a4.37,4.37,0,0,0-.48-2.29c-.79-2.27-1.68-4.51-2.48-6.77A79.75,79.75,0,0,1,555.86,471c.74-6.64,1.71-13.25,2.4-19.89a78,78,0,0,0,.08-7.95c0-5.34-.09-10.69,0-16a2.8,2.8,0,0,1,1.09-2.2,2.86,2.86,0,0,1,2.36.81c2.74,2.74,5.35,5.61,8,8.43l2.45,2.63c1.74-.74,2.45-1.71,1.53-3.45-2-3.73-1.49-7.47-.08-11.24,1.16-3.11,2.25-6.23,3.54-9.79L594.47,429l3.66-8.43,10.52,10c2-.3,2.35-1.28,1.86-2.9-1.29-4.36-2.44-8.75-3.72-13.11-.47-1.6-.61-2.91,1.69-3.41l9.08,12c5.48-2.35,2.33-7.53,4.22-11.12,4,1.23,5.84,6.36,10.87,6.24.33-1.31.68-2.69,1.05-4.17l4.12-1.24c.23-7.26,5.14-11.49,11.17-14.52,7-3.54,14.26-6.62,21.69-10,2,3.15,3.83,6,5.64,8.81l.77-.33-.33-8c3-1.24,5.26-.77,7.3,1.12,2.44,2.27,4.85,4.58,7.28,6.87s4.55,3.34,7.84,1.52c2.91-1.62,6-1,8.59,1.23,1.71,1.49,3.21,3.2,4.82,4.8,1.23,1.22,2.48,2.41,3.81,3.72,2.44-1.35,4.19-4.74,7.25-3.36,2.43,1.1,4.36,3.31,6.62,5.12,0-1.11-.07-2.34-.11-3.73,4.45-.08,8.19,1.6,11.78,3.69,5,2.93,9,7.08,12.81,11.42a14.84,14.84,0,0,0,7.54,4.93c4.23,1.14,8.37,2.58,12.62,3.92,2.16-4.21,5.77-3.46,9-3.49a6.28,6.28,0,0,1,3.46.9c5,3.53,11.14,4.2,16.66,6.42a25.28,25.28,0,0,0,6.59,1.38,4.42,4.42,0,0,1,3.9,2.91q8.21,18.19,16.51,36.33A24.9,24.9,0,0,1,833,479.8c-2.82-3-4.29-6.71-6-10.29a108.53,108.53,0,0,0-5.64-10.57c.62,4.62,1.3,9.2,3.49,13.31,2.37,4.48,5,8.84,7.68,13.14a6.6,6.6,0,0,0,3.07,2.26c2.7,1.09,4.49,2.76,4.92,5.76a18.82,18.82,0,0,0,.93,2.6c.19.63.55,1.45.31,1.92-1.51,2.92-2.61,6.11-5.52,8.13-3.92,2.73-8.13,5.2-11.53,8.5-2.9,2.82-6.3,2.44-9.58,3.09-.62.12-1.65-.78-2.18-1.45a31.31,31.31,0,0,1-2.56-4c-.57-1-1.12-1.84-2.66-1.27l-.27,2.94c-3.84,1.86-4.36,4.14-1.74,7.42.62.79,1.18,1.62,2.21,3-4.1-.88-7.18-2-9.09-5q-4.81-7.61-9.41-15.38a8.46,8.46,0,0,1-.87-7,5.18,5.18,0,0,0-.76-4.47,87.19,87.19,0,0,1-4-8.67c-1.56-3.68-3-7.41-4.51-11.11-2.59.25-2.59.25-2.41,4.92-1.58-3.68-1.65-7.94-3.72-11.42l-.92.2c.16,2.69-.15,5.52.56,8.06,2.43,8.6,5.16,17.11,7.92,25.61a19.52,19.52,0,0,0,2.45,4,15,15,0,0,1,1.67,2.69q4.28,12.29,8.4,24.64a11.67,11.67,0,0,1,.28,2.56c-4,1.91-7.12-1.13-11.06-1.47-.66,1.76-1.3,3.59-2,5.37-.45,1.09-.8,2.42-1.63,3.1-2.68,2.17-5.56,4.08-8.47,6.17l-4.79-5-2.36,8.62a7,7,0,0,1-6.3-4.14c-1.27-2.49-2.15-5.17-3.17-7.78s-1.75-5-4.55-7.34a22.13,22.13,0,0,0,.47,2.49c1.26,3.64,3.19,7.18,3.71,10.91.86,6.27.18,12.62-3.26,18.16-2.23,3.59-5.88,5.76-9.7,7.48-2.33,1-4.75,1.9-7.35,2.93l2,3.56a8.62,8.62,0,0,1-5.77,4.37,28.92,28.92,0,0,0-9.28,4.3c-2.84,2-6.54,2.93-9.95,4.06-.79.27-1.93-.51-2.81-.78a4.61,4.61,0,0,0-.75.66c-.93,1.5-.85,3.62-3.24,4.18-2.65.62-5.21,1.21-7.82,0-1-.44-1.93-.85-3.06-1.35-2.63,3.62-5.25,7.22-7.92,10.91L679,600.59c-2.32,2-2.32,2-1.47,6.28l-5.78,2.86c-1.77-.87-3.1-4.37-6.42-1.5l3.53,4.52-3.17,2.07c-2.29-.64-3.37-4.24-6.62-2,.46,1.22,1,2.51,1.62,4.26a17.3,17.3,0,0,1-4.05,1.3c-4.06.24-7.66,2.06-11.5,3a47.71,47.71,0,0,1-23.14.13c-3,.48-5.56,1-8.14,1.28a31.89,31.89,0,0,1-4.79.23,4.55,4.55,0,0,0-3.81,1.72c-3.25,3.65-7.58,5.45-12.29,6.14-1.86.27-3.85-.39-6.47-.72a7.52,7.52,0,0,1-2.13.8c-4.76.66-9.52,1.3-14.29,1.73a24.93,24.93,0,0,1-7.57-.05c-4.51-1-8.73-.12-13,.91a10.52,10.52,0,0,1-3.11.61,3,3,0,0,1-2-1.35c-1.32-2.26-1.69-2.35-3.23-.16-1.28,1.81-2.47,3.3-5,4a10.53,10.53,0,0,1-10.31-2.42c-1.91-1.72-3.38-1.51-5.58-.49l2.27,4c-1.82.79-3.07.47-3.69-1.5s-1.13-4.12-1.88-6.11a35,35,0,0,0-2.06-4c-3.28,1.9-6.41,3.19-8.84,5.3-1.49,1.28-1.92,3.81-3.12,6.42a3.14,3.14,0,0,0-1.68.53c-3.1,2.42-6.3,1.63-9.34.23a6.68,6.68,0,0,0-7.16.43A11.94,11.94,0,0,1,483,640c-4.17,1.88-5,1.33-5.22-3.7-3.91-.13-7.87-.3-11.83-.39-5.07-.11-10.15-.22-15.22-.18a66.12,66.12,0,0,0-7.95.58c-3.09.41-3.78,0-4.22-3.11-.4-2.77-.4-2.77-3-4.09-1.59,2-.4,4.33-.63,6.66-2.34-.1-3.36-1.8-4.36-3.21-1.45-2.06-3-2.69-5.44-1.73-4.91,2-9.39.9-13.52-2.25-2.43-1.86-5-3.57-7.34-5.27-.49.15-.88.15-1,.32-2,3.74-5.36,3.88-9,3.55-5.32-.49-10.66-.86-16-1.41a27,27,0,0,1-12.83-5.28c-4.59-3.26-9.11-6.58-14.9-7.38-.35,0-.65-.43-1.51-1l2-20.92-1-.13c-2.08,2.87-.9,6.45-1.67,9.62s-1,6.77-1.49,10.25c-5.41-3-6.38-7.59-3.84-17-2.6-1.21-3.14-1.18-3.89,1s-1.05,4.13-1.56,6.2c-.38,1.54-.78,3.07-1.24,4.86-4.9-1.83-9.48-3.63-14.12-5.23-2.19-.75-2.87-2.1-2.57-4.26.27-2,.46-4,.61-6a14,14,0,0,0-.21-2.22l-.86-.07q-.66,4.79-1.33,9.58c-4.38-1.06-6.75-5-6.26-9.64.74-6.91,1.33-13.85,1.69-20.81a103.87,103.87,0,0,0-3.3,25.34l-15.63-4.47c-.63-2.51.81-6-2-8.78l-2.27,1.29c-.23-.27-.67-.53-.71-.85a40.84,40.84,0,0,1-.54-5.92c.1-4.24.27-8.5.72-12.72.22-2.09,1.19-4.09,1.69-6.16.37-1.5.88-3.12-1.13-4.62-3.42,4.3-4.34,9.39-5.36,14.35s-1.64,10.26-2.51,15.84c-3.19-.47-5-2.88-7-4.75-.94-.88.33-2.63,2.64-3.72-1.61-2.41-2.08-5.87-6.46-5.66-.16,1.14-.33,2.24-.46,3.18l-6.71,1.33c-1.62-2.49-3.44-5-5-7.73-.58-1-.29-2.51-.71-3.68-.95-2.61-2.05-5.17-3.17-7.72-1.91-4.36-1.29-8.83-.69-13.32.24-1.8.23-3.64.37-6l-4.68,2.12c.46,1.06,1.24,2,1.23,3q0,6.6-.46,13.18c-.07,1-1,1.89-1.58,3l1.92,1.21,1.2-1.71,6.55,15.63-6.47-4.22c2.41-4.43-2.1-5.51-3.8-8.56l-1.52,2.19a25.06,25.06,0,0,1-2.09-1.67c-.66-.66-1.06-1.73-1.83-2.1-4.54-2.21-6.34-6.65-8.78-10.55a16.39,16.39,0,0,1-1.14-3.28c.22.12.11,0,0,0-5.73-.78-10.42-3.69-15.43-6.44-7.43-4.09-13.85-9.42-20.79-14.09-2.62-1.76-3.64-4.32-4.44-6.8-1.93-5.92-4.47-9.58-9.67-13.92-1.72-1.43-3.2-3.17-5-4.44s-4.49-.2-6.2-2.12c-.31-.36-1.27-.08-1.87-.27-1.29-.4-2.55-.92-4.18-1.53,3.09-4.23,7-7.26,7.76-12.61-2.28,2.16-4.17,4-6.14,5.78-2.92,2.62-3.06,2.6-7.12.34,2.65-4.8,6.83-8.89,7.81-15.25l-5.9,7.48c-1.87-1.87-3.26-3.69-5-5-2.74-1.93-2.63-4.17-1.74-6.95,1.74-5.38,3.26-10.83,4.92-16.43-2.09-.17-2.33,1.23-2.73,2.45-1.42,4.44-2.83,8.9-4.27,13.34-.69,2.13-1.43,4.24-2.35,6.93-1.3-2.71-3.18-3.08-5.65-2.85-3.22.3-4-1.19-2.42-4.07,1.93-3.47,4.13-6.81,5.93-10.34a21.64,21.64,0,0,0,1.83-6c.34-2,1.34-3.36,3.16-3.67,4-.68,8.05-1.12,12.09-1.53,1.74-.18,3.4-.15,4.7-1.69a2.69,2.69,0,0,1,3.64-.55,6.38,6.38,0,0,0,6.36.56,5.11,5.11,0,0,1,2.36,0c2.35.2,4.7.43,7.41.69-.25,1.14-.51,2.33-.78,3.51l.45.16a28,28,0,0,1,1.71-3.37c1.67-2.45,3.76-2.66,6.1-.89a8.14,8.14,0,0,1,3.51,6.73,31.22,31.22,0,0,1-1,10.64,13.9,13.9,0,0,0-.37,4.78c.06,1,.41,2.59,1,2.85,3,1.24,2.15,3.58,2,5.74s-.39,4.21-.37,6.34a121,121,0,0,0,6.05-30.33c.06-1.07.15-2.14.26-3.2.38-3.39,1.65-6.13,5.06-7.54a9.67,9.67,0,0,0,4.49-3.75c2.28-3.37,5.94-4.83,9.79-5.74,1.82-.44,3.65-.82,5.42-1.39,3.49-1.12,6.92-.55,10.24.5,1.94.61,3.52.46,4.68-1.07,2.08-2.72,4.93-2.79,7.93-2.79,1.7,0,3.4-.45,5.1-.48,2.42,0,3.47-1.56,4.38-3.45,1.26-2.59,3-4.78,5.84-5.75,1.08-.37,2.63-.77,3.44-.28,3.79,2.3,7.83.14,11.71.88,1.38.26,3.16-1.18,4.66-2,2.84-1.6,5.72-2.79,9.11-2.4a7.24,7.24,0,0,0,3.05-.72c1.62-.58,3.2-1.29,5.28-2.15-.32,1.5-.54,2.56-.79,3.73a2.84,2.84,0,0,0,1.1.09c16.06-5.6,32.24-5.05,48.46-.9,2.58.67,5,.81,6.87-.37l7,3.76c-1.32,1.24-2.59,2.36-3.77,3.56-4.17,4.2-6.43,9.48-8.19,15a118.7,118.7,0,0,0-3.6,13.13c-.35,1.77-2.4,1.8-2.42,3.62a23.14,23.14,0,0,1-.9,5.52c-.51,1.9-1.34,3.72-2,5.6a3.5,3.5,0,0,0-.26,1.94c1.12,3.69-.39,7.09-1,10.6-.44,2.63-1.89,5.43,1.39,7.57.65.43.36,2.3.51,3.58-1.81.07-3-2.06-4.65.07.68,3.26,3.73,5.11,5.63,7.71s3.8,4.95,5.71,7.42l.74-.35a10.65,10.65,0,0,0-.45-2.44c-.65-1.46-1.53-2.82-2.23-4.26a4.11,4.11,0,0,1-.65-2.23c.5-2.55,1.22-5.06,2.08-8.48.24,2.75.4,4.7.57,6.64l.69-.06c.05-4.45.14-8.91.13-13.36s-.13-9-.2-13.67c1.53,0,2.54-.62,2.49-2.28a10.26,10.26,0,0,1,2-6c1.13-1.76,2.48-3.66-.08-5.6-.41-.31-.11-2,.26-2.84,3.15-7.22,6.38-14.4,9.6-21.58.93-2.07,1.94-4.11,2.86-6.18.83-1.87,2.25-2.81,4.16-2.08,4.12,1.58,9,1.92,11.46,6.46,1.34,2.45,3.94,1.73,6.26,2.17l.71,3.42,3.48-.74c2.09,1.18,1.61,2.91,1.43,4.66-.49,4.88-.87,9.78-1.3,14.67l1,.2,3.62-10.93,1.91,1.7c.76-2,1.51-4,2.26-6l1,.25c-.59,5.88-2.74,11.59-2.58,17.54l.92.19c2.26-8.72,4.52-17.44,6.74-26C422,420.89,422.9,421.78,424.26,427.15Zm170.36,77c.91-3,.88-3.06-1.2-5.4l1.23,5.38c.72,1.59,1.45,3.17,2.51,5.48C597.27,506.62,596.93,504.82,594.62,504.1ZM470.19,467.27a8.55,8.55,0,0,0-.78-7c.28,2.3.55,4.6.83,6.91.47,2.84.95,5.68,1.42,8.52C471.78,472.79,472.42,469.72,470.19,467.27Zm-195,46.58c-1.22-1.36-1.22-1.36-2.87-.06l3,0c-1.23,1.07-3.31,1.5-3.2,3.94C275.46,516.5,275.46,516.5,275.23,513.85Zm388.18-53c-1.84-2.14-2.79-5-5.23-6.69A33.56,33.56,0,0,0,662,461c.12.17.86-.1,1.31-.17-1.62,2.11.74,3.65.8,5.54-3.39-3.72-4.84-4-9.52-1.59.49.93.95,1.88,1.48,2.79,3,5,5.91,10.08,8.92,15.1a9.42,9.42,0,0,0,2.34,3.12c3.41,2.27,7,4.3,10.59,6.48l4.2-3.25c-.27-.63-.33-1.1-.6-1.33-1.88-1.6-2.37-3.44-2.08-6,.2-1.65-.74-3.59-1.6-5.16-1.15-2.09-2.78-3.9-4.07-5.93a61.41,61.41,0,0,1-3.1-5.55c-.83-1.65-1.25-3.55-2.28-5-4.1-5.91-8.35-11.71-12.58-17.53a13,13,0,0,0-1.56-1.58C657.3,447.59,660.36,454.22,663.41,460.86Zm-426.5,45.62c1.3-2.22,1.3-2.22-1-3.1.46,1.27.79,2.16,1.11,3,.14.5.22,1.41.43,1.44,2.59.37,3,2.63,3.78,4.1,1.47.61,3.6,1.22,3.55,1.52-.34,2.35,1.83,1.6,2.69,2.23s2.25.42,3.83.64c.26,2.65.54,5.52.83,8.57.33-2.09.52-4.07,1-6a2.44,2.44,0,0,1,1.72-1.25c.44-.08,1.23.5,1.49,1a12.49,12.49,0,0,1,.78,2.64l7,.66.18-.5-4.68-2.36c.13-1.3.22-2.62.38-3.93.47-3.94,1.08-7.87,1.43-11.83.78-9,1.46-18,2.1-27a54.75,54.75,0,0,0-.14-5.72l-1-.24-5.95,8.12-1.3-1-4.56,2.67,1.34,3c-2,3.16-2.55,6.08-2,10.52.15,1.13.64,2.31-.93,3-.33-1.87-.63-3.59-.93-5.31l-.76-.05-2,3.2c-1.07-2.39-1.07-2.39-.35-4.21,1.4-3.55,1.4-3.55-1.88-6.37-.92,1.69-1.82,3.34-2.72,5a6.31,6.31,0,0,1,.65,1c1.27,3.59,2.74,7.12,3.71,10.78.79,3-1.09,5-4.34,5.26C239.27,506.22,238.08,506.37,236.91,506.48ZM273.2,485c-2,1.61-3.85,3.1-5.47,4.42a25.07,25.07,0,0,0,4.07,2.95,17.78,17.78,0,0,0,5.23,1.41,9.81,9.81,0,0,0,3.11-.57c2.6,8.45,4.25,16.84,6.72,24.46l6.5.61c-.47,2.3-1.22,4.24-1.14,6.16.07,1.77-1.69,3.74.47,5.78.72-2.4,1.46-4.4,1.89-6.47s2.3-3.74,1.41-6.18c-.14-.39.92-1.58,1.64-1.88,1.94-.79,2.48-2,1.39-3.7s-.38-3.06.3-4.45c.57-1.19,1.47-2.22,2.14-3.37,1.43-2.46,1.66-4.84-.22-7.3a7,7,0,0,1-1.48-3.6c-.14-2.85-1.69-4.73-3.76-6.25a8.78,8.78,0,0,1-3-5c-.82-2.63-1.84-5.2-2.8-7.79-.32-.86-1.07-1.72-1-2.53a100.44,100.44,0,0,1,1.5-12.52c1.27-5.93,1.48-5.89-3.5-9.25a40.41,40.41,0,0,0,.11-5.16c-.14-1.49,2.08-3.06-.22-4.74-.45.66-1,1.14-1.14,1.71-.57,2.86-2.45,5-4,7.25-1.87,2.72-3.86,5.38-5.47,8.24a35.12,35.12,0,0,0-2.13,6c2.07,4.17,2.5,8.15-.13,12.61C272.7,478.34,270.12,481.41,273.2,485Zm97-22.88c-.35,3.71-.71,7.14-1,10.58s-1.11,6.8,1,10a61.46,61.46,0,0,0,2-9.21c.58-4.21.9-8.46,1.49-12.67.24-1.7.48-3.56,2.56-5,.22,7.14,1.67,13.72.58,20.39a3.17,3.17,0,0,0,1.26,3.21c.31-6.82.56-13.6.25-20.34-.3-6.41-.46-12.7,1.34-19,.87-3,.78-6.32,1-9.5.05-.64-.4-1.32-.89-2.82a40.1,40.1,0,0,0-3,4.5c-2.16,4.73-4.32,9.47-6.21,14.31a99.21,99.21,0,0,0-3.78,11.75C366.2,461.1,366.73,461.48,370.21,462.12ZM774,528.88c.46-1.35,1.23-2.44,1.09-3.41-.69-4.87-1.36-9.76-2.53-14.53-1.41-5.81-3.31-11.51-5-17.25-1.92-6.52-3.8-13.05-5.75-19.55a10.17,10.17,0,0,0-4.33-5.87c3.08,17.87,6.28,34.92,12.93,51.77l-2.93-2C769,522,769.4,526.42,774,528.88Zm-36-7c.08-3.4.31-6.57.18-9.72-.21-5.17-.59-10.34-1-15.5-.82-10.12-2-20.18-6.41-29.51a14.35,14.35,0,0,0-2.39-2.88l-.85.38A36.51,36.51,0,0,0,729,477.07c1.44,5.68,3.22,11.32,4.08,17.09,1.22,8.17,1.75,16.44,2.55,24.66C735.72,520.13,735.5,521.6,738,521.91ZM801.09,459c-.36,1.25-.66,1.71-.54,2,2.42,5.28,4.54,10.75,7.45,15.77,4.08,7,8.76,13.7,15,19-1.22,3.16-.38,7.27,2.33,10.48l4.61-5.06c-5.44-6.41-11.36-12.39-16.06-19.22S805.62,467.24,801.09,459ZM355,506.12c2,4.48,4.1,8.35,5.45,12.46,2.82,8.59,5.26,17.31,7.83,26a7.88,7.88,0,0,1,.14,1.54l1.21-.78a15.64,15.64,0,0,0-.19-1.81c-.65-3-1.29-6-2-9-1.16-4.64-2.13-9.36-3.67-13.87a141.87,141.87,0,0,1-3.93-14.82c-.24-1.1-.5-2.2-.93-4.11Zm204.84,30.56.65-.41c-2.89-8.64-6.31-17.14-8.52-25.95s-3.26-18-4.68-26.22c-1.68,9.82.35,20.1,3.37,30.27,1,3.32,2.11,6.59,3.29,9.84,1.38,3.75,2.85,7.48,4.38,11.18C558.53,535.94,559.3,536.26,559.82,536.68Zm-93,18.09c-1.18,4.82-.19,9.78-1.46,14.85l1.9-.74c.75,7.19,1.45,14.34,2.25,21.48a89.53,89.53,0,0,0,1.42,9.07,28.84,28.84,0,0,0,2,4.81C471.77,587.57,468.42,571.33,466.87,554.77Zm-198.47-132c-2.22,2.75-6.19,14.66-6.33,17.41,0,.26,0,.53,0,.79-.16,1.56-.28,3.12-.51,4.67-.32,2.22-.72,4.43-1.09,6.64a74.27,74.27,0,0,1-1.52,8.47c-.75,2.51-.89,2.76,2.19,4.64.47-3.7.95-7.22,1.36-10.75.8-7,1.09-14,2.9-20.82C266.37,430.12,267.4,426.44,268.4,422.76Zm178.25,35.88a49.35,49.35,0,0,0,1.05,32.45c.05-3.66-.39-7.3-.61-10.94s-.24-7.16-.25-10.74S448.18,462.21,446.65,458.64ZM236.91,513.71l-3.68-3.6c-2.42,5.44-1.41,10.23,1.4,14.84.06.09.45,0,.9-.05.05-1.11.1-2.24.14-3.28,1.74-.84,4.23,0,5-3a20.09,20.09,0,0,1-2.22.59,14.51,14.51,0,0,1-1.81.09C234.57,516.1,234.57,516.1,236.91,513.71Zm299,.66-.88-.23c-1.77,5.19-1.53,10.75-2.35,16.1-.44,2.89-1,6,.87,9.19Zm24.46,12.22-1.21.61a154.62,154.62,0,0,0,11.13,22.58l.92-.45Q565.75,538,560.33,526.59ZM228.6,496c-1.91-.14-2.75-2.55-5.23-1.44,2.75,2.25,1.24,4.61.52,6.77,2.89,2.67,2.89,2.67,5.27.85C228.37,500.34,226.19,498.55,228.6,496ZM755,491.52l-1,0c.17,1.93-.13,4.06.6,5.75,1.74,4.07,4,7.95,6,11.9l.77-.35Q758.16,500.16,755,491.52Zm-3.39-21.64c.77,7.54,2.95,14.14,5.43,20.67C756.7,483.73,753.73,472,751.61,469.88Zm-27.67,4.9c-.83,1.05-1.52,1.52-1.5,2C722.6,482,724,487,725.26,492l1-.17C725.56,486.43,724.81,481.06,723.94,474.78Zm-2.09-25.87c.47,1.56,1,3.12,1.4,4.69s.7,3.1,1.09,4.64c.65,2.61.66,2.61,2.6,3.56C726.09,454.21,725.72,453.17,721.85,448.91ZM326.42,600.49l1.33.27c.74-5.64,1.48-11.28,2.33-17.68C326.13,588.88,327.42,594.9,326.42,600.49ZM178.15,445.62l-1-.51a64.35,64.35,0,0,0-3.11,7c-.79,2.48-3.69,4.23-2.45,7.43C173.84,455,177.09,450.79,178.15,445.62Zm22,44.1c-1,2.69-2,5.44-3.06,8.2l.78.39,2.65-4.12L204.1,496c-.12-1.57-.22-2.86-.31-4ZM544.19,519c-.28,3.87,3.07,11.37,6.18,13.09C547.65,527.67,547.45,522.87,544.19,519ZM214.28,477.41l1,.77c.82-.61,2.28-1.15,2.35-1.83.13-1.46-.52-2.94-2.6-4C214.76,474.29,214.52,475.85,214.28,477.41Zm254.21,59.86c-1.9,3.17-2,6.46-.44,8.91A20,20,0,0,0,468.49,537.27Zm328.24-91.9c-.36,3.94.93,7.63,3,9.14C799.88,451,798.46,448.11,796.73,445.37ZM645,434.57c.31,3.53,3.42,8.06,7.3,10.53ZM195.56,487c-3.95,7-4.66,9.15-3.66,12.26A46,46,0,0,0,195.56,487Zm34.23-25.88c.25,1.68.47,3.14.69,4.64,3.83-.33,1.06-3.64,2.58-4.89a3.75,3.75,0,0,0-.37-.78Zm497.34,41.13c1.11-3.11.55-6.11-1.54-8.11A13.18,13.18,0,0,0,727.13,502.22ZM345.8,574.36c1.95,3.07,2.26,3.17,6.52,2.34C350.3,575.28,348.89,573.29,345.8,574.36Zm4.38-52.7c-1-1-1.76-2.24-2.29-2.15a2.86,2.86,0,0,0-1.95,1.93c0,.65,1.07,1.64,1.89,2C348.2,523.56,349.07,522.52,350.18,521.66Zm-120.7-28.43,2.5,4.09,3.16-.05C234,494.24,232,493.58,229.48,493.23Zm-14.17,27c-.22-2.33-.22-2.33,1.09-4.54l-5,.51Zm61.7-8.57.78.13q1.24-1.81,2.51-3.62l-.44-.76c-1,.23-2.65.19-2.94.78C276.47,509.14,276.94,510.5,277,511.68Zm-72.27-31.06c-.79,3.17-1.44,5.77-2.29,9.16C204.67,486.73,206.17,484.35,204.74,480.62ZM464.31,585.85l.57.06,1.27-13.48-.57-.06ZM218.18,496.73c-.6-.76-1-1.72-1.46-1.74s-1.58.8-1.55,1.2c0,.7.73,1.36,1.15,2Zm221.5-35.28c-1.89,3.65-2,4.69-1.08,7.75C439,466.58,439.32,464,439.68,461.45Zm20.57,115.24c-2,4.12-1.89,6.19-.07,9.19C460.21,582.62,460.23,579.65,460.25,576.69ZM273.87,500.93l-.89-1.08-2.48,1.74a10.54,10.54,0,0,0,.87,1.1C272.23,502.16,273,501.54,273.87,500.93Zm177.51-29.74.7,0,.09-9.32h-.55Zm-11.8-36.87c.73-1.26,1.43-1.94,1.44-2.63,0-.52-1.07-1.57-1.33-1.48-.72.27-1.65,1-1.75,1.58S438.74,433.1,439.58,434.32ZM207,503.1c2-2,2.48-3.53.55-5.92Zm6.58-21.25c2.77.55,2.77.55,3.85-1.94ZM221.47,457c-.48,2.38.67,3.31,2.13,4l.9-.76Zm-.26-12.94c-2,1.08-2,1.08-.63,3.25a20.22,20.22,0,0,0,.83-2.2C221.49,444.84,221.29,444.47,221.21,444.09Zm-1.38,77.51c1.08,2.48,1.09,2.46,3.38,2.07Zm525.08.74c-.74,2.42.56,3.49,1.57,5.16C747.89,524.9,746.13,524,744.91,522.34ZM269,517.22l-1,0c-.67,1-.89,1.86,1,3C269,518.93,269,518.07,269,517.22Zm-82.37-62.39.6.2c.49-1.49,1-3,1.49-4.47l-.5-.17Zm77.4-.11.92.07.27-2.89-.69-.08C264.38,452.79,264.22,453.76,264.05,454.72Zm-54,24.81,1.41-.11c-.14-.9-.27-1.8-.41-2.7l-1.11.11C210,477.73,210,478.63,210,479.53Zm.87,26.23c1.54-1.09,1.23-2.16.45-3.27-.07-.1-.43,0-.72,0C210.72,503.48,210.8,504.47,210.91,505.76Zm56.25-60.69-1-.24c-.21,1-.43,2.08-.64,3.13l.81.18ZM600,521.84l.89-.28c-.22-1-.44-2-.67-3l-.81.18C599.56,519.78,599.75,520.81,600,521.84Zm-390.51-56,.89.21c-.06-1.08,1.34-2-.38-3.86C209.73,463.82,209.59,464.85,209.44,465.88Zm-2.77,24.74.71-.11-.33-2.54-.85.15C206.36,489,206.52,489.79,206.67,490.62Zm62.71,3.88c-.32-.63-.4-1.05-.64-1.19a1.11,1.11,0,0,0-1,0c-.16.1-.15.85,0,.89A7.32,7.32,0,0,0,269.38,494.5Zm-79.15,9.35a8.19,8.19,0,0,0,.81-1.93,4.85,4.85,0,0,0-.46-1.54C189,501.3,188.86,502.13,190.23,503.85Zm30.47-2.43-.9-.51c-.29.61-.6,1.21-.85,1.84a2.45,2.45,0,0,0,.6.36C220,502.57,220.32,502,220.7,501.42Zm4.64-52.67c-.55.42-.9.6-.88.68a15.29,15.29,0,0,0,.58,1.46C225.12,450.28,225.21,449.68,225.34,448.75Zm317.33,66.43.45.2c.29-.37.75-.71.83-1.13a4.36,4.36,0,0,0-.23-1.52l-.65,0C542.93,513.57,542.8,514.38,542.67,515.18Zm-7.18-4.78.88.32c.39-.77.8-1.53,1.11-2.33,0-.08-.54-.38-1.15-.81C536,508.67,535.75,509.54,535.49,510.4ZM219,463.35l-.27-.7-2.26.55.14.6Zm10.91,52.92c-.5.44-1,.66-1,.88a1.09,1.09,0,0,0,.58.84c.25.1.64-.17,1-.27C230.33,517.31,230.16,516.89,229.91,516.27Zm-9,10.76a6.25,6.25,0,0,0-1.16-1.07c-.13-.07-.78.48-.75.57a2.84,2.84,0,0,0,.78,1.12C219.85,527.73,220.32,527.35,220.89,527Zm162.22-14.27.06-.62-1.85-.17-.06.62ZM266.89,565.65l.39-.54-1.66-1.17c-.11.16-.21.32-.32.47Zm-45.43-84.89c-.59.62-.93.88-.89,1a7.79,7.79,0,0,0,.7,1Zm376.9,34.61.7-.3c-.22-.63-.45-1.25-.67-1.88l-.64.2C598,514.05,598.16,514.71,598.36,515.37Zm-379.8-45c-.4-.39-.63-.78-.92-.83s-.52.35-.79.55c.24.27.43.66.73.76S218.13,470.55,218.56,470.33Zm75.72.9-1.33-1.3c-.19.26-.56.54-.52.76a1.11,1.11,0,0,0,.64.73C293.37,471.52,293.76,471.33,294.28,471.23Zm-74.18-11.6a8.93,8.93,0,0,0-1.56-.59c-.2,0-.61.18-.62.31a3.56,3.56,0,0,0,.2,1C218.43,460.21,218.75,460.1,220.1,459.63ZM209.81,473.1c.15-.14.41-.27.42-.42s-.21-.34-.34-.51c-.15.14-.41.27-.43.42S209.68,472.93,209.81,473.1Zm87.26,10.21.81.6c.08-.21.25-.43.21-.61a.76.76,0,0,0-.46-.45C297.5,482.82,297.32,483.1,297.07,483.31Zm-16.86,17.62c-.35.36-.77.62-.75.84s.37.62.57.93c.28-.2.77-.39.79-.62S280.5,501.44,280.21,500.93Zm-54.12-45.79-.83-.17c-.09.56-.19,1.13-.28,1.69l.54.12Zm-54.81,6-.89-.53c-.24.69-.49,1.39-.73,2.09l.55.25Zm39.63,9.33.74-.23c-.08-.21-.2-.62-.26-.61a4.72,4.72,0,0,0-.87.3Zm42,3.36-.63.19.3,1.64,1-.32C253.29,474.83,253.08,474.32,252.86,473.82ZM682.1,599.64a6.6,6.6,0,0,0,.58-1,5.29,5.29,0,0,0-.85-.62Z"/><path class="cls-1" d="M859.62,478.43c-4-.83-4.26-5.87-8.53-5.64.11,1.49.2,2.63.34,4.51l-4.75-2.47c.61,2.05-3.47,2.43-1.89,5a64.7,64.7,0,0,0,3.91,5.24l-3,3.44c-7.26-8.86-14.37-17.75-16.11-29.68-.66-4.48-1.78-8.89-2.64-13.35a6.37,6.37,0,0,1-.18-2.76,4.85,4.85,0,0,1,1.54-2.61c2-1.43,7.45.77,7.52,3.19.13,5,2.46,9.26,3.75,13.86.58,2.05,1.61,4,2.21,6,1.05,3.51,3.78,5.21,6.83,7,.68-2.14-.55-3.49-1.16-5.07-2.83-7.36-5.22-14.85-5-22.87.13-3.81,1.27-4.21,5.06-4.37,5.06-.21,8.25,1.66,10.66,6.12s5.59,8.15,6.55,13.56l-3-.57c-1.81,3-1.82,3.9-.11,6.12l2.48,3.23C862.75,470.58,858.65,473.25,859.62,478.43Z"/><path class="cls-1" d="M144.34,449.73c-.88,2.65-1.75,5.3-2.66,7.94-.17.49-.42,1.2-.81,1.33-3.11,1.11-3.63,4.62-6.05,6.41-1.09.8-1.73,2.22-2.62,3.43-3.45-.36-3.45-.36-5.16-2.67l2.76-1.48-1.05-2.3-3.43,1.6c1.35-3.45,2.73-6.08,6.06-8.26-1.46-.13-2.09-.38-2.58-.21-2,.71-4,1.45-5.94,2.34-2.46,1.13-4.77.51-7.31-.05.48-2.12,3.78-1.67,3.19-4.49l-4.89,2.53c-.65-2.32-1.21-4.3-1.73-6.18.76-1.45,3.39-1.56,2.15-4.05l-4.07-.77c-.23-1.2-.48-2.54-.73-3.9a5.87,5.87,0,0,1,1.51-.42q14.94,1.05,29.88,2.16a4.81,4.81,0,0,1,4.35,3c.76,1.68.71,3.07-1,4.15,0-.74,0-1.48-.05-2.41L132,460.05C135.78,459.74,140.88,455.26,144.34,449.73Z"/><path class="cls-1" d="M869.54,431.06a35.77,35.77,0,0,0,.63,21.16c-2.73.35-2.74.36-3.87-1.53a9.76,9.76,0,0,0-1.15-2.09c-4-3.81-3.6-8.91-4.09-13.74a2.82,2.82,0,0,1,2.69-3.33C865.44,431.29,867.17,431.25,869.54,431.06Z"/><path class="cls-1" d="M890.4,445.65c-2.5-3.69-3.11-8.67-4.48-13.36-.56-1.91.89-3.1,2.79-2.47a11.31,11.31,0,0,1,2.4,1.61c1.54-1.51,3.11-3.15,5.93-3.18-.17,1.05-.25,1.92-.45,2.76-.59,2.43-1.14,4.89-1.89,7.27a15.84,15.84,0,0,1-1.67,3.07C892.14,442.85,891.21,444.33,890.4,445.65Z"/><path class="cls-1" d="M85.22,379.74C90,382,91.31,386,92.64,389.85c.23.67-.86,2.15-1.7,2.72-.64.44-1.86,0-2.81,0-.08,0-.13-.26-.23-.3-4-1.91-4.38-5-3.07-8.81A17.7,17.7,0,0,0,85.22,379.74Z"/><path class="cls-1" d="M204.07,465.42q.3-8.16.58-16.31l1.13.05C206.83,454.67,205.77,460.06,204.07,465.42Z"/><path class="cls-1" d="M874.06,459.36l-2.5,1-1.87-5.1C873.09,455.32,873.09,455.32,874.06,459.36Z"/><path class="cls-1" d="M509.23,142.05c2.07,2,2.07,2,1.59,5C508.56,146,508.42,144.44,509.23,142.05Z"/><path class="cls-1" d="M211.85,249.39c.6,1.15,3.32,2,.6,4C211.45,252.1,210.55,251.05,211.85,249.39Z"/><path class="cls-1" d="M119.65,461l4.15-.7C122.82,463,122.82,463,119.65,461Z"/><path class="cls-1" d="M735.79,196.38l-.5,2.39-.6.08c-.19-.48-.56-1-.52-1.44s.5-.84.78-1.25Z"/><path class="cls-1" d="M98.61,358.81l-3.21,1.84c.69-2.11.69-2.11,3.21-1.81Z"/><path class="cls-1" d="M649.18,268.85c-.31,1.4-.28,2.55-.79,3.35-1.88,2.92-3.94,5.74-6.27,9.07C642.21,278,643.52,275.78,649.18,268.85Z"/><path class="cls-1" d="M774.31,316.65c.18,2.58-1.39,3.5-3.7,3.66Z"/><path class="cls-1" d="M144.61,391c.65,2,1,3.25,1.64,5.15C143.76,394.87,143.57,393.59,144.61,391Z"/><path class="cls-1" d="M252,514.76c-1.43-.22-2.55-.2-2.6-.43-.55-2.43-3.18-4.18-2.12-7.18.77-2.19.51-4.6,1.67-6.85a3.24,3.24,0,0,1,3.18-2c-.1,1.07.12,2.27-.35,3-1.1,1.8-.41,3.27,0,5.06C252.26,508.91,252,511.59,252,514.76Z"/><path class="cls-1" d="M255.91,515.26c-1.47.76-2.36.62-2.35-.9s.26-3.11.46-5.26C254.77,511.53,255.34,513.4,255.91,515.26Z"/><path class="cls-1" d="M245.18,510.57l-2.37-.07c0-.27,0-.54-.05-.81l2.33-.26Z"/><path class="cls-1" d="M258.42,484.43c.18-.78.36-1.56.53-2.34l.41.06-.22,2.32Z"/><path class="cls-1" d="M257.25,504.16l-.22,2.41-.38,0,.11-2.42Z"/><path d="M154.31,589.4c-3.52,4-8.56,8.07-12.59,8.07-8.07,0-12.6-6.05-12.6-13.61,0-11.59,15.12-28.22,92.72-28.22,19.66,0,40.82.5,59.47,1.51,33.26-33.26,65-66,107.84-109.35,19.15-19.66,32.75-33.26,43.84-33.26s16.13,5.54,16.13,15.62c0,7.56-7.06,15.62-16.13,27.72-24.69,32.75-43.34,68-63,107.84,0,0,20.66,3.53,26.71,4,14.11,1.51,22.17,4,22.17,12.6,0,6-3,11.59-9.57,11.59-4,0-13.11-2-18.15-3.53a198,198,0,0,0-29.73-6c-15.12,35.78-27.21,77.11-27.21,99.28,0,6.55,2.52,13.61,2.52,21.67,0,4.53-5,10.58-12.6,10.58-8.57,0-18.65-7.56-18.65-23.18,0-23.18,12.6-69,30.24-111.37-18.14-2-31.75-3.53-43.84-4-60.47,56.94-127.5,115.4-181.92,115.4-41.83,0-60-23.18-60-39.81,0-10.58,6.55-18.14,17.13-18.14,12.1,0,13.11,8.57,13.11,16.12,0,10.08,6.55,19.66,25.7,19.66,48.37,0,102.8-48.88,155.21-94.74-12.1-1-27.72-1.51-40.32-1.51C177,574.29,159.35,583.36,154.31,589.4Zm155.22-29.22c11.59.5,23.18,1.51,34.26,3a1009,1009,0,0,1,53.42-94.74C379.07,488.11,342.28,527.92,309.53,560.18Z"/><path d="M398.72,640.81c-9.58-5-19.15-12.1-19.15-24.19,0-27.22,39.81-50.9,62.49-50.9,9.57,0,20.66,8.06,20.66,18.64,0,11.6-7.06,29.74-18.14,29.74-7.06,0-11.09-3.53-11.09-10.59,0-5,5.54-9.07,5.54-13.1,0-2-1.51-3.53-4.53-3.53-6.55,0-29.23,14.11-29.23,26.71,0,4,5,8.07,11.09,11.09,10.58,5.54,25.19,12.6,25.19,31.75,0,17.64-15.62,36.78-45.35,36.78C377.05,693.21,364,680.62,364,668c0-7.56,5-13.1,12.09-13.1,5.54,0,10.58,2.52,10.58,9.57s4.54,11.09,12.6,11.09c9.58,0,16.13-8.07,16.13-16.63C415.35,649.88,406.28,644.84,398.72,640.81Z"/><path d="M500,537a44.54,44.54,0,0,0,13.6-2c17.64-30.74,25.7-47.37,34.77-59.47,8.57-12.09,14.62-18.14,22.18-18.14,9.07,0,12.6,4,12.6,11.59,0,6.55-2,10.59-12.1,18.65-7,5-10.08,12.6-24.19,37.79a103.93,103.93,0,0,1,28.73-4.53c18.64,0,27.71,5,27.71,16.63,0,10.08-8.06,21.67-15.62,21.67-6.05,0-7.56-3-7.56-6,0-2.52,1-4.53,1-7,0-2-4.54-4-10.58-4-10.08,0-26.21,4-39.81,8.57-28.22,49.89-54.93,108.85-54.93,134.55,0,4.54,3.53,9.58,3.53,12.6,0,4.54-4.54,11.59-12.1,11.59-9.07,0-14.11-7.05-14.11-21.16,0-26.71,24.69-84.16,47.37-129-24.19,0-29.73-3.53-29.73-11.59s5-14.62,14.11-14.62C489.93,533,494,537,500,537Z"/><path d="M645.14,569.25c9.57,0,15.11,5.54,15.11,12.6,0,8.56-18.14,30.23-24.19,43.33-5,10.08-9.07,21.17-9.07,28.22,0,5,2,10.59,6.55,10.59,16.63,0,44.85-30.24,63-51.91,6-7.56,12.59-15.62,18.14-15.62,4.53,0,8.06,2.52,8.06,7.56,0,5.54-2.52,9.07-8.57,16.63-24.18,28.72-63,66.52-88.69,66.52-16.63,0-24.69-11.59-24.69-25.7,0-5.55.5-10.59,1-17.64-14.62,14.61-48.88,48.88-71.56,48.88-6.55,0-17.14-9.07-17.14-22.17,0-51.91,58.46-102.3,96.76-102.3,8.06,0,15.62,5,20.66,11.09C632,579.33,637.58,569.25,645.14,569.25ZM540.32,661.47c0,2.52,2,4,4.53,4,7.56,0,69.55-53.92,69.55-63.5,0-5.54-4.54-10.08-11.09-10.08C583.15,591.92,540.32,638.29,540.32,661.47Z"/><path d="M735.33,575.29c0,3.53-4,14.62-8.57,26.21,20.66-21.17,39.31-37.29,52.41-37.29,11.09,0,19.15,6.55,19.15,19.15,0,17.13-4,31.74-18.64,31.74A9.79,9.79,0,0,1,769.6,605c0-4.54,3.53-11.09,3.53-13.61,0-1.51-.51-2.52-3-2.52-6.55,0-38.8,30.74-55.43,54.93-4.54,6.55-10.08,17.64-14.61,28.72-4,10.08-8.57,19.66-11.59,19.66-6.05,0-13.11-5.55-13.11-12.6,0-5.54,7.06-26.21,15.12-44.85,8.57-20.16,15.62-38.8,18.14-47.88,4-13.1,7.56-20.66,15.62-20.66C730.8,566.22,735.33,569.75,735.33,575.29Z"/><path d="M941.94,641.31c4.53,0,8.06,2.52,8.06,7.56,0,5.54-6,11.59-14.11,19.15-13.61,12.6-29.23,19.15-40.82,19.15-16.63,0-24.69-11.59-24.69-25.7,0-5.55.5-10.59,1-17.64-14.62,14.61-48.89,48.88-71.56,48.88-6.55,0-17.14-9.07-17.14-22.17,0-51.91,58.46-102.3,96.76-102.3,8.06,0,15.62,5,20.66,11.09,1.51,0,7.06-10.08,14.61-10.08,9.58,0,15.12,5.54,15.12,12.6,0,8.56-18.14,30.23-24.19,43.33-5,10.08-9.07,21.17-9.07,28.22,0,5,2,10.59,8.07,10.59,5,0,12.09-3.53,19.65-10.08C931.35,647.36,936.39,641.31,941.94,641.31Zm-132,20.16c0,2.52,2,4,4.53,4C822,665.5,884,611.58,884,602c0-5.54-4.53-10.08-11.08-10.08C852.74,591.92,809.91,638.29,809.91,661.47Z"/><path d="M235.06,704.05c7.68,0,21.58.62,31.75,8.72,4.36,3.32,12.45,11.82,12.45,28.63,0,6.85-1.45,18.88-13.7,27.18,19.3,4.78,26.36,21.58,26.36,34.86a38.25,38.25,0,0,1-14.11,29.88c-11,8.72-23.66,9.13-33.2,9.13H210.16V704.05Zm-9.54,60.8h11.62c8.09,0,27.18-1.66,27.18-23,0-22.83-22.41-23.24-26.77-23.24h-12Zm0,63.08h17.64c8.92,0,17.63-.63,24.27-5.81,5.4-4,9.13-10.79,9.13-19.09a22.43,22.43,0,0,0-11.83-20.34c-5.18-2.9-12.44-4.15-23.44-4.15H225.52Z"/><path d="M403.14,820.46a51.49,51.49,0,0,1-10.59,13.9c-7.88,7-17.63,10.58-28.63,10.58-20.75,0-42.54-13.07-42.54-45,0-25.73,15.77-45.64,41.71-45.64,16.81,0,27.39,8.3,32.58,15.77,5.39,7.67,8.5,21,8.09,32.36h-67c.21,17.85,12.45,29.26,27.39,29.26a26.16,26.16,0,0,0,17.63-6.22,34.28,34.28,0,0,0,8.93-11.83ZM388.4,790c-2.49-13.48-12.65-22.4-25.31-22.4s-23,9.54-25.31,22.4Z"/><path d="M502.94,756.34h14.94v86.11H502.94v-12a36.33,36.33,0,0,1-29.46,14.52c-21.79,0-41.92-15.35-41.92-45.65,0-29.67,19.92-45,41.92-45,16.6,0,25.52,9.13,29.46,14.31Zm-56,42.95c0,18.47,10.37,32.37,28.22,32.37,18.26,0,28.63-15.15,28.63-32.16,0-22.2-15.35-32-28.63-32C460.41,767.55,446.92,778.33,446.92,799.29Z"/><path d="M571.42,806.55c0,6,0,13.08,4.14,18.47,2.29,2.91,6.85,6.64,15.15,6.64s12.87-3.73,15.15-6.64c4.15-5.39,4.15-12.45,4.15-18.47V756.34H625v51.87c0,10.59-1,18.47-7.89,25.94-7.67,8.09-17.84,10.79-26.35,10.79s-18.67-2.7-26.35-10.79c-6.85-7.47-7.88-15.35-7.88-25.94V756.34h14.94Z"/><path d="M678.9,770v72.41H664V770h-9.13v-13.7H664V725.22H678.9v31.12h14.94V770Z"/><path d="M751.73,834.36l-39.63-78h17L759.61,818l28-61.63h16.6L740.94,890.17h-16.6Z"/></svg>