<?xml version="1.0" encoding="utf-8"?>
<!-- Generator: Adobe Illustrator 26.3.0, SVG Export Plug-In . SVG Version: 6.00 Build 0)  -->
<svg version="1.1" id="Layer_2_00000103227007390612763160000012188338226264433080_"
	 xmlns="http://www.w3.org/2000/svg" xmlns:xlink="http://www.w3.org/1999/xlink" x="0px" y="0px" viewBox="0 0 1000 1000"
	 style="enable-background:new 0 0 1000 1000;" xml:space="preserve">
<style type="text/css">
	.st0{fill:#8BC53F;}
	.st1{fill:#CCE08E;}
	.st2{enable-background:new    ;}
	.st3{fill:#414143;}
	.st4{fill:#414142;}
	.st5{fill:none;stroke:#8BC53F;stroke-width:4;stroke-miterlimit:10;}
</style>
<path class="st0" d="M797.3,496.5c0,0-170.9,2.7-175.7-105.3c51.3,13,136.1,31.5,178.5,92.3c0-6.1-13.7-140.9-248.2-134.7
	C551.8,357,599.7,580.6,797.3,496.5z"/>
<path class="st0" d="M798,450c0,0-5.5-99.1,42.4-130.6c1.4,3.4,14.4,58.1-34.9,142.2c15.7-11.6,129.9-93,32.8-250.2
	C832.2,221.6,741.2,313.2,798,450z"/>
<path class="st1" d="M809,481.2c0,0,43.2-48.7,110.3-44.8c-4.3,5-36.6,52.5-112.2,56.3c13.3,2.8,92.4,23.9,142.8-65
	C950,427.7,868.9,377.9,809,481.2z"/>
<path class="st0" d="M810.8,498.7c0,0,54.6,20.8,67.8,81.7c-4.5-0.9-34.7-3.6-74.9-71.1c1.3,8.7,19.6,89.8,92.2,90.3
	C895.9,584.1,892.8,517.1,810.8,498.7z"/>
<circle class="st1" cx="688.9" cy="236.8" r="19.2"/>
<circle class="st1" cx="633.5" cy="272.5" r="13.6"/>
<circle class="st1" cx="607.7" cy="321.8" r="10.4"/>
<circle class="st1" cx="764.8" cy="220.4" r="27.6"/>
<g class="st2">
	<path class="st3" d="M61,666.5V558.8h40.4c8.2,0,14.8,1.1,19.8,3.3c5,2.2,8.9,5.5,11.7,10.1c2.8,4.5,4.2,9.3,4.2,14.2
		c0,4.6-1.2,8.9-3.7,13c-2.5,4.1-6.3,7.3-11.3,9.8c6.5,1.9,11.5,5.2,15,9.8c3.5,4.6,5.3,10,5.3,16.3c0,5-1.1,9.7-3.2,14.1
		c-2.1,4.3-4.8,7.7-7.9,10c-3.1,2.3-7.1,4.1-11.8,5.3c-4.7,1.2-10.5,1.8-17.4,1.8H61z M75.3,604.1h23.3c6.3,0,10.8-0.4,13.6-1.2
		c3.6-1.1,6.4-2.9,8.2-5.4c1.8-2.5,2.8-5.6,2.8-9.4c0-3.6-0.9-6.7-2.6-9.4c-1.7-2.7-4.2-4.6-7.3-5.6c-3.2-1-8.6-1.5-16.4-1.5H75.3
		V604.1z M75.3,653.8h26.8c4.6,0,7.8-0.2,9.7-0.5c3.3-0.6,6-1.6,8.2-2.9c2.2-1.4,4-3.4,5.4-6c1.4-2.6,2.1-5.6,2.1-9.1
		c0-4-1-7.5-3.1-10.5c-2.1-3-4.9-5-8.6-6.2c-3.6-1.2-8.9-1.8-15.8-1.8H75.3V653.8z"/>
	<path class="st3" d="M162.2,666.5V558.8h77.9v12.7h-63.6v33H236v12.6h-59.6v36.7h66.1v12.7H162.2z"/>
	<path class="st3" d="M250.4,666.5l41.4-107.7h15.3l44.1,107.7H335l-12.6-32.6h-45l-11.8,32.6H250.4z M281.5,622.3H318l-11.2-29.8
		c-3.4-9.1-6-16.5-7.6-22.3c-1.4,6.9-3.3,13.8-5.8,20.6L281.5,622.3z"/>
	<path class="st3" d="M433.2,558.8h14.2V621c0,10.8-1.2,19.4-3.7,25.8s-6.9,11.5-13.3,15.5c-6.4,4-14.8,6-25.2,6
		c-10.1,0-18.3-1.7-24.8-5.2c-6.4-3.5-11-8.5-13.7-15.1c-2.7-6.6-4.1-15.6-4.1-27v-62.2h14.2V621c0,9.4,0.9,16.2,2.6,20.7
		c1.7,4.4,4.7,7.8,9,10.2c4.2,2.4,9.4,3.6,15.5,3.6c10.5,0,17.9-2.4,22.4-7.1c4.5-4.7,6.7-13.9,6.7-27.4V558.8z"/>
	<path class="st3" d="M498.6,666.5v-95h-35.5v-12.7h85.3v12.7h-35.6v95H498.6z"/>
	<path class="st3" d="M593.4,666.5v-45.6l-41.5-62.1h17.3l21.2,32.5c3.9,6.1,7.6,12.1,10.9,18.2c3.2-5.6,7.1-12,11.8-19l20.9-31.7
		h16.6l-43,62.1v45.6H593.4z"/>
</g>
<g class="st2">
	<path class="st4" d="M62.7,790.2v-58.7h26c5.2,0,9.2,0.5,11.9,1.6c2.7,1.1,4.9,2.9,6.5,5.6c1.6,2.7,2.4,5.6,2.4,8.9
		c0,4.2-1.3,7.7-4,10.5c-2.7,2.9-6.9,4.7-12.5,5.4c2.1,1,3.6,2,4.7,2.9c2.3,2.1,4.4,4.7,6.5,7.8l10.2,16h-9.8L96.9,778
		c-2.3-3.5-4.1-6.2-5.6-8.1c-1.5-1.9-2.8-3.2-3.9-3.9c-1.2-0.7-2.3-1.3-3.5-1.6c-0.9-0.2-2.3-0.3-4.3-0.3h-9v26.1H62.7z M70.5,757.4
		h16.7c3.6,0,6.3-0.4,8.3-1.1c2-0.7,3.5-1.9,4.6-3.5c1-1.6,1.6-3.4,1.6-5.3c0-2.8-1-5.1-3-6.9c-2-1.8-5.2-2.7-9.6-2.7H70.5V757.4z"
		/>
	<path class="st4" d="M122,790.2v-58.7h42.5v6.9h-34.7v18h32.5v6.9h-32.5v20h36.1v6.9H122z"/>
	<path class="st4" d="M191.5,790.2v-51.8h-19.4v-6.9h46.6v6.9h-19.4v51.8H191.5z"/>
	<path class="st4" d="M226.8,790.2v-58.7h26c5.2,0,9.2,0.5,11.9,1.6c2.7,1.1,4.9,2.9,6.5,5.6c1.6,2.7,2.4,5.6,2.4,8.9
		c0,4.2-1.3,7.7-4,10.5c-2.7,2.9-6.9,4.7-12.5,5.4c2.1,1,3.6,2,4.7,2.9c2.3,2.1,4.4,4.7,6.5,7.8l10.2,16h-9.8L261,778
		c-2.3-3.5-4.1-6.2-5.6-8.1c-1.5-1.9-2.8-3.2-3.9-3.9c-1.2-0.7-2.3-1.3-3.5-1.6c-0.9-0.2-2.3-0.3-4.3-0.3h-9v26.1H226.8z
		 M234.6,757.4h16.7c3.6,0,6.3-0.4,8.3-1.1c2-0.7,3.5-1.9,4.6-3.5c1-1.6,1.6-3.4,1.6-5.3c0-2.8-1-5.1-3-6.9c-2-1.8-5.2-2.7-9.6-2.7
		h-18.6V757.4z"/>
	<path class="st4" d="M286.1,790.2v-58.7h42.5v6.9h-34.7v18h32.5v6.9h-32.5v20h36.1v6.9H286.1z"/>
	<path class="st4" d="M334.2,790.2l22.6-58.7h8.4l24,58.7h-8.9l-6.9-17.8h-24.6l-6.5,17.8H334.2z M351.2,766.1h19.9l-6.1-16.3
		c-1.9-4.9-3.3-9-4.2-12.2c-0.7,3.8-1.8,7.5-3.2,11.2L351.2,766.1z"/>
	<path class="st4" d="M404.3,790.2v-51.8h-19.4v-6.9h46.6v6.9H412v51.8H404.3z"/>
</g>
<line class="st5" x1="62.8" y1="695.1" x2="788.4" y2="695.1"/>
</svg>
