<svg id="Layer_2" data-name="Layer 2" xmlns="http://www.w3.org/2000/svg" viewBox="0 0 1000 1000"><defs><style>.cls-1{fill:#8bc53f;}.cls-2{fill:#cce08e;}.cls-3{font-size:150.42px;fill:#414143;}.cls-3,.cls-4{font-family:MesmerizeEl-Regular, Mesmerize;}.cls-4{font-size:82.05px;fill:#414142;}.cls-5{fill:none;stroke:#8bc53f;stroke-miterlimit:10;stroke-width:4px;}</style></defs><path class="cls-1" d="M797.32,496.46S626.38,499.2,621.59,391.17c51.28,13,136.07,31.45,178.46,92.3,0-6.15-13.67-140.85-248.2-134.69C551.85,357,599.71,580.56,797.32,496.46Z"/><path class="cls-1" d="M798,450s-5.47-99.14,42.39-130.6c1.37,3.42,14.36,58.12-34.87,142.22,15.73-11.62,129.91-93,32.82-250.25C832.19,221.6,741.25,313.22,798,450Z"/><path class="cls-2" d="M809,481.22s43.16-48.72,110.35-44.84c-4.27,5-36.57,52.46-112.16,56.34,13.31,2.84,92.39,23.9,142.78-65C950,427.72,868.86,377.85,809,481.22Z"/><path class="cls-1" d="M810.79,498.74s54.58,20.79,67.82,81.65c-4.51-.89-34.69-3.56-74.94-71.13,1.35,8.65,19.57,89.8,92.25,90.32C895.92,584.07,892.82,517.1,810.79,498.74Z"/><circle class="cls-2" cx="688.9" cy="236.82" r="19.25"/><circle class="cls-2" cx="633.47" cy="272.49" r="13.59"/><circle class="cls-2" cx="607.72" cy="321.81" r="10.43"/><circle class="cls-2" cx="764.78" cy="220.36" r="27.63"/><text class="cls-3" transform="translate(50 666.5)">BEAUTY</text><text class="cls-4" transform="translate(56.26 790.2)">RETREAT</text><line class="cls-5" x1="62.78" y1="695.11" x2="788.43" y2="695.11"/></svg>