<?xml version="1.0" encoding="utf-8"?>
<!-- Generator: Adobe Illustrator 26.3.0, SVG Export Plug-In . SVG Version: 6.00 Build 0)  -->
<svg version="1.1" id="Layer_1" xmlns="http://www.w3.org/2000/svg" xmlns:xlink="http://www.w3.org/1999/xlink" x="0px" y="0px"
	 viewBox="0 0 1000 1000" style="enable-background:new 0 0 1000 1000;" xml:space="preserve">
<style type="text/css">
	.st0{display:none;}
	.st1{display:inline;fill:#FFFFFF;}
	.st2{fill:#FFFFFF;}
	.st3{enable-background:new    ;}
</style>
<g id="Layer_1_00000044160893326282256050000005483692956984757131_" class="st0">
	<rect y="0" class="st1" width="1000" height="1000"/>
</g>
<path class="st2" d="M465.7,303.3c1.4,33.1,2.6,66.3,4.2,99.5c1.1,21.1,1.1,42.3-4.4,63c-3.7,13.9-13.2,18.7-26.8,19.4
	c-8.4,0.5-14.1-4.2-16.2-14.1c-1.7-8.5-2.6-17.5-2-26.1c1-14,3.5-28,5.2-42.1c2.3-19.1-6.9-25.7-23.3-24.6
	c-7.3,0.5-11.4,6.8-15,12.7c-7.7,12.8-11.1,27.1-13.5,41.5c-3.6,21.9-3.9,43.9,1.8,65.6c2.6,9.9,6.6,19.2,14,26.8
	c7.9,7.9,17.2,10,27.9,8.6c8.3-1.1,16.8-2.8,25-1.7c15.1,1.9,24.8,12.2,31.2,25.3c11.2,23.1,14.1,47.5,10.7,72.7
	c-0.9,6.6-3.3,8.1-9.3,7.2c-20-2.8-39.4-7.3-58-15c-20-8.2-38.2-19.1-55-32.7c-34.6-27.9-58-63.3-71.4-105.5
	c-8.8-27.9-11.1-56.5-8.5-85.5c2.6-30.1,11.7-58.3,26.1-84.6c12.3-22.4,28.2-42.1,47.6-58.9c22.9-19.8,48.6-34.5,77.3-43.7
	c30.6-9.7,61.9-12.5,94-8.4c36.7,4.6,69.9,17.7,99.8,39.2c25.3,18.1,45.8,40.7,61.6,67.7c14.2,24.5,23.7,50.6,27.5,78.5
	c7.1,52.2-2.7,101.2-30.4,146.2c-23.3,37.8-55.2,65.7-95.5,84.2c-7.7,3.6-15.6,6.1-23.5,9.2c-2.7,1.1-4.6,0.8-6.8-1.9
	c-9.8-12.7-16.4-27.2-22-42.1c-8.1-21.5-13.6-43.5-12.7-66.7c0.5-13.3,3.1-26.1,14-35.4c2.4-2,5.2-4.2,8.1-5
	c27.1-7,42.9-26.6,55.1-49.9c14-26.8,21.5-55.7,24.9-85.5c0.8-6.3,0.5-12.6,0-18.9c-0.6-9.3-12.1-19.3-23.5-21.6
	c-18.1-3.5-29,4.6-32.3,22.9c-5.1,28.5-10.1,57.1-16.4,85.3c-2.3,10.5-7,20.6-11.9,30.2c-3.5,7-9.3,8.4-15.9,6.4
	c-4.1-1.3-6.3-3.9-5.6-7.9c1.8-11.8,3.5-23.6,6.3-35.3c6.8-28.7,15.1-57.1,20.8-86c2.6-13.3,2-27.6,0.5-41.1
	c-2.2-19.4-19.1-30.7-36.8-34c-17.3-3.2-31.8,1.7-42.1,16.6c-4.9,7-4.2,15.4-4.6,23.3c-0.4,7.3-0.1,14.8-0.1,22.1
	C466,303.2,465.9,303.2,465.7,303.3z"/>
<g class="st3">
	<path class="st2" d="M32.6,716.3c9.1,0,16.3,3,21.8,9c5.5,5.9,8.2,13.5,8.2,22.8c0.1,9.1-2.8,16.7-8.6,23s-12.8,9.4-21.1,9.2
		c-3.6,0-7-0.6-10.1-2c-3.2-1.4-5.5-3.1-6.8-5.2v4.4H2.3V700h13.6v23c1.2-1.6,3.6-3.1,6.9-4.5C26.1,717,29.5,716.3,32.6,716.3z
		 M15.8,748.3c0,5.3,1.7,9.7,5.2,13.3s7.2,5.3,11.3,5.3c5,0,9-1.8,12.1-5.6c3.1-3.8,4.6-8.1,4.6-12.8c0-5.3-1.5-9.6-4.5-13.3
		c-3-3.6-7.1-5.4-12.2-5.4c-4.4,0-8.3,1.7-11.5,5.3C17.4,738.5,15.8,742.9,15.8,748.3z"/>
	<path class="st2" d="M87.2,777.2H73.6v-77.5h13.6V777.2z"/>
	<path class="st2" d="M153.2,754.1v23.2h-13.6v-6.4c-1.7,2.9-4.4,5.2-8.2,6.8c-3.9,1.6-7.1,2.5-9.8,2.5c-7.9,0-13.9-2.4-18.2-7
		c-3.5-3.9-5.2-8.3-5.2-13.4c0-5.7,2.2-10.6,6.5-14.7c4.3-4.1,10.4-6.1,18.3-6.1c6.5,0,11.7,0.4,15.7,1.4c-0.4-3.6-1.8-6.4-4.3-8.2
		c-2.5-1.9-5.7-2.8-9.6-2.8c-3.6,0-6.9,0.4-10.2,1.4c-3.5,0.9-5.9,1.8-7.3,3l-5.9-10.9c2.9-1.9,6.8-3.6,11.7-4.7
		c4.7-1.2,8.6-1.8,11.9-1.8c5.9,0,10.6,0.9,14.2,2.7s6.6,4.6,9.1,8.6c1.9,3.1,3.2,6.7,4,10.7C152.9,742.2,153.2,747.5,153.2,754.1z
		 M139.6,751.2c0-0.3-1.6-0.6-4.7-1c-3.1-0.4-6.5-0.6-9.9-0.6c-3.7,0-6.7,0.9-9.2,2.6c-2.5,1.7-3.8,4-3.8,6.7c0.1,2.6,1,4.6,2.6,6
		c1.7,1.5,3.9,2.2,6.7,2.2c6.3,0,10.8-1.6,13.8-4.7C138.1,759.2,139.6,755.5,139.6,751.2z"/>
	<path class="st2" d="M195.6,780.1c-8.6,0.1-16.2-3-22.7-9.4s-9.6-13.9-9.4-22.7c-0.1-8.6,3-16.1,9.4-22.5c6.5-6.5,14-9.6,22.7-9.4
		c10.5,0,18.8,4.4,24.7,13.3l-11.3,7c-3.1-4.4-7.6-6.7-13.1-6.7c-5.3,0-9.7,1.7-13.4,5.3s-5.5,7.9-5.5,13.1c0,5.1,1.8,9.4,5.5,13.1
		c3.7,3.6,8.2,5.4,13.4,5.4c5.5,0,9.8-2.3,13.1-6.7l11.3,7c-2.4,4.2-5.7,7.6-10,9.8C206,778.9,201.1,780.1,195.6,780.1z"/>
	<path class="st2" d="M243.4,742.6l22.5-23.4h16.4l-26.2,28.6l26.2,29.4h-16.4l-22.5-23.9v23.9h-13.6v-77.5h13.6V742.6z"/>
	<path class="st2" d="M317.7,780.1c-8.6,0.1-16.2-3-22.7-9.4s-9.6-13.9-9.4-22.7c-0.1-8.6,3-16.1,9.4-22.5c6.5-6.5,14-9.6,22.7-9.4
		c10.5,0,18.8,4.4,24.7,13.3l-11.3,7c-3.1-4.4-7.6-6.7-13.1-6.7c-5.3,0-9.7,1.7-13.4,5.3c-3.7,3.6-5.5,7.9-5.5,13.1
		c0,5.1,1.8,9.4,5.5,13.1c3.7,3.6,8.2,5.4,13.4,5.4c5.5,0,9.8-2.3,13.1-6.7l11.3,7c-2.4,4.2-5.7,7.6-10,9.8
		C328.1,778.9,323.1,780.1,317.7,780.1z"/>
	<path class="st2" d="M404.1,754.1v23.2h-13.6v-6.4c-1.7,2.9-4.4,5.2-8.2,6.8c-3.9,1.6-7.1,2.5-9.8,2.5c-7.9,0-13.9-2.4-18.2-7
		c-3.5-3.9-5.2-8.3-5.2-13.4c0-5.7,2.2-10.6,6.5-14.7c4.3-4.1,10.4-6.1,18.3-6.1c6.5,0,11.7,0.4,15.7,1.4c-0.4-3.6-1.8-6.4-4.3-8.2
		c-2.5-1.9-5.7-2.8-9.6-2.8c-3.6,0-6.9,0.4-10.2,1.4c-3.5,0.9-5.9,1.8-7.3,3l-5.9-10.9c2.9-1.9,6.8-3.6,11.7-4.7
		c4.7-1.2,8.6-1.8,11.9-1.8c5.9,0,10.6,0.9,14.2,2.7s6.6,4.6,9.1,8.6c1.9,3.1,3.2,6.7,4,10.7C403.7,742.2,404.1,747.5,404.1,754.1z
		 M390.4,751.2c0-0.3-1.6-0.6-4.7-1s-6.5-0.6-9.9-0.6c-3.7,0-6.7,0.9-9.2,2.6c-2.5,1.7-3.8,4-3.8,6.7c0.1,2.6,1,4.6,2.6,6
		c1.7,1.5,3.9,2.2,6.7,2.2c6.3,0,10.8-1.6,13.8-4.7C388.9,759.2,390.4,755.5,390.4,751.2z"/>
	<path class="st2" d="M446.5,780.1c-8.6,0.1-16.2-3-22.7-9.4s-9.6-13.9-9.4-22.7c-0.1-8.6,3-16.1,9.4-22.5c6.5-6.5,14-9.6,22.7-9.4
		c10.5,0,18.8,4.4,24.7,13.3l-11.3,7c-3.1-4.4-7.6-6.7-13.1-6.7c-5.3,0-9.7,1.7-13.4,5.3c-3.7,3.6-5.5,7.9-5.5,13.1
		c0,5.1,1.8,9.4,5.5,13.1c3.7,3.6,8.2,5.4,13.4,5.4c5.5,0,9.8-2.3,13.1-6.7l11.3,7c-2.4,4.2-5.7,7.6-10,9.8
		C456.9,778.9,452,780.1,446.5,780.1z"/>
	<path class="st2" d="M499.7,780.1c-10.1,0-15.2-7.4-15.2-22.3v-26.1h-7.8v-12.6h7.8v-19.4h13.6v19.4H510v12.6h-11.9v26.5
		c0,2.7,0.4,4.6,1.3,5.8s2.2,1.7,4,1.7c1.2,0,3-0.3,5.5-0.9l2.4,12.6C506.7,779.2,502.9,780.1,499.7,780.1z"/>
	<path class="st2" d="M521.9,748.4v-29.2h13.6v30.7c0,5.9,1.1,10.2,3.1,13.2c2.2,2.9,5.8,4.3,11,4.3c4.2,0,7.6-1.4,10.1-4.2
		c2.6-2.8,3.9-6.6,3.9-11.4v-32.7h13.6v58.1h-13.6v-3.8c-1.3,1.8-3.5,3.3-6.4,4.6c-3,1.3-6.1,1.9-9.4,1.9c-9.1,0-15.6-2.5-19.8-7.6
		C524.1,767.5,521.9,759.4,521.9,748.4z"/>
	<path class="st2" d="M612.5,766.5c4,0,7.1-0.5,9.4-1.6c2.3-1.1,3.3-2.6,3.3-4.3c0-1.6-1-2.9-2.9-3.8c-1.9-0.9-5.3-1.7-9.8-2.6
		c-7.8-1.4-13.6-3.6-17.3-6.5s-5.5-7-5.5-12.2c0-5.3,2.3-9.8,6.7-13.6s9.8-5.6,16.3-5.6c5.2,0,9.5,0.8,13.1,2.2
		c3.6,1.5,7.1,3.9,10.6,7.1l-9,9.3c-2.3-1.9-4.4-3.2-6.3-4c-1.8-0.8-4.4-1.1-7.7-1.1c-2.9,0-5.4,0.5-7.3,1.5
		c-1.9,1.1-2.9,2.3-2.9,3.8c0,1.6,0.9,2.9,2.7,3.8c1.8,0.9,4.9,1.6,9.2,2.4c5.3,1,9.3,2,12.1,3.1c3.5,1.2,6.3,3.1,8.4,5.9
		c2.2,2.8,3.2,6.5,3.2,11c0,5.3-2.4,9.7-7.2,13.3c-4.9,3.7-11.1,5.4-19.1,5.4c-4.6,0-9.3-1.1-13.9-3.2c-4.7-2.2-8.4-5-11.2-8.4
		l8.8-9.4c1.6,2,3.9,3.8,6.9,5.2C606.2,765.8,609.3,766.5,612.5,766.5z"/>
</g>
<g class="st3">
	<path class="st2" d="M692.4,722.8v-23.2h20.4v77.5h-20.4v-4.4c-3.3,4.9-8.4,7.3-15.5,7.3c-7.8,0.1-14.6-2.9-20.1-9.2
		c-5.6-6.3-8.3-13.9-8.2-23c0-9.2,2.6-16.7,7.9-22.8c5.3-5.9,12.1-9,20.7-9c3.2,0,6.3,0.6,9.1,1.8C689,719.4,691.1,721,692.4,722.8z
		 M668.8,748.3c0,3.8,1.1,6.9,3.2,9.6s5,4,8.4,4c3.3,0,6.1-1.2,8.4-3.6s3.3-5.7,3.3-10c0-4.4-1.1-7.8-3.1-10.1c-2-2.4-5-3.6-8.6-3.6
		c-3.5,0-6.3,1.2-8.4,3.7C669.9,740.6,668.8,744,668.8,748.3z"/>
	<path class="st2" d="M745.3,713.7h-20.4v-14h20.4V713.7z M745.3,777.2h-20.4v-58.1h20.4V777.2z"/>
	<path class="st2" d="M798.3,719.2h20.4v54.3c0.2,8.6-3.1,16.2-10.1,22.5c-7,6.4-14.9,9.5-23.8,9.3c-9.8,0-19.2-3.2-27.9-9.6
		l9.6-15.4c3.3,2.4,6.1,4,8.6,5s5.5,1.4,9.2,1.4c3.8,0,7-1.2,9.9-3.6s4.3-5.2,4.3-8.4v-1.2c-1.4,2-3.3,3.7-6,5s-5.6,1.8-8.7,1.6
		c-8.8-0.4-16.1-3.6-21.5-9.5s-8.1-13.3-8.1-22.2c-0.1-9.1,2.8-16.7,8.5-23c5.8-6.3,12.7-9.4,20.7-9.2c6.8,0,11.8,2.4,15.1,7.2v-4.2
		L798.3,719.2L798.3,719.2z M798.3,748.2c0-4.3-1.1-7.7-3.3-10c-2.3-2.4-5.1-3.6-8.4-3.6c-3.6,0-6.5,1.3-8.7,3.8
		c-2.4,2.6-3.5,5.8-3.5,9.7s1.2,7.1,3.6,9.7c2.4,2.6,5.3,3.9,8.7,3.9c3.3,0,6.1-1.2,8.4-3.7C797.2,755.6,798.3,752.3,798.3,748.2z"
		/>
	<path class="st2" d="M850.9,713.7h-20.4v-14h20.4V713.7z M850.9,777.2h-20.4v-58.1h20.4V777.2z"/>
	<path class="st2" d="M885.8,780.1c-6.1,0-10.8-1.8-14.1-5.4c-3.3-3.7-5-9.1-5-16.2v-22h-7.8V719h7.8v-19.4H887V719h11.4v17.5H887
		l0.1,18.1c0,2,0.3,3.3,0.9,4.1c0.6,0.8,1.6,1.1,3,1.1c1.3,0,3.2-0.2,5.7-0.8l3.3,18.3C894.6,779.2,889.9,780.1,885.8,780.1z"/>
	<path class="st2" d="M967.7,754.1v23.2h-20.4v-5.8c-1,2.7-2.9,4.7-6,6.4c-2.9,1.6-6,2.4-9.2,2.4c-8.6,0-15.1-2.4-19.6-7
		c-3.5-3.7-5.2-8.2-5.2-13.8c0-5.9,2.3-10.8,6.9-14.8c4.6-4,11.1-5.9,19.3-5.9c4.3,0,8.4,0.4,12.5,1.3c-0.1-1.9-1.3-3.5-3.3-4.6
		c-2-1.2-4.9-1.7-8.3-1.7c-6.4,0-11.9,1.5-16.6,4.5l-7.1-15.2c2.9-1.9,6.9-3.6,12.1-4.7c5.1-1.2,9.3-1.8,12.5-1.8
		c13.5,0,22.5,3.5,27.1,10.4C966,731.8,967.7,741,967.7,754.1z M947.4,754.1c0-0.2-1.2-0.4-3.5-0.6c-2-0.3-4.5-0.4-7.4-0.4
		c-2.5,0-4.5,0.4-6.1,1.3c-1.6,0.9-2.5,2.2-2.6,4c0.1,1.7,0.8,3,2,4c1.3,1,3,1.4,5.2,1.4c3.6,0,6.6-0.9,8.8-2.5
		C946.3,759.5,947.4,757.1,947.4,754.1z"/>
	<path class="st2" d="M1000,777.2h-20.4v-77.5h20.4V777.2z"/>
</g>
<text transform="matrix(1 0 0 1 32.4771 1117.4224)" style="font-family:'BambinoNew-Bold'; font-size:99.7687px;">blackcactus</text>
<text transform="matrix(1 0 0 1 635.0771 1117.4224)" style="font-family:'BambinoNew-Heavy'; font-size:99.7687px;">digital</text>
</svg>
