<svg xmlns="http://www.w3.org/2000/svg" viewBox="0 0 1000 1000"><defs><style>.cls-1{isolation:isolate;}.cls-2{fill:#231f20;}.cls-3{fill:#97bc3d;}.cls-4{opacity:0.35;}.cls-4,.cls-5,.cls-7{mix-blend-mode:multiply;}.cls-6{fill:#899f53;}.cls-7{opacity:0.5;}.cls-8{fill:#f5851f;}.cls-9{fill:#ffc10d;}.cls-10{fill:#5d683c;}</style></defs><g class="cls-1"><g id="Layer_2" data-name="Layer 2"><path class="cls-2" d="M64,477.48c0-4.85-.27-20.82-.4-23.17-.39-7.59-2.48-7.86-8.51-7.86H51.05c-.79,0-1-.26-1-.91v-3.27c0-.66.26-.92,1-.92,2.09,0,8,.39,17.4.39,4.19,0,12-.39,16.63-.39,10.21,0,18.58.92,23.17,3.54,7.46,4.05,10.08,10.07,10.08,17.8,0,12.95-5.76,16.23-16,21.59l.39.26c12.69,4.19,21.2,12,21.2,25.92,0,6.68-4,15.84-10.08,19.64-5.49,3.4-13,4.71-25,4.71-9,0-14.13-.4-19.63-.4-6.54,0-14.27.4-16.75.4-1.57,0-1.84-.27-1.84-.79v-3.4c0-.66.27-.92,1.18-.92h6.28c4.06,0,4.72-1.57,5.24-5.76.39-3,.66-20.29.66-31Zm11.51,5.1a64.37,64.37,0,0,0,6.94.26c7.46,0,13.35-1.17,16.49-3.4,5.37-4.06,7.33-9.95,7.33-15.71,0-5-1.57-10.21-6.41-13.74-4.71-3.27-11.26-4.45-17.93-4.45a21.57,21.57,0,0,0-4.32.13A2.4,2.4,0,0,0,75.78,448c-.13,2.62-.26,14-.26,24.88Zm0,30.63c0,12,2.88,17.41,13.75,17.41s21.07-5.24,21.07-20.81c0-10.61-5.37-17.54-13.09-20.55-5.36-2.1-11.52-2.23-17.54-2.23H75.52Z"/><path class="cls-2" d="M177.47,527.87c-9.3-5.63-19.24-19.77-19.24-38.88A50.85,50.85,0,0,1,170.4,456.4c11.52-14,24.48-16.62,35.47-16.62a44.07,44.07,0,0,1,29.32,10.34,50.44,50.44,0,0,1,17.93,39.14,47.77,47.77,0,0,1-9.81,28.66c-8,10.6-19.64,18.46-37.7,18.46C199.2,536.38,187.81,534.28,177.47,527.87ZM240.3,490.3c0-28.66-20.42-45.55-35-45.55-2,0-10.87-1.57-20.68,7.73-8.77,8.37-13.09,21.59-13.09,32.32,0,34.43,23.95,46.61,35.08,46.61C235.45,531.41,240.3,502,240.3,490.3Z"/><path class="cls-2" d="M296.56,482.84c0-8.11-.26-25.78-.26-27.88,0-6.67-.92-8.51-5.76-8.51h-6.15c-.66,0-.79-.26-.79-1v-3.14c0-.66.39-.92,1-.92,2.62,0,6.8.39,18.32.39,10.21,0,14.92-.39,17.41-.39.92,0,1.31.13,1.31.65v3.41c0,.78-.26,1-1.05,1H314c-4.45,0-5.11,2.23-5.11,7.47,0,1.83-.26,19.11-.26,26.44v2.22c0,.66.39,1.05,1.57,1.05H358.6c2,0,2.62-.26,2.62-2v-1.31c0-7.46-.39-25.66-.39-27.23,0-4.19-.53-6.68-4.32-6.68H349.7c-.66,0-.92-.26-.92-.91v-3.4c0-.53.13-.79.79-.79,2.75,0,8.38.39,17.28.39s14.26-.39,16.75-.39c.92,0,1,.26,1,1v3.14c0,.78-.26.91-1,.91h-5.89c-3.79,0-4.19,2.23-4.19,6.94,0,1.83-.26,23.95-.26,28.8v4.45c0,4.19.26,29.06.39,36.52,0,4.71,1.31,6.54,5.24,6.54h5.76c.91,0,1.17.26,1.17.92v3.14c0,.78-.26,1-1,1-2.49,0-6.94-.4-16.49-.4-11.39,0-15.58.4-19.51.4-.52,0-.78-.4-.78-.92v-3.27c0-.66.26-.92,1-.92h8.25c3.14,0,3.54-2.48,3.54-6,.13-6.15.39-27.23.39-31.94v-1.83c0-1.44-.66-1.57-2.88-1.57H310.43c-1.44,0-1.83.39-1.83,1.31v2.75c0,3.53.13,23.69.26,32.85.13,3.14,1.44,4.45,4.19,4.45h6.41c.79,0,1.05.26,1.05.92v3.27c0,.65-.26.92-1.05.92-2.48,0-7.06-.4-16.49-.4-11.26,0-15.18.4-18.19.4-.66,0-.92-.27-.92-.92v-3.4c0-.53.39-.79.92-.79h7.72c3.27,0,3.67-3.14,3.67-6.28.13-6.15.39-31.54.39-34.95Z"/><path class="cls-2" d="M442.74,484.28c1.05,0,15.05-.52,16.62-.78,3.8-.66,4.85-1.7,6-5.76a31.21,31.21,0,0,0,1-6.42.83.83,0,0,1,.92-.91l3.27.13a.79.79,0,0,1,.79,1c-.4,2.22-.4,13-.4,14.92,0,4.58.53,10.86.79,13.61a.91.91,0,0,1-.79,1.05l-2.88.39c-.65.13-.91-.26-1.05-1.18-.25-1.7-1-4.71-1.43-6.15-.79-2.75-2.23-4.71-5.63-5.1-6.15-.66-15.19-.66-17.28-.66v8.12c0,7.06.26,19.76.26,22.38.13,6.8,3.41,9.42,7.46,10.21a54.53,54.53,0,0,0,9.69.92c2.22,0,8.77-.14,11.52-.4,2.22-.26,8-1.7,11.39-4.58,1.57-1.31,8.9-10.73,10.73-13.74.39-.66.78-1.18,1.57-.79l2.09,1.18c.66.39.66.79.26,1.83l-6.93,19.24a2.78,2.78,0,0,1-2.88,2c-.66,0-3.54-.13-11.39-.27s-20.55-.13-41-.13c-4.84,0-8.51.13-11.12.13s-4.46.27-5.64.27c-.78,0-1.17-.27-1.17-.92v-3.53c0-.53.39-.66,1.31-.66h5.23c6,0,6.55-.91,6.55-5.76V480.09c0-10.86-.26-27.22-.4-28.53-.52-4.19-1.83-5.11-6.67-5.11h-4.71c-.66,0-1.05-.13-1.05-.91V442c0-.39.26-.65.91-.65,2.89,0,7.47.39,16.11.39h5.75c13,0,25.92-.13,38.88-.13,2.09,0,4.58-.26,5.24-.26s.91.26,1,.65l6.68,21.08c.13.52.13.92-.39,1.17l-2,1.05c-.39.26-.91-.13-1-.39-.27-.52-9.95-13-13.09-14.92a20.3,20.3,0,0,0-9.95-3.54l-23.3-.52Z"/><path class="cls-2" d="M582,513.47c1.83-2,14.92-33.24,16-35s15.18-32.59,15.58-35.21c.26-1.44,1.7-1.57,3-1.57,17.41,0,21.85-.39,23.29-.39.66,0,.79.39.79.92v3c0,.79-.13,1.18-1,1.18h-5.76c-3.92,0-4.32,2.36-4.32,5.37,0,3.8-.39,22.51-.39,31.29v9.16c0,6.54.39,27.75.39,30.37,0,5,1.18,7.06,4.46,7.06h7.72c.78,0,.91.4.91.92v3c0,.78-.13,1.18-1.17,1.18-1.58,0-3.93-.4-18.33-.4-12,0-17.15.4-18.85.4-.91,0-1-.4-1-1.18v-3c0-.66.13-.92,1-.92h8.9c2.23,0,3.41-.78,3.67-4.71.13-1.57.26-24.35.26-34v-8.38c0-8.64,0-31.94-.39-33.12h-.26c-1.31,1.71-19.9,42.94-20.55,44.25-.79,1.57-15.32,34.95-15.84,36.12s-1.57,3.14-2.62,3.14c-.79,0-1.44-1-2-2.35l-17.8-43.85c-2.49-6-14.4-35.34-16.24-36.91-.52,1.83-.78,34.94-.78,36.52s-.13,29.18.26,33.77c.65,7.46,1.83,9.55,6,9.55h6.55c.78,0,.91.4.91.92v3.27c0,.52-.13.92-1.18.92-1.44,0-5-.4-15.83-.4-11.13,0-15.71.4-16.89.4s-1.18-.13-1.18-1.18v-3.14a.7.7,0,0,1,.79-.79H527c5,0,6.15-3.4,6.93-7.85,1.57-9.29,2-42.8,2-45.16,0-1.83,0-21.6-.13-25.39-.14-3,0-4.85-5.37-4.85h-8c-.78,0-.91-.39-.91-.91v-3.4c0-.4.13-.79.91-.79,1.31,0,4.85.39,16,.39,6.16,0,9.56-.39,11.13-.39,2,0,2.75.52,3.4,2.23Z"/><path class="cls-2" d="M684.58,479.57c0-3.14-.39-26.7-.52-28.66-.26-3.15-1.57-4.46-6.55-4.46h-7.59c-.65,0-1-.26-1-.78v-3.53c0-.53.39-.79.91-.79,1.57,0,8.25.39,20.42.39,11.65,0,15.84-.39,17.67-.39a.83.83,0,0,1,.92.92v3.27c0,.65-.39.91-1,.91H701.6c-2.62,0-4.58,1.05-4.58,3.67,0,1.31-.4,30.24-.4,31.81V492c0,1.31.4,31.54.4,33,0,4.06,2,4.71,6.15,4.71h5.37c.65,0,1,.26,1,.92V534c0,.52-.39.79-1.17.79-1.58,0-6.81-.4-18.2-.4-12.43,0-18.06.4-19.5.4-.66,0-1.05-.27-1.05-.79v-3.53c0-.53.39-.79,1.05-.79H678c2.61,0,5.36-.39,5.89-3.79.26-2,.65-30.24.65-37.18Z"/><path class="cls-2" d="M763.11,498c-1.31,3.27-8.51,23.17-9.17,25.91-.13.92-.39,2.23-.39,2.88,0,1.84,1.57,2.88,4.45,2.88h6.15c.92,0,1.31.26,1.31.92v3c0,.91-.39,1.18-1.05,1.18-1.83,0-7.2-.4-14.92-.4-9.55,0-12.43.4-14.26.4-.66,0-.92-.27-.92-1v-3.14a.93.93,0,0,1,1.05-.92h4.58c3.92,0,5.75-1.83,7.59-6,.91-2.09,10.47-26.31,14.27-37,.91-2.62,11.52-30.76,12.69-34.29.39-1.31,1-3,.13-4.46a3.61,3.61,0,0,1-.91-1.7c0-.39.26-.92,1.17-1.18,3.67-.78,9.43-4.71,10.87-6.54.65-.66,1-1.18,1.7-1.18s1,.79,1.44,2.23c2.49,8.24,12.7,37.56,15.18,45.94,3,10.21,11.52,34.56,13.35,38.35,2.23,4.32,5.63,5.89,8.9,5.89h4.33c.78,0,1,.4,1,.92v3.27c0,.65-.39.92-1.31.92-2.35,0-5.1-.4-15.71-.4-10.86,0-15.44.4-18.45.4-.66,0-1.05-.4-1.05-1.18v-3c0-.79.39-.92,1.18-.92h3.27c3.67,0,4.84-1.31,3.93-5-1-4.71-6.41-21.47-8.25-26.7Zm30.62-4.71c-1.17-3.93-11.78-36.66-12.43-38.62-.39-.91-.66-1.83-1-1.83s-1,.92-1.44,2c-.65,1.7-13.09,35.21-14,38.49Z"/><path class="cls-2" d="M869,458.76c0-7.72-3.93-12-8.64-12.18l-5.37-.13c-.65,0-.78-.52-.78-.91v-3.4c0-.53.13-.79.78-.79s1.71.13,3.67.13,4.84.26,9.29.26,7.2-.26,8.77-.26a4.55,4.55,0,0,1,3.8,1.7L908,478.78c1.44,1.84,23.56,28.93,26.71,33.12h.52V496.32c0-11.65-.13-18.06-.39-24.6-.13-5.11-.79-17.93-1.57-20.16a7,7,0,0,0-7.2-5.11h-4.19c-.53,0-.79-.26-.79-.91v-3.4a.7.7,0,0,1,.79-.79c1.83,0,6,.39,14.4.39,7.85,0,11-.39,12.69-.39.92,0,1,.39,1,.92v3.27c0,.52-.26.91-.79.91h-3.53c-3.53,0-4.84,2.23-5.1,7.2-.53,8.77-.53,21.73-.53,30.24v49c0,1.84-.13,3.14-.65,3.14-1.57,0-2.75-1.57-3.14-2.09l-16-20.16c-9.16-11.38-18.72-23.43-19.51-24.21-1.44-1.31-25.52-31.55-26.3-32.6h-.79V486c0,12.18,1,33.51,1.31,36.13.52,5.11,1.31,7.59,4.84,7.59h3.93c.92,0,1.05.4,1.05,1.18v2.88c0,.78-.13,1-1.05,1-1.31,0-9.16-.4-12.7-.4-2.75,0-11.78.4-13.09.4-.52,0-.65-.27-.65-.92v-3.4a.69.69,0,0,1,.78-.79h4.45c3.8,0,5.24-1.57,5.89-8,.26-2.49.53-17.41.53-40.71Z"/><path class="cls-2" d="M263.51,577.23a19.17,19.17,0,0,0-5-3.56,16.32,16.32,0,0,0-6.61-1.49c-8.86,0-15.41,7.13-15.41,16A15.34,15.34,0,0,0,252,603.8a16.07,16.07,0,0,0,7.14-1.78,17.4,17.4,0,0,0,4.42-3.22v5.29A19.92,19.92,0,0,1,252,607.82a19.38,19.38,0,0,1-19.83-19.72c0-11.44,8.57-20,20.06-20a18.06,18.06,0,0,1,11.33,3.8Z"/><path class="cls-2" d="M309.71,568.79c2.59,0,6.44.17,9.31,2.12a10,10,0,0,1,4.2,8.51c0,5.87-3.85,10.18-9.66,10.58l12.19,17.14h-5.17l-11.68-16.8h-1.09v16.8h-4.25V568.79Zm-1.9,17.76h2.7c5.29,0,8.46-2.53,8.46-7a6,6,0,0,0-3.05-5.64,10.92,10.92,0,0,0-5.52-1.09h-2.59Z"/><path class="cls-2" d="M384.53,572.81H368.89v11.38h15.18v4H368.89v14.89h15.64v4H364.64V568.79h19.89Z"/><path class="cls-2" d="M445.73,596.33H429.4l-4.6,10.81h-4.71L437.74,567l17.19,40.19h-4.71Zm-1.67-4L437.62,577l-6.55,15.35Z"/><path class="cls-2" d="M499.4,572.81v34.33h-4.25V572.81h-9.32v-4h22.89v4Z"/><path class="cls-2" d="M550.94,568.79v38.35h-4.25V568.79Z"/><path class="cls-2" d="M591,588a20,20,0,1,1,19.95,19.83A19.58,19.58,0,0,1,591,588Zm4.37,0a15.58,15.58,0,1,0,15.58-15.81A15.65,15.65,0,0,0,595.35,588Z"/><path class="cls-2" d="M670.93,607.14v-40l29.9,31.34V568.79h4.25v40.07l-29.9-31.34v29.62Z"/><path class="cls-2" d="M764.33,576.37a9.2,9.2,0,0,0-2.24-2.87,6.88,6.88,0,0,0-4.31-1.32c-3.8,0-6.44,2.35-6.44,5.92a4,4,0,0,0,1.44,3.33,12.34,12.34,0,0,0,4,2.42l3.68,1.61a18.51,18.51,0,0,1,5.92,3.62,9.22,9.22,0,0,1,2.76,7c0,7.07-5.23,11.78-12.13,11.78a11.43,11.43,0,0,1-8.34-3.1,13.88,13.88,0,0,1-3.56-6.78l4.14-1.16a9.07,9.07,0,0,0,2.3,4.89,7.85,7.85,0,0,0,13.22-5.46,5.74,5.74,0,0,0-1.89-4.48,16.76,16.76,0,0,0-4.6-2.65l-3.46-1.61a16.89,16.89,0,0,1-5.11-3.16,8,8,0,0,1-2.65-6.27c0-5.92,4.55-9.89,10.75-9.89a10.45,10.45,0,0,1,6.16,1.72,11.62,11.62,0,0,1,3.73,4.26Z"/><path d="M481.57,340.27a1.11,1.11,0,0,1-1-.6,1.1,1.1,0,0,1,.47-1.48c.81-.43,20.06-10.19,38.24-.07a1.1,1.1,0,1,1-1.07,1.93c-17.15-9.55-36,0-36.15.09A1,1,0,0,1,481.57,340.27Z"/><path d="M485.85,299.85a1.08,1.08,0,0,1-.55-.15c-18-10.45-35.07-1.06-35.24-1a1.1,1.1,0,0,1-1.09-1.92c.19-.11,18.32-10.11,37.43,1a1.1,1.1,0,0,1-.55,2.06Z"/><path d="M482.73,297.18a1.1,1.1,0,0,1-.88-.44c-8.49-11.27-8.2-35.09-8.18-36.1a1.14,1.14,0,0,1,1.12-1.08,1.09,1.09,0,0,1,1.08,1.12c0,.24-.29,24.07,7.74,34.74a1.1,1.1,0,0,1-.88,1.76Z"/><path class="cls-3" d="M437.33,384.9s2.36-2.35,1.92-3.93-1.92-4.82-1.29-5.93c-1.56-.47-2-.17-2-.17s.77-8.08,3.6-9.51a22.16,22.16,0,0,0-2.81,2.25s-.47-6.69,1.24-8.25h-1.48s.56-4.81,2.75-7.18c-.87-.13-1.86-.38-1.86-.38s.15-5.07,4.22-7.73a7.27,7.27,0,0,0-1.69.14s3.52-5.36,7.36-7.21a15,15,0,0,1-2-1.42s4.57-3.4,8.36-3.41l-1.31-1s5-3.45,9.7-1.62a16.16,16.16,0,0,1-.79-2.38s5.54-.59,7.5,1.16a6.05,6.05,0,0,0-.28-2.55s5.86,1,8,3.13a5.14,5.14,0,0,0,.28-2.16s5.83,3.94,4.73,12.38c2.4,1.52,11.36,4.18,13.61,11.77a12.73,12.73,0,0,1-2.33-.55s6.15,5.15,4.83,12.43l-1.53-1.15a24.79,24.79,0,0,1-2.54,10.08,10.64,10.64,0,0,1-1.06-2.21s-1,5.1-4.51,8.08c-.1-1-.14-2.43-.14-2.43a12.28,12.28,0,0,1-6.07,5.63c.73-1.31,1.13-2.1,1.13-2.1s-5.79,3.22-8.19,3.43l1-1.48a40.63,40.63,0,0,1-15,3.11,3.71,3.71,0,0,0,1.37-1.35s-6.2,0-9.51-1.57c1.56-.77,1.42-1.21,1.42-1.21s-7.12,1.18-8.55.34S437.33,384.9,437.33,384.9Z"/><g class="cls-4"><path class="cls-3" d="M437.33,384.9s2.36-2.35,1.92-3.93-1.92-4.82-1.29-5.93c-1.56-.47-2-.17-2-.17s.77-8.08,3.6-9.51a22.16,22.16,0,0,0-2.81,2.25s-.47-6.69,1.24-8.25h-1.48s.56-4.81,2.75-7.18c-.87-.13-1.86-.38-1.86-.38s.15-5.07,4.22-7.73a7.27,7.27,0,0,0-1.69.14s3.52-5.36,7.36-7.21a15,15,0,0,1-2-1.42s4.57-3.4,8.36-3.41l-1.31-1s5-3.45,9.7-1.62a16.16,16.16,0,0,1-.79-2.38s5.54-.59,7.5,1.16a6.05,6.05,0,0,0-.28-2.55s5.86,1,8,3.13a5.14,5.14,0,0,0,.28-2.16s5.83,3.94,4.73,12.38c2.4,1.52,11.36,4.18,13.61,11.77a12.73,12.73,0,0,1-2.33-.55s6.15,5.15,4.83,12.43l-1.53-1.15a24.79,24.79,0,0,1-2.54,10.08,10.64,10.64,0,0,1-1.06-2.21s-1,5.1-4.51,8.08c-.1-1-.14-2.43-.14-2.43a12.28,12.28,0,0,1-6.07,5.63c.73-1.31,1.13-2.1,1.13-2.1s-5.79,3.22-8.19,3.43l1-1.48a40.63,40.63,0,0,1-15,3.11,3.71,3.71,0,0,0,1.37-1.35s-6.2,0-9.51-1.57c1.56-.77,1.42-1.21,1.42-1.21s-7.12,1.18-8.55.34S437.33,384.9,437.33,384.9Z"/></g><path class="cls-3" d="M451.05,207.28s5.49,2.77,6.34,3.85a9.78,9.78,0,0,1-.07-1.9s5.08,2.66,6,4.22c.3-1.52.43-2.06.43-2.06s6.79,3.15,8,6.22a9.73,9.73,0,0,1-.62-3s5.17,2.38,7,4.74a7,7,0,0,0,.5-2.26s6.8,4.13,7.61,6a8.77,8.77,0,0,0-.12-3.18s3.69,1.82,5.1,7.79a2.71,2.71,0,0,0,1.49-2s2.66,4.88,3,9.21a9,9,0,0,1,1.33-1.43s1.49,3.59.91,10.47a13.57,13.57,0,0,1,2.33-1.76,22,22,0,0,1-2.82,8.35,9.3,9.3,0,0,0,2.62-.86s-4.55,5.52-7,7.74a6.19,6.19,0,0,1,1.65.69s-9.53,9-20.13,2.17c-.34,2,1,8.64-7.45,11.36a12.21,12.21,0,0,1,.5-1.46,12.78,12.78,0,0,1-11.52.32,7,7,0,0,0,2.24-.92s-9.55-2.11-11.95-5.47c4.12,1.43,5.07,1.68,5.07,1.68s-8.35-4.68-10.56-7.48a16,16,0,0,0,3.15.57,13.16,13.16,0,0,1-6.08-7,22.33,22.33,0,0,1,3,1.73s-3.35-4.52-4-8.89a14.83,14.83,0,0,1,2.46,2s-1.8-5.47-1-9.27a27.59,27.59,0,0,1,2,2.61s-1.74-5.86-.62-9a29.64,29.64,0,0,1,1.11,2.79s.44-7.38,3.15-10.06a7.55,7.55,0,0,0,.74,1.3s-.13-4.9,1.18-5.8l.9,1s.48-5.2,1.54-6.29a6,6,0,0,1,1,1.53S451.16,212.68,451.05,207.28Z"/><g class="cls-4"><path class="cls-3" d="M474.61,260.26c-3.49-22.34-23.56-53-23.56-53,.11,5.4-1.49,8.25-1.49,8.25a6,6,0,0,0-1-1.53c-1.06,1.09-1.54,6.29-1.54,6.29l-.9-1c-1.31.9-1.18,5.8-1.18,5.8a7.55,7.55,0,0,1-.74-1.3c-2.71,2.68-3.15,10.06-3.15,10.06a29.64,29.64,0,0,0-1.11-2.79c-1.12,3.16.62,9,.62,9a27.59,27.59,0,0,0-2-2.61c-.85,3.8,1,9.27,1,9.27a14.83,14.83,0,0,0-2.46-2c.63,4.37,4,8.89,4,8.89a22.33,22.33,0,0,0-3-1.73,13.16,13.16,0,0,0,6.08,7,16,16,0,0,1-3.15-.57c2.21,2.8,10.56,7.48,10.56,7.48s-.95-.25-5.07-1.68c2.4,3.36,11.95,5.47,11.95,5.47a7,7,0,0,1-2.24.92,12.78,12.78,0,0,0,11.52-.32,12.21,12.21,0,0,0-.5,1.46C475.6,268.9,474.27,262.23,474.61,260.26Z"/></g><path class="cls-3" d="M386.91,303.89s4.48-4.36,5.89-4.83a10.93,10.93,0,0,1-2-.59s4.35-4,6.27-4.37c-1.5-.82-2-1.13-2-1.13s5.52-5.52,9.11-5.63a11.47,11.47,0,0,1-3.33-.41s4.25-4.15,7.31-5.08a8,8,0,0,0-2.14-1.2s6.62-4.94,8.79-5.07a10.16,10.16,0,0,0-3.23-.89s3.13-2.7,9.53-2.18a2.63,2.63,0,0,0-1.53-1.92,36.77,36.77,0,0,1,10.12-.1,7.7,7.7,0,0,1-1-1.55s3.95-.37,10.78,1.86a14,14,0,0,1-1.19-2.56,23.78,23.78,0,0,1,7.85,4.67,8,8,0,0,0-.26-2.69,80,80,0,0,1,6.3,8.68,6.34,6.34,0,0,1,1.2-1.42c.13-.06,6.75,11.86-4.43,20.42,1.86.93,9.32,1.55,8.67,10.72a9.23,9.23,0,0,1-1.27-.91,14.57,14.57,0,0,1-4.11,11.71,7.07,7.07,0,0,0-.07-2.51s-5.57,9.17-9.57,10.77c2.77-3.87,3.36-4.77,3.36-4.77s-7.41,7.33-10.82,8.82a19.14,19.14,0,0,0,1.57-3.11,13.68,13.68,0,0,1-8.84,4.18,25.84,25.84,0,0,1,2.66-2.56s-5.51,2.08-10,1.22a16.28,16.28,0,0,1,2.78-1.86s-5.93,0-9.4-2.24a29.29,29.29,0,0,1,3.2-1.16s-6.31-.29-9.09-2.61a31,31,0,0,1,3.11-.1s-7.17-3.15-9.1-6.85a8.09,8.09,0,0,0,1.53-.27s-5-1.66-5.53-3.29l1.31-.52s-5.17-2.37-6-3.81a6.42,6.42,0,0,1,1.86-.43S392.65,305.72,386.91,303.89Z"/><g class="cls-4"><path class="cls-3" d="M448.88,297.9c.24-.19.42-.38.65-.57-6.07-2.28-25.6-7-61.34,7a19.78,19.78,0,0,1,6.93,4,6.42,6.42,0,0,0-1.86.43c.85,1.44,6,3.81,6,3.81l-1.31.52c.55,1.63,5.53,3.3,5.53,3.29a8.09,8.09,0,0,1-1.53.27c1.93,3.7,9.09,6.86,9.1,6.85a31,31,0,0,0-3.11.1c2.78,2.32,9.09,2.62,9.09,2.61a29.29,29.29,0,0,0-3.2,1.16c3.47,2.26,9.4,2.25,9.4,2.24a16.28,16.28,0,0,0-2.78,1.86c4.48.86,10-1.21,10-1.22a25.84,25.84,0,0,0-2.66,2.56,13.68,13.68,0,0,0,8.84-4.18,19.14,19.14,0,0,1-1.57,3.11c3.41-1.49,10.79-8.83,10.82-8.82s-.59.9-3.36,4.77c4-1.6,9.53-10.79,9.57-10.77a7.07,7.07,0,0,1,.07,2.51,14.57,14.57,0,0,0,4.11-11.71,9.23,9.23,0,0,0,1.27.91C458.2,299.45,450.74,298.83,448.88,297.9Z"/></g><g class="cls-5"><path class="cls-3" d="M388.34,304A144.36,144.36,0,0,1,403.2,299a125.23,125.23,0,0,1,15.33-3.42,82.3,82.3,0,0,1,15.68-1.12,46.86,46.86,0,0,1,15.46,3,.4.4,0,0,1,.23.52.41.41,0,0,1-.52.22h0a46.16,46.16,0,0,0-15.17-3.1,81.53,81.53,0,0,0-15.6.91,127.43,127.43,0,0,0-15.34,3.22A147.39,147.39,0,0,0,388.34,304Z"/></g><g class="cls-5"><path class="cls-3" d="M439.75,383a62.15,62.15,0,0,1,5.2-15.15,57.77,57.77,0,0,1,9-13.3,56.73,56.73,0,0,1,5.8-5.59,53.59,53.59,0,0,1,6.71-4.47c4.63-2.81,9.85-4.35,15.06-5.68a.41.41,0,0,1,.49.29.42.42,0,0,1-.29.49h0c-5.15,1.24-10.33,2.7-14.93,5.42a52.67,52.67,0,0,0-6.69,4.33,59,59,0,0,0-5.82,5.47,57.45,57.45,0,0,0-9.08,13.12A61.93,61.93,0,0,0,439.75,383Z"/></g><g class="cls-5"><path class="cls-3" d="M451.05,207.28a178,178,0,0,1,14.22,25.41q3.08,6.62,5.52,13.5a138,138,0,0,1,4.21,14,.4.4,0,1,1-.77.2v0a141.41,141.41,0,0,0-4-14q-2.36-6.88-5.32-13.54A177.84,177.84,0,0,0,451.05,207.28Z"/></g><path d="M479,289.67a180.51,180.51,0,0,1,21,20.25,220.09,220.09,0,0,1,32.51,47.91,128.22,128.22,0,0,1,10.14,27.07c-4.45-8.58-8.26-17.29-13-25.56a208.06,208.06,0,0,0-15.25-24.09,239.41,239.41,0,0,0-18-22.07A200.68,200.68,0,0,0,476,293.55L474.06,292l3-3.88Z"/><path d="M514.48,317.8c-.34-4.72-.52-9.42-.51-14.15s0-9.5,1.59-14.15c1.38-4.34,1.46-9.15,1.49-13.79q0-3.51-.31-7c-.25-2.26-.38-4.81-1.24-6.7l-.06-.14a.37.37,0,1,1,.68-.31c1.13,2.4,1.13,4.7,1.45,7.07s.35,4.72.39,7.08c0,4.72,0,9.48-1.42,14.16-1.43,4.33-1.32,9.15-1.39,13.79s.26,9.38.64,14a.66.66,0,0,1-1.31.13Z"/><path d="M516.53,288.49a.44.44,0,0,1-.36-.19.45.45,0,0,1,.11-.62c.09-.06,8.73-6,10.17-10.48a.43.43,0,0,1,.55-.29.44.44,0,0,1,.29.55c-1.53,4.8-10.14,10.7-10.51,11A.44.44,0,0,1,516.53,288.49Z"/><path d="M517.31,283a.58.58,0,0,1-.18,0,.45.45,0,0,1-.22-.59c.36-.79,8.92-19.53,14.15-21.62a.44.44,0,0,1,.58.24.45.45,0,0,1-.25.58c-4.91,2-13.59,21-13.68,21.17A.44.44,0,0,1,517.31,283Z"/><path d="M515.13,293.72a.43.43,0,0,1-.44-.42c-.41-8.79-7.64-17.16-7.72-17.24a.44.44,0,0,1,0-.62.44.44,0,0,1,.63,0c.3.35,7.51,8.68,7.93,17.78a.44.44,0,0,1-.42.46Z"/><path d="M514.73,296.81a.43.43,0,0,1-.41-.29c-2.82-7.8-11.33-10.91-11.41-10.94a.44.44,0,0,1,.29-.83c.37.13,9,3.29,11.95,11.47a.44.44,0,0,1-.27.56A.4.4,0,0,1,514.73,296.81Z"/><circle class="cls-6" cx="504.34" cy="273.08" r="4.21"/><circle class="cls-6" cx="528.98" cy="274.3" r="3.77"/><circle class="cls-6" cx="499.84" cy="283.2" r="3.77"/><g class="cls-7"><path class="cls-3" d="M428.46,271c2.22,2.8,10.56,7.47,10.56,7.47s-.95-.24-5.07-1.67c2.41,3.35,11.95,5.47,11.95,5.47a7,7,0,0,1-2.24.92,12.71,12.71,0,0,0,11.49-.31,15.2,15.2,0,0,0-1.84-5.41,6.34,6.34,0,0,0-1.2,1.42,80,80,0,0,0-6.3-8.68,8,8,0,0,1,.26,2.69,23.78,23.78,0,0,0-7.85-4.67,14,14,0,0,0,1.19,2.56c-6.83-2.23-10.77-1.85-10.78-1.86a8,8,0,0,0,.55.93,10.78,10.78,0,0,0,2.43,1.71A16,16,0,0,1,428.46,271Z"/></g><g class="cls-7"><path class="cls-3" d="M454.68,284.34c.22-.07.41-.16.62-.23,0-.4-.08-.8-.14-1.17A10.79,10.79,0,0,0,454.68,284.34Z"/></g><g class="cls-7"><path class="cls-3" d="M461,358.79a26.7,26.7,0,0,0-1.47,3.38,13.69,13.69,0,0,0,6.56-7.25,19.47,19.47,0,0,1-.26,3.48c2.58-2.68,6.59-12.29,6.62-12.29s-.2,1.06-1.28,5.69c3.09-3,4.68-13.61,4.72-13.6a7,7,0,0,1,1,2.29,14.6,14.6,0,0,0-.32-11.7l0,.15c-2.18-2.09-8-3.13-8-3.13a6.05,6.05,0,0,1,.28,2.55c-2-1.75-7.5-1.16-7.5-1.16a16.16,16.16,0,0,0,.79,2.38c-4.73-1.83-9.7,1.62-9.7,1.62l1.31,1c-3.79,0-8.36,3.41-8.36,3.41a15,15,0,0,0,2,1.42c-3.84,1.85-7.36,7.21-7.36,7.21a7.15,7.15,0,0,1,1.69-.14c-4.07,2.66-4.22,7.73-4.22,7.73s1,.25,1.86.38c-2.19,2.37-2.75,7.18-2.75,7.18H438a3.1,3.1,0,0,0-.27.4c1.61.19,2.77.21,2.77.21s-1.42.55-2.83,1.28c3.46,1.08,9.4-1.05,9.39-1.07a29.71,29.71,0,0,0-2.51,2.31c4.07.75,9.55-1.53,9.55-1.54a16,16,0,0,0-1.86,2.79C456.7,362.81,461,358.79,461,358.79Z"/><path class="cls-3" d="M477.75,328.45c-.17-.49-.35-.95-.54-1.37l-.37-.3a4.49,4.49,0,0,1-.12,1.46A10.22,10.22,0,0,0,477.75,328.45Z"/></g><path d="M515.74,261.79c-.06-.29-1.46-7.14,1.3-8.2l.09.25c-2.55,1-1.15,7.83-1.13,7.9Z"/><path d="M515.75,262c-.93-3-2.61-7.77-3.19-8l.11-.23c.87.38,3.08,7.39,3.32,8.18Z"/><circle class="cls-8" cx="511.94" cy="253.05" r="1.13"/><circle class="cls-8" cx="517.62" cy="253.1" r="0.92"/><path d="M531.2,261.21l-.16-.06s1.75-4.16.27-5.1l.09-.14C533,256.92,531.27,261,531.2,261.21Z"/><path d="M531.18,261.32l-.15-.08c.25-.47,2.5-4.59,3.1-4.72l0,.16C533.77,256.77,532.12,259.57,531.18,261.32Z"/><circle class="cls-8" cx="534.66" cy="256.21" r="0.72"/><circle class="cls-8" cx="531.1" cy="255.53" r="0.59"/><path class="cls-9" d="M517.34,260.91c2.11-1.46,5.34-4.18,3.21-6-2.69-2.24-4.37,4.93-4.72,6.62-1.24-1.77-7-9.72-8.74-5.9-1.42,3.16,4.1,5,7.12,5.84-3.06,0-8.61,1.42-7,4,2.29,3.71,8-2.69,8.74-3.54,1.31.67,7.55,3.69,7.48-.13C523.36,258.36,519.59,259.76,517.34,260.91Z"/><path class="cls-9" d="M537.58,259.11c-.33-2.7-5.47,1.17-6.46,1.94.11-1.15.43-5.76-1.62-4.91-1.71.7-.07,3.13.93,4.39-1.09-1.13-3.35-3.06-4.1-.8-.81,2.42,4,1.6,4.6,1.49.08.2,2.46,5.78,4.67,3.86,1.47-1.27-1.61-3.2-3.48-3.77C534.11,261.41,537.85,261.31,537.58,259.11Z"/><path class="cls-6" d="M517.64,333.73s-9.93-21.89,6.13-41.89c14.45-18,24.44-21.67,26-18.72a1.58,1.58,0,0,1-.3,1.78C540.45,284.85,512,307.62,517.64,333.73Z"/><g class="cls-5"><path class="cls-10" d="M388.34,304A144.36,144.36,0,0,1,403.2,299a125.23,125.23,0,0,1,15.33-3.42,82.3,82.3,0,0,1,15.68-1.12,46.86,46.86,0,0,1,15.46,3,.4.4,0,0,1,.23.52.41.41,0,0,1-.52.22h0a46.16,46.16,0,0,0-15.17-3.1,81.53,81.53,0,0,0-15.6.91,127.43,127.43,0,0,0-15.34,3.22A147.39,147.39,0,0,0,388.34,304Z"/></g><g class="cls-5"><path class="cls-10" d="M439.75,383a62.15,62.15,0,0,1,5.2-15.15,57.77,57.77,0,0,1,9-13.3,56.73,56.73,0,0,1,5.8-5.59,53.59,53.59,0,0,1,6.71-4.47c4.63-2.81,9.85-4.35,15.06-5.68a.41.41,0,0,1,.49.29.42.42,0,0,1-.29.49h0c-5.15,1.24-10.33,2.7-14.93,5.42a52.67,52.67,0,0,0-6.69,4.33,59,59,0,0,0-5.82,5.47,57.45,57.45,0,0,0-9.08,13.12A61.93,61.93,0,0,0,439.75,383Z"/></g><g class="cls-5"><path class="cls-10" d="M451.05,207.28a178,178,0,0,1,14.22,25.41q3.08,6.62,5.52,13.5a138,138,0,0,1,4.21,14,.4.4,0,1,1-.77.2v0a141.41,141.41,0,0,0-4-14q-2.36-6.88-5.32-13.54A177.84,177.84,0,0,0,451.05,207.28Z"/></g><polygon points="94.86 423.91 91.17 423.91 91.17 294.24 380.78 294.24 380.78 297.94 94.86 297.94 94.86 423.91"/><polygon points="910.1 732.73 91.17 732.73 91.17 549.57 94.86 549.57 94.86 729.03 906.4 729.03 906.4 549.57 910.1 549.57 910.1 732.73"/><polygon points="910.1 423.91 906.4 423.91 906.4 297.94 541.29 297.94 541.29 294.24 910.1 294.24 910.1 423.91"/></g></g></svg>