<svg id="Layer_2" data-name="Layer 2" xmlns="http://www.w3.org/2000/svg" viewBox="0 0 1000 1000"><defs><style>.cls-1{fill:#8ba613;}.cls-2{fill:#b30c5f;}.cls-3{fill:#6b890a;}.cls-4{fill:#3a5901;}.cls-5{fill:#470059;}</style></defs><path class="cls-1" d="M532.76,406.62V661.43h154.7a9.11,9.11,0,0,0,9.1-9.1V406.62H532.76"/><path class="cls-1" d="M336.2,652.33a9.11,9.11,0,0,0,9.1,9.1H500V406.62H336.2V652.33"/><path class="cls-1" d="M760.09,260.63c-41.88-9.39-145.63-30.77-227.33-32.31V373.84H744.49a9.12,9.12,0,0,0,9-7.83l13.61-95.23A9.12,9.12,0,0,0,760.09,260.63Z"/><path class="cls-1" d="M265.66,270.8,279.27,366a9.15,9.15,0,0,0,9,7.82H500V228.32c-81.7,1.54-185.45,22.92-227.33,32.31A9.13,9.13,0,0,0,265.66,270.8Z"/><path class="cls-2" d="M516.39,228.25H506.34l1-10c.34-3.48,9-85.65,52-111.31,16.2-9.69,34.77-10.27,55.22-1.75,13.87,5.78,20.07,17.83,17,33.1C624.27,174.61,562.38,228.25,516.39,228.25Zm70.8-110.83a35.21,35.21,0,0,0-18.53,5.14c-26.92,16.05-37.89,64.29-41.61,86.32,35.57-7.41,81.48-48.21,86.66-74.16,1.56-7.77-1.34-10.7-6.17-12.72C600.22,118.93,593.48,117.42,587.19,117.42Z"/><path class="cls-2" d="M515.12,228.25c-67.92,0-114.12-50.69-115-84.57-.46-19.08,12.38-31.44,33.55-32.26,76.54-3,91.11,102.07,91.68,106.56l1.32,10.18-10.25.09Zm-78.46-98.69c-.74,0-1.48,0-2.23.05-14.69.58-16.2,8-16.08,13.63.55,22.4,33.65,62,87,66.41C500,185.65,482.53,129.56,436.66,129.56Z"/><path class="cls-1" d="M532.76,406.62V661.43h154.7a9.11,9.11,0,0,0,9.1-9.1V406.62H532.76"/><path class="cls-1" d="M336.2,652.33a9.11,9.11,0,0,0,9.1,9.1H500V406.62H336.2V652.33"/><path class="cls-3" d="M532.76,406.62h0V661.43h154.7a9.11,9.11,0,0,0,9.1-9.1V443H532.76V406.62"/><path class="cls-1" d="M760.09,260.63c-41.88-9.39-145.63-30.77-227.33-32.31V373.84H744.49a9.12,9.12,0,0,0,9-7.83l13.61-95.23A9.12,9.12,0,0,0,760.09,260.63Z"/><path class="cls-1" d="M265.66,270.8,279.27,366a9.15,9.15,0,0,0,9,7.82H500V228.32c-81.7,1.54-185.45,22.92-227.33,32.31A9.13,9.13,0,0,0,265.66,270.8Z"/><path class="cls-3" d="M336.2,406.62h0V652.33a9.11,9.11,0,0,0,9.1,9.1H500V443H336.2V406.62"/><polyline class="cls-4" points="500 406.62 336.2 406.62 336.2 443.03 500 443.03 500 406.62"/><polyline class="cls-4" points="696.58 406.62 532.76 406.62 532.76 443.03 696.58 443.03 696.58 406.62"/><path class="cls-2" d="M516.39,228.25H506.34l1-10c.34-3.48,9-85.65,52-111.31,16.2-9.69,34.77-10.27,55.22-1.75,13.87,5.78,20.07,17.83,17,33.1C624.27,174.61,562.38,228.25,516.39,228.25Zm70.8-110.83a35.21,35.21,0,0,0-18.53,5.14c-26.92,16.05-37.89,64.29-41.61,86.32,35.57-7.41,81.48-48.21,86.66-74.16,1.56-7.77-1.34-10.7-6.17-12.72C600.22,118.93,593.48,117.42,587.19,117.42Z"/><path class="cls-2" d="M515.12,228.25c-67.92,0-114.12-50.69-115-84.57-.46-19.08,12.38-31.44,33.55-32.26,76.54-3,91.11,102.07,91.68,106.56l1.32,10.18-10.25.09Zm-78.46-98.69c-.74,0-1.48,0-2.23.05-14.69.58-16.2,8-16.08,13.63.55,22.4,33.65,62,87,66.41C500,185.65,482.53,129.56,436.66,129.56Z"/><path class="cls-5" d="M213.08,723.16c0,25.05-31.75,59.71-47.18,59.71-6.12,0-8.74-2-8.74-6.12,0-3.51,1.46-8.45,10.49-10.49,12.81-2.9,29.71-25.34,29.71-42.82,0-4.94-2.9-8.44-9-8.44C147.27,715,66,792.18,66,857.12c0,16.61,9.31,29.43,24.17,29.43,41.06,0,85-45.72,103.68-70.18,3.79-5.23,7.58-9.31,11.06-9.31,3.2,0,5.24,1.46,5.24,4.66s-1.76,5.23-5.24,9.31c-24.48,28.53-72.81,79.77-115,79.77C65.43,900.8,50,885.66,50,858.28c0-75.44,87.36-156.39,139.2-156.39C203.19,701.92,213.08,708.32,213.08,723.16Z"/><path class="cls-5" d="M255.8,791c5.52,0,8.74,3.19,8.74,7.27,0,4.94-10.49,17.47-14,25.06-2.91,5.83-5.23,12.24-5.23,16.29,0,2.91,1.17,6.12,3.79,6.12,9.6,0,25.92-17.47,36.41-30,3.5-4.37,7.27-9,10.48-9,2.62,0,4.66,1.46,4.66,4.37,0,3.19-1.46,5.23-4.94,9.6-14,16.6-36.41,38.44-51.27,38.44-9.6,0-14.28-6.69-14.28-14.85,0-3.19.29-6.12.58-10.2-8.45,8.45-28.25,28.25-41.35,28.25-3.8,0-9.92-5.24-9.92-12.82,0-30,33.8-59.11,55.92-59.11,4.66,0,9,2.9,12,6.41C248.24,796.84,251.43,791,255.8,791Zm-60.55,53.28a2.38,2.38,0,0,0,2.61,2.33c4.37,0,40.2-31.16,40.2-36.7,0-3.19-2.61-5.83-6.4-5.83C220,804.13,195.25,830.92,195.25,844.31Z"/><path class="cls-5" d="M334.06,795.11c3.2-13.68,9.32-32.91,20.69-57.07,12.24-25.92,28-37.56,38.45-37.56,8.45,0,13.1,5.83,13.1,14.56,0,10.49-4.94,25.64-19.8,49.23-11.35,18.05-25.05,33.79-33.19,43.1-4.37,5-8.45,9-9.31,11.64-2.62,5.23-3.79,12.24-3.79,19.8,0,6.12.57,21,7,22.42,2.91.57,5.83,1.17,5.83,3.79,0,2.9-4.36,7-10.77,7-14,0-16.61-17.76-16.61-32-12.82,14-30,23.6-39.31,23.6-5.83,0-15.43-4.66-15.43-17.19,0-21.26,29.11-55.92,48-55.92C326.79,790.43,331.45,793.64,334.06,795.11Zm-48,48.62c0,3.79,2.32,5.83,4.94,5.83,9,0,35.52-27.67,37.27-36.12-1.75-.57-4.08-1.75-4.37-4.94-.28-2.33-2.61-3.5-4.94-3.5C306.1,805.86,286,833.24,286,843.73Zm80.37-97.85c-9,18-17.47,48.34-17.47,48.34,5.52-6.41,17.76-20.69,27.67-38.45,12.24-21.84,16.32-30.57,16.32-38.45,0-2.32-.86-3.21-3.5-3.21C387.08,714.13,378.32,722.29,366.39,745.88Z"/><path class="cls-5" d="M438.9,806.75c2.61,0,4.65,1.46,4.65,4.37,0,3.19-1.46,5.23-4.94,9.6-13.68,16.89-37.27,41.92-69.6,41.92-9.6,0-17.76-7.58-17.76-20.37,0-1.75-1.47-2.62-1.47-5.83a8.5,8.5,0,0,1,5.55-7.28c11.06-25.92,31.15-38.73,46.29-38.73,6.12,0,12.82,4.65,12.82,11.06,0,15.15-24.46,32.33-43.68,36.7-3.79.86-4.94,2.9-4.94,4.94,0,2.33,2.61,7.87,8.16,7.87,24.45,0,44-22.41,54.45-35.23C431.91,811.4,435.7,806.75,438.9,806.75Zm-69,21c10.49-2,30.29-16.29,30.29-21.26,0-1.75-.58-2.9-2.33-2.9C390.85,803.53,375.42,819,369.87,827.72Z"/><path class="cls-5" d="M488.62,791c5.52,0,8.74,3.19,8.74,7.27,0,4.94-10.49,17.47-14,25.06-2.9,5.83-5.23,12.24-5.23,16.29,0,2.91,1.18,6.12,3.79,6.12,9.6,0,25.92-17.47,36.41-30,3.5-4.37,7.27-9,10.49-9,2.61,0,4.65,1.46,4.65,4.37,0,3.19-1.46,5.23-4.94,9.6-14,16.6-36.41,38.44-51.26,38.44-9.6,0-14.28-6.69-14.28-14.85,0-3.19.28-6.12.57-10.2-8.45,8.45-28.25,28.25-41.35,28.25-3.79,0-9.91-5.24-9.91-12.82,0-30,33.79-59.11,55.92-59.11,4.65,0,9,2.9,11.95,6.41C481,796.84,484.26,791,488.62,791Zm-60.57,53.28a2.38,2.38,0,0,0,2.61,2.33c4.37,0,40.2-31.16,40.2-36.7,0-3.19-2.61-5.83-6.4-5.83C452.79,804.13,428.05,830.92,428.05,844.31Z"/><path class="cls-5" d="M614.05,806.75c2.61,0,4.65,1.46,4.65,4.37,0,3.19-1.46,5.23-4.94,9.6-13.68,16.6-33.19,38.73-46.61,38.73-10.77,0-11.95-7.58-11.95-21-12.82,12.52-25.92,23-37.27,23-10.49,0-13.39-8.16-13.39-13.1,0-6.7,4.08-14,8.73-21.55,5.23-8.45,9.31-17.48,9.31-25.35,0-7.27,2-11.06,7.88-11.06,5.23,0,7,3.5,7,9,0,9.91-5.54,21.27-10.78,30.58-3.5,6.12-7,12.24-7,15.72,0,1.46.58,3.5,2.33,3.5,4.94,0,23.59-14.28,32.33-26.78,8.16-14.57,10.48-18.65,13.1-22.42s5.54-7.87,9.31-7.87c4.66,0,6.7,2.9,6.7,6.12,0,2.62-2,4.94-4.08,7.87-6.7,9.31-12.82,24.75-12.82,36.12,0,3.51,1.47,5,2.91,5,6.4,0,23.88-18,34.08-31.47C607.06,811.4,610.86,806.75,614.05,806.75Z"/><path class="cls-5" d="M629.31,794.51c0,2-2.33,8.45-4.94,15.14,12-12.24,22.73-21.55,30.29-21.55,6.4,0,11.06,3.79,11.06,11.06,0,9.92-2.33,18.34-10.78,18.34a5.68,5.68,0,0,1-5.83-5.83c0-2.62,2-6.41,2-7.87,0-.87-.29-1.47-1.75-1.47-3.79,0-22.42,17.76-32,31.75a97.19,97.19,0,0,0-8.45,16.61C606.58,856.52,604,862,602.22,862c-3.51,0-7.56-3.19-7.56-7.27,0-3.19,4.08-15.14,8.73-25.92,5-11.64,9-22.41,10.49-27.67,2.33-7.56,4.37-11.95,9-11.95C626.7,789.28,629.31,791.32,629.31,794.51Z"/><path class="cls-5" d="M726,791c5.52,0,8.73,3.19,8.73,7.27,0,4.94-10.48,17.47-14,25.06-2.91,5.83-5.24,12.24-5.24,16.29,0,2.91,1.18,6.12,3.8,6.12,9.6,0,25.92-17.47,36.4-30,3.51-4.37,7.28-9,10.49-9,2.62,0,4.66,1.46,4.66,4.37,0,3.19-1.47,5.23-4.95,9.6-14,16.6-36.4,38.44-51.26,38.44-9.6,0-14.28-6.69-14.28-14.85,0-3.19.29-6.12.58-10.2-8.45,8.45-28.25,28.25-41.36,28.25-3.79,0-9.91-5.24-9.91-12.82,0-30,33.79-59.11,55.92-59.11,4.66,0,9,2.9,12,6.41C718.42,796.84,721.64,791,726,791Zm-60.58,53.28a2.38,2.38,0,0,0,2.62,2.33c4.37,0,40.2-31.16,40.2-36.7,0-3.19-2.62-5.83-6.41-5.83C690.18,804.13,665.43,830.92,665.43,844.31Z"/><path class="cls-5" d="M845.31,706.86c0,23-24.45,63.48-69.6,98.71-2.33,4.08-5.54,15.43-5.83,19.51,16.3-19.51,34.94-36.12,51.55-36.12,7.59,0,12.53,5.55,12.53,14,0,24.46-22.42,57.67-44.57,57.67-10.77,0-13.39-4.94-13.39-10.2a7.71,7.71,0,0,1,7.87-7.27c2.62,0,5.23,2.91,7.87,2.91,10.78,0,27.08-24.75,27.08-38.45,0-2.91-2.62-4.66-5.24-4.66-5.54,0-18,11.35-32.32,27.07-5.55,6.12-11.64,16.9-11.64,21.27,0,4.94-6.41,10.77-9.92,10.77-3.79,0-7-1.75-7-11.95,0-36.12,14.86-77.18,32.33-109.49,17.18-31.46,31.75-46.29,48.33-46.29C840.37,694.33,845.31,700.45,845.31,706.86Zm-47.16,37a379.09,379.09,0,0,0-18.65,42.53c31.44-23.3,52.71-65.81,52.71-75.14,0-2-1.18-3.51-3.79-3.51C824.36,707.72,811,718.79,798.15,743.84Z"/><path class="cls-5" d="M910.76,806.75c2.62,0,4.66,1.46,4.66,4.37,0,3.19-1.47,5.23-4.95,9.6-13.68,16.6-38.73,41.64-55.32,41.64-11.64,0-21.84-8.45-21.84-22.42,0-24.46,19.51-69.89,35.81-97.85,17.47-29.71,30.58-44,47.18-44a11.74,11.74,0,0,1,11.64,12c0,8.44-4.08,26.2-25.05,53-16.3,20.66-30.29,32.9-45.72,45.14-4.66,8.16-8.74,24.17-8.74,30.29,0,7.27,3.19,11.35,8.74,11.35,11.64,0,33.19-20.66,43.1-34.08C903.78,811.4,907.57,806.75,910.76,806.75ZM880.18,748.5c-11.95,21.26-15.72,32.62-17.47,39,5.83-4.65,18-16.89,30-32.9C908.14,734.24,914,721.12,914,715c0-1.75-.87-2.62-2.91-2.62C907.57,712.38,894.75,722.58,880.18,748.5Z"/><path class="cls-5" d="M929,841.69c4.08-3.19,8.45-6.69,11.07-6.69s4.65,1.46,4.65,4.36c0,3.2-1.75,5.84-8.44,11.07C923.77,860,916.5,863,907.18,863a20.67,20.67,0,0,1-20.37-20.69c0-1.75-1.47-2.62-1.47-5.83a8.5,8.5,0,0,1,5.55-7.28C902,803.24,922,790.43,937.18,790.43c6.12,0,12.82,4.65,12.82,11.06,0,15.15-24.46,32.33-43.68,36.7-3.79.86-4.94,2.9-4.94,4.94a8.09,8.09,0,0,0,8.16,8.16C918,851.32,923.5,846.06,929,841.69Zm-23.59-14c10.49-2,30.29-16.29,30.29-21.26,0-1.75-.58-2.9-2.33-2.9C926.41,803.53,911,819,905.43,827.72Z"/></svg>