<svg id="Layer_2" data-name="Layer 2" xmlns="http://www.w3.org/2000/svg" viewBox="0 0 1000 1000"><defs><style>.cls-1{fill:#92c207;}.cls-2{fill:#549400;}</style></defs><path class="cls-1" d="M540.11,483.54c.75-6.54.17-9.2-.21-15.1,8.94-7.93,29.5-30.76,14.61-62.65-18.66-40-48.37-42.57-48.37-42.57s12.86,4.54,23.33,24.86a24.28,24.28,0,0,0,.17-2.57,19,19,0,0,0-2.73-9.54l.33-.2c3.39,4.28,4.39,9.88,3.66,15.22a104.7,104.7,0,0,1,6,16.29c2.56-4.75,4.36-10.31,2.56-15.52l.28-.13c2.79,6,.73,12.87-2.07,18.49a153.71,153.71,0,0,1,3.52,18.93,28.5,28.5,0,0,1,.18,3.42c3.53-5.18,5.77-11.34,5.14-17.65l.34-.05c1.25,6.91-.69,13.65-4.46,19.47-.35.54-.72,1.06-1.09,1.58-.48,10-2.85,24.8-4,31.64l-.26.05c.08-1,.13-2,.17-3,.14-3.43.3-7.44.41-11.66,0-1-16-6.68-23.45-12.88,12.25,7.25,23.53,8.67,23.53,8.15a146.46,146.46,0,0,0-.71-18.42c-.25-2-.53-3.93-.81-5.82-.12-.78-9.86-5.06-20.57-12.34C528,416,535.3,418.58,535,417.16a149.86,149.86,0,0,0-3.83-15.57c-.22-.76-8.08-3.67-14.32-7.76,7.59,4.08,13.07,3.9,12.79,3.11a92.76,92.76,0,0,0-8-17.42c-.45-.72-5.81-3.84-8.29-5.58,3.51,1.72,6.33,2.54,6,2.08-7-10.07-13.19-12.8-13.19-12.8s5.52,9.32,2.92,18.64c-4.09,14.61-12.26,26.59-8.87,55.8,2.75,23.64,24.6,31.19,32.82,33.22.16,5.14-.21,6.94-.85,12.77a2.27,2.27,0,0,0,2.1,2.57,7.63,7.63,0,0,0,1.85-.25,8.86,8.86,0,0,1,1.33-.27,2.39,2.39,0,0,0,2.67-2.16"/><path class="cls-2" d="M506.14,363.21h0s12.86,4.54,23.33,24.86a24.28,24.28,0,0,0,.17-2.57v-.31a19.39,19.39,0,0,0-2.73-9.23l.33-.2a19.08,19.08,0,0,1,3.88,11.95,23.7,23.7,0,0,1-.22,3.26,104.32,104.32,0,0,1,6,16.29c1.84-3.42,3.29-7.25,3.29-11.06a13.65,13.65,0,0,0-.73-4.45l.28-.13a14.78,14.78,0,0,1,1.33,6.26c0,4.21-1.54,8.49-3.4,12.23A153.71,153.71,0,0,1,541.16,429a28.5,28.5,0,0,1,.18,3.42,27.85,27.85,0,0,0,5.24-15.58,20.49,20.49,0,0,0-.1-2.07l.34-.05a23.8,23.8,0,0,1,.38,4.18,28.11,28.11,0,0,1-4.84,15.29c-.35.54-.72,1.06-1.09,1.58-.48,10-2.85,24.8-4,31.64l-.26.05c.08-1,.13-2,.17-3,.14-3.43.3-7.44.41-11.66,0-1-16-6.68-23.45-12.88,10.77,6.37,20.79,8.25,23.05,8.25.32,0,.48,0,.48-.1,0-1,0-2.05,0-3.08a129.87,129.87,0,0,0-.73-15.34c-.25-2-.53-3.93-.81-5.82-.12-.78-9.86-5.06-20.57-12.34,10.07,3.65,16.75,6,18.78,6,.42,0,.64-.1.64-.33v-.07a149.86,149.86,0,0,0-3.83-15.57c-.22-.76-8.08-3.67-14.32-7.77,5.11,2.76,9.26,3.57,11.34,3.57,1,0,1.48-.17,1.46-.4v-.05a92.76,92.76,0,0,0-8-17.42c-.45-.72-5.81-3.84-8.29-5.58a22.56,22.56,0,0,0,5.88,2.2q.15,0,.15-.06l0-.07c-7-10.05-13.2-12.78-13.2-12.78a29.29,29.29,0,0,1,3.62,13.46,19.56,19.56,0,0,1-.7,5.18c-3.42,12.21-9.69,22.58-9.68,42.72a110.39,110.39,0,0,0,.81,13.07c2.75,23.64,24.6,31.19,32.82,33.22,0,.8,0,1.52,0,2.2a87,87,0,0,1-.89,10.58c0,.1,0,.2,0,.3a2.27,2.27,0,0,0,2.12,2.27h.17a8.19,8.19,0,0,0,1.68-.27,10.51,10.51,0,0,1,1.3-.26h.29a2.33,2.33,0,0,0,2.42-2.15,48.33,48.33,0,0,0,.36-5.77c0-3-.32-5.51-.57-9.33,6.67-5.92,19.81-20.13,19.88-40.2a52.37,52.37,0,0,0-5.26-22.45c-18.67-40-48.38-42.59-48.38-42.59m0,0h0"/><path class="cls-1" d="M548.29,492.42c-8.39-8.43-12.79-10.64-21.54-16.78-1.09-21.58-10-76.4-71.88-91.46-77.55-18.89-114.78,20.14-114.78,20.14s20.93-13,61.46-4.83c-1.09-1.09-2.23-2.14-3.43-3.13-4.73-4-10.54-5.89-16.56-6.94-.4-.07-.29-.69.09-.69,9.87.07,18.91,5,25.61,12a190.61,190.61,0,0,1,29.76,10c-3.83-9-9.64-17.81-19-21.16a.29.29,0,0,1,.15-.55c11.6,2.85,19,13.51,23.74,23.84a281.28,281.28,0,0,1,30.71,16.44,52,52,0,0,1,5,3.62c-3.32-10.82-9.47-21-19.1-27.21a.31.31,0,0,1,.31-.53c11.16,6,18.49,16.4,22.44,28.32.37,1.09.68,2.2,1,3.31,13.53,11.94,31.76,32.07,40.17,41.37l-.2.42q-2-1.86-4-3.65c-4.68-4.07-10.17-8.83-16-13.74-1.44-1.21-27.47,14.94-44.71,18.52,24.1-9.08,38.85-23.39,38.11-24-9.19-7.54-18.71-14.85-26.81-19.83q-4.65-2.85-9.12-5.43c-1.23-.71-18.29,8.2-40.68,15.06,20.4-12.41,32.21-19.79,29.88-21a269.88,269.88,0,0,0-26.31-12.21c-1.31-.53-14.3,7.27-27.15,11.42,14.37-6.09,20.3-14,18.86-14.53a165.72,165.72,0,0,0-33.69-8.31c-1.51-.2-12,3.83-17.26,5.38,6.39-3,10.75-6.07,9.72-6.13-22.13-1.52-33,4.15-33,4.15s19.41,2.74,29.59,16.95c16,22.29,23.66,47.38,68.71,75.61,36.48,22.86,71.84.56,84-8.74,7.44,5.59,9.56,8.16,17.06,15.63a4.07,4.07,0,0,0,6-.06c1.11-1.15,2.39-4.56,2.84-5.06A4.27,4.27,0,0,0,548.29,492.42Z"/><path d="M211.92,489.08q1.62-10.33,7.5-34.89-12.51,3.38-38.71,3.39H130.22c-13.11.05-25-1.18-39.79-2.92l2.33,8.22q17.46,4.81,20.57,7.08l0,0a8.34,8.34,0,0,1,2.9,8.78Q106.19,519,96.39,555.68q-11.25,42.06-18.3,56a17,17,0,0,1-5.19,6.64q-3.11,2.26-20.57,7.07L50,633.64a432.16,432.16,0,0,1,51-3.54q16.65,0,48.32,3.54a221.4,221.4,0,0,0,23.86,1.62q18,0,28.95-9.42t11-21.93c0-3.93-1-7.06-3-9.42a9.54,9.54,0,0,0-7.58-3.53,9.08,9.08,0,0,0-6.55,2.64,8.11,8.11,0,0,0-2.72,6,21.34,21.34,0,0,0,1.24,6.88q2,5.28,2,7.63c0,2.74-1.33,5.17-4,7.32s-6.14,3.22-10.46,3.22q-4.86,0-18.42-3.09Q138,616,120.29,616,109.67,616,96,620.3q14.09-28.38,27.13-78.36h30.19a75.16,75.16,0,0,1,12.38.73,6.34,6.34,0,0,1,3.83,1.62c1.38,1.56,2.06,2.9,2.06,4a105.92,105.92,0,0,1-.74,10.74h7.51q3.69-21.35,8.39-39.15h-8.39c-1,5.69-2.57,9.25-4.77,10.67s-8.12,2.14-17.72,2.14H125.41l16.19-64.92,21.52-.15q32.26,0,37.2,1.85t4.94,7.73a80.66,80.66,0,0,1-1.18,11.92h7.84Z"/><path d="M315.69,510.42q-5.6-4.11-16.48-4.11A51.43,51.43,0,0,0,268,516.46q-17.65,13.11-30,37.68T225.61,602q0,14,5.81,23.12t18.63,9.12q24.13,0,59.17-27.53l-3.09-8.53q-23.85,20-41.07,20a12.77,12.77,0,0,1-11.19-5.87q-5.44-7.65-5.44-21.62a115.2,115.2,0,0,1,6.48-37.76q6.48-18.82,13.61-25.36c4.77-4.37,9.54-6.55,14.36-6.55q5.6,0,14,5c5.39,3.15,9.81,4.71,13.24,4.71s6.28-1,8.24-2.87a9.92,9.92,0,0,0,2.94-7.43C321.3,516.5,319.42,513.17,315.69,510.42Z"/><path d="M394.75,506.31q-33.12,0-55.35,32.52A100.17,100.17,0,0,0,321.74,596q0,17.82,9.65,28.11t25.39,10.3q25.62,0,48.58-26t23-58.66q0-20.46-9.57-32T394.75,506.31Zm-4.57,101.26Q380,622.89,367.66,622.88q-8.84,0-14.13-8.1-7.21-11-7.21-30.17,0-31.5,11.7-49.39t24.21-17.88q9,0,14.94,9.42t6,31.5Q403.15,587.7,390.18,607.57Z"/><path d="M699.92,596.39h0a92.67,92.67,0,0,1,1.33-15.16q28-12.66,36.51-17.51,17.07-10,23.69-19.29t6.62-18.84q0-9.14-5.52-14.36t-16-5.23q-29.9,0-51.38,35.47-19.14,31.21-19.13,62.71,0,15.6,5.52,22.67t16,7.07q25.77,0,61.83-34.3l-4.86-6.48q-18.69,14-28.41,18.55a31.45,31.45,0,0,1-13.25,3.39q-6.33,0-9.64-4.12t-3.31-14.57M738.64,549Q726.7,561.2,703,571.8a148,148,0,0,1,9.57-33c3.13-7.36,7-12.85,11.62-16.48a16.81,16.81,0,0,1,10.6-4.12,10.94,10.94,0,0,1,8.61,3.75c2.21,2.49,3.32,5.86,3.32,10.08Q746.74,540.46,738.64,549Z"/><path d="M945.16,601a141.66,141.66,0,0,1-17.81,15.32A9.76,9.76,0,0,1,921.9,618c-2.75,0-4.12-1.66-4.12-5q0-7.37,11.63-45.49,9.27-30.76,10.74-36.8a45,45,0,0,0,1.47-10.45c0-4.91-1.12-8.53-3.38-10.89s-5.46-3.54-9.58-3.54q-6.92,0-19.3,7.29T880.19,538q4.41-14.87,4.41-21.05c0-3.82-.84-6.61-2.5-8.38s-4.11-2.65-7.34-2.65q-18.64,0-53.87,35.92,1.3-7.21,4.71-19.58,2.34-8.38,2.35-11.33a4.62,4.62,0,0,0-1.55-3.69,7.1,7.1,0,0,0-4.66-1.32q-7.54,0-20.68,6.92t-27.69,21.49l4.41,5.89q17.65-16.78,23.4-16.79c1.77,0,2.65,1.14,2.65,3.39q0,2.65-7.36,33.12l-16.64,70.23H801l11.32-49.76q4.56-20,11-29.81t20.94-20.23q8.37-6.18,12.35-6.18a4.4,4.4,0,0,1,3.37,1.25,5,5,0,0,1,1.18,3.61q0,1.47-2.35,11.19l-21.93,89.94h20.9q4.86-23,14.72-59.33,4.41-16.63,10.3-24.29a76.45,76.45,0,0,1,21.2-18.7q6.18-3.69,9.86-3.68,4.41,0,4.41,5,0,5.31-7.5,30.18-10,33.12-12.07,42.62a79.17,79.17,0,0,0-2.07,16.56c0,5.1,1.13,9.11,3.39,12s4.86,4.34,7.8,4.34q5.89,0,14.43-5,4.43-2.66,16.19-13.25,8.55-7.8,11.63-10.3Z"/><path d="M638.52,624.94q-37.59,11.85-63.09,11.85-30.63,0-47.5-17.38t-16.88-48.84q0-49.2,31.8-82.77t78.24-33.58a201.17,201.17,0,0,1,48.9,6l-7.87,31.73h-13l.35-2.36c.07-.63.46-3,1.17-7a41.06,41.06,0,0,0,.71-7q0-6.72-7.75-10t-23.23-3.31q-34.8,0-59,32.19t-24.2,78.35q0,25.38,12.92,39.36t36.33,14q13,0,28.29-5.4l6.57-32.66a90.19,90.19,0,0,0,1.89-16.72c0-2.48-.74-4-2.24-4.55s-6.38-1.09-14.68-1.64l-2.12-.23,1.41-7.29H673L671.55,565l-2.24.23q-16.8,1.05-18.67,5.33A81.84,81.84,0,0,0,645,587.94Z"/></svg>