<svg id="Layer_2" data-name="Layer 2" xmlns="http://www.w3.org/2000/svg" viewBox="0 0 1000 1000"><defs><style>.cls-1,.cls-3{fill:#061d35;}.cls-2,.cls-8{fill:#f68f27;}.cls-3{font-size:91.4px;font-family:TimesNewRomanPS-BoldMT, Times New Roman;letter-spacing:-0.07em;}.cls-3,.cls-8{font-weight:700;}.cls-4{letter-spacing:0em;}.cls-5{letter-spacing:-0.09em;}.cls-6{letter-spacing:-0.04em;}.cls-7{letter-spacing:-0.02em;}.cls-8{font-size:62.84px;font-family:GillSansMT-Bold, Gill Sans MT;letter-spacing:-0.02em;}</style></defs><circle class="cls-1" cx="459.42" cy="346.23" r="37.16"/><circle class="cls-1" cx="448.69" cy="500.65" r="13.79"/><path class="cls-1" d="M636.71,309.07l-6.42,6.55-.72,1.93c9.36,6.3,37,35.61,31.42,74.36-5.47,37.72-10.92,96.33-118.4,159,0,0-2.65,1.42-7.23,4.37l-52.54,45.15c-.35.39-.7.76-1.06,1.15,59.75-14.64,149.85-69.48,185.3-164.24C700.5,348,636.71,309.07,636.71,309.07Z"/><path class="cls-1" d="M365,498.59c-.66-34.11,9.11-58,19.81-73.85l-16-16.77c-17.41,23.56-41,63-39,101.34,3,57.1,17.09,88.62,96.08,98.69,9-11.56,11-25.41,11.37-32.3C417.82,572.51,366.17,558.39,365,498.59Z"/><path class="cls-2" d="M621.89,288.16,553.13,274l-4-32.08a22.84,22.84,0,0,0-22.65-19.87,13,13,0,0,0-12.8,15l4.7,29.83-53.46-11a11.42,11.42,0,0,0-13.72,11.19v8.68A11.42,11.42,0,0,0,461,287.08l32.71,4.66h0l1.63.21c5.09.72,20.8,3.41,24.49,9.74,5.32,9.15,11.67,48,11.71,48.23L544,430.11a8.56,8.56,0,0,0,8.47,7.25h.38a8.55,8.55,0,0,0,8.54-9.15l-7.92-114.88a11.42,11.42,0,0,1,12.88-12.11l56.89,8.72a2.86,2.86,0,0,0,3.29-2.83V293.76A5.71,5.71,0,0,0,621.89,288.16Z"/><text class="cls-3" transform="translate(50 686.35)">F<tspan class="cls-4" x="49.05" y="0">AMI</tspan><tspan class="cls-5" x="236.89" y="0">L</tspan><tspan class="cls-6" x="289.46" y="0">Y</tspan><tspan class="cls-4" x="352.07" y="0" xml:space="preserve"> COVENAN</tspan><tspan class="cls-7" x="837" y="0">T</tspan></text><text class="cls-8" transform="translate(661.7 757.86)">CHURCH</text><path class="cls-1" d="M510.8,315.14s11.43,88.07-43.08,88.07c-65.45,0-126.8-86.34-145-117.34,3.57,20.7,19.28,66.64,67.6,115.08C443.68,454.39,501.4,496,481.05,556c-3.33-24-5-56.89-11.6-65.46,0,0,1.42,35-17,35s-51.06-22-62.3-49.27c3.21,15,12.61,39.87,37.78,60.22s38,35.94,22,69.92c32.85-19.82,76.93-33.11,83.9-125.5C540.08,398.92,510.8,315.14,510.8,315.14Z"/></svg>