<svg id="Layer_2" data-name="Layer 2" xmlns="http://www.w3.org/2000/svg" viewBox="0 0 1000 1000"><defs><style>.cls-1{fill:#ffc600;}</style></defs><path class="cls-1" d="M500,911.85a411.1,411.1,0,1,1,160.38-32.44A409.53,409.53,0,0,1,500,911.85Zm0-812.57a400.09,400.09,0,1,0,156,31.57A398.35,398.35,0,0,0,500,99.28Z"/><path class="cls-1" d="M500,890.81A390.12,390.12,0,1,1,652.18,860,388.7,388.7,0,0,1,500,890.81Zm0-770.49a379.07,379.07,0,1,0,147.84,29.91A377.34,377.34,0,0,0,500,120.32Z"/><path class="cls-1" d="M231.68,649.69a1.79,1.79,0,0,1-3.11,1.75l-.13-.2c-4.13-6.31-7.93-12.84-11.5-19.51-1.78-3.34-3.47-6.73-5.12-10.14s-3.21-6.86-4.68-10.36c-3-7-5.7-14.08-8.11-21.29-.59-1.81-1.21-3.61-1.76-5.43l-1.65-5.46-.41-1.37-.36-1.38-.74-2.76-.74-2.76c-.25-.92-.45-1.85-.68-2.78l-1.33-5.56c-.4-1.86-.78-3.73-1.17-5.59s-.72-3.75-1.06-5.62-.7-3.75-1-5.64-.6-3.77-.87-5.65-.47-3.79-.7-5.68l-.35-2.84-.27-2.85-.28-2.85c-.09-1-.19-1.9-.25-2.85-.15-1.9-.26-3.81-.39-5.71-.07-.95-.11-1.91-.14-2.86l-.12-2.86-.11-2.86c-.05-.95,0-1.91-.06-2.86l-.09-5.72.08-5.73c0-1.9.1-3.81.18-5.72l.12-2.86.05-1.43.09-1.42.38-5.71c.14-1.91.36-3.8.53-5.7l.28-2.85.34-2.84c.24-1.9.45-3.79.71-5.68s.56-3.78.86-5.66.65-3.76,1-5.64.66-3.75,1.07-5.62.76-3.73,1.17-5.59l1.33-5.56c.22-.93.43-1.86.68-2.78l.73-2.76.74-2.76.37-1.38c.13-.45.27-.91.4-1.37l1.65-5.46c.56-1.82,1.18-3.62,1.76-5.43,2.41-7.21,5.1-14.33,8.12-21.29,1.46-3.5,3.09-6.93,4.68-10.36s3.35-6.8,5.12-10.14c3.57-6.67,7.38-13.2,11.51-19.51l.21-.32a1.79,1.79,0,0,1,3.11,1.75c-.05.11-.1.22-.16.33-1.57,3.38-3.12,6.76-4.59,10.17s-2.93,6.83-4.29,10.28-2.71,6.89-4,10.37-2.52,6.94-3.63,10.47l-.87,2.63-.43,1.31-.41,1.32-1.63,5.28c-.53,1.77-1,3.55-1.52,5.31l-.75,2.66-.7,2.67a341.15,341.15,0,0,0,0,174l.7,2.67.75,2.66c.51,1.77,1,3.55,1.52,5.31,1.09,3.52,2.15,7.05,3.34,10.55s2.42,7,3.63,10.47,2.61,6.93,4,10.37,2.82,6.86,4.29,10.27,3,6.79,4.6,10.17Z"/><path class="cls-1" d="M768.3,350.31a1.79,1.79,0,0,1,3.11-1.75l.13.2c4.13,6.31,7.93,12.84,11.5,19.51,1.78,3.34,3.47,6.72,5.12,10.13l2.39,5.16c.81,1.72,1.54,3.46,2.29,5.21,3,7,5.7,14.07,8.12,21.29.58,1.8,1.2,3.6,1.76,5.42l1.65,5.47.41,1.37.36,1.38.74,2.76.74,2.76c.25.92.45,1.85.68,2.77l1.33,5.56c.4,1.86.78,3.73,1.17,5.6s.72,3.74,1.06,5.62.71,3.74,1,5.63.59,3.77.86,5.66.47,3.78.71,5.68l.34,2.84.28,2.85c.17,1.9.39,3.79.53,5.7s.26,3.8.38,5.71l.09,1.42.06,1.43.12,2.86c.19,3.82.19,7.63.26,11.45l-.08,5.72c0,.95,0,1.91-.06,2.86l-.12,2.86-.11,2.86c0,1-.08,1.91-.15,2.86l-.38,5.71c-.06,1-.16,1.9-.25,2.85l-.28,2.85-.27,2.85-.35,2.84c-.23,1.89-.45,3.79-.7,5.68s-.57,3.77-.86,5.65-.65,3.76-1,5.64-.65,3.76-1.06,5.62-.76,3.74-1.17,5.6L807.32,568c-.22.92-.43,1.85-.68,2.77l-.73,2.76-.74,2.76-.37,1.38c-.12.46-.27.91-.4,1.37l-1.65,5.47c-.55,1.82-1.18,3.62-1.76,5.42-2.41,7.22-5.09,14.34-8.11,21.3-1.47,3.5-3.09,6.93-4.68,10.36s-3.35,6.79-5.12,10.14c-3.58,6.67-7.38,13.2-11.51,19.51l-.21.32a1.79,1.79,0,0,1-3.11-1.75c0-.11.1-.22.16-.33,1.57-3.38,3.12-6.76,4.59-10.17s2.93-6.83,4.29-10.28c2.77-6.87,5.29-13.83,7.61-20.84l.86-2.63.43-1.31.41-1.32,1.64-5.28c.52-1.77,1-3.55,1.51-5.32l.75-2.65.7-2.67a341.19,341.19,0,0,0,0-174l-.7-2.67-.76-2.65c-.5-1.77-1-3.55-1.51-5.31-1.09-3.52-2.16-7-3.34-10.55s-2.43-7-3.64-10.47-2.6-6.93-4-10.37-2.81-6.86-4.29-10.27-3-6.79-4.6-10.17Z"/><path class="cls-1" d="M500,738.26a237.59,237.59,0,1,1,92.75-18.73A236.82,236.82,0,0,1,500,738.26Zm0-465.39a226.49,226.49,0,1,0,88.42,17.86A225.73,225.73,0,0,0,500,272.87Z"/><path class="cls-1" d="M500,717.22a216.52,216.52,0,1,1,84.56-17.07A215.9,215.9,0,0,1,500,717.22Zm0-423.31c-113.64,0-206.09,92.45-206.09,206.09S386.36,706.09,500,706.09,706.09,613.64,706.09,500,613.64,293.91,500,293.91Z"/><path d="M256.76,278.46l3.5,2.89-5.77,7.74-3.07-2.53c-4.09-3.37-7.18-3.34-9.65-.35s-1.91,6,1.45,8.81l27.89,23c3.36,2.77,6.39,2.82,8.86-.18s1.85-6-2.24-9.33L269,301.28l-3.61,4.39-7.16-5.91,9.88-12,16.72,13.79c7.74,6.38,8.59,14.57,2.21,22.31s-14.47,8.31-22.21,1.93l-28-23.13c-7.74-6.38-8.66-14.49-2.33-22.16S249,272.07,256.76,278.46Z"/><path d="M296,242.81l22.89,26c6.88,7.81,6.45,16.63-1.08,23.26s-16.33,5.94-23.21-1.88l-22.89-26c-6.88-7.82-6.46-16.64,1.07-23.27S289.11,235,296,242.81Zm-16.7,14.83,22.76,25.85c3.26,3.7,6.64,4.25,9.62,1.62s2.87-6.05-.38-9.75l-22.77-25.85c-3.25-3.7-6.63-4.25-9.62-1.62S276,253.94,279.29,257.64Z"/><path d="M358.08,250l5.13,8-22.5,14.52-35.93-55.66,8.43-5.44L344,259.1Z"/><path d="M358.49,186.59c9.83-4.44,17.59-1.5,22.07,8.41L394,224.85c4.48,9.92,1.55,17.68-8.28,22.12l-13.11,5.92-27.27-60.38ZM378,240.31l3.62-1.64c4.4-2,5.33-5.21,3-10.3l-12.94-28.63c-2.29-5.09-5.33-6.52-9.73-4.54l-3.62,1.64Z"/><path d="M452.11,173.3l.36,1.86-9.29,2.78-.4-2c-.87-4.46-2.94-6.18-6.38-5.51-2.88.57-4.61,2.55-3.89,6.26l.27,1.39c.71,3.63,3.15,6.24,10.7,10.83,10.32,6.38,14.32,11.09,15.79,18.61l.62,3.16c1.87,9.57-3.19,15.77-12.2,17.53s-16.26-2.32-18.14-11.89l-.83-4.27,9.29-2.78.87,4.46c.86,4.36,3.32,6.1,6.85,5.41,3-.58,5.08-2.63,4.17-7.28l-.4-2c-.8-4.09-3.24-6.69-10.79-11.29-10.31-6.38-14.32-11.09-15.7-18.15l-.31-1.58c-1.87-9.57,2.72-15.67,11.83-17.45S450.24,163.74,452.11,173.3Z"/><path d="M486.4,165.67l3.16,56.69-10,.56-3.16-56.7-10.68.6-.53-9.45,31.38-1.75.53,9.45Z"/><path d="M529.6,223.6l-1-15.17-11-.85-3.32,14.84-10-.77,16.5-65.18,12.74,1,6.34,66.93Zm-10-25,8.4.65L526,171.12l-.28,0Z"/><path d="M573,231.7l-2.3-45.79-.19,0-10.47,42.65-9.19-2.26,15.8-64.34,10.84,2.66,2.08,41.15.19.05,9.41-38.33,9.19,2.26-15.8,64.34Z"/><path d="M636,183.74c9.9,4.27,13,12,8.66,22l-13,30.07c-4.31,10-12,13.05-21.93,8.78l-13.21-5.7L622.8,178Zm-26.57,50.59,3.65,1.57c4.43,1.92,7.44.43,9.65-4.7l12.45-28.85c2.21-5.12,1.23-8.33-3.21-10.24l-3.65-1.58Z"/><path d="M655.33,269.25l6.21-13.87-9.35-5.93L642.3,261l-8.48-5.37L679,205.8l10.79,6.83L664,274.72Zm2.84-26.77,7.12,4.51,11.5-25.76-.24-.15Z"/><path d="M701.68,269.8l-3.48-3.06-18.52,21-7.53-6.63,43.8-49.7L726.82,241c8.09,7.14,8.62,15.42,1.42,23.58l-3.13,3.55c-4.63,5.26-9.73,7.32-15,6.24l-13.07,28.73-8-7Zm2.65-10,3.06,2.69c3.62,3.19,6.94,2.71,10.63-1.48l2.25-2.55c3.7-4.19,3.75-7.55.13-10.74l-3-2.69Z"/><path d="M765.11,280.32c6.88,8.32,6.09,16.58-2.3,23.51l-25.25,20.86c-8.39,6.93-16.65,6.15-23.52-2.17l-9.16-11.09L756,269.23Zm-46.69,32.94,2.53,3.06c3.07,3.72,6.43,3.77,10.73.21l24.23-20c4.3-3.56,4.89-6.86,1.81-10.58l-2.53-3.07Z"/><path d="M306.29,713,267.4,754.39l-7.31-6.87L299,706.14l-7.8-7.32,6.48-6.9,22.9,21.51-6.48,6.9Z"/><path d="M338.46,804.45l13.94-25.28L342,773.41,328,798.69l-8.79-4.84,32-58,8.79,4.84-13.48,24.45L357,770.88l13.48-24.45,8.78,4.84-32,58Z"/><path d="M426.13,777.91l-4.6,18.16,14.22,3.6-2.27,9-14.22-3.6-4.83,19.09L432,828.61l-2.27,9-27.35-6.92,16.26-64.23L446,773.37l-2.27,9Z"/><path d="M499.69,816.32l-4.64,0,.08,28-10,0-.19-66.25,14.48,0c10.79,0,16.67,5.81,16.71,16.7v4.73c0,7-2.43,11.93-7.06,14.6l9.27,30.16-10.6,0ZM495,807.06h4.07c4.83,0,7-2.58,7-8.16v-3.41c0-5.58-2.2-8.13-7-8.12H495Z"/><path d="M594.54,831.21l-5.92-14L577.91,820l1.71,15.11-9.7,2.54-5.73-67,12.36-3.24,27.88,61.17Zm-17.65-20.32,8.15-2.14-11-26-.28.07Z"/><path d="M636,742.5c9.41-5.26,17.4-3,22.71,6.5l2.58,4.63c5.31,9.5,3,17.49-6.37,22.75l-3.89,2.17,13.39,24-8.76,4.89-32.31-57.84Zm10.51,28,3.55-2c4.22-2.36,4.87-5.65,2.15-10.53l-1.94-3.47c-2.72-4.87-5.87-6-10.08-3.69l-3.56,2Z"/><path d="M739.91,746.91l-7.3,6.89L712,732l-35-16.81,7.71-7.28L707,719.18l.14-.13-10.26-22.59,7.57-7.15,15,35.85Z"/><path class="cls-1" d="M500,667.32c-9.37,0-25.34-7.19-47.48-21.38a486.19,486.19,0,0,1-50.33-37.24,58.13,58.13,0,0,1-20.29-44.14V430.24a5.58,5.58,0,0,1,3.94-5.33c2.14-.65,53.11-16,114.16-16s112,15.37,114.16,16a5.58,5.58,0,0,1,3.94,5.33V564.56a58.13,58.13,0,0,1-20.29,44.14,486.19,486.19,0,0,1-50.33,37.24C525.34,660.13,509.37,667.32,500,667.32ZM393,434.45V564.56a47,47,0,0,0,16.4,35.69,470.85,470.85,0,0,0,49.09,36.31c27.63,17.71,38.2,19.63,41.47,19.63s13.84-1.92,41.47-19.63a470.85,470.85,0,0,0,49.09-36.31A47,47,0,0,0,607,564.56V434.45C593.87,430.88,549.85,420,500,420S406.13,430.88,393,434.45Z"/><path d="M591.49,476V448.18a2.1,2.1,0,0,0-1.63-2.05,421,421,0,0,0-82.45-10.55,2.1,2.1,0,0,0-2.15,2.1v50h-.05v20.23a2.09,2.09,0,0,0,2,2.1,498.24,498.24,0,0,1,60.22,5.71,2.11,2.11,0,0,1,1.75,2.08v46.79a9.34,9.34,0,0,1-3.26,7.07,429,429,0,0,1-35.14,26.71,2.1,2.1,0,0,1-3.29-1.74V563.29a2.1,2.1,0,0,0-3-1.9l-18.07,8.53a2.1,2.1,0,0,0-1.2,1.89v63.87a2.1,2.1,0,0,0,3,1.91c5.56-2.53,14.13-7.07,26.65-15.19a458.25,458.25,0,0,0,45.59-33.88,31.58,31.58,0,0,0,11-24V499.38a2.11,2.11,0,0,0-1.64-2.05c-20.37-4.6-36.67-6.91-60.36-8.54a2.11,2.11,0,0,1-2-2.1V461.22a2.11,2.11,0,0,1,2.29-2.1c14.14,1.25,27,3.19,37.68,5.14a2.09,2.09,0,0,1,1.72,2.07V476a2.1,2.1,0,0,0,2.1,2.11h18.07A2.1,2.1,0,0,0,591.49,476Z"/><path d="M492.62,487.71A519.8,519.8,0,0,0,433.2,493a2.1,2.1,0,0,1-2.42-2.08V466.33a2.09,2.09,0,0,1,1.72-2.07c10.63-1.95,23.54-3.89,37.68-5.14a2.11,2.11,0,0,1,2.29,2.1V465a2.1,2.1,0,0,0,2.1,2.1h18.07a2.1,2.1,0,0,0,2.1-2.1V437.68a2.1,2.1,0,0,0-2.15-2.1,421,421,0,0,0-82.45,10.55,2.1,2.1,0,0,0-1.63,2.05V564.56a31.58,31.58,0,0,0,11,24,458.25,458.25,0,0,0,45.59,33.88c12.51,8.12,21.09,12.66,26.65,15.19a2.1,2.1,0,0,0,3-1.92V509.93h.05V489.81A2.1,2.1,0,0,0,492.62,487.71ZM472.47,596.6a2.1,2.1,0,0,1-3.29,1.74A429,429,0,0,1,434,571.63a9.34,9.34,0,0,1-3.26-7.07V517.77a2.11,2.11,0,0,1,1.75-2.08c10.5-1.77,23.1-3.42,37.67-4.53a2.11,2.11,0,0,1,2.27,2.1Z"/><path class="cls-1" d="M565.51,345.83a17.58,17.58,0,0,0-14.11,4.65,11.27,11.27,0,0,0-4.87-1.52c-5.84-.44-10.83,3.63-11.13,9a9.83,9.83,0,0,0,5.76,9.31l-.5.5c-2.88,2.84-7.84,4.57-12.42,4.35a17.63,17.63,0,0,1-11-4.53L516,366.32a9.9,9.9,0,0,0,7.47-9c.23-5.42-4.49-10-10.47-10h0a11.39,11.39,0,0,0,0-5.29c-1-4.46-5.11-8.16-10.13-9.1-8.64-1.63-16.34,4.37-16.13,12a11.55,11.55,0,0,0,.32,2.42h0c-6,0-10.7,4.59-10.47,10a9.9,9.9,0,0,0,7.47,9l-1.23,1.23a17.51,17.51,0,0,1-11.05,4.53c-4.43.21-9.42-1.38-12.41-4.34l-.51-.51a9.83,9.83,0,0,0,5.76-9.31c-.3-5.33-5.29-9.4-11.13-9a11.27,11.27,0,0,0-4.87,1.52,17.58,17.58,0,0,0-14.11-4.65,2.72,2.72,0,0,0-2,1.19,2.27,2.27,0,0,0-.18,2.18q10.2,22.37,19.27,45a4.19,4.19,0,0,0,4.35,2.63,396.34,396.34,0,0,1,88.18,0,4.19,4.19,0,0,0,4.35-2.63q9.06-22.67,19.27-45a2.27,2.27,0,0,0-.18-2.18A2.72,2.72,0,0,0,565.51,345.83Z"/></svg>