<svg id="Layer_2" data-name="Layer 2" xmlns="http://www.w3.org/2000/svg" viewBox="0 0 1000 1000"><defs><style>.cls-1{fill:#f16623;opacity:0.9;}</style></defs><path d="M69.66,552.16H51.23A1.16,1.16,0,0,1,50,550.93V465.76a1.16,1.16,0,0,1,1.23-1.23H69.66a1.16,1.16,0,0,1,1.23,1.23v85.17A1.16,1.16,0,0,1,69.66,552.16Z"/><path d="M182,552.16h-11.8a1.75,1.75,0,0,1-1.48-.73l-37.36-45.6c-.74-1-1.47-.49-1.47.61v44.49a1.17,1.17,0,0,1-1.23,1.23H110.21a1.16,1.16,0,0,1-1.23-1.23V465.76a1.16,1.16,0,0,1,1.23-1.23H122a1.74,1.74,0,0,1,1.47.74l37.37,45.6c.73,1,1.47.49,1.47-.62V465.76a1.16,1.16,0,0,1,1.23-1.23H182a1.17,1.17,0,0,1,1.23,1.23v85.17A1.17,1.17,0,0,1,182,552.16Z"/><path d="M285.57,465.76v16a1.16,1.16,0,0,1-1.23,1.23h-21a1.16,1.16,0,0,0-1.23,1.23v66.73a1.17,1.17,0,0,1-1.23,1.23H242.43a1.16,1.16,0,0,1-1.23-1.23V484.2A1.16,1.16,0,0,0,240,483H218.83a1.16,1.16,0,0,1-1.22-1.23v-16a1.16,1.16,0,0,1,1.22-1.23h65.51A1.16,1.16,0,0,1,285.57,465.76Z"/><path d="M375.15,535v16a1.17,1.17,0,0,1-1.23,1.23H320a1.16,1.16,0,0,1-1.23-1.23V465.76a1.16,1.16,0,0,1,1.23-1.23h52.73a1.17,1.17,0,0,1,1.23,1.23v16a1.17,1.17,0,0,1-1.23,1.23H340.85a1.16,1.16,0,0,0-1.22,1.23v14.38a1.16,1.16,0,0,0,1.22,1.23h23a1.16,1.16,0,0,1,1.23,1.23v16a1.16,1.16,0,0,1-1.23,1.23h-23a1.16,1.16,0,0,0-1.22,1.23v13a1.16,1.16,0,0,0,1.22,1.23h33.07A1.17,1.17,0,0,1,375.15,535Z"/><path d="M409.54,550.93V465.76a1.16,1.16,0,0,1,1.23-1.23h37.48c17.58,0,31.84,13,31.84,30.85,0,11.19-5.17,20.28-15,26.3a1.22,1.22,0,0,0-.37,1.72l14.63,27.29c.49.86,0,1.47-.86,1.47H458.58a1.5,1.5,0,0,1-1.48-.86l-12.41-24.21a1.49,1.49,0,0,0-1.47-.86H431.66a1.17,1.17,0,0,0-1.23,1.23v23.47a1.16,1.16,0,0,1-1.23,1.23H410.77A1.16,1.16,0,0,1,409.54,550.93Zm36.26-43.14c7.49,0,13.39-5.16,13.39-12.41,0-7.62-6.26-12.41-13.39-12.41H431.66a1.17,1.17,0,0,0-1.23,1.23v22.37a1.16,1.16,0,0,0,1.23,1.22Z"/><path d="M574.58,520.7l17.08,2.21c1,.13.86,1.11.74,1.72-2.95,16-18.68,27.9-37.37,27.9-25.44,0-43-20.16-43-44.37s17.57-44,43-44c18.69,0,34.17,11.93,37.37,27.9.12.62.25,1.6-.74,1.72L574.58,496a1.35,1.35,0,0,1-1.72-.74c-2-5-7.13-12.66-18.68-12.66-10.57,0-21.27,8.11-21.27,25.56s10.7,25.94,21.27,25.94c11.55,0,16.71-7.62,18.68-12.66A1.35,1.35,0,0,1,574.58,520.7Z"/><path d="M773,550.93V465.76a1.17,1.17,0,0,1,1.23-1.23h37.49c17.57,0,31.83,13,31.83,30.85,0,11.19-5.16,20.28-15,26.3a1.2,1.2,0,0,0-.37,1.72l14.62,27.29c.5.86,0,1.47-.86,1.47h-19.9a1.49,1.49,0,0,1-1.48-.86L808.2,527.09a1.5,1.5,0,0,0-1.48-.86H795.17a1.16,1.16,0,0,0-1.23,1.23v23.47a1.16,1.16,0,0,1-1.23,1.23H774.27A1.17,1.17,0,0,1,773,550.93Zm36.26-43.14c7.5,0,13.4-5.16,13.4-12.41,0-7.62-6.27-12.41-13.4-12.41H795.17a1.16,1.16,0,0,0-1.23,1.23v22.37a1.16,1.16,0,0,0,1.23,1.22Z"/><path d="M878,550.93V465.76a1.16,1.16,0,0,1,1.23-1.23h35c19.79,0,35.77,13,35.77,32.7s-16,32.69-35.77,32.69H900.1a1.16,1.16,0,0,0-1.23,1.23v19.78a1.16,1.16,0,0,1-1.22,1.23H879.21A1.16,1.16,0,0,1,878,550.93Zm35-39.45c9.71,0,16.1-3.93,16.1-14.25S922.6,483,913,483H900.1a1.16,1.16,0,0,0-1.23,1.23v26.05a1.16,1.16,0,0,0,1.23,1.23Z"/><path class="cls-1" d="M695.38,428.53a44.81,44.81,0,0,1,19.91-.45,19.78,19.78,0,0,1,4.39,1.36h-3.36a85.18,85.18,0,0,0-30.76,6,89.11,89.11,0,0,0-25.2,15.06,86.58,86.58,0,0,0-19.1,22.54,71.81,71.81,0,0,0-9.46,26.59,57.84,57.84,0,0,0,1.11,22.11,55.22,55.22,0,0,0,7.66,17.08,79.82,79.82,0,0,0,7.52,10.35q10.54,11.55,24.2,12.87a42.05,42.05,0,0,0,19-2.77,73.53,73.53,0,0,0,18.79-10.62,93,93,0,0,0,8.49-7.18,47.5,47.5,0,0,0,5.24-6.57A95.4,95.4,0,0,0,736,512.67a78,78,0,0,0,5.12-28.13C743.18,457.9,715,453.65,715,453.65a41.83,41.83,0,0,0-19.8,2.53A58.28,58.28,0,0,0,672.62,471a52.46,52.46,0,0,0-12.29,19.82,38.73,38.73,0,0,0-1.46,21.48A30.64,30.64,0,0,0,668.3,528,15.23,15.23,0,0,0,680,532.28c5-.32,8.86-2.27,12.46-4.64,6.28-4.15,11.32-9.48,16-15.17a152.49,152.49,0,0,0,10.15-14.12c.1-.17.12-.43.58-.41-.68,1.71-1.3,3.37-2,5a85.88,85.88,0,0,1-15.43,24.51,51.15,51.15,0,0,1-16.56,12.62,27.38,27.38,0,0,1-11,2.73c-8,.15-14.58-3.61-19.62-11.34a32.57,32.57,0,0,1-5.28-16,45.85,45.85,0,0,1,2.18-17.19c3.32-10.64,9-19.65,15.95-27.73a83.69,83.69,0,0,1,21.12-17.75c6.68-3.92,14-7,22.62-7.92,0,0,25.21-1.63,34.07,16.25a51,51,0,0,1,5.22,19.64c.75,11.23-1.35,21.24-4.75,30.69a103.41,103.41,0,0,1-16.91,29.85,97.4,97.4,0,0,1-18.51,17.87c-8.1,5.93-17.1,10.68-28,12.77a47.63,47.63,0,0,1-22-.79c-8.74-2.4-16.39-7.31-23.42-14-3.93-3.75-6.23-8-8.24-12.3a67.94,67.94,0,0,1-6.1-38.85,78,78,0,0,1,11.39-30.6A123,123,0,0,1,656,449.21,107.67,107.67,0,0,1,695.38,428.53Z"/></svg>