<?xml version="1.0" encoding="utf-8"?>
<!-- Generator: Adobe Illustrator 26.3.0, SVG Export Plug-In . SVG Version: 6.00 Build 0)  -->
<svg version="1.1" id="Layer_1" xmlns="http://www.w3.org/2000/svg" xmlns:xlink="http://www.w3.org/1999/xlink" x="0px" y="0px"
	 viewBox="0 0 1000 1000" style="enable-background:new 0 0 1000 1000;" xml:space="preserve">
<style type="text/css">
	.st0{display:none;}
	.st1{display:inline;fill:#FFFFFF;}
	.st2{fill:#FFFFFF;}
</style>
<g id="Layer_1_00000044160893326282256050000005483692956984757131_" class="st0">
	<rect y="0" class="st1" width="1000" height="1000"/>
</g>
<g>
	<g>
		<path class="st2" d="M207,354.2c0-27.3,0-54.6,0-81.9c0-1.6-0.1-3.1,0.1-4.7c0.4-5.1,3.7-8.3,8.8-8.6c1.1-0.1,2.2,0,3.3,0
			c20.4,0,40.8,0.1,61.2-0.1c5.8-0.1,9.8,1.5,12.3,7.2c2.6,5.9,9,7,14.1,2.6c7.1-6.2,15-10.8,24.2-13.1c23-5.8,42.7,0.3,59.3,17.1
			c1.6,1.7,3.1,3.5,4.7,5.3c4.3,4.6,9.4,4.7,14,0.3c3.7-3.6,7.4-7.3,11.4-10.5c11.7-9.2,24.8-14.5,39.9-14.2
			c18.4,0.3,33.3,7.7,44.6,22.3c8.2,10.7,12.7,23,15.6,35.9c2.6,11.5,3.6,23.2,3.6,35c0.1,30.4,0,60.9,0,91.3c0,1.1,0.1,2.2-0.1,3.3
			c-0.6,4.8-3.9,7.9-8.7,8.2c-0.8,0.1-1.6,0-2.4,0c-21.5,0-43,0-64.5,0c-0.5,0-0.9,0-1.4,0c-6-0.2-9.3-3.4-9.5-9.4
			c-0.1-2.5,0-5,0-7.5c0-27.3,0.1-54.6-0.1-81.9c0-4.3-0.6-8.8-1.9-12.9c-2-6.6-7.1-10.6-12.4-10.6c-5.2,0-10.5,4-12.5,10.5
			c-1.2,4.1-1.9,8.6-1.9,12.9c-0.2,26-0.1,52.1-0.1,78.1c0,2.8-0.2,5.7,0,8.5c0.6,8.4-3.2,12.5-12.2,12.4
			c-20.7-0.4-41.4-0.1-62.1-0.1c-1.4,0-2.8,0.1-4.2-0.1c-4-0.4-7-3.2-7.6-7.2c-0.3-1.7-0.2-3.4-0.2-5.2c0-28.2,0-56.5-0.1-84.7
			c0-4.4-0.3-8.8-1.4-13c-0.8-3-2.6-6.1-4.7-8.5c-4.6-5-11.4-4.9-16.3-0.1c-4.1,3.9-5.4,9.1-6,14.4c-0.2,1.9-0.1,3.8-0.1,5.6
			c0,28.7,0,57.4,0,86.1c0,1.6,0.1,3.2-0.1,4.7c-0.6,4.3-3.8,7.3-8.2,7.7c-0.9,0.1-1.9,0.1-2.8,0.1c-21.5,0-43,0-64.5,0
			c-0.6,0-1.3,0-1.9,0c-5.4-0.3-8.8-3.5-9.1-8.8c-0.2-3.4-0.1-6.9-0.1-10.3C207,405,207,379.6,207,354.2z"/>
		<path class="st2" d="M335.1,506.6c-11.8-3.8-23.9-4.7-36.2-4.1c-32.3,1.4-62.7,10.1-91,25.7c-0.4,0.2-0.9,0.4-1.3,0.6
			c-12.2-15.8-5.8-42.7,4.8-55.9c7.2,15.2,19.8,24.3,35.5,31.1c-4.4-14.6-1.8-27.5,6.5-40.3c4.5,9,10.3,16.1,18,21.7
			c7.7,5.6,16.1,9.5,25.7,13.1c-1.6-4-3.3-7.3-4.3-10.8c-1-3.5-1-7.1,1.5-10.7c1,1,2,1.7,2.7,2.6c8.9,11.2,20.5,16.8,34.6,18.8
			c27.1,3.8,48.3,17.4,63.7,39.9c7,10.3,11.6,21.5,12.4,34c0,0.6,0.2,1.2,0.5,2.2c6.4-2.5,13-1.7,19.4-1.5
			c8.6,0.3,11.7-4.9,11.6-11.8c-0.2-23.2-0.1-46.4-0.1-69.6c0-6.4,0-12.9,0-19.3c0.1-7.4,3.2-10.6,10.6-10.6c21.2,0,42.3,0,63.5,0
			c7.6,0,10.9,3.3,10.9,10.9c0,48.6,0,97.2,0,145.9c0,30,0,59.9,0,89.9c0,1.4,0.1,2.8,0,4.2c-0.3,4.2-3,7.3-7.2,8.2
			c-1.4,0.3-2.8,0.3-4.2,0.3c-20.7,0-41.4,0-62.1,0c-1.3,0-2.5,0-3.7-0.2c-4.7-0.8-7.5-3.9-7.8-8.6c-0.1-1.2,0-2.5,0-3.8
			c0-14.1,0-28.2,0-42.3c0-1.6,0-3.2-0.2-4.7c-0.7-4.9-4-7.8-8.9-8c-4.1-0.1-8.2,0-12.2,0c-1.3,0-2.5,0.1-3.8-0.1
			c-5.3-0.5-8.6-3.9-8.7-9.3c-0.1-7.4,0-14.7,0-22.1c0-1.5,0-3.1,0-5.8c-1.3,1.8-2,2.7-2.6,3.7c-7.1,11.9-16.5,21.6-28.2,29.1
			c-1.6,1-3.4,2.9-5.5,1.4c-2.1-1.6-0.7-3.7-0.4-5.6c0.5-2.9,1.5-5.9,1.3-8.7c-0.5-5.6-3.9-9.6-8.9-11.9c-4.8-2.2-6.9-6.2-7.9-11
			c-0.8-4,0.8-7.3,3.5-10.8c-6.1,2.9-8.6,8.4-7,14.4c1.4,5.1,4.2,9.4,7.5,13.4c1.1,1.3,2.1,2.6,3.7,4.6c-10.5-0.7-18.1-5.8-26.1-11
			c-4.7,2.5-8.7,5.9-12.3,9.8c-8.5,9.4-12.9,20.8-14.7,33.1c-1.7,11.9-2.5,24-3.8,36c-0.4,3.9-1.1,7.8-2.1,11.5
			c-1.2,4.7-4,6.7-8.8,7c-1.1,0.1-2.2,0-3.3,0c-23.5,0-47,0-70.6,0c-1.4,0-2.8,0.1-4.2-0.1c-4.7-0.7-7.6-3.8-7.9-8.5
			c-0.1-2-0.1-4.1-0.1-6.1c0-53.8,0-107.6-0.1-161.4c0-4,1.3-6.2,4.6-8.2c32.5-19.9,67.6-31.2,105.9-31.3c3,0,6,0.2,8.9,0.4
			C329.2,506,332.1,506.3,335.1,506.6z M413.8,581c-1.1,5.7-0.9,60.5,0.2,64.2c4.9,0,9.9-0.1,14.9,0c11.2,0.1,18.1,7.1,18.1,18.4
			c0,14.6,0,29.2,0,43.8c0,1.7,0.1,3.3,0.2,5.3c23.1,0,45.7,0,68.3,0c0.3-0.4,0.5-0.7,0.6-1c0.1-0.4,0.2-0.9,0.2-1.4
			c0-79.2,0-158.4,0-237.6c0-0.6-0.2-1.2-0.3-1.8c0-0.1-0.2-0.3-0.3-0.4c-0.1-0.1-0.2-0.2-0.3-0.3c-6.4-0.8-64.6-0.5-68.5,0.5
			c0,1.7,0,3.5,0,5.4c0,28.9-0.2,57.7,0.1,86.6c0.1,9.7-7,18.9-18.6,18.5C423.7,580.8,418.8,581,413.8,581z M396,572.8
			c-0.6-2.5-0.9-4.1-1.4-5.5c-6.7-19.1-19.5-32.9-37.8-41c-16.7-7.4-33.5-6.1-48.8,4.5c-18,12.4-21.7,34.7-8.9,52.5
			c6.8,9.5,16,15.8,27.1,19.2c1.5,0.4,3,0.6,4.8,1c-0.3-17.1,6-30.5,21.3-38.2C367.9,557.5,382.4,561,396,572.8z"/>
		<path class="st2" d="M715.3,455.6C687.6,455,662,448,639,432.3c-2.6-1.8-5.1-3.7-7.5-5.7c-4.1-3.5-4.9-7.7-2.2-12.2
			c5.8-9.5,11.6-19,17.7-28.3c3-4.6,7.9-5.4,12.8-2.6c4.2,2.4,8.4,4.9,12.8,6.9c7.7,3.4,15.8,5.1,24.2,5.2c3,0,5.6-0.8,7.6-3
			c2.5-2.7,2.3-5.6-0.8-7.5c-2.8-1.7-5.8-3.1-8.8-4.4c-7.1-3.2-14.5-5.9-21.5-9.6c-5.9-3.1-11.7-6.8-16.9-10.9
			c-27.2-21.4-27.2-64.3-0.7-86.7c11.1-9.4,23.9-14.8,38-17.5c35.2-6.8,67.6-0.4,97,20.4c0.3,0.2,0.5,0.4,0.8,0.6
			c6.4,4,7.3,9.7,3,16c-5.2,7.7-9.9,15.7-14.8,23.5c-4.6,7.4-8.5,8.4-15.9,4c-6.3-3.8-12.9-6.3-20.2-7.3c-3.4-0.4-6.9-0.8-10.1,1.1
			c-4.6,2.8-4.7,7.2-0.1,9.8c3.3,1.8,6.8,3.2,10.2,4.8c7,3.2,14.2,5.9,20.9,9.6c5.6,3,11,6.7,16,10.7c25.8,21.2,25.8,62.3,1.3,84.5
			c-12,10.9-26.4,16.7-42.2,19.3C731.6,454.3,723.4,454.8,715.3,455.6z"/>
		<path class="st2" d="M623,354.8c0,27.4,0,54.9,0,82.3c0,1.6,0.1,3.2-0.1,4.7c-0.6,4.3-3.8,7.3-8.1,7.8c-0.8,0.1-1.6,0.1-2.3,0.1
			c-21.8,0-43.6,0-65.4,0c-7.3,0-10.5-3.3-10.6-10.7c0-0.9,0-1.9,0-2.8c0-10,0-20.1,0-30.1c0-44.5,0-89,0-133.6
			c0-1.6-0.1-3.1,0.1-4.7c0.5-5.3,3.8-8.5,9.2-8.8c1.4-0.1,2.8,0,4.2,0c20.2,0,40.4,0,60.7,0c1.4,0,2.8-0.1,4.2,0.1
			c4.4,0.4,7.5,3.5,8.1,7.8c0.2,1.5,0.1,3.1,0.1,4.7C623,299.3,623,327,623,354.8z"/>
		<path class="st2" d="M635.7,653.4c-0.1-2.1-0.2-3.5-0.2-4.9c0-21.2,0-42.3,0-63.5c0-0.6,0-1.3,0-1.9c0.3-5.8,3.7-9.3,9.5-9.5
			c3.6-0.1,7.2,0,10.8,0c9.2,0,12.2-2.9,12.2-12c0-27.7,0-55.5,0-83.2c0-1.3,0-2.5,0-3.8c0.3-5,3.2-8.2,8-8.9
			c1.1-0.2,2.2-0.1,3.3-0.1c21.2,0,42.3,0,63.5,0c0.8,0,1.6,0,2.4,0c5.6,0.4,8.9,3.7,9.3,9.3c0.1,1.1,0,2.2,0,3.3c0,58,0,116,0,174
			c0,15.1-1.9,30-7.3,44.3c-10.3,27.3-30.2,43.1-58.7,48.3c-14.7,2.7-29.3,2.1-44-0.1c-6-0.9-8.9-4.1-8.9-10.1
			c-0.1-17.4-0.1-34.8,0-52.2c0-6.7,3.7-10,10.4-9.9c2,0,4.2,0.4,6.1,0c2.8-0.6,5.8-1.5,8.3-2.9c3.6-2.1,4.7-5.8,3.7-9.3
			c-1.1-4.1-4.2-6.6-8.6-6.7c-4.9-0.1-9.7,0-14.6,0C639.3,653.4,637.7,653.4,635.7,653.4z M746.4,474c-23.8,0-46.9,0-70.6,0
			c0,2,0,3.7,0,5.4c0,22.7,0,45.5,0,68.2c0,5.6,0.1,11.3,0,16.9c-0.2,9.4-6.1,15.9-15.5,17c-2.9,0.3-5.9,0.2-8.9,0.2
			c-2.5,0-4.9,0-7.2,0c-1.1,6.5-0.8,60.1,0.3,63.5c3.5,0,7.1-0.1,10.7,0c8.3,0.3,14.7,5.4,16.6,12.8c1.9,7.9-1.4,15.2-9,19.4
			c-4.4,2.4-9.1,3.3-14,3.2c-1.5,0-3.1,0-4.9,0c0,18.7,0,37.1,0,55.5c1.3,0.3,2.4,0.7,3.4,0.9c12.2,1.6,24.3,2.2,36.6,0.4
			c29.7-4.3,49-20.7,57.7-49.4c3.8-12.6,4.9-25.5,4.9-38.6c0-56.6,0-113.2,0-169.8C746.4,477.9,746.4,476.2,746.4,474z"/>
		<path class="st2" d="M622.9,558.1c0,27.9-0.2,55.8,0.1,83.7c0.1,8.7-5.2,11.8-11.7,11.7c-21.2-0.2-42.3-0.1-63.5-0.1
			c-0.8,0-1.6,0-2.3,0c-5.6-0.5-8.9-3.9-9-9.5c-0.1-7.2,0-14.4,0-21.6c0-49.1,0-98.1,0-147.2c0-1.6-0.1-3.1,0.1-4.7
			c0.5-4.3,3.7-7.4,8-7.9c1.1-0.1,2.2-0.1,3.3-0.1c21.3,0,42.6,0,63.9,0c0.9,0,1.9,0,2.8,0c4.6,0.4,7.8,3.6,8.3,8.1
			c0.1,1.4,0.1,2.8,0.1,4.2C622.9,502.6,622.9,530.3,622.9,558.1z M614.4,645c1.1-6.6,0.7-170.9-0.3-174.2c-5.6-1-66-0.7-69.2,0.3
			c-1,5.7-0.7,170.3,0.4,173.9C568.2,645,591.1,645,614.4,645z"/>
		<path class="st2" d="M337,560.4c-6.9-0.1-12.4-5.9-12.3-12.8c0.1-6.6,5.5-11.8,12.2-11.7c6.9,0.1,12.4,5.8,12.3,12.8
			C349,555.4,343.6,560.5,337,560.4z M341.6,545.1c0-2.3-2-4.2-4.2-4.2c-2,0.1-3.9,2-3.8,4c0,2.2,2.1,4.2,4.3,4.1
			C340,549,341.7,547.2,341.6,545.1z M331.5,545c-1-0.6-1.7-1.3-2.2-1.1c-0.6,0.1-1.3,0.9-1.3,1.5c0,0.5,1,1.5,1.3,1.4
			C330,546.5,330.6,545.8,331.5,545z"/>
	</g>
</g>
</svg>
