<?xml version="1.0" encoding="utf-8"?>
<!-- Generator: Adobe Illustrator 26.3.1, SVG Export Plug-In . SVG Version: 6.00 Build 0)  -->
<svg version="1.1" id="Layer_2_00000103227007390612763160000012188338226264433080_"
	 xmlns="http://www.w3.org/2000/svg" xmlns:xlink="http://www.w3.org/1999/xlink" x="0px" y="0px" viewBox="0 0 1000 1000"
	 style="enable-background:new 0 0 1000 1000;" xml:space="preserve">
<style type="text/css">
	.st0{fill:#242324;}
</style>
<g>
	<g>
		<path class="st0" d="M108,461.5h-4.8v1.2v46.6h-9.8l0,0h0l-23.9-47.8h-5.1v47.8H50v4.7h14.5v1.1v23.4h4.8v-24.5h21.4l0,0h0
			l12.3,24.5h5.1v-24.5h17.4v-4.7H108V461.5z M104.8,534.5L104.8,534.5L104.8,534.5L104.8,534.5z M69.1,470.9L87.7,508h0l0.6,1.2
			l0,0H72.1h-2.8V485C69.2,478.6,69.2,474.2,69.1,470.9z M103.5,529.2l-7-13.9l-0.7-1.4h7.5v1.1
			C103.3,520.6,103.4,525.4,103.5,529.2z"/>
	</g>
	<g>
		<polygon class="st0" points="151.7,462.7 151.7,538.5 156.6,538.5 156.6,461.5 151.7,461.5 		"/>
	</g>
	<g>
		<polygon class="st0" points="208.8,497.1 240.7,461.5 234.7,461.5 205.1,494.4 205.1,461.5 200.3,461.5 200.3,462.7 200.3,538.5 
			205.1,538.5 205.1,500 236.2,538.5 242,538.5 240.5,536.6 		"/>
	</g>
	<g>
		<polygon class="st0" points="273.4,462.7 273.4,538.5 278.3,538.5 278.3,461.5 273.4,461.5 		"/>
	</g>
	<g>
		<polygon class="st0" points="311.5,466.2 332.1,466.2 332.1,538.5 333.3,538.5 335.8,538.5 337,538.5 337,466.2 357.4,466.2 
			358.3,461.5 311.5,461.5 		"/>
	</g>
	<g>
		<path class="st0" d="M400,461.5l-24,77h4.9l6.8-22.3h29.4l6.8,22.3h5l-24.1-77H400z M415.6,511.6h-26.4l13.2-43L415.6,511.6z"/>
	</g>
	<g>
		<path class="st0" d="M653.6,470.5c-4.8-6.7-11.9-10.1-20.1-10.1v0c-8.1,0-15.1,3.5-19.9,10.3c-4.8,6.8-7.5,16.7-7.5,29.4
			c0,12.7,2.7,22.5,7.5,29.2c4.8,6.7,11.8,10.2,20,10.2c8.5,0,15.6-3.5,20.3-10.3c4.7-6.8,7.3-16.6,7.3-29.2l0,0
			C661,487,658.4,477.1,653.6,470.5z M650,526.4c-3.9,5.7-9.4,8.4-16.6,8.5v0v0c-6.7,0-12.2-2.8-16.2-8.4c-4-5.7-6.4-14.4-6.4-26.3
			c0-12,2.4-20.9,6.4-26.6c4-5.7,9.5-8.5,16.2-8.5c6.9,0,12.4,2.7,16.4,8.4c3.9,5.7,6.3,14.5,6.3,26.6
			C656.1,511.9,653.9,520.7,650,526.4z"/>
	</g>
	<g>
		<path class="st0" d="M724.5,502c4.2-1,7.9-3,10.5-6c3-3.4,4.6-8.1,4.6-13.9c0-6.3-1.7-11.5-5.7-15.1c-4-3.6-10.2-5.4-18.7-5.4h-15
			v77h4.9V503h13c0.5,0,1,0,1.4-0.1l18.6,35.6l5.5,0l-0.9-1.7L724.5,502z M716.5,498.3v1.2l0,0L716.5,498.3L716.5,498.3l-11.4,0
			v-32.2h9.8c7.7,0,12.7,1.6,15.7,4.2c1.5,1.3,2.5,2.9,3.2,4.9c0.7,1.9,1,4.2,1,6.8c0,5.8-1.8,9.7-4.8,12.3
			C726.9,497,722.4,498.3,716.5,498.3z"/>
	</g>
	<g>
		<polygon class="st0" points="783.6,500.2 808.6,500.2 808.6,495.6 783.6,495.6 783.6,466.2 812.4,466.2 813,461.5 778.7,461.5 
			778.7,538.5 813.6,538.5 813.6,533.8 783.6,533.8 		"/>
	</g>
	<g>
		<polygon class="st0" points="854.4,461.5 853.2,461.5 850.7,461.5 849.5,461.5 849.5,538.5 882.2,538.5 883,533.7 854.4,533.7 		
			"/>
	</g>
	<g>
		<polygon class="st0" points="921.4,533.7 921.4,461.5 916.5,461.5 916.5,538.5 949.1,538.5 950,533.7 		"/>
	</g>
	<g>
		<path class="st0" d="M569.2,508.9L569.2,508.9l-0.4-4.2l-4.2-43.2H559l-14.5,47.8h-7.1l0,0h0l-14.7-47.8h-5.5l-4.6,47.8h-10.8v4.7
			H512l-2.4,24.5h1.3h2.4h1.1l2.2-24.5H534l4.8,15.3h4.2l4.7-15.3H565l0,0h0l2.5,24.5h4.7l-2.4-24.5h0l0,0h1h8.4v-4.7h-9.9
			L569.2,508.9z M517,509.3l1-10.7c0.9-9,2.1-20,2.7-27.5l11,35.5l0,0l0.2,0.6l0,0l0.6,2h-10.7H517z M540.9,521l-2.2-7.1h0l0,0h4.3
			L540.9,521z M549.1,509.3l11.7-38.3c0.7,7.9,1.8,18.9,2.8,28.6l1,9.7h-1H549.1z"/>
	</g>
</g>
</svg>
