<svg id="Layer_2" data-name="Layer 2" xmlns="http://www.w3.org/2000/svg" viewBox="0 0 1000 1000"><defs><style>.cls-1{fill:#7ac043;}.cls-2{fill:#e1e1e1;}.cls-3{fill:#f4f4f4;}.cls-4{fill:#fff;}.cls-5{fill:#51335d;}.cls-6{fill:#1a0a22;}.cls-7{fill:#351e3f;}.cls-8{fill:#b6b5b5;}.cls-9{fill:#828080;}.cls-10{fill:#8f8d8d;}.cls-11{fill:#ececec;}.cls-12{fill:#d0d0d0;}.cls-13{fill:#cbcaca;}.cls-14{fill:#ddd;}.cls-15{fill:#f5f5f5;}.cls-16{fill:silver;}.cls-17{fill:#c5c4c4;}.cls-18{fill:#a3a2a2;}.cls-19{fill:#d6d6d6;}.cls-20{fill:#ccc;}.cls-21{fill:#d9e5d1;}.cls-22{fill:#281431;}.cls-23{fill:#e5e5e5;}.cls-24{fill:#efefef;}.cls-25{fill:#dbdbdb;}.cls-26{fill:#d1dbc9;}.cls-27{fill:#dee8d7;}.cls-28{fill:#684e72;}.cls-29{fill:#44334c;}.cls-30{fill:#b0b0b0;}.cls-31{fill:#bebebe;}.cls-32{fill:#7f7e7e;}.cls-33{fill:#9da796;}.cls-34{fill:#a9b2a2;}.cls-35{fill:#3f2848;}.cls-36{fill:#1f1026;}.cls-37{fill:#382340;}.cls-38{fill:#9d9d9d;}.cls-39{fill:#47364f;}.cls-40{fill:#797979;}.cls-41{fill:#2b1b31;}.cls-42{fill:#161616;}.cls-43{fill:#55843c;}</style></defs><path class="cls-1" d="M421.09,366.62l1.77,1.71q2-5.58,3.9-11.28c-5.28-5.9-20.26-24.83-14.95-44.46,5.53-20.41,32.07-37,76.73-48.07C559.46,247,599.07,229.07,617,206.38c17.4-22.07,13.38-46.67,8.73-75.15l-1-6.48-10.56,1.72,1.06,6.48c9,55.33,14,85.82-129.15,121.18-49.41,12.21-77.84,31-84.51,55.73-8,29.66,18.49,55.67,19.62,56.76"/><path class="cls-1" d="M360,724s57.67-22.67,68.37-71.67l13.39,2.92C429.42,711.58,360,724,360,724"/><path class="cls-2" d="M519.66,155.55H473.78c-4.49,157.79-138.5,409.62-138.5,409.62L440.41,686.48H553L658.16,565.17s-134-251.83-138.5-409.62"/><path class="cls-3" d="M510.38,258.83q-10.38,2.85-21.84,5.69-3.29.81-6.43,1.67c-2.6,19.69-5.61,40.15-8.88,60.83h47c-3.67-23.26-7-46.27-9.83-68.19M502,155.57H491.42c0,26.39-3,61-7.83,99.16l2.39-.6c8.17-2,15.84-4,23.06-6-4.32-35.54-7-67.7-7-92.55"/><path class="cls-2" d="M520,155.57v0h4.85a5.35,5.35,0,0,0,5.34-5.35v-5.35h1.34a8,8,0,0,0,8-8v-9.37a2.68,2.68,0,0,0-2.68-2.67H456.6a2.67,2.67,0,0,0-2.67,2.67v9.37a8,8,0,0,0,8,8h1.34v5.35a5.35,5.35,0,0,0,5.35,5.35h4.84v0H520"/><path class="cls-4" d="M662.19,133.43c-1.68-4.08-15-11.41-26.89-13,10.71-6.17,23-18.59,25.58-43.54a1.72,1.72,0,0,0-2.24-1.81,68.79,68.79,0,0,0-18.65,9c0-1.24-.11-2.5-.24-3.8a45.35,45.35,0,0,1,11.46-10.72c-3,0-7.42,2.26-12.08,6.13a74.75,74.75,0,0,0-3.08-12,1.71,1.71,0,0,0-2.79-.7,71.56,71.56,0,0,0-11,12.68,75.65,75.65,0,0,0-15.55-22.71,2,2,0,0,0-3.23.62,75.8,75.8,0,0,0-6,26.85,71.79,71.79,0,0,0-14.91-7.71,1.73,1.73,0,0,0-2.34,1.69,77.57,77.57,0,0,0,1.42,11.56c-5.54-1.72-10.25-2.12-13-1a44.56,44.56,0,0,1,14,5.34c.43,1.56.9,3.06,1.42,4.49a69,69,0,0,0-20.66-1.46A1.72,1.72,0,0,0,562,95.92c11.12,21.13,26.12,28.49,38.09,30.67-10.84,5.49-18.84,17.77-18.89,22.38,6.93-11.15,28.17-19.24,35.84-21.86l.4,2.08,3.93-.76-.39-2.05c8.27-.4,30.71-.68,41.19,7.05"/><path class="cls-4" d="M581.22,151.4a2.24,2.24,0,0,1-.68-.1,2.42,2.42,0,0,1-1.75-2.35c.06-4.79,6.3-14.87,15.14-21.37-10.85-3.35-24-11.49-34-30.53A4.13,4.13,0,0,1,563.26,91a74.75,74.75,0,0,1,16.51.58,39.82,39.82,0,0,0-11.52-4.13,2.43,2.43,0,0,1-.49-4.65c2.56-1,6.32-1,10.83,0a79.73,79.73,0,0,1-.8-8.12,4.14,4.14,0,0,1,5.63-4.07,77,77,0,0,1,11.86,5.71,81.57,81.57,0,0,1,6-23.51,4.4,4.4,0,0,1,7.23-1.39A81.66,81.66,0,0,1,622.71,71a77,77,0,0,1,8.91-9.69,4.08,4.08,0,0,1,3.82-1A4.14,4.14,0,0,1,638.35,63a78.7,78.7,0,0,1,2.4,8.45c4-2.77,7.6-4.26,10.45-4.26h0a2.43,2.43,0,0,1,1.26,4.5,37.37,37.37,0,0,0-8,6.8,76.77,76.77,0,0,1,13.41-5.68,4.15,4.15,0,0,1,5.39,4.38c-2.35,22.33-12.26,35-21.73,42.06,10.3,2.71,21,8.66,22.87,13.24a2.42,2.42,0,0,1-3.68,2.88c-9-6.6-28.12-6.92-36.94-6.68a2.45,2.45,0,0,1-2,2.12l-3.93.75a2.42,2.42,0,0,1-2.61-1.27c-8.33,3-26.13,10.46-32,20a2.44,2.44,0,0,1-2.06,1.14M564.69,95.76c8.75,16.14,20.81,25.71,35.85,28.45a2.42,2.42,0,0,1,.66,4.55,36.68,36.68,0,0,0-10.05,7.76c8.85-5.73,19.53-9.79,25.12-11.71a2.45,2.45,0,0,1,2,.2l.5.39.31-.52a2.43,2.43,0,0,1,1.79-.92,131.32,131.32,0,0,1,21.91.69,46.48,46.48,0,0,0-7.8-1.77,2.41,2.41,0,0,1-2.07-1.93,2.44,2.44,0,0,1,1.17-2.58c9.56-5.5,21.45-17,24.25-40.59a66.06,66.06,0,0,0-17,8.35,2.42,2.42,0,0,1-3.81-1.91c0-1.19-.11-2.4-.23-3.65a2.44,2.44,0,0,1,.51-1.74l.6-.75-.16,0a2.44,2.44,0,0,1-1.56-1.87,71.35,71.35,0,0,0-2.62-10.53,69.07,69.07,0,0,0-9.83,11.5,2.42,2.42,0,0,1-4.24-.39,73.56,73.56,0,0,0-14.57-21.47,73.31,73.31,0,0,0-5.58,25.34,2.43,2.43,0,0,1-3.8,1.94,68.56,68.56,0,0,0-13.39-7A72.4,72.4,0,0,0,584,85.59a2.43,2.43,0,0,1-.75,2.29l0,0,.63.35A2.41,2.41,0,0,1,585,89.73c.42,1.55.89,3,1.36,4.31a2.42,2.42,0,0,1-2.83,3.2,65.67,65.67,0,0,0-18.85-1.48"/><path class="cls-5" d="M636.05,63.8a1.71,1.71,0,0,0-2.79-.7c-30.3,28-17.9,56.64-14.76,62.67l-.24.93s.2-.11.56-.34l.33.57.22-.94c5.63-3.83,30.11-23.17,16.68-62.19"/><path class="cls-6" d="M619,126.42l-.06.08.25.43,0-.18-.23-.33m-.53-.38-.17.66.35-.21-.08-.42-.1,0m2.18-2.5c-.43.82-.82,1.5-1.13,2l0,.07.13.18c.49-.34,1.1-.78,1.79-1.32l-.81-.95m19.15-43.23a117.81,117.81,0,0,0-13,21.46,56.79,56.79,0,0,1-5.36,20.17c.24.67.46,1.35.66,2A48.46,48.46,0,0,0,640,85.91c0-1.8-.08-3.67-.26-5.6m-5.33-17.67a1.69,1.69,0,0,0-1.17.46,72.27,72.27,0,0,0-11,12.65,56.83,56.83,0,0,1,4.1,14.48,67.38,67.38,0,0,1,12.78-14.49,75.62,75.62,0,0,0-3.1-11.94,1.7,1.7,0,0,0-1.62-1.16"/><path class="cls-5" d="M580.21,74.52a1.73,1.73,0,0,1,2.34-1.69c38.52,14.8,37.6,46,36.92,52.75l.57.78-.65-.11c0,.42-.09.65-.09.65l-.56-.79c-6.64-1.47-36.55-10.37-38.53-51.59"/><path class="cls-6" d="M619.09,126.21c-.05.08-.1.15-.13.21l.34.48s0-.17.07-.49l-.28-.2m.41-.58.13.66.41.07-.54-.73m-2.19-.8c-.11.32-.2.61-.29.86.58.16,1.09.28,1.51.38l0-.32c-.34-.25-.73-.56-1.17-.92M582.65,90.36c6.87,24.94,25.9,32.9,33.84,35.18-.06-.51-.1-1-.14-1.53a56.53,56.53,0,0,1-14.21-19.29,113.91,113.91,0,0,0-19.49-14.36m-.73-17.64a1.72,1.72,0,0,0-1.71,1.71v.09a75.88,75.88,0,0,0,1.41,11.54,67.15,67.15,0,0,1,17.14,8.39,56.7,56.7,0,0,1-1.34-12.34c0-.52,0-1.06,0-1.59a72.08,72.08,0,0,0-14.89-7.69,1.74,1.74,0,0,0-.63-.11"/><path class="cls-1" d="M616.65,126.83s14-44.74,34.56-57.21c-10.69,0-38.66,28.16-34.56,57.21"/><path class="cls-1" d="M622.58,125.88S592.66,89.06,568.65,85c10.06-4,46.9,12,53.93,40.84"/><path class="cls-5" d="M606.72,53.07a2,2,0,0,0-3.23.62c-17.87,43.66,8.82,67.33,15,72.06l.2,1.09s.15-.22.41-.63c.39.29.61.43.61.43l-.22-1.08c4-6.68,20-38.55-12.76-72.49"/><path class="cls-7" d="M605.31,52.47a2,2,0,0,0-1.82,1.22,75.94,75.94,0,0,0-6,26.83c0,.53,0,1.07,0,1.59a55.36,55.36,0,0,0,21.06,43.64l.2,1.09s.15-.22.41-.63c.39.29.61.43.61.43l-.22-1.08h0a55.71,55.71,0,0,0,7.43-27.72,54.81,54.81,0,0,0-.54-7.61,56.83,56.83,0,0,0-4.1-14.48,75.55,75.55,0,0,0-15.55-22.68,1.92,1.92,0,0,0-1.41-.6"/><path class="cls-1" d="M619.87,126.19s-30.13,9.07-38.66,22.78C581.3,141.8,600.54,116.1,619.87,126.19Z"/><path class="cls-1" d="M617.85,126.58s31.35-2.73,44.34,6.85C659.45,126.79,626,111.56,617.85,126.58Z"/><path class="cls-5" d="M562,95.92a1.72,1.72,0,0,1,1.41-2.51c41.16-2.87,53.51,25.78,55.75,32.21l.84.46s-.22.07-.63.17c.13.4.19.63.19.63l-.84-.48C612.1,127.87,581.23,132.45,562,95.92Z"/><path class="cls-5" d="M660.88,77a1.72,1.72,0,0,0-2.24-1.82c-39.3,12.58-40.16,43.77-39.86,50.56l-.61.75.65-.08c0,.42,0,.65,0,.65l.61-.75C626.19,125.17,656.56,118,660.88,77Z"/><path class="cls-8" d="M509,155.57H483.69a2.67,2.67,0,0,1-2.58-2l-12.45-44.79a2.67,2.67,0,0,1,.57-2.48l25.12-28.71a2.67,2.67,0,0,1,4,0l25.12,28.71a2.67,2.67,0,0,1,.57,2.48l-12.44,44.79a2.69,2.69,0,0,1-2.58,2"/><path class="cls-9" d="M479.51,147.86l1.6,5.75a2.38,2.38,0,0,0,.17.47,2.38,2.38,0,0,1-.17-.47l-1.58-5.68,0-.07m3.61-40.11H469.53l-.15.18,4.36,16.82H485.8l-2.68-17"/><path class="cls-10" d="M495.14,77.05l.26-.13-.26.13m1.18-.29a2.56,2.56,0,0,0-2,.87h0l-.78.89.12-.14-24.16,29.37h13.59l13.54-31h0l-.34,0"/><path class="cls-11" d="M511.46,154a2.67,2.67,0,0,1-2,1.52h0a2.67,2.67,0,0,0,2-1.52"/><path class="cls-12" d="M524.11,107.75H510.26l-2.69,17h12.07l4.42-15.93a2.59,2.59,0,0,0,.05-1.07"/><polyline class="cls-13" points="496.08 76.78 496.66 76.78 496.08 76.78"/><path class="cls-4" d="M498.23,77.48l0,0a.94.94,0,0,0,.1.1l25.11,28.71h0L498.38,77.63l-.15-.15"/><path class="cls-14" d="M496.66,76.78h0l-13.54,31h27.14L496.72,76.8a2.61,2.61,0,0,1,1.56.73l0,0a2.71,2.71,0,0,0-1.57-.7"/><path class="cls-4" d="M523.53,106.38h0M498.28,77.53l.09.1,25.12,28.71h0L498.38,77.63a.94.94,0,0,1-.1-.1"/><path class="cls-15" d="M496.72,76.8l13.54,31h13.85a2.62,2.62,0,0,0-.58-1.37h0l0,0h0L498.37,77.63l-.09-.1a2.61,2.61,0,0,0-1.56-.73"/><polyline class="cls-13" points="495.4 76.92 495.14 77.05 495.4 76.92"/><path class="cls-4" d="M524.11,107.75c-6.83.94-13.66.83-20.5.73-3.41,0-6.83-.09-10.25-.22s-6.83-.28-10.24-.51c3.41-.24,6.83-.42,10.24-.51s6.84-.22,10.25-.23A135.11,135.11,0,0,1,524.11,107.75Z"/><polygon class="cls-4" points="508.2 120.8 509.46 107.62 509.52 108.07 496.66 76.78 511 107.42 511.11 107.65 511.06 107.87 508.2 120.8"/><polyline class="cls-16" points="493.69 78.38 469.13 108.23 469.28 107.55 480.93 152.53 467.85 107.95 467.74 107.56 468 107.26 493.69 78.38"/><polygon class="cls-16" points="483.12 107.75 468.56 108.63 468.56 106.86 483.12 107.75"/><polyline class="cls-15" points="519.63 124.75 519.63 124.75 519.62 124.79 519.62 124.79 519.63 124.75"/><polyline class="cls-2" points="519.62 124.79 519.62 124.79 511.62 153.61 513.6 146.48 519.62 124.79"/><polyline class="cls-15" points="472.78 124.75 472.46 124.75 472.48 124.79 472.79 124.79 472.78 124.75"/><path class="cls-2" d="M481.28,154.08a2.7,2.7,0,0,0,2,1.47h0a2.7,2.7,0,0,1-2-1.47m-8.49-29.29h-.32l7,23.07-1-3.43-5.76-19.64"/><polyline class="cls-17" points="507.57 124.75 485.8 124.75 490.67 155.57 491.42 155.57 491.42 155.57 491.42 155.57 491.42 155.57 491.42 155.57 502.03 155.57 502.03 155.57 502.71 155.57 507.57 124.75"/><path class="cls-18" d="M485.8,124.75H473.74l7.19,27.78-2.38-8.1,1,3.43,0,.07,1.58,5.68a2.38,2.38,0,0,0,.17.47,2.7,2.7,0,0,0,2,1.47h6l-3.24,0h4.56l-4.87-30.82"/><path class="cls-19" d="M519.64,124.75H507.57l-4.86,30.82h4.62l-3.24,0h5.32a2.7,2.7,0,0,0,2.21-1.94h0l8-28.86"/><polyline class="cls-20" points="473.74 124.75 472.78 124.75 472.79 124.79 478.56 144.43 480.93 152.53 473.74 124.75"/><path class="cls-21" d="M509,248.12c-7.22,2-14.89,4-23.06,6l-2.39.6c-.48,3.78-1,7.61-1.48,11.46q3.15-.85,6.43-1.67,11.47-2.83,21.84-5.69c-.47-3.61-.91-7.17-1.34-10.71"/><path class="cls-5" d="M544.33,333.49l-23-6.47H472.13l-23,6.47c-34.95,104.36-83.67,201.58-98.28,229.86l95.49,110.19h100.8l95.49-110.19c-14.61-28.28-63.33-125.5-98.28-229.86"/><path class="cls-22" d="M520.21,327h-47q-1,6.47-2.07,12.94h51.12q-1-6.48-2.07-12.94"/><path class="cls-23" d="M584.84,405.38l1.17,2.9h0a117.73,117.73,0,0,0-14.91-2c29.42,73.86,60.17,135.12,71.39,156.85l0,.1a.83.83,0,0,1,.07.13h0L547.12,673.54H523.3l-7,12.94H553L658.16,565.17s-37.38-70.25-73.32-159.79M560.6,379.17q2.58,6.85,5.2,13.61c5.06.19,9.91.59,14.52,1.21q-2.61-6.66-5.19-13.42a133.69,133.69,0,0,0-14.53-1.4m-40.94-223.6H507.33a282,282,0,0,0,1.95,33.63,554.73,554.73,0,0,0,9.92,56h0q1.17,5.17,2.44,10.39h0c6.24,25.77,14,52,22.69,77.86h0c3.65,10.88,7.44,21.69,11.33,32.35q7.41.11,14.23.81c-13.84-37.42-26.6-76.76-35.8-114.8-.84-3.47-1.65-6.94-2.43-10.38-6.83-30.2-11.24-59.37-12-85.9"/><path class="cls-15" d="M642.49,563.12l0,.1,0-.1M521.63,255.63q-5.48,1.61-11.25,3.2c2.8,21.92,6.16,44.93,9.83,68.19h1.1l23,6.47c-8.65-25.83-16.45-52.09-22.69-77.86m-14.3-100.06H502c0,24.85,2.69,57,7,92.55q5.23-1.44,10.16-2.88a554.73,554.73,0,0,1-9.92-56,282,282,0,0,1-1.95-33.63"/><path class="cls-23" d="M519.66,155.55H509.41l-.37,0h10.62v0"/><path class="cls-24" d="M509.41,155.55h0l-.37,0h0l.37,0"/><path class="cls-25" d="M509.41,155.55h-5.32l3.24,0H509l.37,0"/><path class="cls-26" d="M519.2,245.24h0q1.17,5.19,2.43,10.39h0q-1.26-5.2-2.44-10.39"/><path class="cls-27" d="M519.2,245.24q-4.94,1.44-10.16,2.88c.43,3.54.87,7.1,1.34,10.71q5.77-1.59,11.25-3.2-1.26-5.2-2.43-10.39"/><path class="cls-28" d="M559.36,405.85a208.19,208.19,0,0,0-25.47,1.65c17.54,97.17,35.78,180.12,35.78,180.12L523.3,673.54h23.82l95.49-110.19a.83.83,0,0,0-.07-.13l0-.1c-11.22-21.73-42-83-71.39-156.85q-5.6-.42-11.74-.42M553.31,379a205.67,205.67,0,0,0-24.2,1.5q1.21,7,2.44,13.92A223.87,223.87,0,0,1,559,392.65q3.46,0,6.81.13-2.61-6.75-5.2-13.61c-2.36-.11-4.8-.16-7.29-.16m-9-45.52L523.54,340h-1.26c1.49,9.15,3,18.35,4.58,27.47a221.72,221.72,0,0,1,26-1.61l2.75,0c-3.89-10.66-7.68-21.47-11.33-32.35h0"/><path class="cls-29" d="M521.31,327h-1.1q1,6.47,2.07,12.94h1.26l20.79-6.47-23-6.47"/><path class="cls-30" d="M400.45,458.66q-7,5.13-13.05,10.51a120.49,120.49,0,0,0-10.82,10.94c-23.16,51-41.3,85.06-41.3,85.06L440.41,686.48h36.72l-7-12.94H446.32L350.83,563.35h0l.1-.19c8.42-16.3,27.88-54.95,49.52-104.5m17.68-41.94c-6.73,3.74-13.08,7.65-19,11.71-4.25,10.16-8.48,20-12.62,29.41q1.75-4,3.54-8.09A226.15,226.15,0,0,1,410,436.35c2.7-6.41,5.41-13,8.12-19.63m73.29-261.15H473.78c-2.14,75-33.54,171.25-65.9,251.6,5.69-3.28,11.65-6.44,17.83-9.45,8.11-20.71,16.06-42.31,23.4-64.23h0c7-20.91,13.45-42.1,19-63.08h0q1.6-6.12,3.11-12.21h0a583.11,583.11,0,0,0,13-69,282,282,0,0,0,1.95-33.63h5.31"/><path class="cls-31" d="M350.93,563.16l-.1.19.1-.19m131.18-297q-7.38,2-14,4.22c-5.51,21-12,42.17-19,63.08l23-6.47h1.1c3.27-20.68,6.28-41.14,8.88-60.83m9.31-110.62h-5.31a282,282,0,0,1-1.95,33.63,583.11,583.11,0,0,1-13,69c4-1.2,8.1-2.36,12.41-3.46,4.79-38.16,7.83-72.77,7.83-99.16"/><path class="cls-30" d="M483.31,155.55h-9.53v0h9.9l-.37,0"/><path class="cls-30" d="M483.31,155.55h0l.37,0h0l-.38,0"/><path class="cls-32" d="M489.35,155.55h-6l.38,0h2.42l3.24,0"/><path class="cls-33" d="M471.18,258.19h0q-1.5,6.09-3.11,12.21h0q1.6-6.12,3.1-12.22"/><path class="cls-34" d="M483.59,254.73c-4.31,1.1-8.43,2.26-12.41,3.46q-1.49,6.09-3.1,12.22,6.66-2.22,14-4.22c.51-3.85,1-7.68,1.48-11.46"/><path class="cls-35" d="M455.71,428.51c-20.94,8.56-39.84,18.87-55.26,30.15-21.64,49.55-41.1,88.2-49.52,104.5l-.1.19h0l95.49,110.19h23.82l-46.37-85.92h0s15.68-71.29,31.94-159.11m5.7-31.38a303.49,303.49,0,0,0-43.28,19.59c-2.71,6.66-5.42,13.22-8.12,19.63A305,305,0,0,1,458.55,413q1.44-7.89,2.86-15.89m-12.3-63.64h0c-7.34,21.92-15.29,43.52-23.4,64.23a332.59,332.59,0,0,1,37.42-15.38l.94-.32c2.43-13.91,4.81-28,7.09-42.06H469.9l-20.79-6.47"/><path class="cls-36" d="M473.23,327h-1.1l-23,6.47L469.9,340h1.26q1.05-6.48,2.07-12.94"/><path class="cls-1" d="M361.25,511.8c1.8-3.94,3.69-8.05,5.64-12.33-4.55-3.18-7.62-6.92-9.09-11.21-4.15-12.11,4.41-28.84,23.49-45.91,20.85-18.64,51.46-35.46,86.17-47.36,75.83-26,135.59-17.69,143.83,6.37,3.28,9.57-1.31,21.95-12.92,35.26q2.89,6.9,5.74,13.52c18.38-19,25.25-37.32,19.83-53.11-12-35-82.65-41.49-160.81-14.69-36.37,12.46-68.6,30.24-90.75,50-23.63,21.13-33.3,42.51-27.23,60.22,2.64,7.72,8.06,14.17,16.1,19.2"/><path class="cls-30" d="M386.53,457.84q-5.08,11.58-9.95,22.28h0q4.85-10.67,9.95-22.27M580.32,394q2.25,5.75,4.52,11.39-2.26-5.64-4.52-11.39h0"/><path class="cls-37" d="M531.55,394.43a312,312,0,0,0-62.31,14.73Q463.83,411,458.55,413q-1.43,7.82-2.84,15.49,8.71-3.56,17.86-6.7a301.39,301.39,0,0,1,60.32-14.31q-1.17-6.5-2.34-13.07"/><path class="cls-38" d="M565.8,392.78q2.64,6.81,5.3,13.49a117.73,117.73,0,0,1,14.91,2l-1.17-2.9q-2.26-5.65-4.52-11.39c-4.61-.62-9.46-1-14.52-1.21"/><path class="cls-39" d="M559,392.65a223.87,223.87,0,0,0-27.44,1.78q1.17,6.57,2.34,13.07a208.19,208.19,0,0,1,25.47-1.65q6.14,0,11.74.42-2.65-6.67-5.3-13.49-3.34-.13-6.81-.13"/><path class="cls-40" d="M410,436.35a226.15,226.15,0,0,0-19.94,13.4q-1.79,4.1-3.54,8.09-5.08,11.58-9.95,22.27a120.49,120.49,0,0,1,10.82-10.94q6-5.37,13.05-10.51,4.73-10.83,9.56-22.31"/><path class="cls-41" d="M458.55,413A305,305,0,0,0,410,436.35q-4.83,11.47-9.56,22.31c15.42-11.28,34.32-21.59,55.26-30.15q1.43-7.67,2.84-15.49"/><polygon class="cls-4" points="543.3 636.48 566.11 585.7 565.7 588.4 543.8 460.69 573.63 586.83 573.99 588.34 573.23 589.54 543.3 636.48"/><polygon class="cls-4" points="628.41 568.08 570.94 591.45 570.36 591.69 569.67 591.66 475.95 587.62 569.67 583.57 568.39 583.78 628.41 568.08"/><path class="cls-42" d="M297.9,761.45c16.8,0,25.94,9.14,25.94,26.1v8.25c0,17-9.14,26.09-25.94,26.09H291v42.75H275.34V761.45Zm-6.93,46h6.34c7.52,0,10.91-4,10.91-12.68v-6.19c0-8.7-3.39-12.68-10.91-12.68H291Z"/><polygon class="cls-42" points="377.06 849.9 377.06 864.64 335.34 864.64 335.34 761.45 350.97 761.45 350.97 849.9 377.06 849.9"/><path class="cls-42" d="M421.13,864.64l-3.39-23.43H400.5l-3.39,23.43H381.48l17.84-103.19h19.9l17.84,103.19Zm-18.57-37.59h13.12l-6.34-43.48h-.44Z"/><polygon class="cls-42" points="468.45 776.2 468.45 864.64 452.83 864.64 452.83 776.2 436.17 776.2 436.17 761.45 485.11 761.45 485.11 776.2 468.45 776.2"/><rect class="cls-42" x="494.99" y="761.45" width="15.63" height="103.19"/><polygon class="cls-42" points="562.94 864.64 542.45 796.24 542.16 796.24 542.16 864.64 527.42 864.64 527.42 761.45 544.81 761.45 563.24 822.93 563.53 822.93 563.53 761.45 578.27 761.45 578.27 864.64 562.94 864.64"/><path class="cls-42" d="M642.55,841.5c0,16.22-9.29,24.62-24.33,24.62-14.74,0-24-8.4-24-24.62v-80h15v79.61c0,7.52,3.39,10.32,8.85,10.32s8.84-2.8,8.84-10.32V761.45h15.63Z"/><polygon class="cls-42" points="709.03 864.64 709.03 793 708.74 793 695.76 849.9 686.48 849.9 673.5 793 673.21 793 673.21 864.64 658.47 864.64 658.47 761.45 678.96 761.45 691.19 816.88 691.49 816.88 703.58 761.45 724.66 761.45 724.66 864.64 709.03 864.64"/><path class="cls-43" d="M455.84,878.81c1.81,0,4.23.86,4.49,3,.86,8.2.08,46.45-.26,51.89-.17,1.9-.52,2.85-2.16,2.85-2.07,0-3.71-.69-3.89-2.93s-.43-10.19-.51-19.77c-3.11.25-9.59,1-14.94,1.38-.17,8.72-.35,16.32-.52,18.47-.17,1.9-.52,2.85-2.16,2.85-2.07,0-3.71-.69-3.88-2.93-.26-2-.43-9.24-.52-18h-.09a3.8,3.8,0,0,1-3.8-3.71c0-.78.44-1.3,1.82-1.47.6-.09,1.29-.17,2.07-.26-.09-10.45,0-21.93.17-29.27.09-1.3.69-2.16,2.16-2.16,1.81,0,4.23.86,4.49,3,.43,4.23.43,16.32.35,27.89,5.69-.43,11.91-.69,14.85-.78-.09-10.1,0-21,.17-28C453.77,879.67,454.37,878.81,455.84,878.81Z"/><path class="cls-43" d="M498.75,899.62c.08-.6.34-1,.6-1,.78,0,1.73,1.12,1.73,2.24,0,5.62-6.91,36-21.07,36-9.24,0-12.69-6.74-12.69-14.85,0-19.6,4.66-30,12.95-30,5.35,0,9.24,3.8,9.24,9.67,0,7.16-5.35,13-15.63,14.68-.09,1.29-.09,2.67-.09,4.14,0,7.08,2.94,10.45,6.65,10.45C488.82,931.05,495.64,914.73,498.75,899.62ZM474,913.52c8.29-3.28,10.19-9,10.19-12.52,0-2.68-1.13-4.14-3.28-4.14C477.33,896.86,474.75,901.6,474,913.52Z"/><path class="cls-43" d="M530.26,924.83c0-7.86,1.47-16.23,1.56-22.88.08-1.55-.35-2.33-1.21-2.33-4.58,0-10.19,22.1-10.79,34.8a1.86,1.86,0,0,1-1.9,1.89c-2.59,0-4.58-1.29-4.58-3.88,0-10.53.6-21.5.52-30.48,0-1.55-.35-2.33-1.3-2.33-4.23,0-8.8,22.1-10.19,35.31A2.25,2.25,0,0,1,500,936.4c-2,0-4.05-1-4.14-3.71-.17-4.41.43-31.52,1.29-36,.26-1.38.52-1.9,1.47-2a3.3,3.3,0,0,1,3.37,3.45c0,9-.26,16.84-.43,22.19,2.76-15.54,7.16-28.06,13.81-28.06,4.32,0,5.27,3.71,5.27,10.71,0,2.85-.09,6.56-.17,10.53,2.67-12.26,6.65-21.24,12.86-21.24,3.63,0,5.1,2.68,5.1,7.08,0,6.22-1.64,15.71-1.64,24.26,0,5,1.2,6.48,2.59,6.48,4,0,7.59-16.32,10.18-30.48.09-.6.35-1,.61-1,.78,0,1.72,1.12,1.72,2.33,0,5.61-5.18,36-14.24,36C532.77,937,530.26,932.77,530.26,924.83Z"/><path class="cls-43" d="M551.59,950c-2.33,0-3.8-1.29-4.15-4.31-.17-1.39-.17-8.47-.17-16.84,0-10.19.26-23,.86-31.86.18-3.28.87-3.89,1.82-3.89a3.94,3.94,0,0,1,3.36,4.15V909.2c2.16-9,5.44-17,10.71-17s8.38,5.36,8.38,13c0,21.24-4.92,31.77-11.06,31.77a11,11,0,0,1-7.85-3c.43,4.83.52,8.11.52,12.09C554,949.18,553,950,551.59,950Zm14.24-44.89c0-4-1.29-6.65-3.28-6.65-4.75,0-8.8,18.91-8.72,26.94.09,3.79,2,5.87,5,5.87C562.64,931.31,565.83,921.9,565.83,905.15Z"/></svg>