<svg id="Layer_2" data-name="Layer 2" xmlns="http://www.w3.org/2000/svg" viewBox="0 0 1000 1000"><defs><style>.cls-1{fill:#ec1940;}.cls-2{fill:#f26f21;}.cls-3{fill:#ec0972;}.cls-4{fill:#92278f;}.cls-5{fill:#ffc10e;}.cls-6{fill:#8bc53f;}.cls-7{fill:#0071bb;}.cls-8{fill:#00adee;}.cls-9{fill:#0072bc;}.cls-10{fill:#333132;}.cls-11{fill:#808184;}</style></defs><path class="cls-1" d="M295.9,464.25a13.06,13.06,0,0,1-.06-26.12c.83,0,85.2-1.25,137.89-53.94a13.06,13.06,0,1,1,18.47,18.47C391.78,463.07,299.85,464.23,296,464.25Z"/><path class="cls-1" d="M472.78,369a13.06,13.06,0,0,1-11.12-19.9C489.27,304.16,488,260,487.26,233.56c-.11-4.06-.21-7.71-.21-10.92a13.06,13.06,0,1,1,26.12,0c0,3,.1,6.4.21,10.18.83,29.31,2.22,78.38-29.46,130A13.06,13.06,0,0,1,472.78,369Z"/><path class="cls-2" d="M296.18,516.39h-.37a13.06,13.06,0,0,1,.09-26.12H296c2,0,108.37-.7,182.73-75.06A195.64,195.64,0,0,0,521.44,351a13.06,13.06,0,0,1,24.16,9.95,221.89,221.89,0,0,1-48.38,72.77C416.14,514.77,304.78,516.39,296.18,516.39Z"/><path class="cls-3" d="M369.46,396a13.07,13.07,0,0,1-6-24.7,155.84,155.84,0,0,0,39.21-28.78c33-33,32.7-87.9,32.56-114.29V223.5c0-32.23,17-69.86,64.85-69.86s64.94,37.63,64.94,69.86c0,2.25.09,5.08.18,8.41.43,14.81,1.14,39.59-3.19,68.48a13.06,13.06,0,0,1-25.83-3.87c4-26.6,3.31-49.92,2.91-63.86-.1-3.63-.19-6.71-.19-9.16,0-16.33-5-43.73-38.82-43.73s-38.73,27.4-38.73,43.73l0,4.61c.15,29.93.46,92.2-40.22,132.89a181.94,181.94,0,0,1-45.79,33.58A13,13,0,0,1,369.46,396Z"/><path class="cls-3" d="M303.59,412.6a81.94,81.94,0,0,1-9.26-.44,13.06,13.06,0,0,1,3.09-25.94c.3,0,10.66,1.11,26.08-1.53a13.06,13.06,0,0,1,4.4,25.75A146,146,0,0,1,303.59,412.6Z"/><path class="cls-4" d="M703.1,464.57c-9.08,0-51.18-1.76-82.48-33.07-26-26-29.85-61.8-29.85-80.85V262.47a13.06,13.06,0,1,1,26.12,0v88.18c0,15,2.89,43.06,22.2,62.38,26.54,26.54,64.34,25.4,64.72,25.41a13.06,13.06,0,0,1,1,26.11C704.62,464.55,704,464.57,703.1,464.57Z"/><path class="cls-4" d="M603.83,236.56a13.06,13.06,0,0,1-13.06-13.06c0-14.75-3.87-88.64-80.16-94.7a13.07,13.07,0,0,1,2.07-26.05c76.92,6.12,104.21,68.87,104.21,120.75A13.06,13.06,0,0,1,603.83,236.56Z"/><path class="cls-4" d="M396.34,236.56a13.06,13.06,0,0,1-13.06-13.06c0-46,22.71-104.54,86.73-118.22a13.06,13.06,0,0,1,5.46,25.55c-62.88,13.43-66.07,79.55-66.07,92.67A13.06,13.06,0,0,1,396.34,236.56Z"/><path class="cls-4" d="M295.9,360.88a13.06,13.06,0,0,1-.42-26.11c.65,0,44.29-1.84,66.95-24.49,11.37-11.37,17.68-27,19.87-49.1a13.06,13.06,0,0,1,26,2.58c-2.78,28.08-11.75,49.34-27.4,65-30.09,30.09-82.37,32.06-84.59,32.13Z"/><path class="cls-5" d="M704.31,567.69a317.9,317.9,0,0,1-52.92-5.29,13.07,13.07,0,0,1,4.83-25.68,294.56,294.56,0,0,0,48.09,4.85,13.06,13.06,0,1,1,0,26.12Z"/><path class="cls-5" d="M608.08,548.11a13.07,13.07,0,0,1-5.94-1.44c-17.57-9-30.88-19.7-42.61-29.14-15-12.08-25.86-20.81-38.52-20.81-17.11,0-30.32,7.5-50.32,18.85-13,7.37-27.72,15.73-47.16,24.07a13.06,13.06,0,1,1-10.3-24c18.1-7.76,32.16-15.74,44.57-22.78,21.9-12.44,39.2-22.26,63.21-22.26,21.87,0,37.91,12.92,54.9,26.59,11.28,9.08,22.94,18.47,38.13,26.23a13.07,13.07,0,0,1-6,24.7Z"/><path class="cls-5" d="M295.67,567.86a13.06,13.06,0,0,1-1.15-26.07,609.72,609.72,0,0,0,72-11.67,13.06,13.06,0,1,1,5.87,25.45,622.11,622.11,0,0,1-75.51,12.24C296.46,567.84,296.06,567.86,295.67,567.86Z"/><path class="cls-6" d="M480,567.86a13.08,13.08,0,0,1-12-8c-2.82-6.64.52-13.78,6.91-17.13,5.47-2.88,28-17.75,40.06-17.75C533,525,550,541.91,552.36,543.9c5.55,4.6,7.67,12.08,3.69,18.1A13.06,13.06,0,0,1,538,565.7c-3.22-2.13-13.83-14.55-23.07-14.55-6.41,0-22.05,12.35-29.83,15.67A13,13,0,0,1,480,567.86Z"/><path class="cls-2" d="M704.3,515.86c-2.58,0-58.38-.35-97.72-28.55s-56.51-70.62-57.22-72.41a13.06,13.06,0,1,1,24.28-9.64c.14.35,15.22,37.22,48.15,60.82,32.66,23.4,82,23.65,82.51,23.65h0a13.07,13.07,0,0,1,0,26.13Z"/><path class="cls-7" d="M653.81,361.75a13.07,13.07,0,0,1-13.07-13.06V208.27a13.07,13.07,0,0,1,26.13,0V348.69A13.06,13.06,0,0,1,653.81,361.75Z"/><path class="cls-7" d="M704.31,412.72h0c-5,0-30.9-.71-44.49-14.3a13.06,13.06,0,0,1,18.47-18.48c4.47,4.48,18.2,6.62,26.07,6.66a13.06,13.06,0,0,1,0,26.12Z"/><path class="cls-8" d="M704.31,360.33a13.06,13.06,0,0,1-13.06-13.06V249.62a13.06,13.06,0,0,1,26.12,0v97.65A13.05,13.05,0,0,1,704.31,360.33Z"/><path class="cls-7" d="M296.61,309.92h-.94a13.06,13.06,0,0,1,.44-26.12h0c9.11.12,24.5-2.23,30.12-7.85,6.9-6.9,6.9-19.05,6.9-26.31V208.27a13.06,13.06,0,0,1,26.12,0v41.35c0,9.83,0,30.25-14.55,44.79S302.74,309.92,296.61,309.92Z"/><circle class="cls-8" cx="295.91" cy="249.62" r="12.85"/><path class="cls-9" d="M511.7,78a13.09,13.09,0,0,1-2.4-.23c-3.26-.6-7.28-1.3-9.11-1.56-1.95.26-6.38,1-10,1.59A13.06,13.06,0,1,1,485.77,52c11.83-2,13.47-2,14.46-2s2.72,0,13.84,2.07A13.06,13.06,0,0,1,511.7,78Z"/><path class="cls-8" d="M299.08,801.32q10.57,0,16.75,2.42a21.15,21.15,0,0,1,9.45,6.79A22.6,22.6,0,0,1,329.44,821a89.88,89.88,0,0,1,.9,13.15v4.46a48.17,48.17,0,0,1-2,13.86,18.69,18.69,0,0,1-8.78,10.83,17,17,0,0,1,8.21,4.35,18.11,18.11,0,0,1,4.16,7.18,37.58,37.58,0,0,1,1.58,9.82q.21,5.56.22,12.24V918.7q0,28.34-26.08,28.34h-29V803.14q7.63-1,12.25-1.42T299.08,801.32Zm2.92,16c-1.05,0-2,0-2.81.1s-1.61.17-2.36.3V859.4h3.6q6.07,0,8.66-4.55t2.58-17.31v-2.42Q311.67,817.3,302,817.31Zm-5.17,57.27v56.47h10.8a7.39,7.39,0,0,0,6-2.53q2.13-2.53,2.13-11.64V895.43q0-9.91-2.25-15.38t-9-5.47Z"/><path class="cls-8" d="M366.55,858.8l11.24-56.67H394l-19.79,84.8V947H356V886.93l-18-84.8h18Z"/><path class="cls-10" d="M304.7,795.43q-26.08,0-26.08-28.33V739.77h17.76v25.5q0,9.11,2.25,11.64a7.7,7.7,0,0,0,6.07,2.53,8.07,8.07,0,0,0,6.19-2.53q2.36-2.53,2.36-11.64v-17q0-7.89-2.81-12.55a30.39,30.39,0,0,0-7-8,89.31,89.31,0,0,0-8.89-6.27,34.29,34.29,0,0,1-13.83-16.8q-2.13-5.37-2.13-13.87v-16q0-14.16,6.07-21.25t19.11-7.08q25.41,0,25.42,28.13v23.68H311.45V676.63c0-6.08-.64-10-1.91-11.64a6.74,6.74,0,0,0-5.74-2.53,6.41,6.41,0,0,0-5.62,2.53c-1.2,1.69-1.8,5.56-1.8,11.64v11.73q0,7.7,2.59,12a24.65,24.65,0,0,0,6.52,7.28,81.33,81.33,0,0,0,8.55,5.57,36.32,36.32,0,0,1,8.43,6.68,31.07,31.07,0,0,1,6.18,9.92q2.37,5.86,2.37,15.58V767.3Q331,795.43,304.7,795.43Z"/><path class="cls-10" d="M401,793.4V704L387.4,793.4H368.87l-13.79-89.86V793.4H338V648.49h25.19l15.29,101.2,14.84-101.2h24.74V793.4Z"/><path class="cls-10" d="M438.28,648.49h38.23L486,793.4H467.74l-2.48-45.53H450L447.5,793.4H428.83Zm12.59,83.39h13.49l-3.82-68.21h-6.07Z"/><path class="cls-10" d="M516.75,647.68q10.34,0,16.75,2.43a21.75,21.75,0,0,1,9.79,6.78,24,24,0,0,1,4.49,10.43,72.15,72.15,0,0,1,1.13,13.15V689a45.5,45.5,0,0,1-2.7,16.6q-2.7,6.88-10.57,9.71a22.87,22.87,0,0,1,6.41,4,17.86,17.86,0,0,1,4.27,6.07,34.44,34.44,0,0,1,2.48,9.11,90.82,90.82,0,0,1,.78,12.85V793.4h-18V745.84q0-9.92-2.25-15.38t-9-5.46H514.5v68.4H496.29V649.51q7.63-1,12.25-1.42T516.75,647.68Zm2.92,16c-1,0-2,0-2.81.1s-1.61.18-2.36.31v45.74h3.6q6.07,0,9.11-4.56t3-17.3v-6.48q0-9.11-2.81-13.46A8.79,8.79,0,0,0,519.67,663.67Z"/><path class="cls-10" d="M609.62,648.49v16H592.08V793.4h-18V664.48h-18v-16Z"/><path class="cls-10" d="M660,648.49v16H634.81v41.9h19.56v16.39H634.81v54.65h25.41v16H616.59V648.49Z"/><path class="cls-10" d="M688.55,647.68q10.34,0,16.75,2.43a21.75,21.75,0,0,1,9.79,6.78,24,24,0,0,1,4.49,10.43,72.15,72.15,0,0,1,1.13,13.15V689a45.5,45.5,0,0,1-2.7,16.6q-2.7,6.88-10.57,9.71a22.87,22.87,0,0,1,6.41,4,17.86,17.86,0,0,1,4.27,6.07,34.44,34.44,0,0,1,2.48,9.11,90.82,90.82,0,0,1,.78,12.85V793.4h-18V745.84q0-9.92-2.25-15.38t-9-5.46H686.3v68.4H668.09V649.51q7.63-1,12.25-1.42T688.55,647.68Zm2.93,16c-1.06,0-2,0-2.82.1s-1.61.18-2.36.31v45.74h3.6q6.08,0,9.11-4.56t3-17.3v-6.48q0-9.11-2.81-13.46A8.77,8.77,0,0,0,691.48,663.67Z"/><path class="cls-11" d="M422.41,802.25q10.79,0,16.86,2.23a17.6,17.6,0,0,1,9.11,7,27,27,0,0,1,3.71,12.15q.68,7.38.68,17.91v78.12q0,28.33-26.09,28.34h-27V804.08A205.91,205.91,0,0,1,422.41,802.25ZM426.68,932a7.37,7.37,0,0,0,6-2.53q2.13-2.54,2.14-11.64V843.14q0-14-2.25-19.43t-9-5.47c-.75,0-1.68,0-2.81.11a26.68,26.68,0,0,0-2.81.3V932Z"/><path class="cls-11" d="M507.54,803.07v16H482.35V861h19.57v16.39H482.35V932h25.42v16H464.14V803.07Z"/><path class="cls-11" d="M540.57,950q-26.09,0-26.08-28.33V894.34h17.76v25.5q0,9.12,2.25,11.64a7.7,7.7,0,0,0,6.07,2.53,8.07,8.07,0,0,0,6.19-2.53q2.36-2.52,2.36-11.64v-17q0-7.89-2.81-12.55a30.39,30.39,0,0,0-7-8,91,91,0,0,0-8.89-6.27,34.29,34.29,0,0,1-13.83-16.8q-2.13-5.36-2.13-13.87v-16q0-14.18,6.07-21.26T539.67,801q25.41,0,25.41,28.13v23.68H547.32V831.2q0-9.11-1.91-11.64a6.74,6.74,0,0,0-5.74-2.53,6.41,6.41,0,0,0-5.62,2.53q-1.8,2.54-1.8,11.64v11.74q0,7.69,2.59,12a24.52,24.52,0,0,0,6.52,7.28,81.33,81.33,0,0,0,8.55,5.57,36.32,36.32,0,0,1,8.43,6.68,31.07,31.07,0,0,1,6.18,9.92q2.37,5.87,2.36,15.58v21.86Q566.88,950,540.57,950Z"/><path class="cls-11" d="M592.05,803.07V948H573.6V803.07Z"/><path class="cls-11" d="M628,817a7,7,0,0,0-5.84,2.53q-2,2.54-2,11.64v86.62q0,9.1,2.14,11.64a7.36,7.36,0,0,0,6,2.53,9.37,9.37,0,0,0,7.87-3.85V881.59h-5V867h22.94v81H639.72l-1.58-6.88Q633.19,948,623.3,948q-21.13,0-21.14-28.14V829.38Q602.16,801,628,801q26.09,0,26.09,28.13v14.58h-18V831.2q0-9.11-2.14-11.64A7.36,7.36,0,0,0,628,817Z"/><path class="cls-11" d="M666.74,803.07h18.1l19.45,87.43V803.07h17.09V948h-18.1l-19.45-90.07V948H666.74Z"/></svg>