<?xml version="1.0" encoding="utf-8"?>
<!-- Generator: Adobe Illustrator 26.3.0, SVG Export Plug-In . SVG Version: 6.00 Build 0)  -->
<svg version="1.1" id="Layer_1" xmlns="http://www.w3.org/2000/svg" xmlns:xlink="http://www.w3.org/1999/xlink" x="0px" y="0px"
	 viewBox="0 0 1000 1000" style="enable-background:new 0 0 1000 1000;" xml:space="preserve">
<style type="text/css">
	.st0{display:none;}
	.st1{display:inline;fill:#FFFFFF;}
	.st2{fill:#EE7E29;}
	.st3{fill:#575757;}
	.st4{fill:#888888;}
	.st5{fill:#231F20;}
</style>
<g id="Layer_1_00000044160893326282256050000005483692956984757131_" class="st0">
	<rect y="0" class="st1" width="1000" height="1000"/>
</g>
<g>
	<g>
		<path class="st2" d="M81.9,289.4L89.2,402c3.3,51.2,14.1,101.6,32,149.7l42.3,113.2c3.4,9.7-8.9,17.2-15.9,9.7L24.1,544
			C13,532.3,8.6,515.8,12.3,500.1l50.8-212C65.6,277.6,80.8,278.7,81.9,289.4z"/>
		<path class="st3" d="M128.5,463.2l53.2,79.8c24.2,36.3,53.6,68.8,87.2,96.5l79.2,65.4c6.6,5.7,0.8,16.4-7.6,13.9l-146.4-43.7
			c-13.1-3.9-23.4-14.2-27.3-27.3l-52.7-177.6C111.5,461.5,123.2,455.8,128.5,463.2z"/>
		<path class="st4" d="M213.1,545.1l73.1,36.1c33.2,16.4,68.7,27.9,105.2,34l86.1,14.5c7.3,1.4,7.5,11.8,0.3,13.5l-126.3,30.1
			c-11.3,2.7-23.3-0.5-31.7-8.5L205.5,556.4C199.9,551,206,541.9,213.1,545.1z"/>
	</g>
	<g>
		<path d="M217.6,538.6c-14.3,0-24.7-5.2-34.6-12.9l11.7-15.8c6.1,4.8,14.8,8.9,23.3,8.9c10.3,0,13.2-3.5,13.2-9.8
			c0-10.3-18.8-13.9-27.4-18.7c-10.3-5.7-18.5-12.2-18.5-28.6c0-21.2,18.5-29.8,36.8-29.8c9.8,0,21.5,2.7,29.8,8.9l-10.2,16.8
			c-4.5-3.4-12.2-5.9-19.7-5.9c-10.5,0-14.1,5.9-14.1,10c0,9.3,13.2,12.2,25.2,17.4c10,4.4,20.8,11.5,20.8,28.4
			C253.8,527.1,240,538.6,217.6,538.6z"/>
		<path d="M318.6,538.6c-32,0-53-24.3-53-53.7c0-29.7,21.4-52.9,53.3-52.9c32.2,0,53,22.2,53,52.9
			C371.9,514.7,350.6,538.6,318.6,538.6z M318.9,451.7c-17.7,0-30,15.8-30,33.1c0,18.9,13.6,33.9,29.7,33.9c18.7,0,30-16.5,30-33.9
			C348.6,466.7,336.8,451.7,318.9,451.7z"/>
		<path d="M431.6,536.9h-21.6l-33.8-103.2h23.2l20.1,65.9c0.8,2.7,1.6,5.8,1.6,5.8s1-3.3,1.7-5.8l19.9-65.9h22.6L431.6,536.9z"/>
		<path d="M479.4,536.9V433.6h60.1v19.1H502v24.2h34.8V496H502v21.8h39.6v19.1H479.4z"/>
		<path d="M613,536.9l-28.7-48.8v48.8h-22.6V433.6h37c21.6,0,35.5,13,35.5,30.8c0,15.4-9.5,25.6-23,29.3l27.4,43.1H613z
			 M598.7,452.7h-14.4v24.9h14.4c7.9,0,12.9-5.1,12.9-13.2C611.6,457.3,605.9,452.7,598.7,452.7z"/>
		<path d="M654.9,536.9V433.6H715v19.1h-37.5v24.2h34.8V496h-34.8v21.8h39.6v19.1H654.9z"/>
		<path d="M737.2,536.9V433.6h22.6v103.2H737.2z"/>
		<path d="M830.4,538.6c-30.7,0-52.9-21.9-52.9-53.7c0-32,23.8-52.9,52.5-52.9c18.2,0,30.8,7.1,39.9,16.8l-14,13.7
			c-6.4-6.9-15.4-10.7-25.9-10.7c-17.3,0-30.1,15.3-30.1,33.1c0,18.2,12.9,33.9,30.5,33.9c12.4,0,21.5-4.9,25.5-14.8h-26.3v-19.1
			h51.3C880.8,518.9,858.5,538.6,830.4,538.6z"/>
		<path d="M968.1,536.9l-45.5-60.1c-1.3-1.8-2.4-3.8-2.5-4.1c0,0.1,0.3,2.7,0.3,5.1v59.1h-22.6V433.6h19.5l45.5,59.5
			c1.4,1.8,2.4,3.8,2.5,4.2c0-0.1-0.3-2.7-0.3-5.2v-58.5h22.6v103.2H968.1z"/>
	</g>
	<g>
		<path class="st5" d="M593,566.8V612h-5.6v-45.2h-12.3v-5.3h30.1v5.3H593z"/>
		<path class="st5" d="M656.5,561.5c3.4,0,8.5,0.2,12.3,2.8c3,2,5.5,5.8,5.5,11.2c0,7.7-5.1,13.4-12.7,13.9l16.1,22.6h-6.8
			l-15.4-22.1H654V612h-5.6v-50.5H656.5z M654,584.9h3.6c7,0,11.1-3.3,11.1-9.2c0-2.8-0.8-5.6-4-7.4c-2.3-1.3-4.8-1.4-7.3-1.4H654
			V584.9z"/>
		<path class="st5" d="M749.8,597.8h-21.5l-6.1,14.2H716l23.3-52.9l22.6,52.9h-6.2L749.8,597.8z M747.6,592.5l-8.5-20.2l-8.6,20.2
			H747.6z"/>
		<path class="st5" d="M804.6,561.5h10.3c5.1,0,12.3,0.5,18.6,5.9c4.6,3.9,8.6,10.3,8.6,19.4c0,10.6-5.2,16.3-8.9,19.4
			c-4.6,3.9-9.5,5.8-18.5,5.8h-10.2V561.5z M810.2,606.7h4.9c4,0,9.5-0.5,14.5-4.5c3.8-3.2,6.8-8.2,6.8-15.4c0-12.1-8.5-20-21.3-20
			h-4.9V606.7z"/>
		<path class="st5" d="M914.2,566.8h-20.6v15h20v5.3h-20v19.6h20.6v5.3H888v-50.5h26.2V566.8z"/>
		<path class="st5" d="M982.6,571.5c-0.7-1.4-1.8-2.9-3-3.8c-1-0.8-2.8-1.7-5.7-1.7c-5,0-8.5,3.1-8.5,7.8c0,2,0.5,3.1,1.9,4.4
			c1.5,1.5,3.4,2.3,5.3,3.2l4.8,2.1c3,1.3,5.7,2.7,7.8,4.8c2.6,2.6,3.6,5.5,3.6,9.2c0,9.3-6.9,15.5-16,15.5c-3.3,0-7.5-0.7-11-4.1
			c-2.5-2.4-4-5.9-4.7-8.9l5.5-1.5c0.4,2.7,1.6,4.9,3,6.4c2.2,2.2,4.7,2.8,7.3,2.8c6.9,0,10.1-4.9,10.1-10c0-2.3-0.7-4.2-2.5-5.9
			c-1.4-1.4-3.4-2.3-6.1-3.5l-4.5-2.1c-2-0.9-4.5-2-6.7-4.2c-2.2-2.1-3.5-4.5-3.5-8.3c0-7.8,6-13,14.2-13c3.1,0,5.6,0.6,8.1,2.3
			c2,1.4,3.8,3.4,4.9,5.6L982.6,571.5z"/>
	</g>
</g>
</svg>
