<?xml version="1.0" encoding="utf-8"?>
<!-- Generator: Adobe Illustrator 26.3.1, SVG Export Plug-In . SVG Version: 6.00 Build 0)  -->
<svg version="1.1" id="Layer_2_00000103227007390612763160000012188338226264433080_"
	 xmlns="http://www.w3.org/2000/svg" xmlns:xlink="http://www.w3.org/1999/xlink" x="0px" y="0px" viewBox="0 0 1000 1000"
	 style="enable-background:new 0 0 1000 1000;" xml:space="preserve">
<style type="text/css">
	.st0{fill:#4BBEF0;}
	.st1{fill:#F0F0F0;}
	.st2{fill:#FFFFFF;}
	.st3{clip-path:url(#SVGID_00000160168007210034949160000017719737932538170005_);}
</style>
<g>
	
		<image style="overflow:visible;" width="1600" height="594" xlink:href="2A57C268.png"  transform="matrix(0.5623 0 0 0.5623 50.1923 333.01)">
	</image>
	<g>
		<path d="M766.3,487.8v-7h-15.4v64.1h16.2v-39.4c1.7-6.4,8.4-11.2,16.3-11.2c4.5,0,8.5,1.5,11.5,4l7.4-13.6
			c-4-3.9-9.8-6.5-16.3-6.6C777.6,477.9,770.2,481.9,766.3,487.8z"/>
		<path d="M424.6,506.5c-11.5-2.4-16-3.4-16-7.4c0-4,5.9-6.3,12.3-6.3c9.2,0,16.9,5.7,16.9,5.7l8.6-12.3c0,0-10.2-8.1-25.5-8.1
			c-18.6,0-29.2,10.3-29.2,20.7c0,12.6,11.7,18.2,25.2,20.9c10.3,2.1,13.5,2.9,13.5,7.3c0,4.1-5.9,6-12.9,6
			c-11.5,0-20.5-9.5-20.5-9.5l-9.6,12.2c0,0,10.7,12,30.6,12c17.3,0,29.6-9.1,29.6-20.4C447.7,513.7,438.1,509.3,424.6,506.5z"/>
		<path d="M489.2,531.4c-4.3,0-8.4-2.3-8.4-10.1v-26.8h18.3v-13.6h-18.3v-19.1l-16.2,1.7v17.3H452v13.6h12.6v29.4
			c0,13.7,9.5,22.7,21.9,22.7c9.3,0,15.4-4.2,15.4-4.2l-5.9-13.3C496,529.1,492.9,531.4,489.2,531.4z"/>
		
			<ellipse transform="matrix(0.9732 -0.2298 0.2298 0.9732 -92.2211 131.576)" class="st0" cx="518.9" cy="461.8" rx="9.7" ry="9.7"/>
		<path d="M572.4,532.4c-11.3,0-18.5-8.8-18.5-19.1c0-10.3,7.3-19.1,18.5-19.1c10,0,15.5,7,15.5,7l11.6-10.3c0,0-9.3-12.3-27.1-12.3
			c-19.8,0-35.6,15.2-35.6,34.7c0,19.4,15.8,34.7,35.6,34.7c17.8,0,27.3-12.5,27.3-12.5l-11-11.2
			C588.7,524.3,583.7,532.4,572.4,532.4z"/>
		<polygon points="663.1,479.8 642.8,479.8 620.9,506.1 620.9,442.7 604.7,442.7 604.7,545.4 620.9,545.4 620.9,516.9 646.4,545.4 
			667.2,545.4 635.7,511.1 		"/>
		<path d="M704.6,476.4c-19.5,0-33.9,15.7-33.9,35.5c0,19.8,15.8,35.5,36.3,35.5c16.4,0,27.1-9.7,27.1-9.7l-9.7-11.8
			c-2.4,1.9-8.4,5.8-17.4,5.8c-10.7,0-17.7-7.7-18.9-13.7h50.4c0.1-2.6,0.1-5.1,0.1-6.4C738.6,490.8,723.1,476.4,704.6,476.4z
			 M688,505.6c0.6-6,5.6-13.7,16.5-13.7c11.3,0,16.7,7.8,17,13.7H688z"/>
		<path d="M840,479.2c-19.1,0-34.2,14.7-34.2,33.7c0,18.8,15.1,33.7,34.2,33.7c19.1,0,34.2-14.9,34.2-33.7
			C874.2,494,859.1,479.2,840,479.2z M840,531.4c-11,0-17.7-8.5-17.7-18.5c0-10,6.8-18.5,17.7-18.5s17.7,8.5,17.7,18.5
			C857.7,522.9,850.9,531.4,840,531.4z"/>
		<path d="M916,479.2c-19.1,0-34.2,14.7-34.2,33.7c0,18.8,15.1,33.7,34.2,33.7c19.1,0,34.2-14.9,34.2-33.7
			C950.2,494,935,479.2,916,479.2z M916,531.4c-11,0-17.7-8.5-17.7-18.5c0-10,6.8-18.5,17.7-18.5c11,0,17.7,8.5,17.7,18.5
			C933.7,522.9,926.9,531.4,916,531.4z"/>
		<rect x="510.8" y="479.8" width="16.2" height="65.8"/>
	</g>
	<path class="st1" d="M355.1,567.7V437.9c0-14.3-7.6-27.5-20-34.6l-112.4-64.9c-12.4-7.1-27.6-7.1-40,0L70.2,403.2
		c-12.4,7.1-20,20.4-20,34.6v129.8c0,14.3,7.6,27.5,20,34.6l112.4,64.9c12.4,7.1,27.6,7.1,40,0l112.4-64.9
		C347.4,595.2,355.1,582,355.1,567.7z"/>
	<path class="st0" d="M167,365.7L93.7,408c-15.5,8.9-25,25.4-25,43.3v97c0,17.9,9.5,34.4,25,43.3l84,48.5c15.5,8.9,34.5,8.9,50,0
		l84-48.5c15.5-8.9,25-25.4,25-43.3v-86.2L167,365.7z"/>
	<path class="st2" d="M256.8,427.1c-8.5,3.9-17.4,9.5-25.2,16.8c-10.1,9.6-17.5,20.6-21.1,30.5c-2.8-0.5-5.6-0.8-8.5-0.8
		c-2.8,0-5.5,0.3-8.2,0.7c-3.6-9.9-10.9-21-21-30.5c-21.6-20.4-52.4-27.7-58.9-21.1c-7.2,7.2,9.4,45,20.8,56.4
		c3.4,3.4,8.6,7.3,14.5,10.9c6.4,3.9,9.5,11.5,7.6,18.8c-0.2,0.6-0.3,1.2-0.4,1.8c0,0.2-0.1,0.4-0.1,0.6c-0.1,0.5-0.2,1-0.3,1.6
		c0,0.2-0.1,0.4-0.1,0.6c-0.1,0.7-0.2,1.4-0.3,2c0,0.1,0,0.3,0,0.4c-0.1,0.6-0.1,1.2-0.1,1.7c0,0.2,0,0.4,0,0.6
		c0,0.7-0.1,1.4-0.1,2.1c0,0,0,0,0,0c0,0,0,0,0,0c0,0.5,0,1.1,0,1.6c0,0.1,0,0.3,0,0.4c0,0.3,0,0.5,0,0.8
		c-4.7,7.9-7.4,17.1-7.4,26.9c0,16.6,7.6,31.4,19.6,41.1c4.5,13.3,16.5,23.1,30.9,24.4v-20.5l-15.5-4.7c-1.8-0.6-2.9-2.5-2.3-4.4
		c0.6-1.8,2.5-2.9,4.4-2.3l17,5.2l17-5.2c1.9-0.6,3.8,0.5,4.4,2.3c0.6,1.8-0.5,3.8-2.3,4.4l-15.5,4.7v20.5
		c15.3-1.5,27.8-12.4,31.6-26.8c10.4-9.7,16.9-23.4,16.9-38.8c0-8.8-2.2-17.1-5.9-24.4c0-0.2,0.1-0.4,0.1-0.6
		c0.1-0.5,0.1-1.1,0.1-1.6c0-0.3,0-0.5,0.1-0.8c0-0.8,0.1-1.6,0.1-2.4c0-0.9,0-1.8-0.1-2.7c0-0.3,0-0.6-0.1-0.8
		c0-0.6-0.1-1.2-0.2-1.8c0-0.3-0.1-0.6-0.1-0.9c-0.1-0.6-0.2-1.2-0.3-1.8c0-0.3-0.1-0.6-0.1-0.8c-0.1-0.7-0.3-1.3-0.4-2
		c0-0.1-0.1-0.3-0.1-0.4c-1.8-7.3,1.2-14.9,7.6-18.7c6-3.6,11.3-7.6,14.8-11.1c5.6-5.6,12.5-17.7,17.2-29.3L256.8,427.1z"/>
	<g>
		<defs>
			<path id="SVGID_1_" d="M256.8,427.1c-8.5,3.9-17.4,9.5-25.2,16.8c-10.1,9.6-17.5,20.6-21.1,30.5c-2.8-0.5-5.6-0.8-8.5-0.8
				c-2.8,0-5.5,0.3-8.2,0.7c-3.6-9.9-10.9-21-21-30.5c-21.6-20.4-52.4-27.7-58.9-21.1c-7.2,7.2,9.4,45,20.8,56.4
				c3.4,3.4,8.6,7.3,14.5,10.9c6.4,3.9,9.5,11.5,7.6,18.8c-0.2,0.6-0.3,1.2-0.4,1.8c0,0.2-0.1,0.4-0.1,0.6c-0.1,0.5-0.2,1-0.3,1.6
				c0,0.2-0.1,0.4-0.1,0.6c-0.1,0.7-0.2,1.4-0.3,2c0,0.1,0,0.3,0,0.4c-0.1,0.6-0.1,1.2-0.1,1.7c0,0.2,0,0.4,0,0.6
				c0,0.7-0.1,1.4-0.1,2.1c0,0,0,0,0,0c0,0,0,0,0,0c0,0.5,0,1.1,0,1.6c0,0.1,0,0.3,0,0.4c0,0.3,0,0.5,0,0.8
				c-4.7,7.9-7.4,17.1-7.4,26.9c0,16.6,7.6,31.4,19.6,41.1c4.5,13.3,16.5,23.1,30.9,24.4v-20.5l-15.5-4.7c-1.8-0.6-2.9-2.5-2.3-4.4
				c0.6-1.8,2.5-2.9,4.4-2.3l17,5.2l17-5.2c1.9-0.6,3.8,0.5,4.4,2.3c0.6,1.8-0.5,3.8-2.3,4.4l-15.5,4.7v20.5
				c15.3-1.5,27.8-12.4,31.6-26.8c10.4-9.7,16.9-23.4,16.9-38.8c0-8.8-2.2-17.1-5.9-24.4c0-0.2,0.1-0.4,0.1-0.6
				c0.1-0.5,0.1-1.1,0.1-1.6c0-0.3,0-0.5,0.1-0.8c0-0.8,0.1-1.6,0.1-2.4c0-0.9,0-1.8-0.1-2.7c0-0.3,0-0.6-0.1-0.8
				c0-0.6-0.1-1.2-0.2-1.8c0-0.3-0.1-0.6-0.1-0.9c-0.1-0.6-0.2-1.2-0.3-1.8c0-0.3-0.1-0.6-0.1-0.8c-0.1-0.7-0.3-1.3-0.4-2
				c0-0.1-0.1-0.3-0.1-0.4c-1.8-7.3,1.2-14.9,7.6-18.7c6-3.6,11.3-7.6,14.8-11.1c5.6-5.6,12.5-17.7,17.2-29.3L256.8,427.1z"/>
		</defs>
		<clipPath id="SVGID_00000140711866950613929620000014338257769318488463_">
			<use xlink:href="#SVGID_1_"  style="overflow:visible;"/>
		</clipPath>
		<g style="clip-path:url(#SVGID_00000140711866950613929620000014338257769318488463_);">
			
				<image style="overflow:visible;opacity:0.25;" width="200" height="140" xlink:href="2A57C269.png"  transform="matrix(1 0 0 1 159 357)">
			</image>
			<g>
				<path class="st2" d="M336.6,462.1l-9.3,5.5c-15.3,9.1-34.4,9.4-50,0.6l-84.6-47.4c-15.6-8.7-25.3-25.1-25.5-43l-0.2-12.2
					L336.6,462.1z"/>
			</g>
		</g>
	</g>
	<path class="st2" d="M336.6,462.1l-9.3,5.5c-15.3,9.1-34.4,9.4-50,0.6l-84.6-47.4c-15.6-8.7-25.3-25.1-25.5-43l-0.2-12.2
		L336.6,462.1z"/>
</g>
</svg>
