<svg xmlns="http://www.w3.org/2000/svg" viewBox="0 0 1000 1000"><defs><style>.cls-1{isolation:isolate;}.cls-11,.cls-2{fill:#1e4169;}.cls-10,.cls-12,.cls-13,.cls-3,.cls-4,.cls-5,.cls-6,.cls-7,.cls-8,.cls-9{fill:#b1cc00;}.cls-10,.cls-11,.cls-13,.cls-4,.cls-5,.cls-6,.cls-7,.cls-9{mix-blend-mode:multiply;}.cls-5{opacity:0.4;}.cls-6{opacity:0.6;}.cls-7{opacity:0.2;}.cls-13,.cls-8{opacity:0.5;}.cls-12,.cls-8{mix-blend-mode:screen;}.cls-9{opacity:0.3;}.cls-10,.cls-12{opacity:0.75;}.cls-11{opacity:0.45;}</style></defs><g class="cls-1"><g id="Layer_2" data-name="Layer 2"><path class="cls-2" d="M292,897.9a5.15,5.15,0,0,1-1.75-3.19L279.15,818v-.36A2.66,2.66,0,0,1,281.8,815h22.38a5.59,5.59,0,0,1,3.19.72,3.19,3.19,0,0,1,1.15,2.53l4.09,33.94,4.93-15.05c.8-2.32,2.17-3.49,4.09-3.49h12.28c1.93,0,3.29,1.17,4.09,3.49l4.94,14.93L347,818.29a3.15,3.15,0,0,1,1.14-2.53,5.61,5.61,0,0,1,3.19-.72h22.39a2.68,2.68,0,0,1,2.65,2.64V818l-11.08,76.67a5.18,5.18,0,0,1-1.74,3.19,5.41,5.41,0,0,1-3.79,1.38H342.58a4.59,4.59,0,0,1-3.31-1.08,6.82,6.82,0,0,1-1.63-2.16l-9.87-24.68L317.9,896a6.93,6.93,0,0,1-1.62,2.16,4.62,4.62,0,0,1-3.31,1.08H295.76A5.38,5.38,0,0,1,292,897.9Z"/><path class="cls-2" d="M391.45,898.32a3.09,3.09,0,0,1-1-2.28V818.29a3.3,3.3,0,0,1,3.25-3.25h24.56a3.3,3.3,0,0,1,3.25,3.25V896a3.12,3.12,0,0,1-1,2.28,3.08,3.08,0,0,1-2.28,1H393.73A3.08,3.08,0,0,1,391.45,898.32Z"/><path class="cls-2" d="M436.59,898.32a3.09,3.09,0,0,1-1-2.28V818.29a3.3,3.3,0,0,1,3.25-3.25h24.07a3.28,3.28,0,0,1,3.25,3.25v56.32h33.34a3.3,3.3,0,0,1,3.25,3.25V896a3.28,3.28,0,0,1-3.25,3.24H438.87A3.08,3.08,0,0,1,436.59,898.32Z"/><path class="cls-2" d="M517.83,898.32a3.11,3.11,0,0,1-1-2.28V818.29a3.28,3.28,0,0,1,3.25-3.25h24.07a3.15,3.15,0,0,1,2.29,1,3.12,3.12,0,0,1,1,2.29v56.32h33.34a3.31,3.31,0,0,1,3.25,3.25V896a3.3,3.3,0,0,1-3.25,3.24H520.12A3.08,3.08,0,0,1,517.83,898.32Z"/><path class="cls-2" d="M599.08,898.32a3.09,3.09,0,0,1-1-2.28V818.29a3.3,3.3,0,0,1,3.25-3.25h24.56a3.3,3.3,0,0,1,3.25,3.25V896a3.3,3.3,0,0,1-3.25,3.24H601.36A3.08,3.08,0,0,1,599.08,898.32Z"/><path class="cls-2" d="M660.8,896q-8.62-3.4-13-9.1a21.49,21.49,0,0,1-4.58-12.5,2.63,2.63,0,0,1,2.59-2.59h22.3a6.87,6.87,0,0,1,2.64.42,9.82,9.82,0,0,1,2.41,1.58,13.54,13.54,0,0,0,8.69,2.7,18.92,18.92,0,0,0,6.39-.88c1.61-.59,2.41-1.39,2.41-2.41q0-2.12-3.17-3.22t-12-2.29q-30.3-4-30.29-25.83a23.15,23.15,0,0,1,4.52-14,29.24,29.24,0,0,1,12.62-9.57,48,48,0,0,1,18.66-3.4,46.62,46.62,0,0,1,19.37,3.76,33.09,33.09,0,0,1,12.8,9.45q4.46,5.68,4.7,11.09a2.5,2.5,0,0,1-.77,1.82,2.34,2.34,0,0,1-1.7.76H692a6.43,6.43,0,0,1-2.58-.41,8,8,0,0,1-2.11-1.47,9.29,9.29,0,0,0-6.23-2.11q-5.62,0-5.63,3.29c0,1.17.92,2.15,2.76,2.93s5.26,1.49,10.27,2.12q11.74,1.51,18.84,4.57t10.33,8.16q3.23,5.11,3.23,12.86a22.59,22.59,0,0,1-5.05,14.61A32.09,32.09,0,0,1,701.89,896a55.47,55.47,0,0,1-20,3.4Q669.43,899.42,660.8,896Z"/><path class="cls-2" d="M296.8,941.68V913.51h20.49v7.24h-12v3.67h10.51v6.44H305.25v3.58h12v7.24Z"/><path class="cls-2" d="M332.78,934.44h12.64v7.24H324.33V913.51h8.45Z"/><path class="cls-2" d="M352.47,941.68V913.51H373v7.24h-12v3.67h10.51v6.44H360.92v3.58h12v7.24Z"/><path class="cls-2" d="M395.22,913.51c4.53,0,7.61,1.79,10.54,4.37l-4.65,5.31a7.61,7.61,0,0,0-5.89-2.66,7.07,7.07,0,0,0,0,14.13,7.61,7.61,0,0,0,5.89-2.66l4.65,5.31c-2.93,2.58-6,4.37-10.54,4.37-9.21,0-15.22-6.47-15.22-14.08S386,913.51,395.22,913.51Z"/><path class="cls-2" d="M436.23,913.51v7.24h-7.65v20.93h-8.29V920.75H412.8v-7.24Z"/><path class="cls-2" d="M451.6,931.89v9.36h-8.33V913.51h13.48c6.45,0,9.9,4.36,9.9,9.67,0,4.08-2.1,7.05-5.74,8.2.35,2.61,1.62,3.84,3.25,3.84a5.41,5.41,0,0,0,3-1l2.53,5.27a12.49,12.49,0,0,1-7.25,2.14c-7.21,0-8.56-6.93-8.87-9.79Zm0-5.74h4.28a2.63,2.63,0,0,0,2.45-2.7,2.66,2.66,0,0,0-2.45-2.81H451.6Z"/><path class="cls-2" d="M485.2,941.68h-8.45V913.51h8.45Z"/><path class="cls-2" d="M507.47,913.51c4.52,0,7.61,1.79,10.53,4.37l-4.64,5.31a7.63,7.63,0,0,0-5.89-2.66,7.07,7.07,0,0,0,0,14.13,7.63,7.63,0,0,0,5.89-2.66l4.64,5.31c-2.92,2.58-6,4.37-10.53,4.37-9.21,0-15.22-6.47-15.22-14.08S498.26,913.51,507.47,913.51Z"/><path class="cls-2" d="M525.05,941.68,536,913.51h7.48l11.19,28.17h-9L543.85,937h-8.38l-1.69,4.71Zm11.75-11.31h5.64l-2.7-7.93Z"/><path class="cls-2" d="M570.13,934.44h12.64v7.24H561.68V913.51h8.45Z"/><path class="cls-2" d="M640,947.93a12.63,12.63,0,0,1-6.83,2.07c-6.48,0-10.19-3.43-11.2-8.7a13.55,13.55,0,0,1-11-13.7c0-7.61,5.54-14.09,14.75-14.09s14.76,6.48,14.76,14.09a13.57,13.57,0,0,1-10.77,13.66,3.54,3.54,0,0,0,3.74,2.5,9.11,9.11,0,0,0,4.14-1.18Zm-7.73-20.33c0-3.83-2.38-7.07-6.56-7.07s-6.55,3.24-6.55,7.07,2.38,7.06,6.55,7.06S632.25,931.42,632.25,927.6Z"/><path class="cls-2" d="M656,934.44h12.63v7.24H647.49V913.51H656Z"/><path class="cls-2" d="M675.63,941.68V913.51h13.24a14.09,14.09,0,1,1,0,28.17Zm8.45-20.93v13.69h3.63c4.34,0,7-2.7,7-6.84s-2.7-6.89-7-6.85Z"/><path class="cls-3" d="M416,513.21Z"/><path class="cls-3" d="M411.45,519c4.62-9.29,11.6-29.43,8.07-40.31s-15-17-25.57-13.76l-.07,0-.07,0c-10.58,3.28-16.29,14.76-12.76,25.64S402.19,514,411.45,519Z"/><path class="cls-3" d="M411.45,519a198.35,198.35,0,0,0-58.2-103.59l5.69-5.66a204.23,204.23,0,0,1,34.76,50.88A200.29,200.29,0,0,1,411.45,519Z"/><path class="cls-4" d="M411.45,519a198.35,198.35,0,0,0-58.2-103.59l5.69-5.66a204.23,204.23,0,0,1,34.76,50.88A200.29,200.29,0,0,1,411.45,519Z"/><path class="cls-5" d="M419.52,478.68c-3.37-10.35-13.9-16.41-24-14.15a200.32,200.32,0,0,1,16,54.46C416.08,509.7,423.05,489.56,419.52,478.68Z"/><path class="cls-6" d="M381.05,490.61c3.54,10.88,21.14,23.39,30.4,28.38h0a198.52,198.52,0,0,0-19.58-53.31A20.15,20.15,0,0,0,381.05,490.61Z"/><path class="cls-5" d="M391.87,465.68a19.4,19.4,0,0,0-2.59,1.38A198.57,198.57,0,0,1,411.45,519h0A198.52,198.52,0,0,0,391.87,465.68Z"/><path class="cls-7" d="M411.45,519a198.35,198.35,0,0,0-58.2-103.59l5.69-5.66a204.23,204.23,0,0,1,34.76,50.88A200.29,200.29,0,0,1,411.45,519Z"/><path class="cls-3" d="M494.8,470.44h0Z"/><path class="cls-3" d="M497.66,471C489.27,458.67,469,435.77,453,432.59s-31.69,6.9-35,22.51a.43.43,0,0,0,0,.11l0,.1c-3.26,15.61,7.09,30.84,23.13,34S485,479.16,497.66,471Z"/><path class="cls-3" d="M531.86,217.33h0Z"/><path class="cls-3" d="M533.12,210.18c-30.41,21.54-86.64,73.31-93.81,113.53s18.78,78.85,57.95,86.25l.26.05.26.05c39.17,7.4,76.73-19.21,83.9-59.44S554.12,241.44,533.12,210.18Z"/><path class="cls-3" d="M316.59,336.19a113.63,113.63,0,0,0,25.68,42.18A114.76,114.76,0,0,0,433.79,413a117.47,117.47,0,0,0,25.06-4.83A125.61,125.61,0,0,0,482.47,398a106.53,106.53,0,0,0,37.46-34.69c9.55-14.42,15.55-31.11,18.73-48.29s3.64-34.95,2.48-52.52a345,345,0,0,0-8-52.33,345.15,345.15,0,0,1,9.82,52.17c1.78,17.65,2,35.58-.71,53.28s-8.22,35.13-17.72,50.6a113,113,0,0,1-38.4,38,134.92,134.92,0,0,1-24.68,11.61,124.43,124.43,0,0,1-81.36.83,127.3,127.3,0,0,1-78.57-75Z"/><path class="cls-8" d="M533.12,210.18h0a345.15,345.15,0,0,1,9.82,52.17c1.78,17.65,2,35.58-.71,53.28s-8.22,35.13-17.72,50.6a113,113,0,0,1-38.4,38c-.9.54-1.83,1-2.75,1.56a71.12,71.12,0,0,0,13.9,4.13l.26.05.26.05c39.17,7.4,76.73-19.21,83.9-59.44S554.12,241.44,533.12,210.18Z"/><path class="cls-9" d="M519.93,363.32c9.55-14.42,15.55-31.11,18.73-48.29s3.64-34.95,2.48-52.52a345,345,0,0,0-8-52.33c-30.41,21.54-86.64,73.31-93.81,113.53-5.7,32,9.58,63,35.8,78.05,2.49-1.18,4.95-2.41,7.36-3.75A106.53,106.53,0,0,0,519.93,363.32Zm11.91-146h0Z"/><path class="cls-9" d="M541.12,262.67a346.76,346.76,0,0,0-8-52.44v0a345.59,345.59,0,0,1,5.27,52.68c.24,17.61-1.09,35.29-5.22,52.32s-10.95,33.34-21.24,47.24a106.61,106.61,0,0,1-39.23,32.69c-1.48.72-3,1.4-4.51,2.07a72,72,0,0,0,6.92,4.58c2.49-1.18,4.95-2.41,7.36-3.75,1.69-.93,3.34-1.92,5-2.94.89-.56,1.75-1.14,2.61-1.73.66-.44,1.32-.87,2-1.33,1.14-.81,2.27-1.63,3.38-2.48l.83-.64c1.28-1,2.54-2,3.77-3.07h0a106.66,106.66,0,0,0,19.93-22.5c9.55-14.42,15.55-31.11,18.73-48.29.79-4.19,1.4-8.42,1.88-12.66A230,230,0,0,0,541.12,262.67Z"/><path class="cls-10" d="M316.59,336.19a113.63,113.63,0,0,0,25.68,42.18A114.76,114.76,0,0,0,433.79,413a117.47,117.47,0,0,0,25.06-4.83A125.61,125.61,0,0,0,482.47,398a106.53,106.53,0,0,0,37.46-34.69c9.55-14.42,15.55-31.11,18.73-48.29s3.64-34.95,2.48-52.52a345,345,0,0,0-8-52.33,345.15,345.15,0,0,1,9.82,52.17c1.78,17.65,2,35.58-.71,53.28s-8.22,35.13-17.72,50.6a113,113,0,0,1-38.4,38,134.92,134.92,0,0,1-24.68,11.61,124.43,124.43,0,0,1-81.36.83,127.3,127.3,0,0,1-78.57-75Z"/><path class="cls-2" d="M421.17,618.82,566.33,643A23.76,23.76,0,0,0,594,619.58h0a23.76,23.76,0,0,0-19.86-23.44L429,572a23.76,23.76,0,0,0-27.67,23.43h0A23.76,23.76,0,0,0,421.17,618.82Z"/><path class="cls-2" d="M421.17,683l145.16,24.2A23.76,23.76,0,0,0,594,683.8h0a23.76,23.76,0,0,0-19.86-23.43L429,636.18a23.76,23.76,0,0,0-27.67,23.43h0A23.75,23.75,0,0,0,421.17,683Z"/><path class="cls-11" d="M421.17,618.82,566.33,643A23.76,23.76,0,0,0,594,619.58h0a23.76,23.76,0,0,0-19.86-23.44L429,572a23.76,23.76,0,0,0-27.67,23.43h0A23.76,23.76,0,0,0,421.17,618.82Z"/><path class="cls-11" d="M421.17,683l145.16,24.2A23.76,23.76,0,0,0,594,683.8h0a23.76,23.76,0,0,0-19.86-23.43L429,636.18a23.76,23.76,0,0,0-27.67,23.43h0A23.75,23.75,0,0,0,421.17,683Z"/><path class="cls-3" d="M594,774.8a233.77,233.77,0,0,1-28-38,235.44,235.44,0,0,1-30.81-90.37,230.16,230.16,0,0,1-1.84-24.21c-.08-4-.23-8.09.06-12.26s.22-8.34.85-12.42a213,213,0,0,1,11.35-48,322.49,322.49,0,0,1,20.07-44.41c7.63-14.25,16.14-27.91,25-41.18s18-26.12,26.68-38.78,17-25.48,24.53-38.56a368.88,368.88,0,0,0,20.23-39.89,242.59,242.59,0,0,0,13.57-41.27L677.58,295c.4-1.73.45-3.47.68-5.21l.57-5.19.29-2.6c0-.86,0-1.72.07-2.58l.15-5.16.08-2.58a20.85,20.85,0,0,0,0-2.62l-.21-5.31-.1-2.66-.23-2.65-.48-5.29c-.1-1.77-.45-3.51-.66-5.26l-.71-5.26c-.7-3.47-1.23-7-2-10.4s-1.54-6.9-2.62-10.26a179.62,179.62,0,0,0-16.24-39,191.51,191.51,0,0,0-24.66-34.24,189,189,0,0,0-31.9-27.61A180.29,180.29,0,0,0,521.47,91a187.37,187.37,0,0,0-42.28-1,190.41,190.41,0,0,0-41.39,8.78,176.88,176.88,0,0,0-38.4,18.06,186.07,186.07,0,0,0-60,60,187.29,187.29,0,0,0-18.42,38.87,191.49,191.49,0,0,0,2.66,128.56,196.54,196.54,0,0,0,86.12,100.22c3.26,2,6.69,3.65,10.07,5.42,1.68.92,3.44,1.66,5.18,2.46l5.22,2.41c3.56,1.39,7.08,3,10.7,4.22s7.25,2.6,11,3.62A211.94,211.94,0,0,0,497.66,471a195.35,195.35,0,0,1-93-16.57,204.84,204.84,0,0,1-76.46-59.15,215.27,215.27,0,0,1-26-41.95A212.13,212.13,0,0,1,286.78,306l-.64-3.07-.5-3.09-1-6.18c-.59-4.14-.92-8.3-1.36-12.46-.18-4.17-.51-8.35-.56-12.54v-9.42l.15-3.14a213.44,213.44,0,0,1,7.89-49.77,219.29,219.29,0,0,1,19.58-46.72,214.22,214.22,0,0,1,30.15-40.94c2.82-3.18,5.95-6.08,9-9.09,1.49-1.52,3.14-2.87,4.71-4.32s3.16-2.86,4.78-4.23a220,220,0,0,1,66.3-38.24,217.66,217.66,0,0,1,50-11.56,226.22,226.22,0,0,1,51.36.46,213.19,213.19,0,0,1,49.94,12.51A219.87,219.87,0,0,1,622.24,88,228.26,228.26,0,0,1,661,121.92a224.83,224.83,0,0,1,29.8,41.94,219.44,219.44,0,0,1,19.05,47.77c1.23,4.11,2,8.34,3,12.52s1.51,8.44,2.26,12.66c.49,4.26,1.11,8.5,1.42,12.78l.41,6.4.19,3.21,0,3.2.09,6.41a32.3,32.3,0,0,1-.07,3.25l-.17,3.29-.36,6.56c-.07,1.09-.11,2.19-.2,3.27l-.43,3.23-.87,6.45c-.32,2.13-.5,4.32-1,6.4l-2.67,12.59a260.73,260.73,0,0,1-17.19,47.26,382,382,0,0,1-23.77,42.94c-8.72,13.66-18.07,26.75-27.65,39.45s-19.36,24.83-28.51,37.14-17.9,24.79-26,37.62A316.26,316.26,0,0,0,567.13,558a196.53,196.53,0,0,0-13.46,42.32c-2.74,14.31-3.39,29.64-2.91,44.74a236.53,236.53,0,0,0,6,45.21A252.51,252.51,0,0,0,594,774.8Z"/><path class="cls-12" d="M440.88,459c-3.62-1.26-7.14-2.83-10.7-4.22L425,452.32c-1.74-.8-3.5-1.54-5.18-2.46-3.38-1.77-6.81-3.43-10.07-5.42a196.54,196.54,0,0,1-86.12-100.22,191.49,191.49,0,0,1-2.66-128.56,187.29,187.29,0,0,1,18.42-38.87,186.07,186.07,0,0,1,60-60,176.88,176.88,0,0,1,38.4-18.06,193,193,0,0,1,33.35-7.81,186.09,186.09,0,0,0-31.06,2.75q-9.29,2.09-18.35,5.06a176.58,176.58,0,0,0-38.39,18.06,185.81,185.81,0,0,0-60.05,60,186.78,186.78,0,0,0-18.42,38.87c-.52,1.55-1,3.12-1.49,4.69A217.11,217.11,0,0,0,299,256.11l-.15,3.14v9.42c.05,4.19.37,8.37.56,12.54.44,4.16.76,8.32,1.36,12.46l1,6.18.49,3.09.64,3.07a212.13,212.13,0,0,0,15.4,47.32,215.79,215.79,0,0,0,26,41.95,204.84,204.84,0,0,0,76.46,59.15,193,193,0,0,0,70.92,16.76c2,0,4-.1,6-.19a211.94,211.94,0,0,1-45.81-8.43C448.13,461.55,444.52,460.18,440.88,459Z"/><path class="cls-13" d="M412,457.53c1.18.47,2.36,1,3.54,1.4.79.3,1.59.58,2.39.86,1,.38,2.07.76,3.11,1.12.87.3,1.76.58,2.64.87s1.93.64,2.89.93,1.89.57,2.83.84,1.83.54,2.75.79,2,.54,3,.8,1.73.45,2.6.66l3.15.73,2.46.55,3.31.67,2.32.44,3.45.6,2.18.34c1.2.19,2.4.36,3.6.52l2,.26c1.26.15,2.51.3,3.77.43l1.84.18c1.32.12,2.63.24,3.94.34l1.64.11c1.38.09,2.76.17,4.14.23l1.4.06c1.45.05,2.91.1,4.36.12h1.1c1.54,0,3.09,0,4.64,0l.68,0c1.68,0,3.36-.06,5-.13h0a193.39,193.39,0,0,1-72-16.82,204.84,204.84,0,0,1-76.46-59.15,215.79,215.79,0,0,1-26-41.95A212.13,212.13,0,0,1,302.83,306l-.64-3.07-.49-3.09-1-6.18c-.6-4.14-.92-8.3-1.36-12.46-.19-4.17-.51-8.35-.56-12.54v-9.42l.15-3.14a214,214,0,0,1,7.88-49.77,219.84,219.84,0,0,1,19.59-46.72,214.6,214.6,0,0,1,30.14-40.94c2.83-3.18,5.95-6.08,9-9.09,1.49-1.52,3.14-2.87,4.7-4.32s3.16-2.86,4.79-4.23a219.56,219.56,0,0,1,66.3-38.24,217.7,217.7,0,0,1,50-11.56c5.3-.56,10.62-.9,15.94-1.09h0c-2.44-.09-4.89-.12-7.33-.14l-2.17,0c-1.75,0-3.5,0-5.24.08l-2.5.08c-1.73.07-3.45.16-5.17.27l-2.26.14c-2.44.18-4.88.38-7.31.64a217.66,217.66,0,0,0-50,11.56A220,220,0,0,0,359,101c-1.62,1.37-3.19,2.82-4.78,4.23s-3.22,2.8-4.71,4.32c-3,3-6.14,5.91-9,9.09a214.22,214.22,0,0,0-30.15,40.94,219.29,219.29,0,0,0-19.58,46.72,213.44,213.44,0,0,0-7.89,49.77l-.15,3.14v9.42c.05,4.19.38,8.37.56,12.54.44,4.16.77,8.32,1.36,12.46l1,6.18.5,3.09.64,3.07a212.13,212.13,0,0,0,15.4,47.32,215.27,215.27,0,0,0,26,41.95,204.84,204.84,0,0,0,76.46,59.15q2.68,1.21,5.4,2.34Z"/><path class="cls-13" d="M550.76,645.08c0-1.16,0-2.33-.08-3.5-.69-6.44-1.14-12.92-1.28-19.41-.08-4-.24-8.09.05-12.26s.22-8.34.86-12.42a212.94,212.94,0,0,1,11.34-48,322.54,322.54,0,0,1,20.08-44.41c7.63-14.25,16.14-27.91,25-41.18s18-26.12,26.69-38.78,17-25.48,24.52-38.56a365.29,365.29,0,0,0,20.23-39.89,240.84,240.84,0,0,0,13.57-41.27L693.64,295c.39-1.73.45-3.47.67-5.21l.57-5.19.3-2.6c0-.86,0-1.72.07-2.58l.14-5.16.09-2.58a22.94,22.94,0,0,0,0-2.62l-.21-5.31-.1-2.66-.23-2.65-.48-5.29c-.11-1.77-.45-3.51-.67-5.26l-.71-5.26c-.69-3.47-1.22-7-2-10.4s-1.54-6.9-2.63-10.26a180.08,180.08,0,0,0-16.23-39,191.07,191.07,0,0,0-24.67-34.24,189,189,0,0,0-31.89-27.61A180.29,180.29,0,0,0,537.53,91a186.34,186.34,0,0,0-33.73-1.58q8.88.38,17.67,1.58a180.29,180.29,0,0,1,78.1,30.13,189,189,0,0,1,31.9,27.61A191.51,191.51,0,0,1,656.13,183a179.62,179.62,0,0,1,16.24,39c1.08,3.36,1.75,6.83,2.62,10.26s1.33,6.93,2,10.4l.71,5.26c.21,1.75.56,3.49.66,5.26l.48,5.29.23,2.65.1,2.66.21,5.31a20.85,20.85,0,0,1,0,2.62l-.08,2.58-.15,5.16c0,.86,0,1.72-.07,2.58l-.29,2.6-.57,5.19c-.23,1.74-.28,3.48-.68,5.21l-1.92,10.42a242.59,242.59,0,0,1-13.57,41.27,368.88,368.88,0,0,1-20.23,39.89c-7.54,13.08-15.82,25.86-24.53,38.56s-17.84,25.48-26.68,38.78-17.35,26.93-25,41.18a322.49,322.49,0,0,0-20.07,44.41,213,213,0,0,0-11.35,48c-.63,4.08-.62,8.28-.85,12.42s-.14,8.21-.06,12.26a230.16,230.16,0,0,0,1.84,24.21A234.56,234.56,0,0,0,594,774.8a252.51,252.51,0,0,1-37.26-84.51A236.53,236.53,0,0,1,550.76,645.08Z"/><path class="cls-8" d="M717.25,268.81l-.09-6.41,0-3.2-.19-3.21-.41-6.4c-.31-4.28-.93-8.52-1.42-12.78-.75-4.22-1.36-8.47-2.26-12.66s-1.76-8.41-3-12.52a219.44,219.44,0,0,0-19.05-47.77A224.83,224.83,0,0,0,661,121.92,228.26,228.26,0,0,0,622.24,88a219.87,219.87,0,0,0-45.66-23.82A213.19,213.19,0,0,0,526.64,51.7a226.91,226.91,0,0,0-35.43-1.55q9.71.36,19.37,1.55a213.19,213.19,0,0,1,49.94,12.51A220.2,220.2,0,0,1,606.19,88a228.58,228.58,0,0,1,38.74,33.89,224.37,224.37,0,0,1,29.8,41.94,218.94,218.94,0,0,1,19,47.77c1.23,4.11,2,8.34,3,12.52s1.51,8.44,2.26,12.66c.49,4.26,1.11,8.5,1.42,12.78l.42,6.4.19,3.21.05,3.2.08,6.41a32.3,32.3,0,0,1-.07,3.25l-.17,3.29-.36,6.56c-.06,1.09-.11,2.19-.2,3.27l-.42,3.23-.87,6.45c-.33,2.13-.51,4.32-1,6.4l-2.67,12.59a260,260,0,0,1-17.19,47.26,381.9,381.9,0,0,1-23.76,42.94c-8.73,13.66-18.08,26.75-27.65,39.45s-19.37,24.83-28.52,37.14-17.9,24.79-25.95,37.62A316.26,316.26,0,0,0,551.07,558a196,196,0,0,0-13.45,42.32c-2.54,13.2-3.27,27.27-3,41.24.17,1.6.35,3.2.55,4.8A234.56,234.56,0,0,0,594,774.8a252.51,252.51,0,0,1-37.26-84.51,236.53,236.53,0,0,1-6-45.21c-.48-15.1.17-30.43,2.91-44.74A196.53,196.53,0,0,1,567.13,558a316.26,316.26,0,0,1,21.28-39.76c8.05-12.83,16.77-25.33,26-37.62s19-24.39,28.51-37.14,18.93-25.79,27.65-39.45a382,382,0,0,0,23.77-42.94,260.73,260.73,0,0,0,17.19-47.26l2.67-12.59c.5-2.08.68-4.27,1-6.4l.87-6.45.43-3.23c.09-1.08.13-2.18.2-3.27l.36-6.56.17-3.29A32.3,32.3,0,0,0,717.25,268.81Z"/><path class="cls-8" d="M425,452.32l5.22,2.41c3.56,1.39,7.08,3,10.7,4.22s7.25,2.6,11,3.62A211.94,211.94,0,0,0,497.66,471C489.27,458.67,469,435.77,453,432.59a29.81,29.81,0,0,0-33.28,17.22l.09.05C421.46,450.78,423.22,451.52,425,452.32Zm69.84,18.11Z"/><path class="cls-9" d="M417.45,459.64a29,29,0,0,0,23.65,29.69c16,3.18,43.89-10.17,56.56-18.33A196.83,196.83,0,0,1,417.45,459.64Z"/><path class="cls-13" d="M417.45,459.64a28.26,28.26,0,0,0,.6,7.37,196.81,196.81,0,0,0,79.61,4A196.83,196.83,0,0,1,417.45,459.64Z"/><path class="cls-10" d="M416,513.21Z"/><path class="cls-2" d="M574.14,586.7,429,610.9a23.77,23.77,0,0,1-27.67-23.44h0A23.76,23.76,0,0,1,421.17,564l145.16-24.2A23.77,23.77,0,0,1,594,563.27h0A23.76,23.76,0,0,1,574.14,586.7Z"/><path class="cls-2" d="M574.14,650.93,429,675.13a23.77,23.77,0,0,1-27.67-23.44h0a23.76,23.76,0,0,1,19.86-23.43l145.16-24.2A23.77,23.77,0,0,1,594,627.5h0A23.76,23.76,0,0,1,574.14,650.93Z"/><path class="cls-2" d="M574.14,715.16,429,739.35a23.76,23.76,0,0,1-27.67-23.43h0a23.76,23.76,0,0,1,19.86-23.44l145.16-24.19A23.76,23.76,0,0,1,594,691.72h0A23.76,23.76,0,0,1,574.14,715.16Z"/></g></g></svg>