<?xml version="1.0" encoding="utf-8"?>
<!-- Generator: Adobe Illustrator 25.0.1, SVG Export Plug-In . SVG Version: 6.00 Build 0)  -->
<svg version="1.1" id="Layer_1" xmlns="http://www.w3.org/2000/svg" xmlns:xlink="http://www.w3.org/1999/xlink" x="0px" y="0px"
	 viewBox="0 0 100 100" style="enable-background:new 0 0 100 100;" xml:space="preserve">
<style type="text/css">
	.st0{fill:#FFFFFF;}
	.st1{fill:#212121;}
</style>
<circle class="st0" cx="50" cy="50" r="50"/>
<g id="brand" transform="translate(0 -0.077)">
	<path id="Path_16" class="st1" d="M45.5,47.3c1.8,0,3.3-1.5,3.3-3.3c0-0.9-0.3-1.7-0.9-2.3l-1.5-1.6c-0.2-0.2-0.5-0.3-0.8-0.3
		c-0.3,0-0.6,0.1-0.8,0.3l-3.2,3.1l-3.2,3.1c-0.4,0.4-0.5,1.1,0,1.6c0.4,0.4,1.1,0.5,1.6,0l2.4-2.3l0.3,0.3l-1.4,4
		c-0.2,0.6,0.1,1.2,0.7,1.4c0.6,0.2,1.2-0.1,1.4-0.7l1.2-3.4C44.8,47.3,45.2,47.3,45.5,47.3z M45.5,42.5l0.8,0.8
		c0.4,0.4,0.4,1.1,0,1.6c-0.4,0.4-1.1,0.4-1.6,0l0,0L44,44L45.5,42.5z"/>
	<path id="Path_17" class="st1" d="M40.3,41.8c1.8-0.1,3.3-1.6,3.2-3.4c0-0.8-0.4-1.6-0.9-2.2L41,34.6c-0.4-0.4-1.1-0.5-1.6,0
		c0,0,0,0,0,0l-6.3,6.1c-0.4,0.4-0.5,1.1,0,1.6c0,0,0,0,0,0l1.5,1.6c0.6,0.6,1.4,1,2.3,1H37C38.7,44.8,40.2,43.5,40.3,41.8
		L40.3,41.8z M40.2,36.9l0.8,0.8c0.4,0.4,0.4,1.1,0,1.6c0,0,0,0,0,0c-0.2,0.2-0.5,0.3-0.8,0.3c-0.3,0-0.6-0.1-0.8-0.3l-0.8-0.8
		L40.2,36.9z M37.8,42.3c-0.2,0.2-0.5,0.3-0.8,0.3c-0.3,0-0.6-0.1-0.8-0.3l-0.8-0.8L37,40l0.8,0.8C38.2,41.2,38.2,41.9,37.8,42.3
		L37.8,42.3z"/>
	<path id="Path_18" class="st1" d="M54,48.1c-0.3-0.3-0.8-0.4-1.2-0.2l-8.6,3.7c-0.6,0.2-0.8,0.9-0.6,1.4c0.2,0.6,0.9,0.8,1.4,0.6
		l1.5-0.6l2.4,2.5l-0.7,1.4c-0.3,0.5,0,1.2,0.5,1.5c0,0,0,0,0,0c0.1,0.1,0.3,0.1,0.5,0.1c0.4,0,0.8-0.2,1-0.6l4.1-8.5
		C54.4,48.9,54.3,48.4,54,48.1z M48.6,52l2.3-1l-1.1,2.3L48.6,52z"/>
	<path id="Path_19" class="st1" d="M62.4,56.8c-0.4-0.4-1.1-0.5-1.6,0c0,0,0,0,0,0l-3.6,3.4l1.6-6.4c0.1-0.6-0.2-1.2-0.8-1.3
		c-0.4-0.1-0.8,0-1,0.3l-6.3,6.1c-0.4,0.4-0.4,1.1,0,1.6c0.4,0.4,1.1,0.4,1.5,0l3.6-3.4l-1.6,6.4C54,64,54.4,64.6,55,64.7
		c0.4,0.1,0.8,0,1-0.3l6.3-6.1C62.8,57.9,62.8,57.2,62.4,56.8C62.4,56.8,62.4,56.8,62.4,56.8L62.4,56.8z"/>
	<path id="Path_20" class="st1" d="M64.7,59.2c-0.2-0.2-0.5-0.3-0.8-0.3c-0.3,0-0.6,0.1-0.8,0.3l-6.3,6.1c-0.4,0.4-0.5,1.1,0,1.6
		c0,0,0,0,0,0l0.8,0.8c2.1,2.2,5.5,2.4,7.8,0.3c2.2-2.1,2.4-5.5,0.3-7.8c-0.1-0.1-0.1-0.1-0.2-0.2L64.7,59.2z M63.8,66.2
		c-1.3,1.3-3.4,1.2-4.7-0.1c0,0,0,0,0,0l4.8-4.6C65.1,62.8,65.1,64.9,63.8,66.2C63.8,66.2,63.8,66.2,63.8,66.2L63.8,66.2z"/>
	<path id="Path_21" class="st1" d="M78.9,58.3l1.2-1.2l-1.6-1.6l-1.2,1.2V55h-2.2v1.7l-1.2-1.2L72.3,57l1.2,1.2h-1.7v2.2h1.7
		l-1.2,1.2l1.6,1.6l1.2-1.2v1.7h2.2V62l1.2,1.2l1.6-1.6l-1.2-1.2h1.7v-2.2L78.9,58.3z"/>
	<path id="Path_22" class="st1" d="M76.2,51.1c-1.9,0-3.8,0.7-5.2,1.9L42.8,23.7c-0.2-0.2-0.5-0.4-0.9-0.3l-18.2,1.2l-1.9-2
		c-0.4-0.4-1.1-0.5-1.6,0c-0.4,0.4-0.5,1.1,0,1.6l1.9,2l-2.6,17.3c0,0.3,0.1,0.7,0.3,0.9l35.9,37.3c0.4,0.4,1.1,0.5,1.6,0
		c0,0,0,0,0,0l15.4-14.8c4.1,2,9,0.2,11-3.9c2-4.1,0.2-9-3.9-11C78.7,51.4,77.5,51.1,76.2,51.1L76.2,51.1z M24,28.1l1.6,1.7
		c-0.8,1.6-0.2,3.6,1.5,4.4c0.4,0.2,0.9,0.3,1.4,0.4h0.1c1.8,0,3.3-1.4,3.3-3.3c0-1.8-1.4-3.3-3.3-3.3l0,0c-0.5,0-1,0.1-1.4,0.3
		l-1.5-1.6l15.8-1L42,26l-19,18.3l-1.2-1.2L24,28.1z M27.9,30.5c0.2-0.2,0.5-0.3,0.8-0.3h0c0.6,0,1.1,0.5,1.1,1.1
		c0,0.3-0.1,0.6-0.3,0.8c-0.2,0.2-0.5,0.3-0.8,0.3c-0.6,0-1.1-0.5-1.1-1.1C27.5,30.9,27.6,30.7,27.9,30.5L27.9,30.5z M56.5,79.3
		l-4.9-5h10.1L56.5,79.3z M64,72.1L64,72.1l-14.5,0L24.5,46l19-18.3l26,27c-2.4,3.4-1.9,8.2,1.3,11L64,72.1z M76.2,65.4
		c-3.3,0-6.1-2.7-6.1-6.1c0-3.3,2.7-6.1,6.1-6.1s6.1,2.7,6.1,6.1c0,0,0,0,0,0C82.3,62.7,79.6,65.4,76.2,65.4
		C76.2,65.4,76.2,65.4,76.2,65.4L76.2,65.4z"/>
</g>
</svg>
