<?xml version="1.0" encoding="utf-8"?>
<!-- Generator: Adobe Illustrator 25.0.1, SVG Export Plug-In . SVG Version: 6.00 Build 0)  -->
<svg version="1.1" id="Layer_1" xmlns="http://www.w3.org/2000/svg" xmlns:xlink="http://www.w3.org/1999/xlink" x="0px" y="0px"
	 viewBox="0 0 100 100" style="enable-background:new 0 0 100 100;" xml:space="preserve">
<style type="text/css">
	.st0{fill:#FFFFFF;}
	.st1{fill:#212121;}
</style>
<circle class="st0" cx="50" cy="50" r="50"/>
<g>
	<g>
		<g>
			<path class="st1" d="M82.1,27.7H58.9c-0.5,0-1,0.4-1,1V42c0,0.5,0.4,1,1,1h23.2c0.5,0,1-0.4,1-1V28.6
				C83.1,28.1,82.6,27.7,82.1,27.7z M81.1,41H59.9V29.6h21.2V41z"/>
		</g>
	</g>
	<g>
		<g>
			<path class="st1" d="M37.1,26H24c-0.5,0-1,0.4-1,1v6.3c0,0.5,0.4,1,1,1h13.1c0.5,0,1-0.4,1-1v-6.3C38.1,26.4,37.7,26,37.1,26z
				 M36.1,32.3H25v-4.3h11.2V32.3z"/>
		</g>
	</g>
	<g>
		<g>
			<path class="st1" d="M74.1,32.6h-7.1c-0.5,0-1,0.4-1,1V37c0,0.5,0.4,1,1,1h7.1c0.5,0,1-0.4,1-1v-3.4C75,33.1,74.6,32.6,74.1,32.6
				z M73.1,36.1h-5.2v-1.5h5.2V36.1z"/>
		</g>
	</g>
	<g>
		<g>
			<path class="st1" d="M56,61.4h-6.6c-0.5,0-1,0.4-1,1v3.1c0,0.5,0.4,1,1,1H56c0.5,0,1-0.4,1-1v-3.1C57,61.9,56.6,61.4,56,61.4z
				 M55.1,64.6h-4.6v-1.2h4.6V64.6z"/>
		</g>
	</g>
	<g>
		<g>
			<path class="st1" d="M43.3,37.3H24c-0.5,0-1,0.4-1,1c0,0.5,0.4,1,1,1h19.3c0.5,0,1-0.4,1-1C44.3,37.7,43.8,37.3,43.3,37.3z"/>
		</g>
	</g>
	<g>
		<g>
			<path class="st1" d="M43.3,41H24c-0.5,0-1,0.4-1,1c0,0.5,0.4,1,1,1h19.3c0.5,0,1-0.4,1-1C44.3,41.5,43.8,41,43.3,41z"/>
		</g>
	</g>
	<g>
		<g>
			<path class="st1" d="M78.2,61.8H60.8c-0.5,0-1,0.4-1,1c0,0.5,0.4,1,1,1h17.4c0.5,0,1-0.4,1-1C79.1,62.2,78.7,61.8,78.2,61.8z"/>
		</g>
	</g>
	<g>
		<g>
			<path class="st1" d="M78.2,64.5H60.8c-0.5,0-1,0.4-1,1c0,0.5,0.4,1,1,1h17.4c0.5,0,1-0.4,1-1C79.1,65,78.7,64.5,78.2,64.5z"/>
		</g>
	</g>
	<g>
		<g>
			<path class="st1" d="M83.5,48.9C83.5,48.9,83.5,48.8,83.5,48.9C83.5,48.8,83.5,48.8,83.5,48.9c0-0.1,0-0.1,0-0.2c0,0,0,0,0,0
				c0,0,0,0,0,0c0,0,0,0,0-0.1c0,0,0,0,0,0c0,0,0-0.1,0-0.1c0,0,0,0,0,0c0,0,0,0,0,0c0,0,0,0,0-0.1c0,0,0,0,0,0c0,0,0,0,0,0
				c0,0,0,0,0,0c0,0,0,0,0,0c0,0,0,0,0,0c0,0,0,0,0,0c0,0,0,0,0,0c0,0,0,0,0,0c0,0,0,0,0,0c0,0,0,0,0,0c0,0,0,0,0,0c0,0,0,0,0,0
				c0,0,0,0,0,0c0,0,0,0-0.1,0c0,0,0,0,0,0c0,0,0,0-0.1,0c0,0,0,0,0,0c0,0,0,0,0,0c0,0,0,0-0.1,0c0,0,0,0,0,0c0,0-0.1,0-0.1,0
				c0,0,0,0,0,0h0c0,0,0,0,0,0H55.7V23.6c0-1.3-1-2.3-2.3-2.3h-3.4c-0.5,0-1,0.4-1,1c0,0.5,0.4,1,1,1h3.4c0.2,0,0.3,0.1,0.3,0.3
				v24.4h-8.5c0,0,0,0,0,0h0c0,0,0,0,0,0c0,0-0.1,0-0.1,0c0,0,0,0,0,0c0,0,0,0-0.1,0c0,0,0,0-0.1,0c0,0,0,0,0,0c0,0,0,0-0.1,0
				c0,0,0,0,0,0c0,0,0,0-0.1,0c0,0,0,0,0,0c0,0,0,0,0,0c0,0,0,0,0,0c0,0,0,0,0,0c0,0,0,0,0,0c0,0,0,0,0,0c0,0,0,0,0,0c0,0,0,0,0,0
				c0,0,0,0,0,0c0,0,0,0,0,0c0,0,0,0,0,0c0,0,0,0,0,0c0,0,0,0,0,0c0,0,0,0,0,0.1c0,0,0,0,0,0c0,0,0,0,0,0c0,0,0,0.1,0,0.1
				c0,0,0,0,0,0c0,0,0,0,0,0.1c0,0,0,0,0,0c0,0,0,0,0,0c0,0,0,0,0,0.1c0,0,0,0,0,0c0,0,0,0.1,0,0.1c0,0,0,0,0,0v5.8c0,0.5,0.4,1,1,1
				c0.5,0,1-0.4,1-1v-4.3l17.2,7.5c0.1,0.1,0.3,0.1,0.4,0.1c0.1,0,0.3,0,0.4-0.1l17.2-7.5v19H46.3v-9.8c0-0.5-0.4-1-1-1
				c-0.5,0-1,0.4-1,1v10.7c0,0.5,0.4,1,1,1h8.5v5.1c0,0.2-0.1,0.3-0.3,0.3H20.8c-0.2,0-0.3-0.1-0.3-0.3V23.6c0-0.2,0.1-0.3,0.3-0.3
				h24.5c0.5,0,1-0.4,1-1c0-0.5-0.4-1-1-1H20.8c-1.3,0-2.3,1-2.3,2.3v52.9c0,1.3,1,2.3,2.3,2.3h32.7c1.3,0,2.3-1,2.3-2.3v-5.1h26.8
				c0.5,0,1-0.4,1-1L83.5,48.9C83.5,48.9,83.5,48.9,83.5,48.9z M63.9,55.9l-13.9-6h27.8L63.9,55.9z"/>
		</g>
	</g>
</g>
</svg>
