<?xml version="1.0" encoding="utf-8"?>
<!-- Generator: Adobe Illustrator 25.0.1, SVG Export Plug-In . SVG Version: 6.00 Build 0)  -->
<svg version="1.1" id="Layer_1" xmlns="http://www.w3.org/2000/svg" xmlns:xlink="http://www.w3.org/1999/xlink" x="0px" y="0px"
	 viewBox="0 0 100 100" style="enable-background:new 0 0 100 100;" xml:space="preserve">
<style type="text/css">
	.st0{fill:#FFFFFF;}
	.st1{fill:#212121;}
</style>
<circle class="st0" cx="50" cy="50" r="50"/>
<g>
	<path class="st1" d="M82.5,23.9c0-1.9-1.6-3.5-3.5-3.5H65.1c-0.5,0-1,0.4-1,1s0.4,1,1,1H79c0.9,0,1.6,0.7,1.6,1.6l0,35.5H19.4
		l0-35.5c0-0.9,0.7-1.6,1.6-1.6h39.8c0.5,0,1-0.4,1-1c0-0.5-0.4-1-1-1H21c-1.9,0-3.5,1.6-3.5,3.5v42.4c0,1.9,1.6,3.5,3.5,3.5h20.4
		l-1.1,8h-2.1c-0.5,0-1,0.4-1,1c0,0.5,0.4,1,1,1h23.4c0.5,0,1-0.4,1-1c0-0.5-0.4-1-1-1h-2.1l-0.3-2.1c-0.1-0.5-0.5-0.9-1.1-0.8
		c-0.5,0.1-0.9,0.5-0.8,1.1l0.2,1.9H42.3l1.1-8h1.9c0.4,2.2,2.4,3.9,4.7,3.9c2.3,0,4.3-1.7,4.7-3.9h1.9l0.2,1.9
		c0.1,0.5,0.5,0.8,0.9,0.8c0,0,0.1,0,0.1,0c0.5-0.1,0.9-0.5,0.8-1.1l-0.2-1.6H79c1.9,0,3.5-1.6,3.5-3.5L82.5,23.9z M50,71.7
		c-1.3,0-2.4-0.8-2.8-2h5.6C52.4,70.9,51.3,71.7,50,71.7z M80.6,66.2c0,0.9-0.7,1.6-1.6,1.6H21c-0.9,0-1.6-0.7-1.6-1.6v-5h61.2V66.2
		z"/>
	<path class="st1" d="M52.1,46.7h17c0.5,0,0.8-0.3,0.9-0.8l3.1-15.5h1.2c0.5,0,1-0.4,1-1s-0.4-1-1-1h-2c-0.5,0-0.8,0.3-0.9,0.8
		l-0.5,2.7L51,33.4c-0.3,0-0.5,0.2-0.7,0.4s-0.2,0.5-0.1,0.8l2.4,8.5c0.1,0.4,0.5,0.7,0.9,0.7h15l-0.2,1H52.1
		c-1.4,0-2.6,1.2-2.6,2.6c0,1.4,1.2,2.6,2.6,2.6h0.8c-0.2,0.4-0.2,0.8-0.2,1.2c0,1.7,1.4,3.1,3.1,3.1c1.7,0,3.1-1.4,3.1-3.1
		c0-0.4-0.1-0.8-0.2-1.2h5.1c-0.2,0.4-0.2,0.8-0.2,1.2c0,1.7,1.4,3.1,3.1,3.1c1.7,0,3.1-1.4,3.1-3.1c0-0.4-0.1-0.8-0.2-1.2h0.9
		c0.5,0,1-0.4,1-1s-0.4-1-1-1H52.1c-0.4,0-0.7-0.3-0.7-0.7S51.7,46.7,52.1,46.7L52.1,46.7z M54.2,41.9l-1.9-6.7l18.1-1.3l-1.6,8
		H54.2z M55.8,52.4c-0.7,0-1.2-0.5-1.2-1.2s0.5-1.2,1.2-1.2c0.7,0,1.2,0.5,1.2,1.2S56.4,52.4,55.8,52.4z M66.6,52.4
		c-0.7,0-1.2-0.5-1.2-1.2S66,50,66.6,50s1.2,0.5,1.2,1.2S67.3,52.4,66.6,52.4z"/>
	<path class="st1" d="M56.5,36c-0.5,0-1,0.4-1,1v2.7c0,0.5,0.4,1,1,1c0.5,0,1-0.4,1-1V37C57.5,36.4,57,36,56.5,36z"/>
	<path class="st1" d="M59.8,36c-0.5,0-1,0.4-1,1v2.7c0,0.5,0.4,1,1,1c0.5,0,1-0.4,1-1V37C60.7,36.4,60.3,36,59.8,36z"/>
	<path class="st1" d="M63,36c-0.5,0-1,0.4-1,1v2.7c0,0.5,0.4,1,1,1c0.5,0,1-0.4,1-1V37C64,36.4,63.5,36,63,36z"/>
	<path class="st1" d="M66.2,36c-0.5,0-1,0.4-1,1v2.7c0,0.5,0.4,1,1,1c0.5,0,1-0.4,1-1V37C67.2,36.4,66.8,36,66.2,36z"/>
	<path class="st1" d="M30.8,33.9c0.5,0,1-0.4,1-1v-2.4l0.5,0.5c0.2,0.2,0.4,0.3,0.7,0.3c0.3,0,0.5-0.1,0.7-0.3c0.4-0.4,0.3-1,0-1.3
		l-2.1-2c-0.4-0.3-0.9-0.3-1.3,0l-2.1,2c-0.4,0.4-0.4,1,0,1.3c0.4,0.4,1,0.4,1.3,0l0.5-0.5V33C29.8,33.5,30.3,33.9,30.8,33.9z"/>
	<path class="st1" d="M38.5,33.9c0.5,0,1-0.4,1-1v-2.4l0.5,0.5c0.2,0.2,0.4,0.3,0.7,0.3c0.3,0,0.5-0.1,0.7-0.3c0.4-0.4,0.3-1,0-1.3
		l-2.1-2c-0.4-0.3-0.9-0.3-1.3,0l-2.1,2c-0.4,0.4-0.4,1,0,1.3c0.4,0.4,1,0.4,1.3,0l0.5-0.5V33C37.5,33.5,38,33.9,38.5,33.9z"/>
	<path class="st1" d="M44.4,39.1c0-1.2-1-2.2-2.2-2.2H27.7c-1.2,0-2.2,1-2.2,2.2v3.8c0,1.2,1,2.2,2.2,2.2h6.2c0.5,0,1-0.4,1-1
		s-0.4-1-1-1h-6.2c-0.2,0-0.3-0.1-0.3-0.3v-3.8c0-0.2,0.1-0.3,0.3-0.3h14.5c0.2,0,0.3,0.1,0.3,0.3v3.8c0,0.2-0.1,0.3-0.3,0.3h-3.9
		c-0.5,0-1,0.4-1,1s0.4,1,1,1h3.9c1.2,0,2.2-1,2.2-2.2V39.1z"/>
	<path class="st1" d="M26.4,50.4h6.5c0.5,0,1-0.4,1-1s-0.4-1-1-1h-6.5c-0.5,0-1,0.4-1,1S25.9,50.4,26.4,50.4z"/>
	<path class="st1" d="M26.4,53.7h17c0.5,0,1-0.4,1-1s-0.4-1-1-1h-17c-0.5,0-1,0.4-1,1S25.9,53.7,26.4,53.7z"/>
</g>
</svg>
