<?xml version="1.0" encoding="utf-8"?>
<!-- Generator: Adobe Illustrator 25.2.1, SVG Export Plug-In . SVG Version: 6.00 Build 0)  -->
<svg version="1.1" id="Layer_1" xmlns="http://www.w3.org/2000/svg" xmlns:xlink="http://www.w3.org/1999/xlink" x="0px" y="0px"
	 viewBox="0 0 1000 500" style="enable-background:new 0 0 1000 500;" xml:space="preserve">
<style type="text/css">
	.st0{fill:#FFFFFF;}
</style>
<g>
	<path class="st0" d="M963,37v426H37V37H963 M975,25H25v450h950V25L975,25z"/>
</g>
<g>
	<g>
		<path class="st0" d="M160.3,367.4c0,15.9-12,27.3-28.8,27.3h-22.3v-54.5h22.7C148.3,340.1,160.3,351.4,160.3,367.4z M149.6,367.5
			c0-10.7-7.7-18.2-17.9-18.2h-12.1v36.2H132C142.1,385.5,149.6,378,149.6,367.5z"/>
	</g>
	<g>
		<path class="st0" d="M313,340.1v9.1h-29.5v13.5H310v9.1h-26.5v13.7h30.5v9.1H273v-54.5H313z"/>
	</g>
	<g>
		<path class="st0" d="M449.2,349.5c-4.8,0-8,1.8-8,5.1c0,10.9,28.8,5,28.8,24.2c0,10-8.7,15.9-20.6,15.9c-8.6,0-17-3.5-22.7-8.6
			l4.3-8.7c5.5,4.9,12.8,7.9,18.6,7.9s9.2-2.1,9.2-5.9c0-11.2-28.8-4.8-28.8-23.9c0-9.4,8.1-15.3,20.1-15.3c7.1,0,14.3,2.3,19.4,5.7
			l-4.1,8.9C459.6,351.2,453.3,349.5,449.2,349.5z"/>
	</g>
	<g>
		<path class="st0" d="M593.2,340.1v54.5h-10.4v-54.5H593.2z"/>
	</g>
	<g>
		<path class="st0" d="M746.7,367.4h9v20.2c-5.5,4.1-13.8,7-21.3,7c-16.1,0-28.4-11.9-28.4-27.4c0-15.4,12.6-27.2,29-27.2
			c7.8,0,15.7,3,21.1,7.7l-5.8,7.5c-4.1-3.8-9.8-6.1-15.2-6.1c-10.4,0-18.5,7.9-18.5,18.1c0,10.2,8.2,18.1,18.6,18.1
			c3.7,0,7.9-1.3,11.6-3.4V367.4z"/>
	</g>
	<g>
		<path class="st0" d="M878.7,340.1l28.1,37.3v-37.3H917v54.5h-9.9l-28.1-37.2v37.2h-10.2v-54.5H878.7z"/>
	</g>
	<g>
		<g>
			<polygon class="st0" points="917,171.5 917,115.4 839.7,115.4 776.5,115.4 776.5,312 839.7,312 917,312 917,255.8 839.7,255.8 
				839.7,238.3 914.2,238.3 914.2,189.1 839.7,189.1 839.7,171.5 			"/>
		</g>
		<g>
			<polygon class="st0" points="671.2,115.4 671.2,203.6 607.8,115.4 544.6,115.4 544.6,312 607.8,312 607.8,223.7 671.2,311.9 
				671.2,312 734.4,312 734.4,115.4 			"/>
		</g>
		<g>
			<rect x="439.2" y="115.4" class="st0" width="63.2" height="196.7"/>
		</g>
		<g>
			<polygon class="st0" points="344.3,117.4 306.4,221.4 306.4,221.4 268.6,117.4 201.7,117.4 272.8,312.9 272.8,312.9 273.1,312.9 
				339.7,312.9 340,312.9 411.1,117.4 			"/>
		</g>
		<g>
			<g>
				<path class="st0" d="M180.8,319.9h-76.9V187.3H62v-42l46.6-34.9h72.2V319.9z M113.9,309.9h56.9V120.4h-58.9L72,150.3v27h41.9
					V309.9z"/>
			</g>
		</g>
		<g>
			<g>
				
					<rect x="66.7" y="131.1" transform="matrix(0.9578 -0.2873 0.2873 0.9578 -33.1227 40.4896)" class="st0" width="109.3" height="4.1"/>
				<path class="st0" d="M68.6,152.7l-2-6.8l107.6-32.3l2,6.8L68.6,152.7z M70.3,147.9l0.3,1.1l101.8-30.6l-0.3-1.1L70.3,147.9z"/>
			</g>
		</g>
		<g>
			<g>
				
					<rect x="140.3" y="173.2" transform="matrix(0.9037 -0.4281 0.4281 0.9037 -91.8466 84.6759)" class="st0" width="4.1" height="146.8"/>
				<path class="st0" d="M171.2,315.8l-64.1-135.4l6.4-3l64.1,135.4L171.2,315.8z M111.1,181.8l61.5,129.9l1-0.5l-61.5-129.9
					L111.1,181.8z"/>
			</g>
		</g>
		<g>
			<g>
				
					<rect x="60.4" y="146.8" transform="matrix(0.8575 -0.5145 0.5145 0.8575 -59.2686 83.6798)" class="st0" width="122.1" height="4.1"/>
				<path class="st0" d="M69.6,184.1l-3.7-6.1l107.3-64.4l3.7,6.1L69.6,184.1z M70.1,179l0.6,0.9l102.1-61.3l-0.6-0.9L70.1,179z"/>
			</g>
		</g>
		<g>
			<g>
				
					<rect x="39.7" y="213.1" transform="matrix(0.306 -0.952 0.952 0.306 -106.0306 284.8387)" class="st0" width="205.3" height="4.1"/>
				<path class="st0" d="M113.9,315.4l-6.8-2.2l63.8-198.3l6.8,2.2L113.9,315.4z M110.9,311.3l1.1,0.3L173.8,119l-1.1-0.3
					L110.9,311.3z"/>
			</g>
		</g>
		<g>
			<g>
				
					<rect x="97.9" y="146.8" transform="matrix(0.7071 -0.7071 0.7071 0.7071 -63.5386 144.2508)" class="st0" width="88.9" height="4.1"/>
				<path class="st0" d="M112.4,183.8l-5-5l65-65l5,5L112.4,183.8z M111.6,178.8l0.8,0.8l60.7-60.7l-0.8-0.8L111.6,178.8z"/>
			</g>
		</g>
	</g>
</g>
</svg>
