<?xml version="1.0" encoding="utf-8"?>
<!-- Generator: Adobe Illustrator 25.1.0, SVG Export Plug-In . SVG Version: 6.00 Build 0)  -->
<svg version="1.1" id="Layer_1" xmlns="http://www.w3.org/2000/svg" xmlns:xlink="http://www.w3.org/1999/xlink" x="0px" y="0px"
	 width="100px" height="100px" viewBox="0 0 100 100" style="enable-background:new 0 0 100 100;" xml:space="preserve">
<style type="text/css">
	.st0{fill:#FFFFFF;}
	.st1{fill:#212121;}
</style>
<circle class="st0" cx="50" cy="50" r="50"/>
<g>
	<path d="M82.3,77.2c-1.9-3-5.1-4.8-8.6-4.8c-2.1,0-4.1,0.6-5.8,1.8c-0.7-1.5-1.7-2.8-2.9-3.8c-1.8-1.5-4.1-2.3-6.4-2.3
		c-2.2,0-4.4,0.7-6.2,2.1c-0.9,0.7-1.8,1.6-2.4,2.6c-0.6-1-1.5-1.9-2.4-2.6c-1.8-1.4-3.9-2.1-6.2-2.1c-2.3,0-4.6,0.8-6.4,2.3
		c-1.3,1-2.3,2.3-2.9,3.8c-1.7-1.2-3.7-1.8-5.8-1.8c-3.5,0-6.7,1.8-8.6,4.8c-0.1,0.2-0.2,0.4-0.2,0.7v3.4c0,0.7,0.6,1.3,1.3,1.3
		h62.5c0.7,0,1.3-0.6,1.3-1.3v-3.4C82.5,77.6,82.4,77.4,82.3,77.2z M80,80H20v-1.7c1.4-2.1,3.8-3.3,6.3-3.3c2.1,0,4,0.8,5.5,2.3
		c0.3,0.3,0.8,0.5,1.3,0.3c0.4-0.1,0.8-0.5,0.9-0.9c0.8-3.5,3.9-6,7.5-6c3.4,0,6.4,2.3,7.4,5.5c0.2,0.5,0.7,0.9,1.2,0.9
		c0.6,0,1.1-0.4,1.2-0.9c1-3.2,4-5.5,7.4-5.5c3.6,0,6.7,2.5,7.5,6c0.1,0.5,0.4,0.8,0.9,0.9c0.4,0.1,0.9,0,1.3-0.3
		c1.5-1.5,3.4-2.3,5.5-2.3c2.5,0,4.8,1.2,6.3,3.3L80,80L80,80z"/>
	<path d="M36.5,64.4c0.2,0.4,0.6,0.7,1.1,0.7c0,0,0,0,0,0c0.5,0,0.9-0.2,1.1-0.6l2.3-4.1c0.2,0.1,0.3,0.1,0.5,0.1h3.4
		c0,0.1,0,0.2,0,0.3c0,4.1,4.3,6.2,4.5,6.3c0.2,0.1,0.4,0.1,0.5,0.1c0.2,0,0.4,0,0.6-0.1c0.2-0.1,4.5-2.2,4.5-6.3c0-0.1,0-0.2,0-0.3
		h3.4c0.2,0,0.4,0,0.5-0.1l2.3,4.1c0.2,0.4,0.6,0.7,1.1,0.7h0c0.5,0,0.9-0.3,1.1-0.7l3.4-6.5c1.6-3,1.4-6.7-0.6-9.5l-2.9-4.2
		c0,0,0-0.1-0.1-0.1c0.5-2.3,0.8-4.3,0.8-5.3c0-4.8-2.3-9.8-6.7-14.9c-3.3-3.7-6.5-6.1-6.6-6.2c-0.4-0.3-1-0.3-1.5,0
		c-0.1,0.1-3.4,2.4-6.6,6.2C38.2,29,35.9,34,35.9,38.8c0,1,0.3,3,0.8,5.3c0,0-0.1,0.1-0.1,0.1l-2.9,4.2c-2,2.8-2.2,6.5-0.6,9.5
		L36.5,64.4z M52.5,60.7c0,1.8-1.6,3.1-2.5,3.7c-0.9-0.6-2.5-1.8-2.5-3.7c0-0.1,0-0.2,0-0.3h5C52.5,60.5,52.5,60.6,52.5,60.7z
		 M64.3,49.8c1.4,2,1.6,4.7,0.4,6.9l-2.3,4.4l-2.1-3.8c0.6-2.3,1.5-6.2,2.4-9.8L64.3,49.8z M50,20.4c1.1,0.9,3.4,2.8,5.6,5.3H44.4
		C46.6,23.2,48.9,21.3,50,20.4z M42.4,28.2h15.2c2.2,3.1,4,6.7,4,10.5c0,2.7-2.7,13.9-4.1,19.1h-15c-1.3-5.2-4.1-16.4-4.1-19.1
		C38.4,35,40.2,31.3,42.4,28.2L42.4,28.2z M35.7,49.8l1.7-2.3c0.8,3.7,1.8,7.5,2.4,9.8l-2.1,3.8l-2.3-4.4
		C34.1,54.5,34.3,51.9,35.7,49.8L35.7,49.8z"/>
	<path d="M50,47.4c4.3,0,7.8-3.5,7.8-7.8s-3.5-7.8-7.8-7.8s-7.8,3.5-7.8,7.8S45.7,47.4,50,47.4L50,47.4z M50,34.4
		c2.9,0,5.3,2.4,5.3,5.3c0,2.9-2.4,5.3-5.3,5.3c-2.9,0-5.3-2.4-5.3-5.3C44.7,36.7,47.1,34.4,50,34.4L50,34.4z"/>
</g>
</svg>
