<?xml version="1.0" encoding="utf-8"?>
<!-- Generator: Adobe Illustrator 25.0.1, SVG Export Plug-In . SVG Version: 6.00 Build 0)  -->
<svg version="1.1" id="Layer_1" xmlns="http://www.w3.org/2000/svg" xmlns:xlink="http://www.w3.org/1999/xlink" x="0px" y="0px"
	 viewBox="0 0 100 100" style="enable-background:new 0 0 100 100;" xml:space="preserve">
<style type="text/css">
	.st0{fill:#FFFFFF;}
	.st1{fill:#212121;}
</style>
<circle class="st0" cx="50" cy="50" r="50"/>
<g>
	<path id="XMLID_294_" class="st1" d="M78.7,27.7h-3v-6.3c0-2.1-1.7-3.8-3.8-3.8H28.2c-2.1,0-3.8,1.7-3.8,3.8v6.3h-3
		c-2.1,0-3.8,1.7-3.8,3.8V68c0,2.1,1.7,3.8,3.8,3.8h22.3v3h-2.4c-2.1,0-3.8,1.7-3.8,3.8v2.5c0,0.7,0.6,1.3,1.3,1.3h22.6
		c0.7,0,1.3-0.6,1.3-1.3v-2.5c0-2.1-1.7-3.8-3.8-3.8h-2.4v-3h22.3c2.1,0,3.8-1.7,3.8-3.8V31.5C82.5,29.4,80.8,27.7,78.7,27.7z
		 M78.7,30.2c0.7,0,1.3,0.6,1.3,1.3v29.2h-4.3V30.2L78.7,30.2z M28.2,20h43.7c0.7,0,1.3,0.6,1.3,1.3v6.3H26.9v-6.3
		C26.9,20.6,27.5,20,28.2,20z M21.3,30.2h3v9.5c0,0.7,0.6,1.3,1.3,1.3s1.3-0.6,1.3-1.3v-9.5h46.2v30.5h-6.5v-4.2
		c0-0.7-0.6-1.3-1.3-1.3h-1.7c-0.3-1-0.7-2-1.2-2.9l1.2-1.2c0.5-0.5,0.5-1.3,0-1.8l-3.9-3.9c-0.5-0.5-1.3-0.5-1.8,0l-1.2,1.2
		C56,46.2,55,45.8,54,45.5v-1.7c0-0.7-0.6-1.3-1.3-1.3h-5.5c-0.7,0-1.3,0.6-1.3,1.3v1.7c-1,0.3-2,0.7-2.9,1.2L42,45.5
		c-0.5-0.5-1.3-0.5-1.8,0l-3.9,3.9c-0.5,0.5-0.5,1.3,0,1.8l1.2,1.2c-0.5,0.9-0.9,1.9-1.2,2.9h-1.7c-0.7,0-1.3,0.6-1.3,1.3v4.2h-6.5
		v-9.5c0-0.7-0.6-1.3-1.3-1.3s-1.3,0.6-1.3,1.3v9.5H20V31.5C20,30.8,20.6,30.2,21.3,30.2L21.3,30.2z M40,51.2l-1-1l2.1-2.1l1,1
		c0.4,0.4,1.1,0.5,1.6,0.2c1.2-0.8,2.5-1.3,3.9-1.6c0.6-0.1,1-0.6,1-1.2v-1.4h2.9v1.4c0,0.6,0.4,1.1,1,1.2c1.4,0.3,2.7,0.8,3.9,1.6
		c0.5,0.3,1.2,0.3,1.6-0.2l1-1l2.1,2.1l-1,1c-0.4,0.4-0.5,1.1-0.2,1.6c0.8,1.2,1.3,2.5,1.6,3.9c0.1,0.6,0.6,1,1.2,1h1.4v2.9h-7.9
		c0.1-0.5,0.2-1,0.2-1.5c0-3.5-2.8-6.3-6.3-6.3c-3.5,0-6.3,2.8-6.3,6.3c0,0.5,0.1,1,0.2,1.5h-7.9v-2.9h1.4c0.6,0,1.1-0.4,1.2-1
		c0.3-1.4,0.8-2.7,1.6-3.9C40.5,52.3,40.4,51.7,40,51.2L40,51.2z M46.2,59.2c0-2.1,1.7-3.8,3.8-3.8s3.8,1.7,3.8,3.8
		c0,0.5-0.1,1-0.3,1.5h-7C46.3,60.2,46.2,59.7,46.2,59.2z M60,78.7V80H40v-1.3c0-0.7,0.6-1.3,1.3-1.3h17.5C59.5,77.4,60,78,60,78.7
		L60,78.7z M53.8,74.9h-7.6v-3h7.6V74.9z M78.7,69.3H21.3c-0.7,0-1.3-0.6-1.3-1.3v-4.8H80V68C80,68.7,79.4,69.3,78.7,69.3z"/>
	<path id="XMLID_1617_" class="st1" d="M53.8,25.1h13.7c0.7,0,1.3-0.6,1.3-1.3s-0.6-1.3-1.3-1.3H53.8c-0.7,0-1.3,0.6-1.3,1.3
		S53.1,25.1,53.8,25.1z"/>
	<path id="XMLID_1618_" class="st1" d="M38.1,25.1c0.3,0,0.7-0.1,0.9-0.4c0.2-0.2,0.4-0.6,0.4-0.9S39.2,23.2,39,23
		c-0.2-0.2-0.6-0.4-0.9-0.4s-0.7,0.1-0.9,0.4c-0.2,0.2-0.4,0.6-0.4,0.9s0.1,0.7,0.4,0.9C37.4,25,37.7,25.1,38.1,25.1z"/>
	<path id="XMLID_1620_" class="st1" d="M32.5,25.1c0.3,0,0.7-0.1,0.9-0.4c0.2-0.2,0.4-0.6,0.4-0.9s-0.1-0.7-0.4-0.9
		c-0.2-0.2-0.6-0.4-0.9-0.4s-0.7,0.1-0.9,0.4c-0.2,0.2-0.4,0.6-0.4,0.9s0.1,0.7,0.4,0.9C31.8,25,32.1,25.1,32.5,25.1z"/>
	<path id="XMLID_1623_" class="st1" d="M43.7,25.1c0.3,0,0.7-0.1,0.9-0.4c0.2-0.2,0.4-0.6,0.4-0.9s-0.1-0.7-0.4-0.9
		c-0.2-0.2-0.6-0.4-0.9-0.4S43,22.7,42.8,23c-0.2,0.2-0.4,0.6-0.4,0.9s0.1,0.7,0.4,0.9C43,25,43.3,25.1,43.7,25.1z"/>
	<path id="XMLID_1624_" class="st1" d="M31.7,36.3h3c0.7,0,1.3-0.6,1.3-1.3s-0.6-1.3-1.3-1.3h-3c-0.7,0-1.3,0.6-1.3,1.3
		S31,36.3,31.7,36.3z"/>
	<path id="XMLID_1626_" class="st1" d="M40.3,36.3H52c0.7,0,1.3-0.6,1.3-1.3s-0.6-1.3-1.3-1.3H40.3c-0.7,0-1.3,0.6-1.3,1.3
		S39.6,36.3,40.3,36.3z"/>
	<path id="XMLID_1627_" class="st1" d="M31.7,42.4h7.4c0.7,0,1.3-0.6,1.3-1.3c0-0.7-0.6-1.3-1.3-1.3h-7.4c-0.7,0-1.3,0.6-1.3,1.3
		C30.4,41.8,31,42.4,31.7,42.4z"/>
	<path id="XMLID_1628_" class="st1" d="M57.6,36.3h10.7c0.7,0,1.3-0.6,1.3-1.3s-0.6-1.3-1.3-1.3H57.6c-0.7,0-1.3,0.6-1.3,1.3
		S56.9,36.3,57.6,36.3z"/>
	<path id="XMLID_1633_" class="st1" d="M68.3,39.8h-8.7c-0.7,0-1.3,0.6-1.3,1.3c0,0.7,0.6,1.3,1.3,1.3h8.7c0.7,0,1.3-0.6,1.3-1.3
		C69.6,40.4,69,39.8,68.3,39.8z"/>
	<path id="XMLID_1635_" class="st1" d="M25.6,46.7c0.3,0,0.7-0.1,0.9-0.4c0.2-0.2,0.4-0.6,0.4-0.9c0-0.3-0.1-0.7-0.4-0.9
		c-0.2-0.2-0.6-0.4-0.9-0.4s-0.7,0.1-0.9,0.4c-0.2,0.2-0.4,0.6-0.4,0.9c0,0.3,0.1,0.7,0.4,0.9C25,46.6,25.3,46.7,25.6,46.7z"/>
</g>
</svg>
