<?xml version="1.0" encoding="utf-8"?>
<!-- Generator: Adobe Illustrator 26.0.1, SVG Export Plug-In . SVG Version: 6.00 Build 0)  -->
<svg version="1.1" id="Layer_1" xmlns="http://www.w3.org/2000/svg" xmlns:xlink="http://www.w3.org/1999/xlink" x="0px" y="0px"
	 viewBox="0 0 150 150" style="enable-background:new 0 0 150 150;" xml:space="preserve">
<style type="text/css">
	.st0{fill:#DB3E00;}
	.st1{fill:#D82900;}
	.st2{fill:#ED5D00;}
	.st3{fill:#EC3E00;}
	.st4{fill:#CA2200;}
	.st5{fill:#E94500;}
</style>
<g>
	<g>
		<path class="st0" d="M132.1,23.6c-0.1-0.1-0.2-0.3-0.3-0.4c-1.1-1.3-2.3-2.4-3.5-3.5C108.7-2,75.3-4.4,52.8,14.6
			C38,27.1,46.6,50.9,33.9,63.7c-8.8,8.9-52,5.4-25.3,46.7c2.4,3.7,4.8,7.4,7.7,10.9c27,32,74.8,36.1,106.8,9.1
			C155.1,103.4,159.1,55.6,132.1,23.6z"/>
	</g>
	<g>
		<path class="st1" d="M123.1,130.4c-32,27-79.8,22.9-106.8-9.1c-2.9-3.5-5.3-7.2-7.7-10.9c-8.7-13.4-10-22.1-7.5-28
			c0.4,0.6,0.8,1.3,1.2,2C4.7,88,7.1,91.8,10,95.2c27,32,74.8,36.1,106.8,9.1c19-16,28.1-39.3,26.8-62.3
			C156.8,72,149.3,108.2,123.1,130.4z"/>
	</g>
	<path class="st2" d="M76.9,143.1c-4.4-5.2-7.9-10.8-11.4-16.2C25.6,65.2,90,70.5,103.2,57.1c11.8-11.9,11.2-30,14.4-46.5
		c-2.3-1.5-4.7-2.8-7.2-3.9c-12,0.2-24,4.4-34,12.8C61.7,32,70.3,55.7,57.6,68.6c-8.8,8.9-52,5.4-25.3,46.7
		c2.4,3.7,4.8,7.4,7.7,10.9c8.6,10.2,19.3,17.6,31,22c3.4,0.1,6.8,0.1,10.2-0.2C79.7,146.3,78.3,144.7,76.9,143.1z"/>
	<path class="st3" d="M76.9,143.1c-4.4-5.2-7.9-10.8-11.4-16.2c-1.1-1.7-2.1-3.3-3-4.9c-11.1-0.8-22.1-4.1-32-9.7c0.6,1,1.2,2,1.9,3
		c2.4,3.7,4.8,7.4,7.7,10.9c8.6,10.2,19.3,17.6,31,22c0.1,0,0.1,0,0.2,0c0.3,0,0.6,0,0.8,0c0.8,0,1.6,0,2.4,0c0.4,0,0.7,0,1.1,0
		c1,0,1.9,0,2.9-0.1c0.3,0,0.5,0,0.8-0.1c0.7,0,1.3-0.1,2-0.2C79.7,146.3,78.3,144.7,76.9,143.1z"/>
</g>
</svg>
