<?xml version="1.0" encoding="utf-8"?>
<!-- Generator: Adobe Illustrator 26.0.1, SVG Export Plug-In . SVG Version: 6.00 Build 0)  -->
<svg version="1.1" id="Layer_1" xmlns="http://www.w3.org/2000/svg" xmlns:xlink="http://www.w3.org/1999/xlink" x="0px" y="0px"
	 viewBox="0 0 80 80" style="enable-background:new 0 0 80 80;" xml:space="preserve">
<style type="text/css">
	.st0{fill:#DB3E00;}
	.st1{fill:#D82900;}
	.st2{fill:#ED5D00;}
	.st3{fill:#EC3E00;}
	.st4{fill:#CA2200;}
	.st5{fill:#E94500;}
</style>
<g>
	<circle class="st0" cx="40" cy="40" r="40"/>
	<path class="st4" d="M60.3,5.6c1.7,2.1,3.2,4.3,4.5,6.8c11.8,21.9,3.7,49.2-18.2,61c-5.5,3-11.3,4.7-17.1,5.2
		c9.6,2.6,20.1,1.7,29.5-3.4C78.5,64.7,85.7,40.4,75.2,21C71.6,14.3,66.4,9.2,60.3,5.6z"/>
	<path class="st2" d="M69.2,58.2c-17.2,9.3-38.7,2.9-48-14.3c-7.6-14-4.7-30.9,5.9-41.7C25.1,2.9,23,3.7,21,4.8
		c-6.1,3.3-11,7.9-14.5,13.4C3.3,28.2,4,39.4,9.4,49.3C19.9,68.7,44.2,76,63.6,65.5c6.2-3.3,11.1-8.1,14.6-13.6
		c0.1-0.3,0.2-0.6,0.3-1C75.9,53.8,72.8,56.2,69.2,58.2z"/>
	<path class="st5" d="M63.6,65.5c6.2-3.3,11.1-8.1,14.6-13.6c0.1-0.3,0.2-0.6,0.3-1c-2.6,2.8-5.6,5.3-9.2,7.3
		c-2.8,1.5-5.6,2.6-8.5,3.3c-2.3,3-5,5.7-8.1,8C56.4,68.7,60.1,67.4,63.6,65.5z"/>
</g>
</svg>
