<?xml version="1.0" encoding="utf-8"?>
<!-- Generator: Adobe Illustrator 25.1.0, SVG Export Plug-In . SVG Version: 6.00 Build 0)  -->
<svg version="1.1" id="Layer_1" xmlns="http://www.w3.org/2000/svg" xmlns:xlink="http://www.w3.org/1999/xlink" x="0px" y="0px"
	 width="100px" height="100px" viewBox="0 0 100 100" style="enable-background:new 0 0 100 100;" xml:space="preserve">
<style type="text/css">
	.st0{fill:#FFFFFF;}
	.st1{fill:#212121;}
</style>
<circle class="st0" cx="50" cy="50" r="50"/>
<g>
	<path d="M69.5,55.2h-39l-4.2,8.4h3.8v18.9h39.8V63.6h3.8L69.5,55.2z M68.2,57.3l2.1,4.2H53.8l-2.1-4.2H68.2z M31.8,57.3h16.5
		l-2.1,4.2H29.7L31.8,57.3z M67.8,80.4H51v-7.3H49v7.3H32.2V63.6h15.3l1.4-2.9v9.2H51v-9.2l1.4,2.9h15.3V80.4z"/>
	<path d="M34.3,72h6.3v2.1h-6.3V72z"/>
	<path d="M34.3,76.2h6.3v2.1h-6.3V76.2z"/>
	<path d="M42.7,76.2h2.1v2.1h-2.1V76.2z"/>
	<path d="M45.2,34.6l4.8-1.2l4.8,1.2l0.4-5.2l2.6-4.4l-4.5-2L50,19l-3.2,4l-4.5,2l2.6,4.4L45.2,34.6z M48.1,24.7l1.9-2.4l1.9,2.4
		l2.8,1.2l-1.6,2.8l-0.2,3.2L50,31.2l-2.9,0.7l-0.2-3.2l-1.6-2.8L48.1,24.7z"/>
	<path d="M29,36.7l1.5-2.6l-2.7-1.2l-1.9-2.4l-1.9,2.4l-2.7,1.2l1.5,2.6l0.2,3.1l2.9-0.7l2.9,0.7L29,36.7z M27,36.1l-0.1,1.1l-1-0.3
		l-1,0.3l-0.1-1.1l-0.6-1l1-0.4l0.6-0.8l0.6,0.8l1,0.4L27,36.1z"/>
	<path d="M77.2,36.7l1.5-2.6l-2.7-1.2l-1.9-2.4l-1.9,2.4l-2.7,1.2l1.5,2.6l0.2,3.1l2.9-0.7l2.9,0.7L77.2,36.7z M75.2,36.1l-0.1,1.1
		l-1-0.3l-1,0.3L73,36.1l-0.6-1l1-0.4l0.6-0.8l0.6,0.8l1,0.4L75.2,36.1z"/>
	<path d="M30.5,42.5c2,1.3,3.8,3,5.3,4.8l4.2,5.2l-0.9-6.9c-0.4-3.6-2.4-6.9-5.3-9.1l-1-0.8L29.8,42L30.5,42.5z M33.6,39.1
		c1.8,1.7,3,3.9,3.4,6.3c-1.3-1.6-2.8-2.9-4.5-4.1L33.6,39.1z"/>
	<path d="M60.9,45.6L60,52.5l4.2-5.2c1.5-1.9,3.3-3.5,5.3-4.8l0.8-0.5l-3.1-6.1l-1,0.8C63.3,38.7,61.3,42,60.9,45.6z M67.5,41.3
		c-1.7,1.2-3.2,2.6-4.5,4.1c0.4-2.4,1.6-4.6,3.4-6.3L67.5,41.3z"/>
	<path d="M54.2,53.1h2.1v-4.4c0-5,1.8-9.9,5-13.8l-1.6-1.3c-3.5,4.2-5.5,9.6-5.5,15.1V53.1z"/>
	<path d="M61.5,30.1h2.1v2.1h-2.1V30.1z"/>
	<path d="M64.7,25.9h2.1V28h-2.1V25.9z"/>
	<path d="M43.7,53.1h2.1v-4.4c0-5.5-1.9-10.9-5.5-15.1l-1.6,1.3c3.2,3.9,5,8.8,5,13.8V53.1z"/>
	<path d="M36.4,30.1h2.1v2.1h-2.1V30.1z"/>
	<path d="M33.2,25.9h2.1V28h-2.1V25.9z"/>
	<path d="M49,35.3H51v2.1H49V35.3z"/>
	<path d="M49,39.5H51v13.6H49V39.5z"/>
	<path d="M78.3,45.8h2.1v2.1h-2.1V45.8z"/>
	<path d="M78.3,50h2.1v2.1h-2.1V50z"/>
	<path d="M80.4,47.9h2.1V50h-2.1V47.9z"/>
	<path d="M76.2,47.9h2.1V50h-2.1V47.9z"/>
	<path d="M75.2,17.5h2.1v2.1h-2.1V17.5z"/>
	<path d="M75.2,21.7h2.1v2.1h-2.1V21.7z"/>
	<path d="M77.3,19.6h2.1v2.1h-2.1V19.6z"/>
	<path d="M73.1,19.6h2.1v2.1h-2.1V19.6z"/>
	<path d="M19.6,50h2.1v2.1h-2.1V50z"/>
	<path d="M19.6,54.2h2.1v2.1h-2.1V54.2z"/>
	<path d="M21.7,52.1h2.1v2.1h-2.1V52.1z"/>
	<path d="M17.5,52.1h2.1v2.1h-2.1V52.1z"/>
	<path d="M19.6,17.5h2.1v2.1h-2.1V17.5z"/>
	<path d="M19.6,21.7h2.1v2.1h-2.1V21.7z"/>
	<path d="M21.7,19.6h2.1v2.1h-2.1V19.6z"/>
	<path d="M17.5,19.6h2.1v2.1h-2.1V19.6z"/>
</g>
</svg>
