<?xml version="1.0" encoding="utf-8"?>
<!-- Generator: Adobe Illustrator 25.1.0, SVG Export Plug-In . SVG Version: 6.00 Build 0)  -->
<svg version="1.1" id="Layer_1" xmlns="http://www.w3.org/2000/svg" xmlns:xlink="http://www.w3.org/1999/xlink" x="0px" y="0px"
	 width="100px" height="100px" viewBox="0 0 100 100" style="enable-background:new 0 0 100 100;" xml:space="preserve">
<style type="text/css">
	.st0{fill:#FFFFFF;}
	.st1{fill:#212121;}
</style>
<circle class="st0" cx="-190" cy="50" r="50"/>
<circle class="st0" cx="-70" cy="50" r="50"/>
<circle class="st0" cx="-70" cy="-79.3" r="50"/>
<circle class="st0" cx="50" cy="-79.3" r="50"/>
<circle class="st0" cx="170" cy="-79.3" r="50"/>
<circle class="st0" cx="290" cy="-79.3" r="50"/>
<circle class="st0" cx="410" cy="-79.3" r="50"/>
<circle class="st0" cx="-190" cy="-79.3" r="50"/>
<g id="brand_1_" transform="translate(0 -0.077)">
	<path id="Path_16_1_" class="st1" d="M-194.5-81.9c1.8,0,3.3-1.5,3.3-3.3c0-0.9-0.3-1.7-0.9-2.3l-1.5-1.6c-0.2-0.2-0.5-0.3-0.8-0.3
		c-0.3,0-0.6,0.1-0.8,0.3l-3.2,3.1l-3.2,3.1c-0.4,0.4-0.5,1.1,0,1.6c0.4,0.4,1.1,0.5,1.6,0l2.4-2.3l0.3,0.3l-1.4,4
		c-0.2,0.6,0.1,1.2,0.7,1.4c0.6,0.2,1.2-0.1,1.4-0.7l1.2-3.4C-195.2-82-194.8-81.9-194.5-81.9z M-194.5-86.8l0.8,0.8
		c0.4,0.4,0.4,1.1,0,1.6c-0.4,0.4-1.1,0.4-1.6,0l0,0l-0.8-0.8L-194.5-86.8z"/>
	<path id="Path_17_1_" class="st1" d="M-199.7-87.5c1.8-0.1,3.3-1.6,3.2-3.4c0-0.8-0.4-1.6-0.9-2.2l-1.5-1.6c-0.4-0.4-1.1-0.5-1.6,0
		c0,0,0,0,0,0l-6.3,6.1c-0.4,0.4-0.5,1.1,0,1.6c0,0,0,0,0,0l1.5,1.6c0.6,0.6,1.4,1,2.3,1h0.1C-201.3-84.4-199.8-85.8-199.7-87.5
		L-199.7-87.5z M-199.8-92.3l0.8,0.8c0.4,0.4,0.4,1.1,0,1.6c0,0,0,0,0,0c-0.2,0.2-0.5,0.3-0.8,0.3c-0.3,0-0.6-0.1-0.8-0.3l-0.8-0.8
		L-199.8-92.3z M-202.2-86.9c-0.2,0.2-0.5,0.3-0.8,0.3c-0.3,0-0.6-0.1-0.8-0.3l-0.8-0.8l1.6-1.5l0.8,0.8
		C-201.8-88.1-201.8-87.4-202.2-86.9L-202.2-86.9z"/>
	<path id="Path_18_1_" class="st1" d="M-186-81.2c-0.3-0.3-0.8-0.4-1.2-0.2l-8.6,3.7c-0.6,0.2-0.8,0.9-0.6,1.4
		c0.2,0.6,0.9,0.8,1.4,0.6l1.5-0.6l2.4,2.5l-0.7,1.4c-0.3,0.5,0,1.2,0.5,1.5c0,0,0,0,0,0c0.1,0.1,0.3,0.1,0.5,0.1
		c0.4,0,0.8-0.2,1-0.6l4.1-8.5C-185.6-80.4-185.7-80.8-186-81.2z M-191.4-77.2l2.3-1l-1.1,2.3L-191.4-77.2z"/>
	<path id="Path_19_1_" class="st1" d="M-177.6-72.5c-0.4-0.4-1.1-0.5-1.6,0c0,0,0,0,0,0l-3.6,3.4l1.6-6.4c0.1-0.6-0.2-1.2-0.8-1.3
		c-0.4-0.1-0.8,0-1,0.3l-6.3,6.1c-0.4,0.4-0.4,1.1,0,1.6c0.4,0.4,1.1,0.4,1.5,0l3.6-3.4l-1.6,6.4c-0.2,0.6,0.2,1.2,0.8,1.3
		c0.4,0.1,0.8,0,1-0.3l6.3-6.1C-177.2-71.3-177.2-72-177.6-72.5C-177.6-72.5-177.6-72.5-177.6-72.5L-177.6-72.5z"/>
	<path id="Path_20_1_" class="st1" d="M-175.3-70.1c-0.2-0.2-0.5-0.3-0.8-0.3c-0.3,0-0.6,0.1-0.8,0.3l-6.3,6.1
		c-0.4,0.4-0.5,1.1,0,1.6c0,0,0,0,0,0l0.8,0.8c2.1,2.2,5.5,2.4,7.8,0.3c2.2-2.1,2.4-5.5,0.3-7.8c-0.1-0.1-0.1-0.1-0.2-0.2
		L-175.3-70.1z M-176.2-63.1c-1.3,1.3-3.4,1.2-4.7-0.1c0,0,0,0,0,0l4.8-4.6C-174.9-66.4-174.9-64.4-176.2-63.1
		C-176.2-63.1-176.2-63.1-176.2-63.1L-176.2-63.1z"/>
	<path id="Path_21_1_" class="st1" d="M-161.1-71l1.2-1.2l-1.6-1.6l-1.2,1.2v-1.7h-2.2v1.7l-1.2-1.2l-1.6,1.6l1.2,1.2h-1.7v2.2h1.7
		l-1.2,1.2l1.6,1.6l1.2-1.2v1.7h2.2v-1.7l1.2,1.2l1.6-1.6l-1.2-1.2h1.7V-71L-161.1-71z"/>
	<path id="Path_22_1_" class="st1" d="M-163.8-78.2c-1.9,0-3.8,0.7-5.2,1.9l-28.2-29.3c-0.2-0.2-0.5-0.4-0.9-0.3l-18.2,1.2l-1.9-2
		c-0.4-0.4-1.1-0.5-1.6,0s-0.5,1.1,0,1.6l1.9,2l-2.6,17.3c0,0.3,0.1,0.7,0.3,0.9l35.9,37.3c0.4,0.4,1.1,0.5,1.6,0c0,0,0,0,0,0
		l15.4-14.8c4.1,2,9,0.2,11-3.9c2-4.1,0.2-9-3.9-11C-161.3-77.9-162.5-78.2-163.8-78.2L-163.8-78.2z M-216-101.2l1.6,1.7
		c-0.8,1.6-0.2,3.6,1.5,4.4c0.4,0.2,0.9,0.3,1.4,0.4h0.1c1.8,0,3.3-1.4,3.3-3.3s-1.4-3.3-3.3-3.3l0,0c-0.5,0-1,0.1-1.4,0.3l-1.5-1.6
		l15.8-1l0.4,0.4l-19,18.3l-1.2-1.2L-216-101.2z M-212.1-98.8c0.2-0.2,0.5-0.3,0.8-0.3h0c0.6,0,1.1,0.5,1.1,1.1
		c0,0.3-0.1,0.6-0.3,0.8c-0.2,0.2-0.5,0.3-0.8,0.3c-0.6,0-1.1-0.5-1.1-1.1C-212.5-98.3-212.4-98.6-212.1-98.8L-212.1-98.8z
		 M-183.5-50l-4.9-5h10.1L-183.5-50z M-176-57.2L-176-57.2l-14.5,0l-25.1-26.1l19-18.3l26,27c-2.4,3.4-1.9,8.2,1.3,11L-176-57.2z
		 M-163.8-63.8c-3.3,0-6.1-2.7-6.1-6.1s2.7-6.1,6.1-6.1c3.3,0,6.1,2.7,6.1,6.1v0C-157.7-66.6-160.4-63.8-163.8-63.8
		C-163.8-63.8-163.8-63.8-163.8-63.8L-163.8-63.8z"/>
</g>
<g id="web-development" transform="translate(-15.996 -16)">
	<path id="Path_23" class="st1" d="M-25.8-95.8h-45.5c-1.8,0-3.2,1.5-3.3,3.3v27.1h2.2v-21.7h47.7v33.6c0,0.6-0.5,1.1-1.1,1.1H-55
		v2.2h29.3c1.8,0,3.2-1.5,3.3-3.3v-39C-22.5-94.3-24-95.8-25.8-95.8z M-72.3-89.3v-3.3c0-0.6,0.5-1.1,1.1-1.1h45.5
		c0.6,0,1.1,0.5,1.1,1.1v3.3H-72.3z"/>
	<circle id="Ellipse_6" class="st1" cx="-70.2" cy="-91.4" r="1.1"/>
	<circle id="Ellipse_7" class="st1" cx="-66.9" cy="-91.4" r="1.1"/>
	<circle id="Ellipse_8" class="st1" cx="-63.7" cy="-91.4" r="1.1"/>
	<path id="Path_24" class="st1" d="M-85.3-38.4l4.3,5.6c1,1.3,2.6,2.1,4.3,2.1h32.5c0.4,0,0.8-0.2,1-0.6l5.4-11.9
		c0.2-0.5,0-1.2-0.5-1.4c-0.1-0.1-0.3-0.1-0.4-0.1h-12.6l-7.1-7.1c-1-1-2.4-1.6-3.8-1.6h-5.9c0.1-0.4,0.1-0.7,0.1-1.1v-3.6
		c0.7-0.8,1.1-1.8,1.1-2.9v-1.1c0-0.6-0.5-1.1-1.1-1.1h-5.4c-2.3,0-4.1,1.8-4.1,4.1c0,0.6,0.1,1.3,0.4,1.8l0.4,0.8v1.9
		c0,0.4,0,0.7,0.1,1.1h-1.8c-5.1,0-9.1,4.1-9.1,9.2v13.6h2.2L-85.3-38.4z M-79.3-34.2l-1.9-2.4l3.1-3.1l2.7,3.2
		c0.2,0.2,0.5,0.4,0.8,0.4h9.8c0.2,0,0.4-0.1,0.6-0.2l2-1.4c0.4-0.2,0.8-0.2,1.2,0l1.5,1l-0.7,1.6h-1.4c-0.3,0-0.6,0.1-0.8,0.3
		l-1.2,1.2c-0.4,0.4-1,0.6-1.5,0.6h-11.7C-77.7-32.9-78.7-33.4-79.3-34.2L-79.3-34.2z M-74.5-56.3l1.1-1.1c0.6,0.4,1.4,0.7,2.1,0.7
		c0.4,0,0.7,0,1.1-0.1v2.3c0,1.2-0.9,2.2-2.1,2.2c-1.2,0-2.2-0.9-2.2-2.1c0,0,0-0.1,0-0.1L-74.5-56.3z M-72.9-50.3
		c0.4,0.1,0.8,0.1,1.2,0l0.3,0.3l-0.4,0.9h-0.8l-0.4-0.9L-72.9-50.3z M-72.4-47h0.2l0.9,8.7h-1.9L-72.4-47z M-61.5-43.3l3.5,3.5
		l-0.5,1.1l-1.2-0.8c-0.5-0.4-1.2-0.5-1.8-0.5L-61.5-43.3z M-44.9-32.9h-13.9l4.4-9.8h13.9L-44.9-32.9z M-55-44.8
		c-0.4,0-0.8,0.2-1,0.6l-1,2.3l-1.3-1.3l2.8-2.8l1.2,1.2L-55-44.8z M-59.9-50.4l2.8,2.8l-2.8,2.8l-1.9-1.9c-0.4-0.4-1.1-0.4-1.5,0
		c-0.2,0.2-0.3,0.5-0.3,0.8v6.6l-1.4,0.9h-4.1l-1-9.5l0.3-0.5l2.2,2.2l1.5-1.5l-3.5-3.5c0,0,0.1-0.1,0.1-0.1h7.3
		C-61.4-51.3-60.5-51-59.9-50.4L-59.9-50.4z M-75.2-59.8c0.3-0.8,1-1.3,1.8-1.3h4.3c0,1.2-1,2.2-2.2,2.2c-0.4,0-0.8-0.2-1.1-0.4
		l-0.3-0.3c-0.4-0.4-1.1-0.4-1.5,0c0,0,0,0,0,0l-1.1,1.1C-75.4-59-75.4-59.4-75.2-59.8L-75.2-59.8z M-78.4-51.3h3.2
		c0,0,0.1,0.1,0.1,0.1l-3.5,3.5l1.5,1.5l2.2-2.2l0.3,0.5l-0.8,8l-4.9-5.7l-1.6,1.4l2.3,2.7l-3,3l-1.3-1.7c-2.4-3-1.8-7.4,1.2-9.8
		C-81.4-50.8-79.9-51.3-78.4-51.3L-78.4-51.3z"/>
	<path id="Path_25" class="st1" d="M-70.2-84.9h3.3v2.2h-3.3V-84.9z"/>
	<path id="Path_26" class="st1" d="M-62.6-84.9h2.2v2.2h-2.2V-84.9z"/>
	<path id="Path_27" class="st1" d="M-58.3-84.9h7.6v2.2h-7.6V-84.9z"/>
	<path id="Path_28" class="st1" d="M-60.4-80.6h5.4v2.2h-5.4V-80.6z"/>
	<path id="Path_29" class="st1" d="M-52.8-80.6h5.4v2.2h-5.4V-80.6z"/>
	<path id="Path_30" class="st1" d="M-63.7-76.3h13v2.2h-13V-76.3z"/>
	<path id="Path_31" class="st1" d="M-70.2-69.8h5.4v2.2h-5.4V-69.8z"/>
	<path id="Path_32" class="st1" d="M-57.2-69.8h6.5v2.2h-6.5V-69.8z"/>
	<path id="Path_33" class="st1" d="M-61.5-69.8h2.2v2.2h-2.2V-69.8z"/>
	<path id="Path_34" class="st1" d="M-63.7-65.4h8.7v2.2h-8.7V-65.4z"/>
	<path id="Path_35" class="st1" d="M-52.8-65.4h6.5v2.2h-6.5V-65.4z"/>
	<path id="Path_36" class="st1" d="M-59.3-61.1h2.2v2.2h-2.2V-61.1z"/>
	<path id="Path_37" class="st1" d="M-55-61.1h7.6v2.2H-55V-61.1z"/>
	<path id="Path_38" class="st1" d="M-59.3-56.8h6.5v2.2h-6.5V-56.8z"/>
	<path id="Path_39" class="st1" d="M-41.7-78.1l-4.3,4.3c-0.4,0.4-0.4,1.1,0,1.5c0,0,0,0,0,0l4.3,4.3l1.5-1.5l-3.6-3.6l3.6-3.6
		L-41.7-78.1z"/>
	<path id="Path_40" class="st1" d="M-31.5-67.9l4.3-4.3c0.4-0.4,0.4-1.1,0-1.5c0,0,0,0,0,0l-4.3-4.3l-1.5,1.5l3.6,3.6l-3.6,3.6
		L-31.5-67.9z"/>
	<path id="Path_41" class="st1" d="M-39.8-64.6l4.3-17.3l2.1,0.5l-4.3,17.3L-39.8-64.6z"/>
	<path id="Path_42" class="st1" d="M-49-36.2c0.9,0,1.6-0.7,1.6-1.6s-0.7-1.6-1.6-1.6c-0.9,0-1.6,0.7-1.6,1.6S-49.9-36.2-49-36.2
		L-49-36.2z M-49-38.3c0.3,0,0.5,0.2,0.5,0.5c0,0.3-0.2,0.5-0.5,0.5c-0.3,0-0.5-0.2-0.5-0.5c0,0,0,0,0,0
		C-49.6-38.1-49.3-38.3-49-38.3z"/>
</g>
<g>
	<g>
		<g>
			<path class="st1" d="M442.1-101.6h-23.2c-0.5,0-1,0.4-1,1v13.4c0,0.5,0.4,1,1,1h23.2c0.5,0,1-0.4,1-1v-13.4
				C443.1-101.2,442.6-101.6,442.1-101.6z M441.1-88.2h-21.2v-11.4h21.2V-88.2z"/>
		</g>
	</g>
	<g>
		<g>
			<path class="st1" d="M397.1-103.3H384c-0.5,0-1,0.4-1,1v6.3c0,0.5,0.4,1,1,1h13.1c0.5,0,1-0.4,1-1v-6.3
				C398.1-102.9,397.7-103.3,397.1-103.3z M396.1-97H385v-4.3h11.2V-97z"/>
		</g>
	</g>
	<g>
		<g>
			<path class="st1" d="M434.1-96.6h-7.1c-0.5,0-1,0.4-1,1v3.4c0,0.5,0.4,1,1,1h7.1c0.5,0,1-0.4,1-1v-3.4
				C435-96.2,434.6-96.6,434.1-96.6z M433.1-93.2h-5.2v-1.5h5.2V-93.2z"/>
		</g>
	</g>
	<g>
		<g>
			<path class="st1" d="M416-67.8h-6.6c-0.5,0-1,0.4-1,1v3.1c0,0.5,0.4,1,1,1h6.6c0.5,0,1-0.4,1-1v-3.1
				C417-67.4,416.6-67.8,416-67.8z M415.1-64.7h-4.6v-1.2h4.6V-64.7z"/>
		</g>
	</g>
	<g>
		<g>
			<path class="st1" d="M403.3-92H384c-0.5,0-1,0.4-1,1s0.4,1,1,1h19.3c0.5,0,1-0.4,1-1S403.8-92,403.3-92z"/>
		</g>
	</g>
	<g>
		<g>
			<path class="st1" d="M403.3-88.2H384c-0.5,0-1,0.4-1,1s0.4,1,1,1h19.3c0.5,0,1-0.4,1-1S403.8-88.2,403.3-88.2z"/>
		</g>
	</g>
	<g>
		<g>
			<path class="st1" d="M438.2-67.5h-17.4c-0.5,0-1,0.4-1,1s0.4,1,1,1h17.4c0.5,0,1-0.4,1-1C439.1-67,438.7-67.5,438.2-67.5z"/>
		</g>
	</g>
	<g>
		<g>
			<path class="st1" d="M438.2-64.7h-17.4c-0.5,0-1,0.4-1,1c0,0.5,0.4,1,1,1h17.4c0.5,0,1-0.4,1-1C439.1-64.3,438.7-64.7,438.2-64.7
				z"/>
		</g>
	</g>
	<g>
		<g>
			<path class="st1" d="M443.5-80.4C443.5-80.4,443.5-80.4,443.5-80.4C443.5-80.5,443.5-80.5,443.5-80.4c0-0.1,0-0.1,0-0.2
				c0,0,0,0,0,0c0,0,0,0,0,0c0,0,0,0,0-0.1c0,0,0,0,0,0c0,0,0-0.1,0-0.1c0,0,0,0,0,0c0,0,0,0,0,0c0,0,0,0,0-0.1c0,0,0,0,0,0
				c0,0,0,0,0,0c0,0,0,0,0,0c0,0,0,0,0,0c0,0,0,0,0,0c0,0,0,0,0,0c0,0,0,0,0,0c0,0,0,0,0,0c0,0,0,0,0,0c0,0,0,0,0,0c0,0,0,0,0,0
				c0,0,0,0,0,0c0,0,0,0,0,0c0,0,0,0-0.1,0c0,0,0,0,0,0c0,0,0,0-0.1,0c0,0,0,0,0,0c0,0,0,0,0,0c0,0,0,0-0.1,0c0,0,0,0,0,0
				c0,0-0.1,0-0.1,0c0,0,0,0,0,0h0c0,0,0,0,0,0h-26.8v-24.4c0-1.3-1-2.3-2.3-2.3h-3.4c-0.5,0-1,0.4-1,1s0.4,1,1,1h3.4
				c0.2,0,0.3,0.1,0.3,0.3v24.4h-8.5c0,0,0,0,0,0h0c0,0,0,0,0,0c0,0-0.1,0-0.1,0c0,0,0,0,0,0c0,0,0,0-0.1,0c0,0,0,0-0.1,0
				c0,0,0,0,0,0c0,0,0,0-0.1,0c0,0,0,0,0,0c0,0,0,0-0.1,0c0,0,0,0,0,0c0,0,0,0,0,0c0,0,0,0,0,0c0,0,0,0,0,0c0,0,0,0,0,0c0,0,0,0,0,0
				c0,0,0,0,0,0c0,0,0,0,0,0c0,0,0,0,0,0c0,0,0,0,0,0c0,0,0,0,0,0c0,0,0,0,0,0c0,0,0,0,0,0c0,0,0,0,0,0.1c0,0,0,0,0,0c0,0,0,0,0,0
				c0,0,0,0.1,0,0.1c0,0,0,0,0,0c0,0,0,0,0,0.1c0,0,0,0,0,0c0,0,0,0,0,0c0,0,0,0,0,0.1c0,0,0,0,0,0c0,0,0,0.1,0,0.1c0,0,0,0,0,0v5.8
				c0,0.5,0.4,1,1,1s1-0.4,1-1v-4.3l17.2,7.5c0.1,0.1,0.3,0.1,0.4,0.1c0.1,0,0.3,0,0.4-0.1l17.2-7.5v19h-35.3v-9.8c0-0.5-0.4-1-1-1
				s-1,0.4-1,1v10.7c0,0.5,0.4,1,1,1h8.5v5.1c0,0.2-0.1,0.3-0.3,0.3h-32.7c-0.2,0-0.3-0.1-0.3-0.3v-52.9c0-0.2,0.1-0.3,0.3-0.3h24.5
				c0.5,0,1-0.4,1-1s-0.4-1-1-1h-24.5c-1.3,0-2.3,1-2.3,2.3v52.9c0,1.3,1,2.3,2.3,2.3h32.7c1.3,0,2.3-1,2.3-2.3v-5.1h26.8
				c0.5,0,1-0.4,1-1L443.5-80.4C443.5-80.4,443.5-80.4,443.5-80.4z M423.9-73.3l-13.9-6h27.8L423.9-73.3z"/>
		</g>
	</g>
</g>
<g>
	<path id="XMLID_294_" class="st1" d="M78.7-101.6h-3v-6.3c0-2.1-1.7-3.8-3.8-3.8H28.2c-2.1,0-3.8,1.7-3.8,3.8v6.3h-3
		c-2.1,0-3.8,1.7-3.8,3.8v36.6c0,2.1,1.7,3.8,3.8,3.8h22.3v3h-2.4c-2.1,0-3.8,1.7-3.8,3.8v2.5c0,0.7,0.6,1.3,1.3,1.3h22.6
		c0.7,0,1.3-0.6,1.3-1.3v-2.5c0-2.1-1.7-3.8-3.8-3.8h-2.4v-3h22.3c2.1,0,3.8-1.7,3.8-3.8v-36.6C82.5-99.9,80.8-101.6,78.7-101.6z
		 M78.7-99.1c0.7,0,1.3,0.6,1.3,1.3v29.2h-4.3v-30.5H78.7z M28.2-109.2h43.7c0.7,0,1.3,0.6,1.3,1.3v6.3H26.9v-6.3
		C26.9-108.7,27.5-109.2,28.2-109.2z M21.3-99.1h3v9.5c0,0.7,0.6,1.3,1.3,1.3s1.3-0.6,1.3-1.3v-9.5h46.2v30.5h-6.5v-4.2
		c0-0.7-0.6-1.3-1.3-1.3h-1.7c-0.3-1-0.7-2-1.2-2.9l1.2-1.2c0.5-0.5,0.5-1.3,0-1.8l-3.9-3.9c-0.5-0.5-1.3-0.5-1.8,0l-1.2,1.2
		C56-83.1,55-83.5,54-83.8v-1.7c0-0.7-0.6-1.3-1.3-1.3h-5.5c-0.7,0-1.3,0.6-1.3,1.3v1.7c-1,0.3-2,0.7-2.9,1.2L42-83.7
		c-0.5-0.5-1.3-0.5-1.8,0l-3.9,3.9c-0.5,0.5-0.5,1.3,0,1.8l1.2,1.2C37-76,36.6-75,36.3-74h-1.7c-0.7,0-1.3,0.6-1.3,1.3v4.2h-6.5
		v-9.5c0-0.7-0.6-1.3-1.3-1.3s-1.3,0.6-1.3,1.3v9.5H20v-29.2C20-98.5,20.6-99.1,21.3-99.1L21.3-99.1z M40-78l-1-1l2.1-2.1l1,1
		c0.4,0.4,1.1,0.5,1.6,0.2c1.2-0.8,2.5-1.3,3.9-1.6c0.6-0.1,1-0.6,1-1.2v-1.4h2.9v1.4c0,0.6,0.4,1.1,1,1.2c1.4,0.3,2.7,0.8,3.9,1.6
		c0.5,0.3,1.2,0.3,1.6-0.2l1-1L61-79l-1,1c-0.4,0.4-0.5,1.1-0.2,1.6c0.8,1.2,1.3,2.5,1.6,3.9c0.1,0.6,0.6,1,1.2,1h1.4v2.9h-7.9
		c0.1-0.5,0.2-1,0.2-1.5c0-3.5-2.8-6.3-6.3-6.3c-3.5,0-6.3,2.8-6.3,6.3c0,0.5,0.1,1,0.2,1.5h-7.9v-2.9h1.4c0.6,0,1.1-0.4,1.2-1
		c0.3-1.4,0.8-2.7,1.6-3.9C40.5-76.9,40.4-77.6,40-78L40-78z M46.2-70.1c0-2.1,1.7-3.8,3.8-3.8s3.8,1.7,3.8,3.8c0,0.5-0.1,1-0.3,1.5
		h-7C46.3-69.1,46.2-69.6,46.2-70.1z M60-50.6v1.3H40v-1.3c0-0.7,0.6-1.3,1.3-1.3h17.5C59.5-51.8,60-51.3,60-50.6L60-50.6z
		 M53.8-54.4h-7.6v-3h7.6V-54.4z M78.7-60H21.3c-0.7,0-1.3-0.6-1.3-1.3v-4.8H80v4.8C80-60.5,79.4-60,78.7-60z"/>
	<path id="XMLID_1617_" class="st1" d="M53.8-104.1h13.7c0.7,0,1.3-0.6,1.3-1.3s-0.6-1.3-1.3-1.3H53.8c-0.7,0-1.3,0.6-1.3,1.3
		S53.1-104.1,53.8-104.1z"/>
	<path id="XMLID_1618_" class="st1" d="M38.1-104.1c0.3,0,0.7-0.1,0.9-0.4s0.4-0.6,0.4-0.9s-0.1-0.7-0.4-0.9
		c-0.2-0.2-0.6-0.4-0.9-0.4s-0.7,0.1-0.9,0.4c-0.2,0.2-0.4,0.6-0.4,0.9s0.1,0.7,0.4,0.9S37.7-104.1,38.1-104.1z"/>
	<path id="XMLID_1620_" class="st1" d="M32.5-104.1c0.3,0,0.7-0.1,0.9-0.4c0.2-0.2,0.4-0.6,0.4-0.9s-0.1-0.7-0.4-0.9
		c-0.2-0.2-0.6-0.4-0.9-0.4s-0.7,0.1-0.9,0.4c-0.2,0.2-0.4,0.6-0.4,0.9s0.1,0.7,0.4,0.9C31.8-104.3,32.1-104.1,32.5-104.1z"/>
	<path id="XMLID_1623_" class="st1" d="M43.7-104.1c0.3,0,0.7-0.1,0.9-0.4s0.4-0.6,0.4-0.9s-0.1-0.7-0.4-0.9
		c-0.2-0.2-0.6-0.4-0.9-0.4s-0.7,0.1-0.9,0.4c-0.2,0.2-0.4,0.6-0.4,0.9s0.1,0.7,0.4,0.9S43.3-104.1,43.7-104.1z"/>
	<path id="XMLID_1624_" class="st1" d="M31.7-93h3c0.7,0,1.3-0.6,1.3-1.3s-0.6-1.3-1.3-1.3h-3c-0.7,0-1.3,0.6-1.3,1.3S31-93,31.7-93
		z"/>
	<path id="XMLID_1626_" class="st1" d="M40.3-93H52c0.7,0,1.3-0.6,1.3-1.3s-0.6-1.3-1.3-1.3H40.3c-0.7,0-1.3,0.6-1.3,1.3
		S39.6-93,40.3-93z"/>
	<path id="XMLID_1627_" class="st1" d="M31.7-86.9h7.4c0.7,0,1.3-0.6,1.3-1.3c0-0.7-0.6-1.3-1.3-1.3h-7.4c-0.7,0-1.3,0.6-1.3,1.3
		C30.4-87.4,31-86.9,31.7-86.9z"/>
	<path id="XMLID_1628_" class="st1" d="M57.6-93h10.7c0.7,0,1.3-0.6,1.3-1.3s-0.6-1.3-1.3-1.3H57.6c-0.7,0-1.3,0.6-1.3,1.3
		S56.9-93,57.6-93z"/>
	<path id="XMLID_1633_" class="st1" d="M68.3-89.4h-8.7c-0.7,0-1.3,0.6-1.3,1.3c0,0.7,0.6,1.3,1.3,1.3h8.7c0.7,0,1.3-0.6,1.3-1.3
		C69.6-88.8,69-89.4,68.3-89.4z"/>
	<path id="XMLID_1635_" class="st1" d="M25.6-82.6c0.3,0,0.7-0.1,0.9-0.4c0.2-0.2,0.4-0.6,0.4-0.9s-0.1-0.7-0.4-0.9
		c-0.2-0.2-0.6-0.4-0.9-0.4S25-85,24.7-84.7c-0.2,0.2-0.4,0.6-0.4,0.9s0.1,0.7,0.4,0.9C25-82.7,25.3-82.6,25.6-82.6z"/>
</g>
<g>
	<path class="st1" d="M322.5-105.4c0-1.9-1.6-3.5-3.5-3.5h-13.9c-0.5,0-1,0.4-1,1c0,0.5,0.4,1,1,1H319c0.9,0,1.6,0.7,1.6,1.6l0,35.5
		h-61.2l0-35.5c0-0.9,0.7-1.6,1.6-1.6h39.8c0.5,0,1-0.4,1-1c0-0.5-0.4-1-1-1H261c-1.9,0-3.5,1.6-3.5,3.5V-63c0,1.9,1.6,3.5,3.5,3.5
		h20.4l-1.1,8h-2.1c-0.5,0-1,0.4-1,1c0,0.5,0.4,1,1,1h23.4c0.5,0,1-0.4,1-1c0-0.5-0.4-1-1-1h-2.1l-0.3-2.1c-0.1-0.5-0.5-0.9-1.1-0.8
		c-0.5,0.1-0.9,0.5-0.8,1.1l0.2,1.9h-15.4l1.1-8h1.9c0.4,2.2,2.4,3.9,4.7,3.9c2.3,0,4.3-1.7,4.7-3.9h1.9l0.2,1.9
		c0.1,0.5,0.5,0.8,0.9,0.8c0,0,0.1,0,0.1,0c0.5-0.1,0.9-0.5,0.8-1.1l-0.2-1.6H319c1.9,0,3.5-1.6,3.5-3.5V-105.4z M290-57.6
		c-1.3,0-2.4-0.8-2.8-2h5.6C292.4-58.4,291.3-57.6,290-57.6z M320.6-63c0,0.9-0.7,1.6-1.6,1.6h-58c-0.9,0-1.6-0.7-1.6-1.6v-5h61.2
		V-63z"/>
	<path class="st1" d="M292.1-82.6h17c0.5,0,0.8-0.3,0.9-0.8l3.1-15.5h1.2c0.5,0,1-0.4,1-1c0-0.5-0.4-1-1-1h-2
		c-0.5,0-0.8,0.3-0.9,0.8l-0.5,2.7L291-95.9c-0.3,0-0.5,0.2-0.7,0.4c-0.2,0.2-0.2,0.5-0.1,0.8l2.4,8.5c0.1,0.4,0.5,0.7,0.9,0.7h15
		l-0.2,1h-16.2c-1.4,0-2.6,1.2-2.6,2.6c0,1.4,1.2,2.6,2.6,2.6h0.8c-0.2,0.4-0.2,0.8-0.2,1.2c0,1.7,1.4,3.1,3.1,3.1
		c1.7,0,3.1-1.4,3.1-3.1c0-0.4-0.1-0.8-0.2-1.2h5.1c-0.2,0.4-0.2,0.8-0.2,1.2c0,1.7,1.4,3.1,3.1,3.1s3.1-1.4,3.1-3.1
		c0-0.4-0.1-0.8-0.2-1.2h0.9c0.5,0,1-0.4,1-1s-0.4-1-1-1h-18.3c-0.4,0-0.7-0.3-0.7-0.7S291.7-82.6,292.1-82.6L292.1-82.6z
		 M294.2-87.4l-1.9-6.7l18.1-1.3l-1.6,8H294.2z M295.8-76.9c-0.7,0-1.2-0.5-1.2-1.2s0.5-1.2,1.2-1.2c0.7,0,1.2,0.5,1.2,1.2
		S296.4-76.9,295.8-76.9z M306.6-76.9c-0.7,0-1.2-0.5-1.2-1.2s0.5-1.2,1.2-1.2c0.7,0,1.2,0.5,1.2,1.2S307.3-76.9,306.6-76.9z"/>
	<path class="st1" d="M296.5-93.3c-0.5,0-1,0.4-1,1v2.7c0,0.5,0.4,1,1,1s1-0.4,1-1v-2.7C297.5-92.8,297-93.3,296.5-93.3z"/>
	<path class="st1" d="M299.8-93.3c-0.5,0-1,0.4-1,1v2.7c0,0.5,0.4,1,1,1s1-0.4,1-1v-2.7C300.7-92.8,300.3-93.3,299.8-93.3z"/>
	<path class="st1" d="M303-93.3c-0.5,0-1,0.4-1,1v2.7c0,0.5,0.4,1,1,1s1-0.4,1-1v-2.7C304-92.8,303.5-93.3,303-93.3z"/>
	<path class="st1" d="M306.2-93.3c-0.5,0-1,0.4-1,1v2.7c0,0.5,0.4,1,1,1s1-0.4,1-1v-2.7C307.2-92.8,306.8-93.3,306.2-93.3z"/>
	<path class="st1" d="M270.8-95.3c0.5,0,1-0.4,1-1v-2.4l0.5,0.5c0.2,0.2,0.4,0.3,0.7,0.3c0.3,0,0.5-0.1,0.7-0.3c0.4-0.4,0.3-1,0-1.3
		l-2.1-2c-0.4-0.3-0.9-0.3-1.3,0l-2.1,2c-0.4,0.4-0.4,1,0,1.3c0.4,0.4,1,0.4,1.3,0l0.5-0.5v2.4C269.8-95.8,270.3-95.3,270.8-95.3z"
		/>
	<path class="st1" d="M278.5-95.3c0.5,0,1-0.4,1-1v-2.4l0.5,0.5c0.2,0.2,0.4,0.3,0.7,0.3c0.3,0,0.5-0.1,0.7-0.3c0.4-0.4,0.3-1,0-1.3
		l-2.1-2c-0.4-0.3-0.9-0.3-1.3,0l-2.1,2c-0.4,0.4-0.4,1,0,1.3c0.4,0.4,1,0.4,1.3,0l0.5-0.5v2.4C277.5-95.8,278-95.3,278.5-95.3z"/>
	<path class="st1" d="M284.4-90.2c0-1.2-1-2.2-2.2-2.2h-14.5c-1.2,0-2.2,1-2.2,2.2v3.8c0,1.2,1,2.2,2.2,2.2h6.2c0.5,0,1-0.4,1-1
		c0-0.5-0.4-1-1-1h-6.2c-0.2,0-0.3-0.1-0.3-0.3v-3.8c0-0.2,0.1-0.3,0.3-0.3h14.5c0.2,0,0.3,0.1,0.3,0.3v3.8c0,0.2-0.1,0.3-0.3,0.3
		h-3.9c-0.5,0-1,0.4-1,1c0,0.5,0.4,1,1,1h3.9c1.2,0,2.2-1,2.2-2.2V-90.2z"/>
	<path class="st1" d="M266.4-78.9h6.5c0.5,0,1-0.4,1-1c0-0.5-0.4-1-1-1h-6.5c-0.5,0-1,0.4-1,1C265.4-79.3,265.9-78.9,266.4-78.9z"/>
	<path class="st1" d="M266.4-75.5h17c0.5,0,1-0.4,1-1s-0.4-1-1-1h-17c-0.5,0-1,0.4-1,1S265.9-75.5,266.4-75.5z"/>
</g>
<g>
	<g>
		<g>
			<path class="st1" d="M198.1-55.8c2.4,0,4.4-2,4.4-4.4v-45.1c0-3.5-2.8-6.3-6.3-6.3h-52.3c-3.5,0-6.3,2.8-6.3,6.3v45.1
				c0,2.4,2,4.4,4.4,4.4h1.4v6.5h-4.6c-0.7,0-1.3,0.6-1.3,1.3s0.6,1.3,1.3,1.3h62.5c0.7,0,1.3-0.6,1.3-1.3s-0.6-1.3-1.3-1.3h-4.6
				v-6.5H198.1z M140-105.4c0-2.1,1.7-3.8,3.8-3.8h52.3c2.1,0,3.8,1.7,3.8,3.8v2.8h-59.8c0,0-0.1,0-0.1,0V-105.4z M151.5-49.3h-5.6
				v-11.4h5.6V-49.3z M165.7-49.3h-5.6v-25.5h5.6V-49.3z M179.9-49.3h-5.6V-64h5.6V-49.3z M195.4-79.2h-8.1c-0.7,0-1.3,0.6-1.3,1.3
				v6.4c0,0.7,0.6,1.3,1.3,1.3s1.3-0.6,1.3-1.3v-5.1h5.6v27.4h-5.6V-63c0-0.7-0.6-1.3-1.3-1.3S186-63.7,186-63v13.7h-3.6v-16
				c0-0.7-0.6-1.3-1.3-1.3H173c-0.7,0-1.3,0.6-1.3,1.3v16h-3.6V-76c0-0.7-0.6-1.3-1.3-1.3h-8.1c-0.7,0-1.3,0.6-1.3,1.3v26.7H154V-62
				c0-0.7-0.6-1.3-1.3-1.3h-8.1c-0.7,0-1.3,0.6-1.3,1.3v3.6h-1.4c-1,0-1.9-0.8-1.9-1.9v-39.8c0,0,0.1,0,0.1,0H200v39.8
				c0,1-0.8,1.9-1.9,1.9h-1.4v-19.6C196.7-78.6,196.1-79.2,195.4-79.2z"/>
		</g>
	</g>
	<g>
		<g>
			<path class="st1" d="M194.4-107.2h-28.7c-0.7,0-1.3,0.6-1.3,1.3s0.6,1.3,1.3,1.3h28.7c0.7,0,1.3-0.6,1.3-1.3
				S195.1-107.2,194.4-107.2z"/>
		</g>
	</g>
	<g>
		<g>
			<path class="st1" d="M151.6-106.8c-0.2-0.2-0.6-0.4-0.9-0.4s-0.7,0.1-0.9,0.4c-0.2,0.2-0.4,0.6-0.4,0.9s0.1,0.7,0.4,0.9
				c0.2,0.2,0.6,0.4,0.9,0.4s0.7-0.1,0.9-0.4c0.2-0.2,0.4-0.6,0.4-0.9S151.8-106.6,151.6-106.8z"/>
		</g>
	</g>
	<g>
		<g>
			<path class="st1" d="M146.5-106.8c-0.2-0.2-0.6-0.4-0.9-0.4s-0.7,0.1-0.9,0.4c-0.2,0.2-0.4,0.6-0.4,0.9s0.1,0.7,0.4,0.9
				c0.2,0.2,0.6,0.4,0.9,0.4s0.7-0.1,0.9-0.4c0.2-0.2,0.4-0.6,0.4-0.9S146.8-106.6,146.5-106.8z"/>
		</g>
	</g>
	<g>
		<g>
			<path class="st1" d="M156.7-106.8c-0.2-0.2-0.6-0.4-0.9-0.4c-0.3,0-0.7,0.1-0.9,0.4c-0.2,0.2-0.4,0.6-0.4,0.9s0.1,0.7,0.4,0.9
				c0.2,0.2,0.6,0.4,0.9,0.4s0.7-0.1,0.9-0.4c0.2-0.2,0.4-0.6,0.4-0.9S156.9-106.6,156.7-106.8z"/>
		</g>
	</g>
	<g>
		<g>
			<path class="st1" d="M188.2-67.9c-0.2-0.2-0.6-0.4-0.9-0.4s-0.7,0.1-0.9,0.4c-0.2,0.2-0.4,0.6-0.4,0.9c0,0.3,0.1,0.7,0.4,0.9
				c0.2,0.2,0.6,0.4,0.9,0.4s0.7-0.1,0.9-0.4c0.2-0.2,0.4-0.6,0.4-0.9C188.5-67.3,188.4-67.7,188.2-67.9z"/>
		</g>
	</g>
	<g>
		<g>
			<path class="st1" d="M191.3-94.5c-2.5,0-4.6,2.1-4.6,4.6c0,1,0.3,1.9,0.9,2.7l-8.4,8.4c-0.7-0.4-1.4-0.6-2.2-0.6
				c-0.7,0-1.4,0.2-2,0.5l-8.8-8.8c0.4-0.7,0.6-1.4,0.6-2.2c0-2.5-2.1-4.6-4.6-4.6c-2.5,0-4.6,2.1-4.6,4.6c0,0.9,0.3,1.7,0.7,2.4
				l-7.5,7.5c-0.7-0.4-1.4-0.6-2.2-0.6c-2.5,0-4.6,2.1-4.6,4.6s2.1,4.6,4.6,4.6c2.5,0,4.6-2.1,4.6-4.6c0-0.8-0.2-1.6-0.6-2.2
				l7.6-7.6c0.6,0.3,1.3,0.5,2,0.5c0.8,0,1.6-0.2,2.2-0.6l8.7,8.7c-0.4,0.7-0.7,1.5-0.7,2.4c0,2.5,2.1,4.6,4.6,4.6
				c2.5,0,4.6-2.1,4.6-4.6c0-0.8-0.2-1.6-0.6-2.2l8.7-8.7c0.5,0.2,1.1,0.3,1.7,0.3c2.5,0,4.6-2.1,4.6-4.6S193.8-94.5,191.3-94.5z
				 M148.6-74c-1.1,0-2-0.9-2-2c0-1.1,0.9-2,2-2s2,0.9,2,2C150.6-74.9,149.7-74,148.6-74z M162.2-87.9c-1.1,0-2-0.9-2-2s0.9-2,2-2
				s2,0.9,2,2S163.3-87.9,162.2-87.9z M177-72.8c-1.1,0-2-0.9-2-2s0.9-2,2-2s2,0.9,2,2C179-73.7,178.1-72.8,177-72.8z M191.3-87.9
				c-1.1,0-2-0.9-2-2s0.9-2,2-2s2,0.9,2,2S192.4-87.9,191.3-87.9z"/>
		</g>
	</g>
	<g>
		<g>
			<path class="st1" d="M156.3-95.4c-0.2-0.2-0.6-0.4-0.9-0.4c-0.3,0-0.7,0.1-0.9,0.4c-0.2,0.2-0.4,0.6-0.4,0.9s0.1,0.7,0.4,0.9
				c0.2,0.2,0.6,0.4,0.9,0.4c0.3,0,0.7-0.1,0.9-0.4c0.2-0.2,0.4-0.6,0.4-0.9S156.6-95.2,156.3-95.4z"/>
		</g>
	</g>
	<g>
		<g>
			<path class="st1" d="M150.7-95.8h-6.1c-0.7,0-1.3,0.6-1.3,1.3s0.6,1.3,1.3,1.3h6.1c0.7,0,1.3-0.6,1.3-1.3S151.4-95.8,150.7-95.8z
				"/>
		</g>
	</g>
	<g>
		<g>
			<path class="st1" d="M150.7-89.7h-6.1c-0.7,0-1.3,0.6-1.3,1.3s0.6,1.3,1.3,1.3h6.1c0.7,0,1.3-0.6,1.3-1.3S151.4-89.7,150.7-89.7z
				"/>
		</g>
	</g>
</g>
<g>
	<path d="M-157.7,77.2c-1.9-3-5.1-4.8-8.6-4.8c-2.1,0-4.1,0.6-5.8,1.8c-0.7-1.5-1.7-2.8-2.9-3.8c-1.8-1.5-4.1-2.3-6.4-2.3
		c-2.2,0-4.4,0.7-6.2,2.1c-0.9,0.7-1.8,1.6-2.4,2.6c-0.6-1-1.5-1.9-2.4-2.6c-1.8-1.4-3.9-2.1-6.2-2.1c-2.3,0-4.6,0.8-6.4,2.3
		c-1.3,1-2.3,2.3-2.9,3.8c-1.7-1.2-3.7-1.8-5.8-1.8c-3.5,0-6.7,1.8-8.6,4.8c-0.1,0.2-0.2,0.4-0.2,0.7v3.4c0,0.7,0.6,1.3,1.3,1.3
		h62.5c0.7,0,1.3-0.6,1.3-1.3v-3.4C-157.5,77.6-157.6,77.4-157.7,77.2z M-160,80H-220v-1.7c1.4-2.1,3.8-3.3,6.3-3.3
		c2.1,0,4,0.8,5.5,2.3c0.3,0.3,0.8,0.5,1.3,0.3c0.4-0.1,0.8-0.5,0.9-0.9c0.8-3.5,3.9-6,7.5-6c3.4,0,6.4,2.3,7.4,5.5
		c0.2,0.5,0.7,0.9,1.2,0.9s1.1-0.4,1.2-0.9c1-3.2,4-5.5,7.4-5.5c3.6,0,6.7,2.5,7.5,6c0.1,0.5,0.4,0.8,0.9,0.9c0.4,0.1,0.9,0,1.3-0.3
		c1.5-1.5,3.4-2.3,5.5-2.3c2.5,0,4.8,1.2,6.3,3.3L-160,80L-160,80z"/>
	<path d="M-203.5,64.4c0.2,0.4,0.6,0.7,1.1,0.7c0,0,0,0,0,0c0.5,0,0.9-0.2,1.1-0.6l2.3-4.1c0.2,0.1,0.3,0.1,0.5,0.1h3.4
		c0,0.1,0,0.2,0,0.3c0,4.1,4.3,6.2,4.5,6.3c0.2,0.1,0.4,0.1,0.5,0.1c0.2,0,0.4,0,0.6-0.1c0.2-0.1,4.5-2.2,4.5-6.3c0-0.1,0-0.2,0-0.3
		h3.4c0.2,0,0.4,0,0.5-0.1l2.3,4.1c0.2,0.4,0.6,0.7,1.1,0.7h0c0.5,0,0.9-0.3,1.1-0.7l3.4-6.5c1.6-3,1.4-6.7-0.6-9.5l-2.9-4.2
		c0,0,0-0.1-0.1-0.1c0.5-2.3,0.8-4.3,0.8-5.3c0-4.8-2.3-9.8-6.7-14.9c-3.3-3.7-6.5-6.1-6.6-6.2c-0.4-0.3-1-0.3-1.5,0
		c-0.1,0.1-3.4,2.4-6.6,6.2c-4.5,5.1-6.7,10.1-6.7,14.9c0,1,0.3,3,0.8,5.3c0,0-0.1,0.1-0.1,0.1l-2.9,4.2c-2,2.8-2.2,6.5-0.6,9.5
		L-203.5,64.4z M-187.5,60.7c0,1.8-1.6,3.1-2.5,3.7c-0.9-0.6-2.5-1.8-2.5-3.7c0-0.1,0-0.2,0-0.3h5
		C-187.5,60.5-187.5,60.6-187.5,60.7z M-175.7,49.8c1.4,2,1.6,4.7,0.4,6.9l-2.3,4.4l-2.1-3.8c0.6-2.3,1.5-6.2,2.4-9.8L-175.7,49.8z
		 M-190,20.4c1.1,0.9,3.4,2.8,5.6,5.3h-11.1C-193.4,23.2-191.1,21.3-190,20.4z M-197.6,28.2h15.2c2.2,3.1,4,6.7,4,10.5
		c0,2.7-2.7,13.9-4.1,19.1h-15c-1.3-5.2-4.1-16.4-4.1-19.1C-201.6,35-199.8,31.3-197.6,28.2L-197.6,28.2z M-204.3,49.8l1.7-2.3
		c0.8,3.7,1.8,7.5,2.4,9.8l-2.1,3.8l-2.3-4.4C-205.9,54.5-205.7,51.9-204.3,49.8L-204.3,49.8z"/>
	<path d="M-190,47.4c4.3,0,7.8-3.5,7.8-7.8s-3.5-7.8-7.8-7.8c-4.3,0-7.8,3.5-7.8,7.8S-194.3,47.4-190,47.4L-190,47.4z M-190,34.4
		c2.9,0,5.3,2.4,5.3,5.3c0,2.9-2.4,5.3-5.3,5.3c-2.9,0-5.3-2.4-5.3-5.3C-195.3,36.7-192.9,34.4-190,34.4L-190,34.4z"/>
</g>
<g>
	<path d="M-50.5,55.2h-39l-4.2,8.4h3.8v18.9h39.8V63.6h3.8L-50.5,55.2z M-51.8,57.3l2.1,4.2h-16.5l-2.1-4.2H-51.8z M-88.2,57.3h16.5
		l-2.1,4.2h-16.5L-88.2,57.3z M-52.2,80.4H-69v-7.3H-71v7.3h-16.8V63.6h15.3l1.4-2.9v9.2h2.1v-9.2l1.4,2.9h15.3V80.4z"/>
	<path d="M-85.7,72h6.3v2.1h-6.3V72z"/>
	<path d="M-85.7,76.2h6.3v2.1h-6.3V76.2z"/>
	<path d="M-77.3,76.2h2.1v2.1h-2.1V76.2z"/>
	<path d="M-74.8,34.6l4.8-1.2l4.8,1.2l0.4-5.2l2.6-4.4l-4.5-2l-3.2-4l-3.2,4l-4.5,2l2.6,4.4L-74.8,34.6z M-71.9,24.7l1.9-2.4
		l1.9,2.4l2.8,1.2l-1.6,2.8l-0.2,3.2l-2.9-0.7l-2.9,0.7l-0.2-3.2l-1.6-2.8L-71.9,24.7z"/>
	<path d="M-91,36.7l1.5-2.6l-2.7-1.2l-1.9-2.4l-1.9,2.4l-2.7,1.2l1.5,2.6l0.2,3.1l2.9-0.7l2.9,0.7L-91,36.7z M-93,36.1l-0.1,1.1
		l-1-0.3l-1,0.3l-0.1-1.1l-0.6-1l1-0.4l0.6-0.8l0.6,0.8l1,0.4L-93,36.1z"/>
	<path d="M-42.8,36.7l1.5-2.6l-2.7-1.2l-1.9-2.4l-1.9,2.4l-2.7,1.2l1.5,2.6l0.2,3.1l2.9-0.7l2.9,0.7L-42.8,36.7z M-44.8,36.1
		l-0.1,1.1l-1-0.3l-1,0.3l-0.1-1.1l-0.6-1l1-0.4l0.6-0.8l0.6,0.8l1,0.4L-44.8,36.1z"/>
	<path d="M-89.5,42.5c2,1.3,3.8,3,5.3,4.8l4.2,5.2l-0.9-6.9c-0.4-3.6-2.4-6.9-5.3-9.1l-1-0.8l-3.1,6.1L-89.5,42.5z M-86.4,39.1
		c1.8,1.7,3,3.9,3.4,6.3c-1.3-1.6-2.8-2.9-4.5-4.1L-86.4,39.1z"/>
	<path d="M-59.1,45.6l-0.9,6.9l4.2-5.2c1.5-1.9,3.3-3.5,5.3-4.8l0.8-0.5l-3.1-6.1l-1,0.8C-56.7,38.7-58.7,42-59.1,45.6z M-52.5,41.3
		c-1.7,1.2-3.2,2.6-4.5,4.1c0.4-2.4,1.6-4.6,3.4-6.3L-52.5,41.3z"/>
	<path d="M-65.8,53.1h2.1v-4.4c0-5,1.8-9.9,5-13.8l-1.6-1.3c-3.5,4.2-5.5,9.6-5.5,15.1V53.1z"/>
	<path d="M-58.5,30.1h2.1v2.1h-2.1V30.1z"/>
	<path d="M-55.3,25.9h2.1V28h-2.1V25.9z"/>
	<path d="M-76.3,53.1h2.1v-4.4c0-5.5-1.9-10.9-5.5-15.1l-1.6,1.3c3.2,3.9,5,8.8,5,13.8V53.1z"/>
	<path d="M-83.6,30.1h2.1v2.1h-2.1V30.1z"/>
	<path d="M-86.8,25.9h2.1V28h-2.1V25.9z"/>
	<path d="M-71,35.3h2.1v2.1H-71V35.3z"/>
	<path d="M-71,39.5h2.1v13.6H-71V39.5z"/>
	<path d="M-41.7,45.8h2.1v2.1h-2.1V45.8z"/>
	<path d="M-41.7,50h2.1v2.1h-2.1V50z"/>
	<path d="M-39.6,47.9h2.1V50h-2.1V47.9z"/>
	<path d="M-43.8,47.9h2.1V50h-2.1V47.9z"/>
	<path d="M-44.8,17.5h2.1v2.1h-2.1V17.5z"/>
	<path d="M-44.8,21.7h2.1v2.1h-2.1V21.7z"/>
	<path d="M-42.7,19.6h2.1v2.1h-2.1V19.6z"/>
	<path d="M-46.9,19.6h2.1v2.1h-2.1V19.6z"/>
	<path d="M-100.4,50h2.1v2.1h-2.1V50z"/>
	<path d="M-100.4,54.2h2.1v2.1h-2.1V54.2z"/>
	<path d="M-98.3,52.1h2.1v2.1h-2.1V52.1z"/>
	<path d="M-102.5,52.1h2.1v2.1h-2.1V52.1z"/>
	<path d="M-100.4,17.5h2.1v2.1h-2.1V17.5z"/>
	<path d="M-100.4,21.7h2.1v2.1h-2.1V21.7z"/>
	<path d="M-98.3,19.6h2.1v2.1h-2.1V19.6z"/>
	<path d="M-102.5,19.6h2.1v2.1h-2.1V19.6z"/>
</g>
<circle class="st0" cx="50" cy="50" r="50"/>
<g id="shop_路_ecommerce_路_shopping_路_buy_路_sale">
	<path d="M79.1,25.5H20.9c-1.8,0-3.2,1.4-3.2,3.2V74c0,0.6,0.5,1.1,1.1,1.1h25c0.4,0.8,0.9,1.5,1.6,2.2c0.4,0.4,0.8,0.9,1.1,1.4
		c0.1,0.6,0.1,1.3,0,1.9c-0.3,1.2-0.2,2.5,0.4,3.6c0.9,0.9,2,1.5,3.3,1.5c0.6,0.1,1.2,0.2,1.8,0.5c0.4,0.4,0.8,0.9,1,1.5
		c0.4,1.2,1.3,2.1,2.5,2.7c0.3,0.1,0.6,0.1,0.9,0.1c0.9-0.1,1.8-0.3,2.6-0.8c0.6-0.3,1.2-0.5,1.8-0.6c0.6,0.1,1.3,0.3,1.8,0.6
		c1,0.7,2.3,0.9,3.5,0.7c1.1-0.5,2-1.5,2.5-2.7c0.3-0.6,0.6-1.1,1-1.5c0.6-0.3,1.2-0.5,1.8-0.5c1.3-0.1,2.4-0.6,3.3-1.5
		c0.6-1.1,0.8-2.4,0.4-3.6c-0.1-0.6-0.1-1.3,0-1.9c0.3-0.5,0.6-1,1.1-1.4c0.7-0.6,1.2-1.3,1.6-2.2h3.4c0.6,0,1.1-0.5,1.1-1.1V28.7
		C82.3,26.9,80.9,25.5,79.1,25.5z M74.7,75.7c-0.7,0.6-1.2,1.4-1.6,2.2c-0.2,0.9-0.2,1.9-0.1,2.8c0.2,0.7,0.2,1.4,0,2
		c-0.3,0.4-1.2,0.5-1.9,0.7c-0.9,0.1-1.8,0.4-2.7,0.9c-0.7,0.6-1.3,1.4-1.7,2.2c-0.4,0.7-0.8,1.5-1.3,1.7c-0.4,0.1-1.2-0.2-1.9-0.6
		c-0.8-0.5-1.8-0.8-2.7-0.8c-1,0.1-1.9,0.4-2.7,0.8c-0.7,0.3-1.5,0.7-1.9,0.6c-0.4-0.2-0.9-0.9-1.3-1.7c-0.4-0.9-0.9-1.6-1.7-2.2
		c-0.8-0.5-1.7-0.8-2.7-0.9c-0.8-0.1-1.7-0.3-1.9-0.7c-0.2-0.7-0.2-1.4,0-2c0.2-0.9,0.2-1.9-0.1-2.8c-0.4-0.9-0.9-1.6-1.6-2.2
		c-0.6-0.6-1.2-1.3-1.2-1.8c0-0.5,0.6-1.2,1.2-1.8c0.7-0.6,1.2-1.4,1.6-2.2c0.2-0.9,0.2-1.9,0.1-2.8c-0.2-0.7-0.2-1.4,0-2
		c0.3-0.4,1.2-0.5,1.9-0.7c0.9-0.1,1.8-0.4,2.7-0.9c0.7-0.6,1.3-1.4,1.7-2.2c0.4-0.7,0.8-1.5,1.3-1.7c0.1,0,0.1,0,0.2,0
		c0.6,0.1,1.2,0.3,1.7,0.6c0.8,0.5,1.8,0.8,2.7,0.8c1-0.1,1.9-0.4,2.7-0.8c0.7-0.3,1.5-0.7,1.9-0.6c0.4,0.2,0.9,0.9,1.3,1.7
		c0.4,0.9,0.9,1.6,1.7,2.2c0.8,0.5,1.7,0.8,2.7,0.9c0.8,0.1,1.7,0.3,1.9,0.7c0.2,0.7,0.2,1.4,0,2c-0.2,0.9-0.2,1.9,0.1,2.8
		c0.4,0.9,0.9,1.6,1.6,2.2c0.6,0.6,1.2,1.3,1.2,1.8C75.9,74.5,75.2,75.1,74.7,75.7z M80.2,72.9h-2.4c-0.4-0.8-0.9-1.5-1.6-2.2
		c-0.4-0.4-0.8-0.9-1.1-1.4c-0.1-0.6-0.1-1.3,0-1.9c0.3-1.2,0.2-2.5-0.4-3.6c-0.9-0.9-2-1.5-3.3-1.5c-0.6-0.1-1.2-0.2-1.8-0.5
		c-0.4-0.4-0.8-0.9-1-1.5c-0.4-1.2-1.3-2.1-2.5-2.7c-1.2-0.2-2.5,0-3.5,0.7c-0.6,0.3-1.2,0.5-1.8,0.6c-0.6-0.1-1.3-0.3-1.8-0.6
		c-1-0.7-2.3-0.9-3.5-0.7c-1.1,0.5-2,1.5-2.5,2.7c-0.3,0.6-0.6,1.1-1,1.5c-0.6,0.3-1.2,0.5-1.8,0.5c-1.3,0.1-2.4,0.6-3.3,1.5
		c-0.6,1.1-0.8,2.4-0.4,3.6c0.1,0.6,0.1,1.3,0,1.9c-0.3,0.5-0.6,1-1.1,1.4c-0.7,0.6-1.2,1.3-1.6,2.2H19.8V36.3h60.3V72.9z
		 M80.2,34.1H19.8v-5.4c0-0.6,0.5-1.1,1.1-1.1h58.2c0.6,0,1.1,0.5,1.1,1.1V34.1z"/>
	<path d="M69.4,75.1v1.1h1.1c0.6,0,1.1,0.5,1.1,1.1c0,0.6-0.5,1.1-1.1,1.1h-2.2c-0.6,0-1.1-0.5-1.1-1.1v-6.5c0-0.6,0.5-1.1,1.1-1.1
		h2.2c0.6,0,1.1,0.5,1.1,1.1c0,0.6-0.5,1.1-1.1,1.1h-1.1v1.1h1.1c0.6,0,1.1,0.5,1.1,1.1c0,0.6-0.5,1.1-1.1,1.1H69.4z"/>
	<path d="M67.2,77.2c0,0.6-0.5,1.1-1.1,1.1H64c-0.6,0-1.1-0.5-1.1-1.1v-6.5c0-0.6,0.5-1.1,1.1-1.1c0.6,0,1.1,0.5,1.1,1.1v5.4h1.1
		C66.8,76.1,67.2,76.6,67.2,77.2z"/>
	<path d="M55.4,75.1v1.1c0,1.2-1,2.2-2.2,2.2h-2.2c-0.6,0-1.1-0.5-1.1-1.1c0-0.6,0.5-1.1,1.1-1.1h2.2v-1.1h-1.1
		c-1.2,0-2.2-1-2.2-2.2v-1.1c0-1.2,1-2.2,2.2-2.2h2.2c0.6,0,1.1,0.5,1.1,1.1c0,0.6-0.5,1.1-1.1,1.1h-2.2v1.1h1.1
		C54.4,72.9,55.4,73.9,55.4,75.1z"/>
	<path d="M62.9,76.9l-2.2-6.5c-0.2-0.4-0.6-0.7-1-0.7h-1.1c-0.5,0-0.9,0.3-1,0.7l-2.2,6.5c-0.2,0.6,0.1,1.2,0.7,1.4
		c0.6,0.2,1.2-0.1,1.4-0.7l0.5-1.4h2.4l0.5,1.4c0.1,0.4,0.6,0.7,1,0.7c0.1,0,0.2,0,0.3-0.1c0.4-0.1,0.7-0.6,0.7-1
		C62.9,77.1,62.9,77,62.9,76.9z M58.7,74l0.5-1.4l0.5,1.4H58.7z"/>
	<path d="M46.8,44.9h12.9c0.6,0,1.1-0.5,1.1-1.1c0-0.6-0.5-1.1-1.1-1.1H46.8c-0.6,0-1.1,0.5-1.1,1.1C45.7,44.4,46.2,44.9,46.8,44.9z
		"/>
	<path d="M46.8,49.2h10.8c0.6,0,1.1-0.5,1.1-1.1c0-0.6-0.5-1.1-1.1-1.1H46.8c-0.6,0-1.1,0.5-1.1,1.1C45.7,48.7,46.2,49.2,46.8,49.2z
		"/>
	<path d="M46.8,53.5h7.5c0.6,0,1.1-0.5,1.1-1.1c0-0.6-0.5-1.1-1.1-1.1h-7.5c-0.6,0-1.1,0.5-1.1,1.1C45.7,53,46.2,53.5,46.8,53.5z"/>
	<path d="M38.2,62.1H27.4c-0.6,0-1.1,0.5-1.1,1.1c0,0.6,0.5,1.1,1.1,1.1h10.8c0.6,0,1.1-0.5,1.1-1.1C39.2,62.6,38.7,62.1,38.2,62.1z
		"/>
	<path d="M29.5,29.8h-1.1c-0.6,0-1.1,0.5-1.1,1.1s0.5,1.1,1.1,1.1h1.1c0.6,0,1.1-0.5,1.1-1.1S30.1,29.8,29.5,29.8z"/>
	<path d="M24.1,29.8h-1.1c-0.6,0-1.1,0.5-1.1,1.1s0.5,1.1,1.1,1.1h1.1c0.6,0,1.1-0.5,1.1-1.1S24.7,29.8,24.1,29.8z"/>
	<path d="M34.9,29.8h-1.1c-0.6,0-1.1,0.5-1.1,1.1s0.5,1.1,1.1,1.1h1.1c0.6,0,1.1-0.5,1.1-1.1S35.5,29.8,34.9,29.8z"/>
	<path d="M23.3,48.1l3-0.7v9.4c0,0.6,0.5,1.1,1.1,1.1h10.8c0.6,0,1.1-0.5,1.1-1.1v-9.4l3,0.7c0.6,0.1,1.2-0.2,1.3-0.8
		c0-0.1,0-0.2,0-0.3v-4.3c0-0.5-0.3-0.9-0.8-1l-4.3-1.1c-0.1,0-0.2,0-0.3,0H36c-0.6,0-1.1,0.5-1.1,1.1c0,1.2-1,2.2-2.2,2.2
		c-1.2,0-2.2-1-2.2-2.2c0-0.6-0.5-1.1-1.1-1.1h-2.2c-0.1,0-0.2,0-0.3,0l-4.3,1.1c-0.5,0.1-0.8,0.6-0.8,1V47c0,0.6,0.5,1.1,1.1,1.1
		C23.2,48.1,23.2,48.1,23.3,48.1z M24.1,43.6l3.3-0.8h1.1c0.6,2.3,2.9,3.7,5.2,3.1c1.5-0.4,2.7-1.6,3.1-3.1H38l3.3,0.8v2.1l-3-0.7
		c-0.6-0.1-1.2,0.2-1.3,0.8c0,0.1,0,0.2,0,0.3v9.7h-8.6V46c0-0.6-0.5-1.1-1.1-1.1c-0.1,0-0.2,0-0.3,0l-3,0.7V43.6z"/>
	<path d="M64,53.5h10.8c0.6,0,1.1-0.5,1.1-1.1v-8.6c0-0.6-0.5-1.1-1.1-1.1H64c-0.6,0-1.1,0.5-1.1,1.1v8.6C62.9,53,63.4,53.5,64,53.5
		z M65.1,44.9h8.6v6.5h-8.6V44.9z"/>
</g>
</svg>
