<?xml version="1.0" encoding="utf-8"?>
<!-- Generator: Adobe Illustrator 25.0.1, SVG Export Plug-In . SVG Version: 6.00 Build 0)  -->
<svg version="1.1" id="Layer_1" xmlns="http://www.w3.org/2000/svg" xmlns:xlink="http://www.w3.org/1999/xlink" x="0px" y="0px"
	 viewBox="0 0 100 100" style="enable-background:new 0 0 100 100;" xml:space="preserve">
<style type="text/css">
	.st0{fill:#FFFFFF;}
	.st1{fill:#212121;}
</style>
<circle class="st0" cx="50" cy="50" r="50"/>
<g>
	<g>
		<g>
			<path class="st1" d="M78.1,73.4c2.4,0,4.4-2,4.4-4.4V23.8c0-3.5-2.8-6.3-6.3-6.3H23.8c-3.5,0-6.3,2.8-6.3,6.3V69
				c0,2.4,2,4.4,4.4,4.4h1.4V80h-4.6c-0.7,0-1.3,0.6-1.3,1.3s0.6,1.3,1.3,1.3h62.5c0.7,0,1.3-0.6,1.3-1.3S81.9,80,81.2,80h-4.6v-6.5
				H78.1z M20,23.8c0-2.1,1.7-3.8,3.8-3.8h52.3c2.1,0,3.8,1.7,3.8,3.8v2.8H20.2c0,0-0.1,0-0.1,0V23.8z M31.5,80h-5.6V68.5h5.6V80z
				 M45.7,80h-5.6V54.5h5.6V80z M59.9,80h-5.6V65.2h5.6V80z M75.4,50.1h-8.1c-0.7,0-1.3,0.6-1.3,1.3v6.4c0,0.7,0.6,1.3,1.3,1.3
				s1.3-0.6,1.3-1.3v-5.1h5.6V80h-5.6V66.3c0-0.7-0.6-1.3-1.3-1.3S66,65.6,66,66.3V80h-3.6V64c0-0.7-0.6-1.3-1.3-1.3H53
				c-0.7,0-1.3,0.6-1.3,1.3v16h-3.6V53.2c0-0.7-0.6-1.3-1.3-1.3h-8.1c-0.7,0-1.3,0.6-1.3,1.3V80H34V67.3c0-0.7-0.6-1.3-1.3-1.3h-8.1
				c-0.7,0-1.3,0.6-1.3,1.3v3.6h-1.4c-1,0-1.9-0.8-1.9-1.9V29.2c0,0,0.1,0,0.1,0H80V69c0,1-0.8,1.9-1.9,1.9h-1.4V51.3
				C76.7,50.6,76.1,50.1,75.4,50.1z"/>
		</g>
	</g>
	<g>
		<g>
			<path class="st1" d="M74.4,22.1H45.7c-0.7,0-1.3,0.6-1.3,1.3s0.6,1.3,1.3,1.3h28.7c0.7,0,1.3-0.6,1.3-1.3S75.1,22.1,74.4,22.1z"
				/>
		</g>
	</g>
	<g>
		<g>
			<path class="st1" d="M31.6,22.4c-0.2-0.2-0.6-0.4-0.9-0.4s-0.7,0.1-0.9,0.4c-0.2,0.2-0.4,0.6-0.4,0.9s0.1,0.7,0.4,0.9
				c0.2,0.2,0.6,0.4,0.9,0.4s0.7-0.1,0.9-0.4c0.2-0.2,0.4-0.6,0.4-0.9S31.8,22.7,31.6,22.4z"/>
		</g>
	</g>
	<g>
		<g>
			<path class="st1" d="M26.5,22.4c-0.2-0.2-0.6-0.4-0.9-0.4s-0.7,0.1-0.9,0.4c-0.2,0.2-0.4,0.6-0.4,0.9s0.1,0.7,0.4,0.9
				c0.2,0.2,0.6,0.4,0.9,0.4s0.7-0.1,0.9-0.4c0.2-0.2,0.4-0.6,0.4-0.9S26.8,22.7,26.5,22.4z"/>
		</g>
	</g>
	<g>
		<g>
			<path class="st1" d="M36.7,22.4c-0.2-0.2-0.6-0.4-0.9-0.4c-0.3,0-0.7,0.1-0.9,0.4c-0.2,0.2-0.4,0.6-0.4,0.9s0.1,0.7,0.4,0.9
				c0.2,0.2,0.6,0.4,0.9,0.4s0.7-0.1,0.9-0.4c0.2-0.2,0.4-0.6,0.4-0.9S36.9,22.7,36.7,22.4z"/>
		</g>
	</g>
	<g>
		<g>
			<path class="st1" d="M68.2,61.4c-0.2-0.2-0.6-0.4-0.9-0.4s-0.7,0.1-0.9,0.4c-0.2,0.2-0.4,0.6-0.4,0.9c0,0.3,0.1,0.7,0.4,0.9
				c0.2,0.2,0.6,0.4,0.9,0.4s0.7-0.1,0.9-0.4c0.2-0.2,0.4-0.6,0.4-0.9C68.5,61.9,68.4,61.6,68.2,61.4z"/>
		</g>
	</g>
	<g>
		<g>
			<path class="st1" d="M71.3,34.8c-2.5,0-4.6,2.1-4.6,4.6c0,1,0.3,1.9,0.9,2.7l-8.4,8.4c-0.7-0.4-1.4-0.6-2.2-0.6
				c-0.7,0-1.4,0.2-2,0.5l-8.8-8.8c0.4-0.7,0.6-1.4,0.6-2.2c0-2.5-2.1-4.6-4.6-4.6s-4.6,2.1-4.6,4.6c0,0.9,0.3,1.7,0.7,2.4l-7.5,7.5
				c-0.7-0.4-1.4-0.6-2.2-0.6c-2.5,0-4.6,2.1-4.6,4.6s2.1,4.6,4.6,4.6s4.6-2.1,4.6-4.6c0-0.8-0.2-1.6-0.6-2.2l7.6-7.6
				c0.6,0.3,1.3,0.5,2,0.5c0.8,0,1.6-0.2,2.2-0.6l8.7,8.7c-0.4,0.7-0.7,1.5-0.7,2.4c0,2.5,2.1,4.6,4.6,4.6c2.5,0,4.6-2.1,4.6-4.6
				c0-0.8-0.2-1.6-0.6-2.2l8.7-8.7c0.5,0.2,1.1,0.3,1.7,0.3c2.5,0,4.6-2.1,4.6-4.6C75.9,36.8,73.8,34.8,71.3,34.8z M28.6,55.3
				c-1.1,0-2-0.9-2-2s0.9-2,2-2c1.1,0,2,0.9,2,2S29.7,55.3,28.6,55.3z M42.2,41.4c-1.1,0-2-0.9-2-2c0-1.1,0.9-2,2-2s2,0.9,2,2
				C44.2,40.4,43.3,41.4,42.2,41.4z M57,56.5c-1.1,0-2-0.9-2-2c0-1.1,0.9-2,2-2s2,0.9,2,2C59,55.6,58.1,56.5,57,56.5z M71.3,41.4
				c-1.1,0-2-0.9-2-2c0-1.1,0.9-2,2-2s2,0.9,2,2C73.4,40.4,72.4,41.4,71.3,41.4z"/>
		</g>
	</g>
	<g>
		<g>
			<path class="st1" d="M36.3,33.9c-0.2-0.2-0.6-0.4-0.9-0.4c-0.3,0-0.7,0.1-0.9,0.4c-0.2,0.2-0.4,0.6-0.4,0.9
				c0,0.3,0.1,0.7,0.4,0.9c0.2,0.2,0.6,0.4,0.9,0.4c0.3,0,0.7-0.1,0.9-0.4c0.2-0.2,0.4-0.6,0.4-0.9C36.7,34.4,36.6,34.1,36.3,33.9z"
				/>
		</g>
	</g>
	<g>
		<g>
			<path class="st1" d="M30.7,33.5h-6.1c-0.7,0-1.3,0.6-1.3,1.3s0.6,1.3,1.3,1.3h6.1c0.7,0,1.3-0.6,1.3-1.3
				C32,34.1,31.4,33.5,30.7,33.5z"/>
		</g>
	</g>
	<g>
		<g>
			<path class="st1" d="M30.7,39.6h-6.1c-0.7,0-1.3,0.6-1.3,1.3c0,0.7,0.6,1.3,1.3,1.3h6.1c0.7,0,1.3-0.6,1.3-1.3
				C32,40.2,31.4,39.6,30.7,39.6z"/>
		</g>
	</g>
</g>
</svg>
