<?xml version="1.0" encoding="utf-8"?>
<!-- Generator: Adobe Illustrator 26.2.1, SVG Export Plug-In . SVG Version: 6.00 Build 0)  -->
<svg version="1.1" id="a" xmlns="http://www.w3.org/2000/svg" xmlns:xlink="http://www.w3.org/1999/xlink" x="0px" y="0px"
	 viewBox="0 0 25 25" style="enable-background:new 0 0 25 25;" xml:space="preserve">
<style type="text/css">
	.st0{fill:#A179DC;}
	.st1{fill:#280068;}
	.st2{fill:#390091;}
	.st3{fill:#FFFFFF;}
</style>
<g>
	<path class="st0" d="M23.62,7.35c0-0.42-0.09-0.79-0.27-1.11c-0.18-0.31-0.45-0.58-0.8-0.78c-2.96-1.71-5.93-3.41-8.89-5.12
		c-0.8-0.46-1.57-0.44-2.36,0.02c-1.18,0.7-7.08,4.08-8.84,5.09C1.73,5.87,1.38,6.52,1.38,7.35c0,3.43,0,6.87,0,10.3
		c0,0.41,0.09,0.78,0.26,1.09c0.18,0.32,0.45,0.59,0.82,0.81c1.76,1.02,7.66,4.4,8.84,5.09c0.79,0.47,1.57,0.48,2.36,0.02
		c2.96-1.71,5.92-3.41,8.89-5.12c0.37-0.21,0.64-0.48,0.82-0.81c0.17-0.31,0.26-0.68,0.26-1.09C23.62,17.65,23.62,10.78,23.62,7.35"
		/>
	<path class="st1" d="M12.53,12.47l-10.9,6.27c0.18,0.32,0.45,0.59,0.82,0.81c1.76,1.02,7.66,4.4,8.84,5.09
		c0.79,0.47,1.57,0.48,2.36,0.02c2.96-1.71,5.92-3.41,8.89-5.12c0.37-0.21,0.64-0.48,0.82-0.81L12.53,12.47"/>
	<path class="st2" d="M23.62,7.35c0-0.42-0.09-0.79-0.27-1.11l-10.81,6.23l10.83,6.27c0.17-0.31,0.26-0.68,0.26-1.09
		C23.62,17.65,23.62,10.78,23.62,7.35"/>
	<path class="st3" d="M18.95,10.12v1.17h1.17v-1.17h0.59v1.17h1.17v0.59h-1.17v1.17h1.17v0.59h-1.17v1.17h-0.59v-1.17h-1.17v1.17
		h-0.59v-1.17h-1.17v-0.59h1.17v-1.17h-1.17v-0.59h1.17v-1.17H18.95z M20.12,11.88h-1.17v1.17h1.17V11.88z"/>
	<path class="st3" d="M12.56,4.23c3.06,0,5.73,1.66,7.16,4.13L19.7,8.34l-3.6,2.07c-0.71-1.2-2.01-2.01-3.5-2.03l-0.05,0
		c-2.27,0-4.12,1.84-4.12,4.12c0,0.74,0.2,1.44,0.54,2.04c0.71,1.24,2.04,2.07,3.57,2.07c1.54,0,2.88-0.85,3.59-2.1l-0.02,0.03
		l3.59,2.08c-1.41,2.45-4.05,4.1-7.07,4.14l-0.09,0c-3.07,0-5.75-1.67-7.17-4.15c-0.7-1.21-1.1-2.62-1.1-4.11
		C4.29,7.93,7.99,4.23,12.56,4.23z"/>
</g>
</svg>
