<?xml version="1.0" encoding="UTF-8"?><svg id="a" xmlns="http://www.w3.org/2000/svg" viewBox="0 0 25 25"><path d="M20.79,0H4.13C1.83,0-.05,1.86-.05,4.18V20.82c0,2.31,1.88,4.17,4.17,4.17H20.78c2.31,0,4.17-1.88,4.17-4.17V4.18C24.97,1.86,23.1,0,20.79,0Zm-.37,19.14c0,.73-.6,1.31-1.31,1.31H5.82c-.73,0-1.31-.6-1.31-1.31V5.87c0-.73,.6-1.31,1.31-1.31h13.27c.73,0,1.31,.6,1.31,1.31v13.27h.02Zm-10.63-3.24c-.42,0-.77-.33-.77-.77v-5.29c0-.42,.33-.77,.77-.77h5.31c.42,0,.77,.33,.77,.77v5.31c0,.42-.33,.77-.77,.77l-5.31-.02h0Z"/></svg>