<svg id="Layer_1" data-name="Layer 1" xmlns="http://www.w3.org/2000/svg" xmlns:xlink="http://www.w3.org/1999/xlink" viewBox="0 0 25 25"><defs><style>.cls-1{fill:url(#linear-gradient);}</style><linearGradient id="linear-gradient" x1="-128.54" y1="-46.14" x2="-128.54" y2="-26.07" gradientTransform="matrix(0.92, -0.39, 0.43, 1, 146.62, -0.81)" gradientUnits="userSpaceOnUse"><stop offset="0" stop-color="#da2fb6"/><stop offset="1" stop-color="#fe1876"/></linearGradient></defs><path class="cls-1" d="M20.6,22.53c1.83,0,2.5-.79,2.5-2.71V16.06a3.61,3.61,0,0,1,1.71-3.3.38.38,0,0,0,.13-.54.33.33,0,0,0-.13-.13A3.89,3.89,0,0,1,23.1,8.84V5.15c0-2.08-.57-2.68-2.39-2.68H4.29c-1.82,0-2.39.6-2.39,2.68V8.84A3.86,3.86,0,0,1,.19,12.09a.38.38,0,0,0-.13.54.33.33,0,0,0,.13.13,3.56,3.56,0,0,1,1.71,3.3v3.76c0,1.92.67,2.71,2.5,2.71ZM12.46,19.1a6.66,6.66,0,0,1-4.71-1.75.89.89,0,0,1-.3-.7.83.83,0,0,1,.2-.59l.4-.52a.85.85,0,0,1,.67-.37,1.55,1.55,0,0,1,.83.3,5.52,5.52,0,0,0,3.12.93c.92,0,1.66-.39,1.66-1.18,0-2-6.81-.92-6.81-5.51,0-2.46,2-3.84,4.63-3.84A7.72,7.72,0,0,1,16.36,7a1.07,1.07,0,0,1,.42.84,1,1,0,0,1-.17.56l-.3.45a1,1,0,0,1-.79.45,1.67,1.67,0,0,1-.7-.2,5.32,5.32,0,0,0-2.5-.59c-1,0-1.58.54-1.58,1.09,0,2.1,6.81,1,6.81,5.42C17.55,17.55,15.54,19.1,12.46,19.1Z"/></svg>