<?xml version="1.0" encoding="utf-8"?>
<!-- Generator: Adobe Illustrator 26.2.0, SVG Export Plug-In . SVG Version: 6.00 Build 0)  -->
<svg version="1.1" id="Layer_1" xmlns="http://www.w3.org/2000/svg" xmlns:xlink="http://www.w3.org/1999/xlink" x="0px" y="0px"
	 viewBox="0 0 25 25" style="enable-background:new 0 0 25 25;" xml:space="preserve">
<style type="text/css">
	.st0{fill:#330000;}
	.st1{fill:#FF9A00;}
	.st2{fill:#001E36;}
	.st3{fill:#31A8FF;}
	.st4{fill:#34313F;}
	.st5{fill:#95BF46;}
	.st6{fill:#5E8E3E;}
	.st7{fill:#FFFFFF;}
	.st8{fill:#9B5C8F;}
	.st9{clip-path:url(#SVGID_00000133506886388319945810000009148759690800259713_);}
	.st10{fill:#00749A;}
	.st11{fill:#F0DB4F;}
	.st12{fill:#323330;}
	.st13{fill:url(#SVGID_00000155122059605459845820000003772684536446220220_);}
	.st14{fill:url(#SVGID_00000026863179960199937420000007000821470291584659_);}
	.st15{fill:#61DAFB;}
	.st16{fill:#0078D7;stroke:#0078D7;stroke-width:0.25;stroke-linecap:round;stroke-linejoin:round;stroke-miterlimit:10;}
	.st17{fill:#FF2D20;}
	.st18{fill:url(#SVGID_00000116199515203087678560000014501686403596182200_);}
	.st19{fill:url(#SVGID_00000158030078485539875850000008239223590200427154_);}
	.st20{fill:#49021F;}
	.st21{fill:#FF3366;}
	.st22{fill:url(#SVGID_00000178896847098188203360000005364037119068201372_);}
	.st23{fill:url(#SVGID_00000170998079022169012360000005688625488216171180_);}
	.st24{fill:url(#SVGID_00000039103564032103998440000017010414509954845573_);}
	.st25{fill:url(#SVGID_00000031893818685538944840000000419830301672150159_);}
	.st26{fill:url(#SVGID_00000063604158110269780880000012476392664901913519_);}
	.st27{fill:url(#SVGID_00000046318489800032384040000006941355415079586959_);}
	.st28{fill:#40BA58;}
</style>
<g id="layer1" transform="translate(0,-917.86216)">
	<g id="g9329" transform="translate(-168.19628,150.68566)">
		<path id="path9296" class="st28" d="M189.48,774.16h-20.21c-0.59,0-1.07,0.48-1.07,1.07v8.9c0,0.59,0.48,1.07,1.07,1.07h20.21
			c0.4,0,0.77-0.22,0.95-0.58l2.65-4.45c0.16-0.31,0.16-0.67,0-0.98l-2.65-4.45C190.24,774.38,189.88,774.16,189.48,774.16"/>
		<path id="path9298" class="st7" d="M191.42,779.68c0,0.3-0.24,0.53-0.53,0.53s-0.53-0.24-0.53-0.53c0-0.29,0.24-0.53,0.53-0.53
			S191.42,779.38,191.42,779.68"/>
		<path id="path9300" class="st7" d="M173.43,778.54h0.79c0.05,0,0.09,0.06,0.06,0.1l-2.05,4.21c-0.04,0.08-0.15,0.08-0.19,0
			l-2.06-4.21c-0.02-0.05,0.01-0.1,0.06-0.1h0.79c0.03,0,0.05,0.02,0.06,0.04l1.24,2.68l1.22-2.68
			C173.37,778.56,173.4,778.54,173.43,778.54"/>
		<path id="path9302" class="st7" d="M178,781.52l0.53,0.31c0.03,0.02,0.05,0.07,0.02,0.1c-0.48,0.75-1.15,1.12-2.02,1.12
			c-0.63,0-1.15-0.23-1.54-0.69c-0.38-0.45-0.57-1.05-0.57-1.8c0-0.27,0.06-0.55,0.17-0.84c0.21-0.54,0.57-0.92,1.07-1.13
			c0.26-0.11,0.55-0.17,0.87-0.17c0.91,0,1.53,0.38,1.84,1.15c0.15,0.36,0.22,0.7,0.2,1.03l-0.01,0.19c0,0.04-0.03,0.07-0.07,0.07
			h-3.22c0,0.41,0.12,0.75,0.36,1.02c0.25,0.28,0.58,0.43,0.99,0.43c0.51,0,1.01-0.33,1.27-0.77
			C177.93,781.51,177.97,781.5,178,781.52 M177.76,780.23c-0.05-0.32-0.17-0.58-0.37-0.78c-0.21-0.21-0.48-0.31-0.79-0.31
			c-0.34,0-0.62,0.1-0.85,0.29c-0.23,0.19-0.37,0.46-0.43,0.8H177.76"/>
		<path id="path9304" class="st7" d="M179.43,778.54h0.69c0.04,0,0.07,0.03,0.07,0.07v0.55c0.32-0.49,0.77-0.74,1.35-0.74
			c1.01,0,1.52,0.62,1.52,1.86v2.54c0,0.04-0.03,0.07-0.07,0.07h-0.69c-0.04,0-0.07-0.03-0.07-0.07v-2.56c0-0.37-0.07-0.64-0.2-0.81
			c-0.15-0.2-0.4-0.29-0.76-0.29c-0.72,0-1.07,0.45-1.07,1.36v2.31c0,0.04-0.03,0.07-0.07,0.07h-0.69c-0.04,0-0.07-0.03-0.07-0.07
			v-4.21C179.36,778.58,179.39,778.54,179.43,778.54"/>
		<path id="path9306" class="st7" d="M187.45,776.28h0.69c0.04,0,0.07,0.03,0.07,0.07v6.47c0,0.04-0.03,0.07-0.07,0.07h-0.69
			c-0.04,0-0.07-0.03-0.07-0.07v-0.64c-0.38,0.57-0.87,0.86-1.49,0.86c-0.68,0-1.22-0.26-1.6-0.77c-0.34-0.45-0.51-0.96-0.51-1.52
			c0-0.44,0.08-0.83,0.25-1.19c0.19-0.39,0.46-0.69,0.81-0.89c0.31-0.18,0.65-0.26,1.01-0.26c0.3,0,0.59,0.08,0.88,0.24
			c0.29,0.16,0.5,0.37,0.64,0.63v-2.95C187.38,776.31,187.41,776.28,187.45,776.28 M187.28,780.75c0-0.63-0.22-1.07-0.65-1.34
			c-0.21-0.13-0.46-0.19-0.73-0.19c-0.56,0-0.95,0.27-1.17,0.82c-0.1,0.23-0.14,0.48-0.14,0.73c0,0.52,0.18,0.93,0.54,1.24
			c0.2,0.17,0.45,0.25,0.76,0.25c0.6,0,1.02-0.26,1.25-0.78C187.23,781.24,187.28,781,187.28,780.75"/>
	</g>
</g>
</svg>
