<?xml version="1.0" encoding="utf-8"?>
<!-- Generator: Adobe Illustrator 26.2.1, SVG Export Plug-In . SVG Version: 6.00 Build 0)  -->
<svg version="1.1" id="a" xmlns="http://www.w3.org/2000/svg" xmlns:xlink="http://www.w3.org/1999/xlink" x="0px" y="0px"
	 viewBox="0 0 25 25" style="enable-background:new 0 0 25 25;" xml:space="preserve">
<style type="text/css">
	.st0{fill-rule:evenodd;clip-rule:evenodd;fill:#0EA5E9;}
</style>
<path class="st0" d="M6.2,10c0.8-3.3,2.9-5,6.2-5c5,0,5.6,3.8,8.1,4.4c1.7,0.4,3.1-0.2,4.4-1.9c-0.8,3.3-2.9,5-6.2,5
	c-5,0-5.6-3.8-8.1-4.4C9,7.7,7.5,8.3,6.2,10z M0,17.5c0.8-3.3,2.9-5,6.2-5c5,0,5.6,3.8,8.1,4.4c1.7,0.4,3.1-0.2,4.4-1.9
	c-0.8,3.3-2.9,5-6.2,5c-5,0-5.6-3.8-8.1-4.4C2.7,15.2,1.3,15.8,0,17.5z"/>
</svg>
