<?xml version="1.0" encoding="utf-8"?>
<!-- Generator: Adobe Illustrator 26.2.1, SVG Export Plug-In . SVG Version: 6.00 Build 0)  -->
<svg version="1.1" id="a" xmlns="http://www.w3.org/2000/svg" xmlns:xlink="http://www.w3.org/1999/xlink" x="0px" y="0px"
	 viewBox="0 0 25 25" style="enable-background:new 0 0 25 25;" xml:space="preserve">
<style type="text/css">
	.st0{fill:#336791;}
	.st1{fill:#FFFFFF;}
</style>
<g>
	<path d="M24.56,14.98c-0.15-0.44-0.53-0.75-1.02-0.82c-0.23-0.03-0.5-0.02-0.81,0.05c-0.55,0.11-0.96,0.16-1.26,0.17
		c1.12-1.9,2.04-4.06,2.56-6.1c0.85-3.29,0.4-4.79-0.14-5.47C22.49,1,20.44,0.03,17.97,0c-1.32-0.02-2.48,0.24-3.08,0.43
		c-0.56-0.1-1.17-0.15-1.8-0.17c-1.19-0.02-2.24,0.24-3.14,0.77c-0.5-0.17-1.3-0.41-2.22-0.56C5.55,0.13,3.8,0.41,2.52,1.31
		C0.98,2.4,0.26,4.3,0.39,6.96c0.04,0.84,0.51,3.41,1.26,5.84c0.43,1.4,0.88,2.56,1.35,3.45c0.67,1.26,1.38,2.01,2.18,2.28
		c0.45,0.15,1.27,0.25,2.12-0.46c0.11,0.13,0.25,0.26,0.45,0.38C8,18.6,8.3,18.72,8.59,18.8c1.08,0.27,2.09,0.2,2.95-0.18
		c0.01,0.15,0.01,0.3,0.01,0.43c0.01,0.2,0.01,0.41,0.02,0.59c0.05,1.27,0.14,2.26,0.39,2.95c0.01,0.04,0.03,0.1,0.05,0.16
		c0.13,0.39,0.34,1.05,0.88,1.56c0.56,0.53,1.24,0.69,1.87,0.69c0.31,0,0.61-0.04,0.87-0.1c0.93-0.2,1.99-0.5,2.76-1.6
		c0.72-1.03,1.08-2.58,1.14-5.03c0.01-0.07,0.02-0.14,0.02-0.2l0.02-0.13l0.17,0.02l0.04,0c0.95,0.04,2.11-0.16,2.82-0.49
		C23.18,17.22,24.99,16.26,24.56,14.98"/>
	<path class="st0" d="M22.94,15.23c-2.82,0.58-3.02-0.37-3.02-0.37c2.98-4.42,4.23-10.04,3.15-11.41c-2.93-3.75-8.01-1.98-8.1-1.93
		l-0.03,0c-0.56-0.12-1.18-0.18-1.88-0.2c-1.28-0.02-2.25,0.33-2.98,0.89c0,0-9.06-3.73-8.64,4.69C1.53,8.7,4.01,20.47,6.97,16.91
		c1.08-1.3,2.13-2.4,2.13-2.4c0.52,0.34,1.14,0.52,1.79,0.46l0.05-0.04c-0.02,0.16-0.01,0.32,0.02,0.51c-0.76,0.85-0.54,1-2.06,1.31
		c-1.54,0.32-0.64,0.88-0.04,1.03c0.72,0.18,2.37,0.43,3.5-1.14l-0.04,0.18c0.3,0.24,0.51,1.56,0.47,2.75
		c-0.04,1.19-0.06,2.01,0.18,2.65c0.24,0.64,0.47,2.08,2.47,1.65c1.67-0.36,2.54-1.29,2.66-2.84c0.09-1.1,0.28-0.94,0.29-1.92
		l0.16-0.47c0.18-1.49,0.03-1.98,1.06-1.75l0.25,0.02c0.76,0.03,1.75-0.12,2.33-0.39C23.43,15.94,24.17,14.97,22.94,15.23
		L22.94,15.23"/>
	<path class="st1" d="M10.61,7.71c-0.25-0.04-0.48,0-0.6,0.09C9.94,7.84,9.92,7.9,9.92,7.94c-0.01,0.1,0.06,0.22,0.1,0.28
		c0.13,0.17,0.31,0.29,0.5,0.31c0.03,0,0.05,0.01,0.08,0.01c0.31,0,0.59-0.24,0.61-0.42C11.24,7.9,10.92,7.75,10.61,7.71
		 M19.04,7.71c-0.02-0.17-0.33-0.22-0.63-0.18c-0.29,0.04-0.58,0.17-0.55,0.35c0.02,0.14,0.26,0.37,0.55,0.37
		c0.02,0,0.05,0,0.07-0.01c0.19-0.03,0.34-0.15,0.4-0.22C18.99,7.91,19.05,7.79,19.04,7.71"/>
	<path class="st1" d="M23.88,15.16c-0.11-0.33-0.45-0.43-1.03-0.31c-1.71,0.35-2.32,0.11-2.52-0.04c1.33-2.02,2.42-4.47,3.01-6.75
		c0.28-1.08,0.43-2.09,0.45-2.9c0.01-0.9-0.14-1.56-0.45-1.96c-1.27-1.63-3.14-2.5-5.4-2.52c-1.55-0.02-2.87,0.38-3.12,0.49
		c-0.54-0.13-1.12-0.22-1.76-0.23c-1.17-0.02-2.18,0.26-3.01,0.83c-0.36-0.14-1.3-0.46-2.45-0.64C5.61,0.8,4.03,1.04,2.91,1.84
		C1.57,2.79,0.95,4.49,1.07,6.89c0.04,0.81,0.5,3.29,1.23,5.67c0.96,3.13,1.99,4.9,3.09,5.27c0.13,0.04,0.28,0.07,0.44,0.07
		c0.4,0,0.89-0.18,1.4-0.79c0.62-0.74,1.26-1.47,1.92-2.18c0.43,0.23,0.9,0.36,1.38,0.37c0,0.01,0,0.03,0,0.04
		c-0.08,0.1-0.16,0.2-0.24,0.3c-0.33,0.42-0.4,0.51-1.48,0.73c-0.31,0.06-1.12,0.23-1.13,0.8c-0.01,0.62,0.96,0.88,1.07,0.91
		c0.39,0.1,0.76,0.14,1.11,0.14c0.86,0,1.62-0.28,2.23-0.83c-0.02,2.22,0.07,4.41,0.34,5.08c0.22,0.55,0.75,1.88,2.44,1.88
		c0.25,0,0.52-0.03,0.82-0.09c1.76-0.38,2.52-1.15,2.82-2.87c0.16-0.92,0.43-3.1,0.56-4.28c0.27,0.08,0.62,0.12,0.99,0.12
		c0.78,0,1.68-0.17,2.25-0.43C22.94,16.51,24.08,15.79,23.88,15.16L23.88,15.16z M19.69,7.23c-0.01,0.35-0.05,0.66-0.1,0.99
		c-0.05,0.35-0.11,0.72-0.12,1.16c-0.01,0.43,0.04,0.88,0.09,1.31c0.11,0.88,0.21,1.78-0.2,2.67c-0.07-0.12-0.13-0.25-0.19-0.38
		c-0.05-0.13-0.16-0.33-0.32-0.61c-0.61-1.09-2.03-3.64-1.3-4.68C17.76,7.38,18.31,7.06,19.69,7.23L19.69,7.23z M18.01,1.37
		c2.03,0.04,3.63,0.8,4.76,2.25c0.87,1.11-0.09,6.17-2.86,10.54c-0.03-0.04-0.06-0.07-0.08-0.11l-0.04-0.04
		c0.72-1.18,0.58-2.35,0.45-3.39c-0.05-0.43-0.1-0.83-0.09-1.21c0.01-0.4,0.07-0.74,0.12-1.08C20.34,7.92,20.4,7.5,20.39,7
		c0.01-0.05,0.02-0.11,0.01-0.19C20.35,6.33,19.8,4.9,18.69,3.6c-0.61-0.71-1.5-1.5-2.71-2.04C16.5,1.45,17.21,1.35,18.01,1.37
		L18.01,1.37z M6.68,16.66c-0.56,0.67-0.95,0.54-1.07,0.5c-0.83-0.28-1.79-2.03-2.64-4.81c-0.73-2.4-1.16-4.82-1.2-5.5
		C1.66,4.71,2.18,3.21,3.31,2.41C5.16,1.1,8.18,1.89,9.4,2.28C9.38,2.3,9.37,2.32,9.35,2.33C7.35,4.35,7.4,7.8,7.4,8.01
		c0,0.08,0.01,0.2,0.02,0.35c0.03,0.58,0.1,1.66-0.07,2.88c-0.16,1.14,0.19,2.25,0.96,3.05c0.08,0.08,0.16,0.16,0.25,0.23
		C8.21,14.89,7.47,15.7,6.68,16.66L6.68,16.66z M8.81,13.81c-0.62-0.65-0.9-1.55-0.77-2.47c0.18-1.29,0.11-2.41,0.08-3.02
		C8.11,8.24,8.11,8.16,8.11,8.1c0.29-0.26,1.64-0.98,2.61-0.76c0.44,0.1,0.71,0.4,0.82,0.92c0.58,2.67,0.08,3.78-0.33,4.67
		c-0.08,0.18-0.16,0.36-0.23,0.54l-0.05,0.14c-0.13,0.35-0.25,0.68-0.33,0.99C9.94,14.6,9.3,14.32,8.81,13.81L8.81,13.81z
		 M8.91,17.41c-0.19-0.05-0.37-0.13-0.47-0.2c0.08-0.04,0.24-0.09,0.5-0.15c1.27-0.26,1.46-0.44,1.89-0.99
		c0.1-0.12,0.21-0.27,0.36-0.44l0,0c0.23-0.26,0.33-0.21,0.52-0.13c0.15,0.06,0.3,0.26,0.36,0.47c0.03,0.1,0.06,0.29-0.04,0.44
		C11.15,17.66,9.85,17.64,8.91,17.41z M15.54,23.57c-1.55,0.33-2.1-0.46-2.46-1.36c-0.23-0.58-0.35-3.21-0.27-6.12
		c0-0.04,0-0.08-0.02-0.11c-0.01-0.07-0.02-0.14-0.04-0.21c-0.12-0.42-0.42-0.78-0.77-0.92c-0.14-0.06-0.4-0.17-0.71-0.09
		c0.07-0.27,0.18-0.58,0.3-0.91l0.05-0.14c0.06-0.16,0.13-0.32,0.21-0.49c0.42-0.94,1-2.22,0.37-5.11c-0.23-1.08-1.02-1.61-2.2-1.49
		C9.3,6.69,8.65,6.98,8.33,7.15c-0.07,0.04-0.13,0.07-0.19,0.1c0.09-1.09,0.43-3.13,1.71-4.42c0.81-0.81,1.88-1.21,3.19-1.19
		C15.61,1.67,17.26,3,18.2,4.1C19,5.05,19.44,6,19.61,6.52c-1.31-0.13-2.19,0.12-2.64,0.77c-0.98,1.4,0.54,4.12,1.26,5.42
		c0.13,0.24,0.25,0.45,0.29,0.53c0.24,0.57,0.54,0.96,0.77,1.24c0.07,0.09,0.14,0.17,0.19,0.24c-0.4,0.11-1.11,0.38-1.04,1.69
		c-0.05,0.66-0.42,3.75-0.61,4.85C17.57,22.72,17.04,23.25,15.54,23.57L15.54,23.57z M22.01,16.17c-0.4,0.19-1.08,0.33-1.72,0.36
		c-0.71,0.03-1.07-0.08-1.16-0.15c-0.04-0.82,0.27-0.91,0.59-1c0.05-0.01,0.1-0.03,0.15-0.04c0.03,0.02,0.06,0.05,0.1,0.07
		c0.57,0.38,1.59,0.42,3.03,0.12l0.02,0C22.81,15.71,22.48,15.95,22.01,16.17L22.01,16.17z"/>
</g>
</svg>
