<?xml version="1.0" encoding="utf-8"?>
<!-- Generator: Adobe Illustrator 26.2.1, SVG Export Plug-In . SVG Version: 6.00 Build 0)  -->
<svg version="1.1" id="a" xmlns="http://www.w3.org/2000/svg" xmlns:xlink="http://www.w3.org/1999/xlink" x="0px" y="0px"
	 viewBox="0 0 25 25" style="enable-background:new 0 0 25 25;" xml:space="preserve">
<style type="text/css">
	.st0{fill:#FFFFFF;}
	.st1{clip-path:url(#SVGID_00000121273228008700165000000016145099536918029452_);}
	.st2{fill:#00749A;}
</style>
<path class="st0" d="M12.5,24.43c-6.58,0-11.93-5.35-11.93-11.93S5.92,0.57,12.5,0.57S24.43,5.92,24.43,12.5S19.08,24.43,12.5,24.43
	L12.5,24.43z"/>
<g>
	<defs>
		<rect id="SVGID_1_" width="25" height="25"/>
	</defs>
	<clipPath id="SVGID_00000145757860890319405740000000986264411631640988_">
		<use xlink:href="#SVGID_1_"  style="overflow:visible;"/>
	</clipPath>
	<g style="clip-path:url(#SVGID_00000145757860890319405740000000986264411631640988_);">
		<g>
			<path class="st2" d="M1.78,12.5c0,4.24,2.47,7.91,6.04,9.65L2.71,8.14C2.1,9.51,1.78,11,1.78,12.5L1.78,12.5z M19.74,11.96
				c0-1.33-0.48-2.24-0.88-2.96c-0.54-0.88-1.05-1.63-1.05-2.51c0-0.99,0.75-1.9,1.8-1.9c0.05,0,0.09,0,0.14,0
				c-1.91-1.75-4.45-2.81-7.24-2.81c-3.75,0-7.04,1.92-8.96,4.83c0.25,0,0.49,0.01,0.69,0.01c1.12,0,2.86-0.14,2.86-0.14
				c0.58-0.03,0.65,0.81,0.07,0.88c0,0-0.58,0.07-1.23,0.1l3.9,11.62l2.35-7.04l-1.67-4.58C9.94,7.43,9.4,7.36,9.4,7.36
				C8.82,7.33,8.89,6.44,9.47,6.48c0,0,1.77,0.14,2.82,0.14c1.12,0,2.86-0.14,2.86-0.14c0.58-0.03,0.65,0.81,0.07,0.88
				c0,0-0.58,0.07-1.23,0.1l3.88,11.53l1.07-3.57c0.46-1.48,0.82-2.55,0.82-3.47l0,0L19.74,11.96z"/>
			<path class="st2" d="M12.69,13.44l-3.22,9.35c0.98,0.29,2,0.44,3.03,0.44c1.25,0,2.45-0.22,3.56-0.61
				c-0.03-0.05-0.06-0.1-0.08-0.15l-3.3-9.03L12.69,13.44z M21.91,7.36c0.05,0.34,0.07,0.71,0.07,1.1c0,1.09-0.2,2.31-0.82,3.84
				l-3.28,9.47c3.19-1.86,5.33-5.31,5.33-9.27c0-1.8-0.45-3.57-1.31-5.14l0,0L21.91,7.36z"/>
			<path class="st2" d="M12.5,0C5.61,0,0,5.61,0,12.5S5.61,25,12.5,25S25,19.39,25,12.5S19.39,0,12.5,0z M12.5,24.43
				c-6.58,0-11.93-5.35-11.93-11.93S5.92,0.57,12.5,0.57S24.43,5.92,24.43,12.5S19.08,24.43,12.5,24.43L12.5,24.43z"/>
		</g>
	</g>
</g>
</svg>
