<?xml version="1.0" encoding="UTF-8"?><svg id="a" xmlns="http://www.w3.org/2000/svg" viewBox="0 0 25 25"><defs><style>.b{fill:#ff9a00;}.c{fill:#300;}</style></defs><path class="c" d="M4.43,.31H20.57c2.45,0,4.43,1.98,4.43,4.43v15.52c0,2.45-1.98,4.43-4.43,4.43H4.43c-2.45,0-4.43-1.98-4.43-4.43V4.74C0,2.29,1.98,.31,4.43,.31Z"/><path class="b" d="M12.08,14.9h-3.87l-.79,2.45c-.02,.09-.1,.16-.2,.15h-1.96c-.11,0-.15-.06-.11-.19l3.35-9.66c.03-.1,.06-.22,.1-.34,.04-.22,.06-.45,.06-.68-.01-.05,.03-.1,.08-.11h2.7c.08,0,.12,.03,.14,.08l3.8,10.73c.03,.11,0,.17-.1,.17h-2.18c-.07,.01-.15-.04-.17-.11l-.85-2.48Zm-3.27-2.11h2.65c-.06-.22-.15-.48-.24-.75-.09-.28-.19-.58-.28-.9-.1-.32-.2-.64-.3-.96s-.2-.62-.28-.93c-.08-.29-.16-.56-.23-.81h-.02c-.09,.45-.21,.9-.35,1.34-.16,.5-.31,1.02-.48,1.54-.15,.53-.3,1.02-.46,1.46h0Zm8.9-4.45c-.34,.01-.68-.12-.93-.36-.24-.26-.36-.6-.35-.96-.01-.35,.12-.69,.38-.93s.58-.36,.93-.36c.41,0,.72,.13,.95,.36,.23,.25,.35,.58,.34,.93,.01,.35-.11,.7-.36,.96-.24,.25-.59,.39-.95,.36h0Zm-1.17,9.04V9.35c0-.1,.04-.15,.14-.15h2.06c.09,0,.14,.05,.14,.15v8.02c0,.11-.04,.17-.14,.17h-2.04c-.1,0-.16-.06-.16-.17Z"/></svg>