<?xml version="1.0" encoding="utf-8"?>
<!-- Generator: Adobe Illustrator 26.2.1, SVG Export Plug-In . SVG Version: 6.00 Build 0)  -->
<svg version="1.1" id="Layer_1" xmlns="http://www.w3.org/2000/svg" xmlns:xlink="http://www.w3.org/1999/xlink" x="0px" y="0px"
	 viewBox="0 0 25 25" style="enable-background:new 0 0 25 25;" xml:space="preserve">
<style type="text/css">
	.st0{fill:url(#SVGID_1_);}
	.st1{fill:#FFFFFF;}
</style>
<g>
	
		<linearGradient id="SVGID_1_" gradientUnits="userSpaceOnUse" x1="-616.5645" y1="56.9409" x2="-616.5645" y2="36.8709" gradientTransform="matrix(0.92 -0.39 -0.43 -1 600.25 -180.34)">
		<stop  offset="0" style="stop-color:#DA2FB6"/>
		<stop  offset="1" style="stop-color:#FE1876"/>
	</linearGradient>
	<path class="st0" d="M20.6,22.53c1.83,0,2.5-0.79,2.5-2.71v-3.76c-0.08-1.33,0.57-2.6,1.71-3.3c0.18-0.1,0.25-0.34,0.14-0.52
		c0-0.01-0.01-0.01-0.01-0.02c-0.03-0.05-0.08-0.1-0.13-0.13c-1.08-0.73-1.72-1.95-1.71-3.25V5.15c0-2.08-0.57-2.68-2.39-2.68H4.29
		c-1.82,0-2.39,0.6-2.39,2.68v3.69c0.01,1.3-0.63,2.52-1.71,3.25c-0.18,0.1-0.25,0.34-0.14,0.52c0,0.01,0.01,0.01,0.01,0.02
		c0.03,0.05,0.08,0.1,0.13,0.13c1.14,0.69,1.81,1.97,1.71,3.3v3.76c0,1.92,0.67,2.71,2.5,2.71L20.6,22.53z"/>
	<path class="st1" d="M12.46,19.1c-1.74,0.05-3.43-0.57-4.71-1.75c-0.2-0.18-0.31-0.43-0.3-0.7c-0.01-0.22,0.06-0.43,0.2-0.59
		l0.4-0.52c0.15-0.22,0.4-0.36,0.67-0.37c0.3,0.02,0.59,0.12,0.83,0.3c0.92,0.62,2.01,0.94,3.12,0.93c0.92,0,1.66-0.39,1.66-1.18
		c0-2-6.81-0.92-6.81-5.51c0-2.46,2-3.84,4.63-3.84c1.48-0.04,2.94,0.36,4.21,1.13c0.26,0.2,0.42,0.51,0.42,0.84
		c0,0.2-0.06,0.39-0.17,0.56l-0.3,0.45c-0.18,0.27-0.47,0.44-0.79,0.45c-0.25-0.01-0.48-0.08-0.7-0.2c-0.77-0.4-1.63-0.6-2.5-0.59
		c-1,0-1.58,0.54-1.58,1.09c0,2.1,6.81,1,6.81,5.42C17.55,17.55,15.54,19.1,12.46,19.1z"/>
</g>
</svg>
