<?xml version="1.0" encoding="UTF-8"?><svg id="a" xmlns="http://www.w3.org/2000/svg" viewBox="0 0 25 25"><defs><style>.b{fill:#fff;}.c{fill:#5e8e3e;}.d{fill:#95bf46;}</style></defs><path class="d" d="M20.76,4.87c-.02-.13-.13-.2-.22-.2-.09,0-2.01-.15-2.01-.15,0,0-1.33-1.32-1.48-1.47-.15-.15-.43-.1-.54-.07-.02,0-.29,.09-.75,.23-.45-1.28-1.23-2.46-2.62-2.46-.04,0-.08,0-.12,0-.39-.52-.88-.75-1.3-.75-3.22,0-4.76,4.03-5.25,6.08-1.25,.39-2.14,.66-2.26,.7-.7,.22-.72,.24-.81,.9-.07,.5-1.9,14.65-1.9,14.65l14.26,2.67,7.73-1.67s-2.71-18.34-2.73-18.46h0Zm-5.79-1.42l-1.21,.37c0-.09,0-.17,0-.26,0-.8-.11-1.44-.29-1.95,.71,.09,1.19,.9,1.49,1.83Zm-2.38-1.68c.2,.5,.33,1.21,.33,2.17,0,.05,0,.09,0,.14-.78,.24-1.64,.51-2.49,.77,.48-1.85,1.38-2.75,2.17-3.08h0Zm-.96-.91c.14,0,.28,.05,.41,.14-1.03,.49-2.14,1.71-2.61,4.16l-1.97,.61c.55-1.87,1.85-4.91,4.16-4.91h0Z"/><path class="c" d="M20.54,4.66c-.09,0-2.01-.15-2.01-.15,0,0-1.33-1.32-1.48-1.47-.05-.05-.13-.08-.21-.09l-1.08,22.05,7.72-1.67s-2.71-18.34-2.73-18.46c-.02-.13-.13-.2-.22-.2"/><path class="b" d="M13.14,8.93l-.95,2.83s-.83-.45-1.86-.45c-1.5,0-1.58,.94-1.58,1.18,0,1.29,3.37,1.79,3.37,4.82,0,2.38-1.51,3.92-3.55,3.92-2.45,0-3.7-1.52-3.7-1.52l.66-2.17s1.29,1.1,2.37,1.1c.71,0,1-.56,1-.97,0-1.69-2.77-1.76-2.77-4.54,0-2.33,1.68-4.59,5.06-4.59,1.3,0,1.95,.37,1.95,.37"/></svg>