<?xml version="1.0" encoding="utf-8"?>
<!-- Generator: Adobe Illustrator 26.2.1, SVG Export Plug-In . SVG Version: 6.00 Build 0)  -->
<svg version="1.1" id="a" xmlns="http://www.w3.org/2000/svg" xmlns:xlink="http://www.w3.org/1999/xlink" x="0px" y="0px"
	 viewBox="0 0 25 25" style="enable-background:new 0 0 25 25;" xml:space="preserve">
<style type="text/css">
	.st0{fill:#FFFFFF;}
</style>
<g>
	<g>
		<g>
			<path class="st0" d="M18.4,11.8c0.2,0,0.4,0,0.5,0c0.1-0.2,0.1-0.6,0-1c-0.1-0.6-0.3-1-0.6-0.9C18,10,18,10.4,18.1,11
				C18.2,11.4,18.3,11.6,18.4,11.8z"/>
			<path class="st0" d="M15.5,12.3c0.2,0.1,0.4,0.2,0.5,0.1c0,0,0-0.1,0-0.2c-0.1-0.2-0.4-0.4-0.6-0.5c-0.5-0.2-1.2-0.2-1.7,0.2
				c-0.2,0.1-0.3,0.3-0.3,0.4c0,0,0,0.1,0.1,0.1c0.1,0,0.6-0.2,1.2-0.3C14.9,12.1,15.2,12.2,15.5,12.3z"/>
			<path class="st0" d="M15,12.6c-0.3,0.1-0.5,0.2-0.6,0.3c-0.1,0.1-0.2,0.2-0.2,0.2c0,0,0,0,0,0.1c0,0,0,0,0.1,0
				c0.1,0,0.2-0.1,0.2-0.1c0.5-0.2,0.7-0.1,1-0.1c0.2,0,0.2,0,0.3,0c0,0,0-0.1,0-0.1C15.7,12.7,15.4,12.5,15,12.6z"/>
			<path class="st0" d="M17.4,13.6c0.2,0.1,0.5,0.1,0.5-0.1c0.1-0.2,0-0.4-0.3-0.5c-0.2-0.1-0.5-0.1-0.5,0.1
				C17.1,13.3,17.2,13.5,17.4,13.6z"/>
			<path class="st0" d="M18.8,12.4c-0.2,0-0.3,0.2-0.3,0.4c0,0.2,0.1,0.4,0.3,0.4c0.2,0,0.3-0.2,0.3-0.4
				C19.2,12.6,19,12.4,18.8,12.4z"/>
			<path class="st0" d="M6.8,16.8c0-0.1-0.1,0-0.2,0c0,0-0.1,0-0.2,0c-0.1,0-0.2-0.1-0.3-0.2c-0.1-0.1-0.1-0.3,0-0.5
				c0,0,0-0.1,0-0.1c0.1-0.3,0.4-0.9,0.1-1.4C6.1,14.3,5.8,14,5.4,14c-0.4,0-0.8,0.1-1,0.4c-0.4,0.4-0.5,1-0.4,1.2
				c0,0.1,0.1,0.1,0.1,0.1c0.1,0,0.2,0,0.2-0.2c0,0,0,0,0-0.1c0-0.1,0.1-0.3,0.2-0.4c0.1-0.2,0.3-0.3,0.4-0.3c0.2,0,0.4,0,0.5,0.1
				c0.3,0.2,0.4,0.5,0.3,0.8c-0.1,0.2-0.2,0.5-0.1,0.8c0,0.5,0.4,0.7,0.7,0.8c0.3,0,0.5-0.1,0.5-0.3C6.9,16.9,6.9,16.8,6.8,16.8z"/>
			<path class="st0" d="M23.4,15.8c0,0-0.1-0.3-0.2-0.6S23,14.7,23,14.7c0.4-0.6,0.4-1.1,0.3-1.4c-0.1-0.4-0.2-0.7-0.5-1
				c-0.3-0.3-0.9-0.7-1.8-0.9c-0.1,0-0.4-0.1-0.5-0.1c0,0,0-1.1,0-1.6c0-0.3,0-0.9-0.2-1.4c-0.2-0.7-0.5-1.3-0.9-1.7
				c1.2-1.2,1.9-2.5,1.9-3.7c0-2.2-2.7-2.8-6-1.5c0,0-0.7,0.3-0.7,0.3c0,0-1.3-1.2-1.3-1.3c-3.8-3.3-15.5,9.8-11.8,13l0.8,0.7
				C2.1,14.8,2,15.4,2,16.1c0.1,0.9,0.5,1.7,1.3,2.4c0.7,0.6,1.6,1,2.5,1c1.5,3.4,4.8,5.4,8.7,5.6c4.2,0.1,7.7-1.9,9.2-5.4
				c0.1-0.2,0.5-1.4,0.5-2.4C24.3,16.2,23.7,15.8,23.4,15.8z M6.1,18.5c-0.1,0-0.3,0-0.4,0c-1.3,0-2.6-1.2-2.8-2.5
				c-0.2-1.5,0.6-2.7,2-2.9c0.2,0,0.4-0.1,0.6,0c0.8,0,1.9,0.6,2.1,2.3C7.9,16.8,7.5,18.2,6.1,18.5z M4.7,12.1
				c-0.8,0.2-1.6,0.6-2,1.3c-0.3-0.2-0.8-0.7-0.9-0.8C1.1,11.2,2.6,8.6,3.7,7c2.6-3.7,6.7-6.6,8.6-6.1c0.3,0.1,1.3,1.3,1.3,1.3
				S11.7,3.3,10,4.8C7.6,6.6,5.8,9.3,4.7,12.1z M18.1,17.9C18.1,17.9,18.1,17.9,18.1,17.9c0-0.1,0-0.1,0-0.1c0,0-2,0.3-3.9-0.4
				c0.2-0.7,0.7-0.4,1.6-0.4c1.5,0.1,2.8-0.1,3.8-0.4c0.9-0.2,2-0.7,2.8-1.4c0.3,0.6,0.4,1.4,0.4,1.4s0.2,0,0.4,0.1
				c0.2,0.1,0.3,0.3,0.2,0.9c-0.2,1.1-0.7,2-1.4,2.8c-0.5,0.5-1.1,1-1.7,1.3c-0.4,0.2-0.7,0.3-1.1,0.5c-3,1-6-0.1-7-2.4
				c-0.1-0.2-0.1-0.4-0.2-0.5c-0.4-1.5-0.1-3.3,1-4.5c0,0,0,0,0,0c0.1-0.1,0.1-0.2,0.1-0.3c0-0.1-0.1-0.2-0.1-0.3
				c-0.4-0.6-1.7-1.5-1.5-3.4c0.2-1.3,1.4-2.3,2.5-2.2c0.1,0,0.2,0,0.3,0c0.5,0,0.9,0.1,1.3,0.1c0.7,0,1.2-0.1,1.9-0.6
				c0.2-0.2,0.4-0.4,0.7-0.4c0,0,0.1,0,0.3,0c0.2,0,0.3,0.1,0.5,0.2c0.6,0.4,0.6,1.3,0.7,1.9c0,0.4,0.1,1.3,0.1,1.5
				c0,0.6,0.2,0.7,0.5,0.8c0.2,0.1,0.3,0.1,0.6,0.2c0.7,0.2,1.2,0.4,1.4,0.7c0.2,0.2,0.2,0.3,0.3,0.5c0.1,0.6-0.5,1.4-2,2.1
				c-1.7,0.8-3.7,1-5.1,0.8c-0.1,0-0.5-0.1-0.5-0.1c-1.1-0.2-1.8,1.3-1.1,2.3c0.4,0.6,1.6,1.1,2.8,1.1c2.7,0,4.8-1.2,5.6-2.2
				c0,0,0,0,0.1-0.1c0-0.1,0-0.1,0-0.1c-0.6,0.4-3.4,2.2-6.5,1.6c0,0-0.4-0.1-0.7-0.2c-0.3-0.1-0.8-0.4-0.9-0.9
				C16.5,18.6,18.1,17.9,18.1,17.9z M14.2,17.5C14.2,17.5,14.2,17.5,14.2,17.5C14.2,17.5,14.2,17.5,14.2,17.5
				C14.2,17.5,14.2,17.5,14.2,17.5z M9.6,7c0.9-1.1,2.1-2,3.1-2.5c0,0,0.1,0,0.1,0.1c-0.1,0.1-0.2,0.5-0.3,0.7c0,0,0,0.1,0.1,0
				c0.6-0.4,1.8-0.9,2.7-1c0,0,0.1,0.1,0,0.1c-0.1,0.1-0.3,0.3-0.4,0.4c0,0,0,0.1,0,0.1c0.7,0,1.7,0.2,2.3,0.6c0,0,0,0.1,0,0.1
				c-1-0.2-2.5-0.4-4.1,0C11.5,6,10.4,6.5,9.6,7C9.6,7.1,9.5,7.1,9.6,7z"/>
		</g>
	</g>
</g>
</svg>
