<?xml version="1.0" encoding="UTF-8"?><svg id="a" xmlns="http://www.w3.org/2000/svg" xmlns:xlink="http://www.w3.org/1999/xlink" viewBox="0 0 25 25"><defs><style>.h{fill:url(#c);}.i{fill:url(#f);}.j{fill:url(#g);}.k{fill:url(#b);}.l{fill:url(#d);}.m{fill:url(#e);}</style><linearGradient id="b" x1="-1603.43" y1="1453.7" x2="-1603.42" y2="1453.7" gradientTransform="translate(7112041.51 -348302.72) rotate(-45) scale(3290 -3290)" gradientUnits="userSpaceOnUse"><stop offset="0" stop-color="#c757bc"/><stop offset=".11" stop-color="#c757bc"/><stop offset=".17" stop-color="#cd5ca9"/><stop offset=".49" stop-color="#e8744f"/><stop offset=".72" stop-color="#f88316"/><stop offset=".82" stop-color="#ff8900"/><stop offset="1" stop-color="#ff8900"/></linearGradient><linearGradient id="c" x1="-1603.08" y1="1454.22" x2="-1603.07" y2="1454.22" gradientTransform="translate(3466748.58 -168767.39) rotate(-45) scale(1603.6 -1603.6)" gradientUnits="userSpaceOnUse"><stop offset="0" stop-color="#00afff"/><stop offset=".3" stop-color="#00afff"/><stop offset=".69" stop-color="#5282ff"/><stop offset="1" stop-color="#945dff"/></linearGradient><linearGradient id="d" x1="-1603.58" y1="1452.39" x2="-1603.57" y2="1452.39" gradientTransform="translate(2430931.1 -120290.54) rotate(-45) scale(1124.96 -1124.96)" xlink:href="#c"/><linearGradient id="e" x1="-1603.43" y1="1453.7" x2="-1603.42" y2="1453.7" gradientTransform="translate(7112041.51 -348302.72) rotate(-45) scale(3290 -3290)" gradientUnits="userSpaceOnUse"><stop offset="0" stop-color="#ad4ca4"/><stop offset=".11" stop-color="#ad4ca4"/><stop offset=".17" stop-color="#b25093"/><stop offset=".49" stop-color="#ca6545"/><stop offset=".72" stop-color="#d87213"/><stop offset=".82" stop-color="#de7700"/><stop offset="1" stop-color="#de7700"/></linearGradient><linearGradient id="f" x1="-1603.08" y1="1454.22" x2="-1603.07" y2="1454.22" gradientTransform="translate(3466748.58 -168767.39) rotate(-45) scale(1603.6 -1603.6)" gradientUnits="userSpaceOnUse"><stop offset="0" stop-color="#0098de"/><stop offset=".3" stop-color="#0098de"/><stop offset=".69" stop-color="#4771de"/><stop offset="1" stop-color="#8151de"/></linearGradient><linearGradient id="g" x1="-1603.58" y1="1452.39" x2="-1603.57" y2="1452.39" gradientTransform="translate(2430931.1 -120290.54) rotate(-45) scale(1124.96 -1124.96)" xlink:href="#f"/></defs><path class="k" d="M25,0H12.55L.67,12.5H12.48l.06-.06L25,0Z"/><path class="h" d="M25,25h0ZM12.53,12.44l-.06,.06h.11l-.06-.06Z"/><path class="l" d="M12.55,0H0V12.5H.67L12.55,0Z"/><path class="m" d="M12.48,12.5H.67l-.67,.7v11.8L12.48,12.5Z"/><path class="i" d="M12.59,12.5h-.11L0,25H25L12.59,12.5Z"/><path class="j" d="M.67,12.5H0v.7l.67-.7Z"/></svg>