<?xml version="1.0" encoding="utf-8"?>
<!-- Generator: Adobe Illustrator 26.2.1, SVG Export Plug-In . SVG Version: 6.00 Build 0)  -->
<svg version="1.1" id="a" xmlns="http://www.w3.org/2000/svg" xmlns:xlink="http://www.w3.org/1999/xlink" x="0px" y="0px"
	 viewBox="0 0 25 25" style="enable-background:new 0 0 25 25;" xml:space="preserve">
<style type="text/css">
	.st0{fill:url(#SVGID_1_);}
	.st1{fill:#FFFFFF;}
</style>
<g>
	
		<linearGradient id="SVGID_1_" gradientUnits="userSpaceOnUse" x1="-114.462" y1="90.5795" x2="-114.5596" y2="90.6364" gradientTransform="matrix(256 0 0 -256 29325 23206.8105)">
		<stop  offset="0" style="stop-color:#2697D4"/>
		<stop  offset="0.5" style="stop-color:#207BCB"/>
		<stop  offset="1" style="stop-color:#2285CE"/>
	</linearGradient>
	<rect y="0" class="st0" width="25" height="25"/>
	<path class="st1" d="M13.6,10.8c-1.3-0.5-2-0.8-2-1.4c0-0.5,0.4-0.8,1.1-0.8c1.3,0,2.6,0.5,3.5,1l0.5-3.2c-0.7-0.3-2.2-0.9-4.3-0.9
		c-1.5,0-2.7,0.4-3.5,1.1C8.2,7.3,7.7,8.4,7.7,9.7c0,2.4,1.4,3.4,3.8,4.2c1.5,0.5,2,0.9,2,1.5c0,0.6-0.5,0.9-1.4,0.9
		c-1.1,0-2.9-0.5-4.1-1.2l-0.5,3.2c1,0.6,2.9,1.2,4.8,1.2c1.5,0,2.8-0.4,3.7-1.1c1-0.8,1.5-1.9,1.5-3.3C17.5,12.7,16,11.7,13.6,10.8
		L13.6,10.8z"/>
</g>
</svg>
