<?xml version="1.0" encoding="utf-8"?>
<!-- Generator: Adobe Illustrator 26.2.1, SVG Export Plug-In . SVG Version: 6.00 Build 0)  -->
<svg version="1.1" id="Layer_1" xmlns="http://www.w3.org/2000/svg" xmlns:xlink="http://www.w3.org/1999/xlink" x="0px" y="0px"
	 viewBox="0 0 25 25" style="enable-background:new 0 0 25 25;" xml:space="preserve">
<style type="text/css">
	.st0{fill:#FF3E00;}
	.st1{fill:#FFFFFF;}
</style>
<g>
	<path class="st0" d="M21.58,3.31C19.25-0.01,14.67-1,11.35,1.11L5.53,4.82c-1.59,1-2.69,2.62-3.02,4.47
		c-0.28,1.54-0.03,3.13,0.69,4.52c-0.5,0.76-0.84,1.61-1,2.5c-0.34,1.88,0.1,3.83,1.22,5.38c2.32,3.32,6.91,4.31,10.22,2.2
		l5.82-3.71c1.59-1,2.69-2.62,3.02-4.47c0.28-1.54,0.03-3.13-0.69-4.52c0.5-0.76,0.84-1.61,1-2.5C23.13,6.81,22.69,4.87,21.58,3.31"
		/>
	<path class="st1" d="M10.78,22.01c-1.88,0.49-3.86-0.25-4.97-1.84c-0.67-0.94-0.93-2.1-0.73-3.24c0.03-0.18,0.08-0.37,0.14-0.54
		l0.11-0.33l0.3,0.22c0.69,0.51,1.46,0.89,2.28,1.14l0.22,0.07l-0.02,0.22C8.08,18,8.17,18.3,8.34,18.56
		c0.33,0.48,0.93,0.7,1.49,0.55c0.13-0.03,0.25-0.09,0.36-0.16l5.82-3.71c0.29-0.18,0.49-0.48,0.55-0.81
		c0.06-0.34-0.02-0.69-0.22-0.98c-0.33-0.48-0.93-0.7-1.5-0.56c-0.13,0.03-0.25,0.09-0.36,0.16l-2.22,1.42
		c-0.37,0.23-0.76,0.41-1.18,0.52c-1.88,0.49-3.86-0.25-4.97-1.84c-0.67-0.94-0.93-2.1-0.73-3.24c0.2-1.11,0.86-2.09,1.82-2.69
		l5.82-3.71c0.37-0.23,0.76-0.41,1.18-0.52c1.88-0.49,3.86,0.25,4.97,1.84c0.67,0.94,0.93,2.1,0.73,3.24
		c-0.03,0.18-0.08,0.37-0.14,0.54l-0.11,0.33l-0.3-0.22c-0.69-0.51-1.46-0.89-2.28-1.14l-0.22-0.07l0.02-0.22
		C16.92,7,16.83,6.7,16.66,6.44c-0.33-0.48-0.93-0.7-1.49-0.55c-0.13,0.03-0.25,0.09-0.36,0.16L8.98,9.76
		c-0.29,0.18-0.49,0.48-0.55,0.81c-0.06,0.34,0.02,0.69,0.22,0.98c0.33,0.48,0.93,0.7,1.5,0.56c0.13-0.03,0.25-0.09,0.36-0.16
		l2.22-1.42c0.37-0.23,0.76-0.41,1.18-0.52c1.88-0.49,3.86,0.25,4.97,1.84c0.67,0.94,0.93,2.1,0.73,3.24
		c-0.2,1.11-0.86,2.09-1.82,2.69l-5.82,3.71C11.6,21.72,11.2,21.9,10.78,22.01"/>
</g>
</svg>
