<?xml version="1.0" encoding="utf-8"?>
<!-- Generator: Adobe Illustrator 26.2.1, SVG Export Plug-In . SVG Version: 6.00 Build 0)  -->
<svg version="1.1" id="a" xmlns="http://www.w3.org/2000/svg" xmlns:xlink="http://www.w3.org/1999/xlink" x="0px" y="0px"
	 viewBox="0 0 25 25" style="enable-background:new 0 0 25 25;" xml:space="preserve">
<style type="text/css">
	.st0{fill:#FFFFFF;}
</style>
<path class="st0" d="M15.9,15.2c0,0.4-0.3,0.8-0.8,0.8H9.9c-0.4,0-0.8-0.3-0.8-0.8V9.8c0-0.4,0.3-0.8,0.8-0.8h5.3
	c0.4,0,0.8,0.3,0.8,0.8V15.2z M20.5,19.1c0,0.7-0.6,1.3-1.3,1.3H5.9c-0.7,0-1.3-0.6-1.3-1.3V5.9c0-0.7,0.6-1.3,1.3-1.3h13.3
	c0.7,0,1.3,0.6,1.3,1.3V19.1z M20.8,0H4.2C1.9,0,0,1.9,0,4.2v16.7C0,23.1,1.9,25,4.2,25h16.7c2.3,0,4.2-1.9,4.2-4.2V4.2
	C25,1.9,23.1,0,20.8,0"/>
</svg>
