<?xml version="1.0" encoding="UTF-8"?><svg id="a" xmlns="http://www.w3.org/2000/svg" viewBox="0 0 25 25"><defs><style>.b{fill:#f0db4f;}.c{fill:#323330;}</style></defs><path class="b" d="M0,0H25V25H0V0Z"/><path class="c" d="M22.95,19.04c-.18-1.14-.93-2.1-3.13-2.99-.77-.35-1.62-.6-1.87-1.18-.09-.34-.1-.53-.05-.73,.16-.66,.96-.87,1.58-.68,.4,.14,.79,.45,1.02,.94,1.08-.7,1.08-.69,1.83-1.17-.28-.43-.42-.63-.6-.81-.65-.72-1.53-1.1-2.95-1.07-.24,.03-.49,.06-.74,.1-.71,.18-1.38,.55-1.77,1.05-1.18,1.34-.85,3.69,.59,4.66,1.42,1.06,3.5,1.31,3.77,2.3,.26,1.22-.9,1.61-2.04,1.47-.85-.18-1.32-.61-1.83-1.39q-.94,.54-1.9,1.1c.23,.5,.47,.72,.85,1.16,1.81,1.84,6.34,1.75,7.16-1.03,.03-.1,.25-.73,.08-1.71Zm-9.36-7.55h-2.34c0,2.02,0,4.03,0,6.05,0,1.29,.07,2.46-.14,2.83-.34,.71-1.23,.62-1.63,.48-.41-.2-.62-.49-.86-.9-.07-.12-.12-.21-.13-.21-.63,.39-1.27,.78-1.9,1.16,.32,.65,.78,1.21,1.38,1.58,.89,.53,2.09,.7,3.34,.41,.82-.24,1.52-.73,1.89-1.48,.53-.98,.42-2.17,.41-3.48,.01-2.14,0-4.29,0-6.44h0Z"/></svg>