<svg id="Layer_1" data-name="Layer 1" xmlns="http://www.w3.org/2000/svg" viewBox="0 0 25 25"><defs><style>.cls-1,.cls-2{fill:#8e75ff;}.cls-2{isolation:isolate;opacity:0.41;}</style></defs><path class="cls-1" d="M24.48.16H8V8.42H16.1a.53.53,0,0,1,.53.53v8H25V.68a.51.51,0,0,0-.52-.52Z"/><path class="cls-2" d="M8,.16V8.42H.26A.26.26,0,0,1,0,8.26.26.26,0,0,1,.08,8L8,.16Zm9.08,24.61a.26.26,0,0,1-.28.05.25.25,0,0,1-.16-.24V16.94H25l-7.93,7.83Z"/><path class="cls-2" d="M8,8.42h8.38a.26.26,0,0,1,.26.26v8.26H8.52A.52.52,0,0,1,8,16.42v-8Z"/></svg>