<?xml version="1.0" encoding="UTF-8"?><svg id="a" xmlns="http://www.w3.org/2000/svg" viewBox="0 0 25 25"><defs><style>.b{fill:#61dafb;}</style></defs><path class="b" d="M23.71,10.07c0-1.5-1.88-2.92-4.75-3.8,.66-2.93,.37-5.26-.93-6.01-.3-.18-.65-.26-1.03-.26V1.03c.21,0,.38,.04,.53,.12,.63,.36,.9,1.73,.69,3.49-.05,.43-.13,.89-.23,1.35-.9-.22-1.89-.39-2.93-.5-.62-.85-1.27-1.63-1.92-2.3,1.5-1.4,2.91-2.16,3.87-2.16V0c-1.27,0-2.93,.9-4.6,2.47C10.72,.91,9.06,.02,7.79,.02V1.05c.95,0,2.37,.76,3.87,2.15-.65,.68-1.29,1.45-1.9,2.3-1.04,.11-2.03,.28-2.93,.51-.11-.46-.18-.91-.24-1.34-.22-1.76,.05-3.13,.67-3.49,.14-.08,.32-.12,.53-.12V.02c-.39,0-.74,.08-1.04,.26-1.3,.75-1.59,3.07-.92,6-2.87,.88-4.73,2.3-4.73,3.79s1.88,2.92,4.75,3.8c-.66,2.93-.37,5.26,.93,6.01,.3,.18,.65,.26,1.04,.26,1.27,0,2.93-.9,4.6-2.47,1.68,1.56,3.34,2.45,4.6,2.45,.39,0,.74-.08,1.04-.26,1.29-.75,1.59-3.07,.92-6,2.86-.88,4.72-2.3,4.72-3.79h0Zm-6-3.07c-.17,.59-.38,1.21-.62,1.82-.19-.37-.39-.74-.6-1.11-.21-.37-.44-.73-.66-1.08,.65,.1,1.29,.22,1.89,.36h0Zm-2.11,4.91c-.36,.62-.73,1.21-1.11,1.76-.69,.06-1.38,.09-2.08,.09s-1.39-.03-2.07-.09c-.38-.55-.76-1.13-1.12-1.75-.35-.6-.67-1.22-.96-1.83,.29-.62,.61-1.24,.95-1.84,.36-.62,.73-1.21,1.11-1.76,.69-.06,1.38-.09,2.08-.09s1.39,.03,2.07,.09c.38,.55,.76,1.13,1.12,1.75,.35,.6,.67,1.22,.96,1.83-.29,.62-.61,1.24-.95,1.84Zm1.49-.6c.24,.6,.45,1.21,.64,1.83-.6,.15-1.24,.27-1.9,.37,.23-.35,.45-.72,.66-1.09,.21-.37,.41-.74,.6-1.11h0Zm-4.67,4.92c-.43-.44-.86-.94-1.28-1.47,.41,.02,.84,.03,1.27,.03s.86,0,1.28-.03c-.4,.51-.82,1.01-1.27,1.47Zm-3.43-2.71c-.65-.1-1.29-.22-1.89-.36,.17-.59,.38-1.21,.62-1.82,.19,.37,.39,.74,.6,1.11,.22,.37,.44,.73,.66,1.08ZM12.39,3.92c.43,.44,.86,.94,1.28,1.47-.41-.02-.84-.03-1.27-.03s-.86,0-1.28,.03c.4-.51,.82-1.01,1.27-1.47Zm-3.41,2.71c-.23,.35-.45,.72-.66,1.09-.21,.37-.41,.74-.6,1.11-.24-.6-.45-1.21-.64-1.83,.6-.14,1.24-.27,1.9-.36Zm-4.17,5.77c-1.63-.7-2.69-1.61-2.69-2.33s1.06-1.64,2.69-2.33c.4-.17,.83-.32,1.28-.47,.26,.9,.61,1.84,1.04,2.81-.42,.96-.77,1.89-1.02,2.79-.46-.14-.89-.3-1.29-.47h0Zm2.48,6.59c-.63-.36-.9-1.73-.69-3.49,.05-.43,.13-.89,.23-1.35,.9,.22,1.89,.39,2.93,.5,.62,.85,1.27,1.63,1.92,2.3-1.5,1.4-2.91,2.16-3.87,2.16-.21,0-.38-.05-.52-.12Zm10.93-3.51c.22,1.76-.05,3.13-.67,3.49-.14,.08-.32,.12-.53,.12-.95,0-2.37-.76-3.87-2.15,.65-.68,1.29-1.45,1.9-2.3,1.04-.11,2.03-.28,2.93-.51,.11,.47,.19,.91,.24,1.34h0Zm1.77-3.07c-.4,.17-.83,.32-1.28,.47-.26-.9-.61-1.84-1.04-2.81,.42-.96,.77-1.89,1.02-2.79,.46,.14,.89,.3,1.3,.47,1.63,.7,2.69,1.61,2.69,2.33,0,.72-1.06,1.64-2.69,2.33h0Z"/><path class="b" d="M12.4,12.18c1.16,0,2.11-.94,2.11-2.11s-.94-2.11-2.11-2.11-2.11,.94-2.11,2.11,.94,2.11,2.11,2.11ZM2.13,23.76h-.7v1.2h-.39v-2.96h.98c.33,0,.59,.08,.77,.23,.18,.15,.27,.37,.27,.66,0,.18-.05,.34-.15,.48-.1,.14-.24,.24-.41,.31l.7,1.26v.02h-.42l-.64-1.2Zm-.7-.32h.6c.19,0,.35-.05,.46-.15,.12-.1,.17-.23,.17-.4,0-.18-.05-.32-.16-.42-.11-.1-.27-.15-.47-.15h-.6v1.12Zm3.03,1.56c-.3,0-.54-.1-.73-.29-.19-.2-.28-.46-.28-.79v-.07c0-.22,.04-.41,.12-.58,.08-.17,.2-.31,.35-.4,.15-.1,.31-.15,.49-.15,.29,0,.51,.09,.67,.28,.16,.19,.24,.46,.24,.81v.16h-1.49c0,.22,.07,.39,.19,.53,.12,.13,.28,.2,.46,.2,.13,0,.25-.03,.34-.08,.09-.05,.17-.13,.24-.22l.23,.18c-.18,.28-.46,.42-.83,.42h0Zm-.05-1.97c-.15,0-.28,.06-.38,.17-.1,.11-.17,.26-.19,.46h1.1v-.03c-.01-.19-.06-.34-.15-.44-.09-.11-.22-.16-.37-.16h0Zm2.7,1.93s-.04-.12-.05-.23c-.17,.18-.38,.27-.63,.27-.22,0-.4-.06-.53-.18-.14-.12-.21-.28-.21-.47,0-.23,.09-.41,.26-.53,.17-.13,.42-.19,.74-.19h.37v-.17c0-.13-.04-.24-.12-.31-.08-.08-.19-.12-.35-.12-.13,0-.25,.03-.34,.1-.09,.07-.14,.15-.14,.25h-.38c0-.11,.04-.22,.12-.32,.08-.1,.18-.18,.32-.24,.13-.06,.28-.09,.44-.09,.25,0,.45,.06,.6,.19,.14,.13,.22,.3,.22,.52v1.01c0,.2,.03,.36,.08,.48v.03h-.39Zm-.62-.29c.12,0,.23-.03,.34-.09,.11-.06,.18-.14,.23-.24v-.45h-.29c-.46,0-.69,.13-.69,.4,0,.12,.04,.21,.12,.28,.08,.07,.18,.1,.3,.1h0Zm2.41,.02c.13,0,.25-.04,.35-.12s.16-.18,.17-.3h.36c0,.13-.05,.25-.13,.36s-.19,.2-.32,.27c-.13,.07-.27,.1-.42,.1-.3,0-.54-.1-.72-.3-.18-.2-.26-.47-.26-.82v-.06c0-.21,.04-.4,.12-.57,.08-.17,.19-.3,.34-.39,.15-.09,.32-.14,.52-.14,.25,0,.45,.07,.61,.22,.16,.15,.25,.34,.26,.58h-.36c-.01-.14-.07-.26-.16-.35-.1-.09-.22-.14-.36-.14-.19,0-.34,.07-.45,.21-.1,.14-.16,.34-.16,.6v.07c0,.25,.05,.45,.16,.59,.1,.14,.25,.21,.45,.21h0Zm1.81-2.47v.53h.41v.29h-.41v1.36c0,.09,.02,.15,.05,.2,.04,.04,.1,.07,.19,.07,.04,0,.1,0,.18-.02v.3c-.1,.03-.2,.04-.29,.04-.17,0-.29-.05-.38-.15-.09-.1-.13-.25-.13-.43v-1.36h-.4v-.29h.4v-.53h.38Zm4.22,2.73h-.39l-1.49-2.28v2.28h-.39v-2.96h.39l1.49,2.29v-2.29h.39v2.96Zm1.99,0s-.04-.12-.05-.23c-.17,.18-.38,.27-.63,.27-.22,0-.4-.06-.53-.18-.14-.12-.21-.28-.21-.47,0-.23,.09-.41,.26-.53,.17-.13,.42-.19,.74-.19h.37v-.17c0-.13-.04-.24-.12-.31-.08-.08-.19-.12-.35-.12-.13,0-.25,.03-.34,.1-.09,.07-.14,.15-.14,.25h-.38c0-.11,.04-.22,.12-.32,.08-.1,.18-.18,.32-.24,.13-.06,.28-.09,.44-.09,.25,0,.45,.06,.6,.19,.14,.13,.22,.3,.22,.52v1.01c0,.2,.03,.36,.08,.48v.03h-.39Zm-.62-.29c.12,0,.23-.03,.34-.09,.11-.06,.18-.14,.23-.24v-.45h-.29c-.46,0-.69,.13-.69,.4,0,.12,.04,.21,.12,.28,.08,.07,.18,.1,.3,.1h0Zm2.04-2.45v.53h.41v.29h-.41v1.36c0,.09,.02,.15,.05,.2,.04,.04,.1,.07,.19,.07,.04,0,.1,0,.18-.02v.3c-.1,.03-.2,.04-.29,.04-.17,0-.29-.05-.38-.15-.09-.1-.13-.25-.13-.43v-1.36h-.4v-.29h.4v-.53h.38Zm1.26,2.73h-.38v-2.2h.38v2.2Zm-.41-2.78c0-.06,.02-.11,.05-.15,.04-.04,.09-.06,.17-.06s.13,.02,.17,.06,.06,.09,.06,.15-.02,.11-.06,.15c-.04,.04-.09,.06-.17,.06s-.13-.02-.17-.06c-.04-.04-.05-.09-.05-.15Zm1.74,2.27l.54-1.69h.38l-.79,2.2h-.29l-.8-2.2h.38l.56,1.69Zm2.18,.55c-.3,0-.54-.1-.73-.29-.19-.2-.28-.46-.28-.79v-.07c0-.22,.04-.41,.12-.58,.08-.17,.2-.31,.35-.4,.15-.1,.31-.15,.49-.15,.29,0,.51,.09,.67,.28,.16,.19,.24,.46,.24,.81v.16h-1.49c0,.22,.07,.39,.19,.53,.12,.13,.28,.2,.46,.2,.13,0,.25-.03,.34-.08s.17-.13,.24-.22l.23,.18c-.18,.28-.46,.42-.83,.42h0Zm-.05-1.97c-.15,0-.28,.06-.38,.17-.1,.11-.17,.26-.19,.46h1.1v-.03c-.01-.19-.06-.34-.15-.44-.09-.11-.22-.16-.37-.16h0Z"/></svg>