<?xml version="1.0" encoding="utf-8"?>
<!-- Generator: Adobe Illustrator 26.2.1, SVG Export Plug-In . SVG Version: 6.00 Build 0)  -->
<svg version="1.1" id="a" xmlns="http://www.w3.org/2000/svg" xmlns:xlink="http://www.w3.org/1999/xlink" x="0px" y="0px"
	 viewBox="0 0 25 25" style="enable-background:new 0 0 25 25;" xml:space="preserve">
<style type="text/css">
	.st0{fill:#FFFFFF;}
</style>
<g>
	<path class="st0" d="M23.03,19.21c-1.36-0.03-2.41,0.1-3.3,0.48c-0.26,0.1-0.66,0.1-0.7,0.43c0.14,0.14,0.15,0.36,0.27,0.54
		c0.2,0.34,0.56,0.8,0.88,1.04c0.36,0.27,0.71,0.54,1.09,0.78c0.66,0.41,1.41,0.65,2.06,1.05c0.37,0.24,0.75,0.54,1.12,0.8
		c0.19,0.14,0.31,0.36,0.54,0.44v-0.05c-0.12-0.15-0.15-0.37-0.27-0.54c-0.17-0.17-0.34-0.32-0.51-0.49
		c-0.49-0.66-1.11-1.24-1.77-1.72c-0.54-0.37-1.73-0.88-1.96-1.51c0,0-0.02-0.02-0.03-0.03c0.37-0.03,0.82-0.17,1.17-0.27
		c0.58-0.15,1.11-0.12,1.7-0.27c0.27-0.07,0.54-0.15,0.82-0.24V19.5c-0.31-0.31-0.53-0.71-0.85-1c-0.87-0.75-1.82-1.48-2.81-2.09
		c-0.53-0.34-1.21-0.56-1.77-0.85c-0.2-0.1-0.54-0.15-0.66-0.32c-0.31-0.37-0.48-0.87-0.7-1.31c-0.49-0.94-0.97-1.97-1.39-2.96
		c-0.31-0.66-0.49-1.33-0.87-1.94c-1.75-2.89-3.66-4.64-6.58-6.36c-0.63-0.36-1.38-0.51-2.18-0.7C5.92,1.93,5.5,1.9,5.07,1.88
		C4.8,1.76,4.53,1.44,4.29,1.29C3.32,0.68,0.82-0.65,0.11,1.1c-0.46,1.11,0.68,2.2,1.07,2.76c0.29,0.39,0.66,0.83,0.87,1.28
		c0.12,0.29,0.15,0.6,0.27,0.9C2.59,6.78,2.84,7.61,3.2,8.31c0.19,0.36,0.39,0.73,0.63,1.05C3.97,9.55,4.2,9.63,4.26,9.94
		c-0.24,0.34-0.26,0.85-0.4,1.28c-0.61,1.92-0.37,4.3,0.49,5.71c0.27,0.42,0.92,1.36,1.79,1c0.77-0.31,0.6-1.28,0.82-2.13
		c0.05-0.2,0.02-0.34,0.12-0.48v0.03c0.24,0.48,0.48,0.94,0.7,1.41c0.53,0.83,1.45,1.7,2.21,2.28c0.41,0.31,0.73,0.83,1.24,1.02
		v-0.05H11.2c-0.1-0.15-0.26-0.22-0.39-0.34c-0.31-0.31-0.65-0.68-0.88-1.02c-0.71-0.95-1.34-2.01-1.9-3.09
		c-0.27-0.53-0.51-1.11-0.73-1.63c-0.1-0.2-0.1-0.51-0.27-0.61c-0.26,0.37-0.63,0.7-0.82,1.16c-0.32,0.73-0.36,1.63-0.48,2.57
		c-0.07,0.02-0.03,0-0.07,0.03c-0.54-0.14-0.73-0.7-0.94-1.17c-0.51-1.21-0.6-3.15-0.15-4.54C4.69,11.01,5.2,9.89,5,9.55
		C4.9,9.23,4.56,9.04,4.37,8.78C4.14,8.46,3.9,8.06,3.75,7.7C3.34,6.75,3.13,5.69,2.69,4.74c-0.2-0.44-0.56-0.9-0.85-1.31
		C1.52,2.97,1.16,2.65,0.91,2.1c-0.08-0.19-0.2-0.49-0.07-0.7c0.03-0.14,0.1-0.19,0.24-0.22C1.3,1,1.93,1.24,2.15,1.34
		C2.78,1.59,3.3,1.83,3.83,2.19c0.24,0.17,0.49,0.49,0.8,0.58h0.36C5.53,2.89,6.14,2.8,6.65,2.96c0.9,0.29,1.72,0.71,2.45,1.17
		c2.23,1.41,4.06,3.42,5.31,5.82c0.2,0.39,0.29,0.75,0.48,1.16c0.36,0.83,0.8,1.68,1.16,2.5c0.36,0.8,0.7,1.62,1.21,2.28
		c0.26,0.36,1.28,0.54,1.73,0.73c0.34,0.15,0.87,0.29,1.17,0.48c0.58,0.36,1.16,0.77,1.7,1.16C22.13,18.45,22.98,18.87,23.03,19.21
		L23.03,19.21z"/>
	<path class="st0" d="M5.68,4.43c-0.29,0-0.49,0.03-0.7,0.09v0.03h0.03c0.14,0.27,0.37,0.46,0.54,0.7C5.7,5.52,5.82,5.79,5.96,6.07
		c0.02-0.02,0.03-0.03,0.03-0.03C6.23,5.87,6.35,5.6,6.35,5.19c-0.1-0.12-0.12-0.24-0.2-0.36C6.04,4.66,5.82,4.57,5.68,4.43
		L5.68,4.43z"/>
</g>
</svg>
