<?xml version="1.0" encoding="UTF-8"?><svg id="a" xmlns="http://www.w3.org/2000/svg" xmlns:xlink="http://www.w3.org/1999/xlink" viewBox="0 0 25 25"><defs><style>.d{fill:#fff;}.e{fill:url(#c);}.f{fill:url(#b);}</style><linearGradient id="b" x1="-1619.77" y1="-1281.73" x2="-1619.29" y2="-1278.99" gradientTransform="translate(-15803.19 12516.05) rotate(-180) scale(9.77 -9.77)" gradientUnits="userSpaceOnUse"><stop offset="0" stop-color="#faae42"/><stop offset="1" stop-color="#ef3e31"/></linearGradient><linearGradient id="c" x1="62.34" y1="-48.9" x2="61.99" y2="-50.91" gradientTransform="translate(-596.06 -477.16) scale(9.77 -9.77)" gradientUnits="userSpaceOnUse"><stop offset="0" stop-color="#e39f3a"/><stop offset="1" stop-color="#d33929"/></linearGradient></defs><path class="f" d="M5.55,0h13.84c.67,0,1.33,.11,1.96,.33,.92,.33,1.75,.92,2.37,1.68,.63,.76,1.05,1.7,1.2,2.67,.06,.36,.07,.72,.07,1.08v13.5c0,.43-.02,.87-.11,1.29-.2,.97-.65,1.87-1.32,2.61-.65,.73-1.51,1.28-2.44,1.57-.57,.18-1.15,.25-1.75,.25-.26,0-13.87,0-14.08,0-1-.05-1.98-.37-2.81-.93-.81-.55-1.47-1.31-1.9-2.19-.37-.75-.56-1.59-.56-2.43V5.56c-.02-.83,.16-1.65,.52-2.39,.42-.88,1.07-1.65,1.88-2.2C3.27,.41,4.25,.07,5.24,.02c.1-.02,.2-.02,.31-.02Z"/><path class="e" d="M21.09,20.45c-.09-.14-.19-.27-.29-.4-.24-.29-.53-.55-.84-.76-.39-.26-.85-.43-1.32-.45-.33-.02-.66,.04-.98,.16-.31,.11-.61,.26-.91,.42-.34,.18-.68,.35-1.04,.5-.43,.18-.88,.31-1.34,.41-.58,.11-1.16,.15-1.74,.14-1.04-.02-2.09-.18-3.08-.47-.88-.26-1.72-.62-2.51-1.08-.69-.4-1.34-.86-1.94-1.38-.5-.43-.96-.89-1.39-1.38-.29-.34-.58-.7-.84-1.07-.11-.15-.2-.3-.29-.46L0,11.84V5.54C0,2.48,2.47,0,5.53,0h4.93l3.65,3.71c8.24,5.6,5.57,11.78,5.57,11.78,0,0,2.34,2.64,1.41,4.95Z"/><path class="d" d="M14.13,3.71c8.24,5.6,5.57,11.78,5.57,11.78,0,0,2.34,2.65,1.4,4.96,0,0-.97-1.62-2.59-1.62s-2.48,1.62-5.62,1.62c-7,0-10.31-5.85-10.31-5.85,6.31,4.15,10.61,1.21,10.61,1.21-2.84-1.65-8.88-9.54-8.88-9.54,5.26,4.48,7.54,5.66,7.54,5.66-1.36-1.12-5.16-6.61-5.16-6.61,3.05,3.08,9.1,7.39,9.1,7.39,1.72-4.76-1.65-9.01-1.65-9.01Z"/></svg>