<?xml version="1.0" encoding="utf-8"?>
<!-- Generator: Adobe Illustrator 26.2.1, SVG Export Plug-In . SVG Version: 6.00 Build 0)  -->
<svg version="1.1" id="a" xmlns="http://www.w3.org/2000/svg" xmlns:xlink="http://www.w3.org/1999/xlink" x="0px" y="0px"
	 viewBox="0 0 25 25" style="enable-background:new 0 0 25 25;" xml:space="preserve">
<style type="text/css">
	.st0{fill-rule:evenodd;clip-rule:evenodd;fill:#2B2E3A;}
	.st1{fill:#9FEAF9;}
</style>
<g>
	<circle class="st0" cx="12.5" cy="12.5" r="12.5"/>
	<g>
		<path class="st1" d="M9.81,7C7.28,6.54,5.27,7.02,4.47,8.41c-0.6,1.03-0.43,2.41,0.41,3.87c0.07,0.13,0.23,0.17,0.35,0.1
			c0.13-0.07,0.17-0.23,0.1-0.35c0,0,0-0.01-0.01-0.01c-0.76-1.32-0.9-2.5-0.41-3.35c0.66-1.15,2.46-1.58,4.8-1.16
			C9.86,7.54,10,7.44,10.02,7.3C10.04,7.16,9.95,7.03,9.81,7z M6.2,14.06c1.03,1.13,2.36,2.19,3.88,3.07
			c3.68,2.13,7.61,2.7,9.54,1.38c0.12-0.08,0.15-0.24,0.07-0.36c-0.08-0.12-0.24-0.15-0.36-0.07c0,0-0.01,0-0.01,0.01
			c-1.73,1.18-5.46,0.64-8.98-1.4c-1.48-0.85-2.77-1.88-3.76-2.96c-0.1-0.11-0.26-0.12-0.37-0.02C6.11,13.79,6.1,13.95,6.2,14.06
			C6.2,14.06,6.2,14.06,6.2,14.06z"/>
		<path class="st1" d="M19.01,13.75c1.66-1.96,2.24-3.94,1.44-5.32c-0.59-1.02-1.83-1.56-3.48-1.58c-0.14,0-0.26,0.12-0.26,0.26
			c0,0.14,0.11,0.26,0.25,0.26c1.48,0.02,2.56,0.48,3.04,1.32c0.66,1.15,0.15,2.91-1.39,4.73c-0.09,0.11-0.08,0.27,0.03,0.37
			C18.74,13.87,18.91,13.86,19.01,13.75C19,13.75,19,13.75,19.01,13.75z M14.73,7.09c-1.5,0.32-3.1,0.95-4.64,1.84
			c-3.8,2.2-6.28,5.43-5.94,7.78c0.02,0.14,0.15,0.24,0.29,0.22c0.14-0.02,0.24-0.15,0.22-0.29c0,0,0,0,0-0.01
			c-0.31-2.08,2.05-5.15,5.68-7.25c1.49-0.86,3.04-1.47,4.49-1.78c0.14-0.03,0.23-0.16,0.21-0.31C15.02,7.15,14.88,7.06,14.73,7.09
			C14.74,7.09,14.74,7.09,14.73,7.09L14.73,7.09z"/>
		<path class="st1" d="M8.57,18.34c0.87,2.43,2.29,3.92,3.89,3.92c1.17,0,2.25-0.8,3.09-2.2c0.08-0.12,0.04-0.28-0.08-0.36
			c-0.12-0.08-0.28-0.04-0.36,0.08c0,0,0,0,0,0.01c-0.76,1.26-1.69,1.94-2.64,1.94c-1.33,0-2.6-1.33-3.4-3.58
			C9.02,18.02,8.87,17.95,8.73,18c-0.14,0.05-0.21,0.19-0.16,0.33C8.57,18.33,8.57,18.33,8.57,18.34L8.57,18.34z M16.51,17.86
			c0.45-1.44,0.69-3.1,0.69-4.83c0-4.31-1.51-8.03-3.66-8.99c-0.13-0.06-0.29,0.01-0.34,0.14c-0.05,0.13,0,0.28,0.13,0.34
			c1.92,0.85,3.35,4.38,3.35,8.51c0,1.68-0.23,3.28-0.67,4.67c-0.04,0.14,0.03,0.28,0.17,0.33C16.32,18.08,16.47,18,16.51,17.86
			C16.51,17.87,16.51,17.86,16.51,17.86L16.51,17.86z M21.42,17.61c0-0.69-0.56-1.25-1.25-1.25c-0.69,0-1.25,0.56-1.25,1.25
			c0,0.69,0.56,1.25,1.25,1.25C20.86,18.85,21.42,18.29,21.42,17.61z M20.9,17.61c0,0.4-0.32,0.73-0.73,0.73s-0.73-0.32-0.73-0.73
			c0-0.4,0.32-0.73,0.73-0.73S20.9,17.2,20.9,17.61z M4.74,18.85c0.69,0,1.25-0.56,1.25-1.25c0-0.69-0.56-1.25-1.25-1.25
			c-0.69,0-1.25,0.56-1.25,1.25C3.49,18.29,4.05,18.85,4.74,18.85z M4.74,18.33c-0.4,0-0.73-0.32-0.73-0.73s0.32-0.73,0.73-0.73
			s0.73,0.32,0.73,0.73S5.14,18.33,4.74,18.33z"/>
		<path class="st1" d="M12.46,5.32c0.69,0,1.25-0.56,1.25-1.25s-0.56-1.25-1.25-1.25c-0.69,0-1.25,0.56-1.25,1.25
			S11.77,5.32,12.46,5.32z M12.46,4.8c-0.4,0-0.73-0.32-0.73-0.73s0.32-0.73,0.73-0.73c0.4,0,0.73,0.32,0.73,0.73
			S12.86,4.8,12.46,4.8z M12.65,13.92c-0.49,0.11-0.97-0.2-1.07-0.69c-0.11-0.49,0.2-0.97,0.69-1.07c0.49-0.11,0.97,0.2,1.07,0.69
			C13.45,13.33,13.14,13.81,12.65,13.92z"/>
	</g>
</g>
</svg>
