<?xml version="1.0" encoding="UTF-8"?><svg id="a" xmlns="http://www.w3.org/2000/svg" viewBox="0 0 25 25"><defs><style>.b{fill:#fff;}.c{fill:#9b5c8f;}</style></defs><path class="c" d="M2.32,5.06H22.67c1.29,0,2.33,1.04,2.33,2.33v7.77c0,1.29-1.04,2.33-2.33,2.33h-7.3l1,2.45-4.41-2.45H2.33C1.04,17.49,0,16.45,0,15.16V7.39c-.01-1.28,1.03-2.33,2.32-2.33Z"/><path class="b" d="M1.42,7.18c.14-.19,.36-.29,.64-.32,.52-.04,.81,.2,.88,.73,.32,2.12,.66,3.92,1.03,5.4l2.23-4.24c.2-.39,.46-.59,.76-.61,.45-.03,.72,.25,.83,.85,.25,1.35,.58,2.5,.97,3.48,.26-2.58,.71-4.44,1.34-5.59,.15-.28,.38-.43,.67-.45,.23-.02,.45,.05,.64,.2s.29,.35,.32,.58c.01,.18-.02,.34-.1,.49-.4,.73-.72,1.96-.99,3.67-.25,1.66-.35,2.95-.28,3.87,.02,.25-.02,.48-.12,.67-.12,.22-.3,.35-.54,.37-.26,.02-.54-.1-.8-.38-.95-.97-1.7-2.41-2.25-4.33-.66,1.3-1.15,2.28-1.46,2.93-.6,1.15-1.11,1.74-1.53,1.77-.27,.02-.51-.21-.71-.7-.52-1.33-1.08-3.9-1.68-7.71-.04-.26,.02-.5,.16-.68h0Zm21.84,1.6c-.37-.64-.9-1.03-1.63-1.18-.19-.04-.38-.06-.55-.06-.98,0-1.77,.51-2.39,1.52-.53,.86-.79,1.82-.79,2.87,0,.78,.16,1.45,.49,2.01,.37,.64,.9,1.03,1.63,1.18,.19,.04,.38,.06,.55,.06,.99,0,1.78-.51,2.39-1.52,.53-.87,.79-1.83,.79-2.88,.01-.79-.16-1.45-.49-2h0Zm-1.28,2.82c-.14,.67-.4,1.17-.77,1.5-.29,.26-.57,.38-.82,.33-.24-.05-.45-.26-.6-.66-.12-.32-.18-.63-.18-.92,0-.25,.02-.51,.07-.74,.09-.42,.26-.82,.54-1.21,.34-.5,.69-.7,1.06-.63,.24,.05,.45,.26,.6,.66,.12,.32,.18,.63,.18,.92,0,.26-.02,.52-.07,.75h0Zm-5.08-2.81c-.37-.64-.91-1.03-1.63-1.18-.19-.04-.38-.06-.55-.06-.98,0-1.77,.51-2.39,1.52-.53,.86-.79,1.82-.79,2.87,0,.78,.16,1.45,.49,2.01,.37,.64,.9,1.03,1.63,1.18,.19,.04,.38,.06,.55,.06,.99,0,1.78-.51,2.39-1.52,.53-.87,.79-1.83,.79-2.88,0-.79-.16-1.45-.49-2h0Zm-1.29,2.82c-.14,.67-.4,1.17-.77,1.5-.29,.26-.57,.38-.82,.33-.24-.05-.45-.26-.6-.66-.12-.32-.18-.63-.18-.92,0-.25,.02-.51,.07-.74,.09-.42,.26-.82,.54-1.21,.34-.5,.69-.7,1.06-.63,.24,.05,.45,.26,.6,.66,.12,.32,.18,.63,.18,.92,.01,.26-.02,.52-.07,.75h0Z"/></svg>