<?xml version="1.0" encoding="utf-8"?>
<!-- Generator: Adobe Illustrator 26.2.0, SVG Export Plug-In . SVG Version: 6.00 Build 0)  -->
<svg version="1.1" id="Layer_1" xmlns="http://www.w3.org/2000/svg" xmlns:xlink="http://www.w3.org/1999/xlink" x="0px" y="0px"
	 viewBox="0 0 25 25" style="enable-background:new 0 0 25 25;" xml:space="preserve">
<style type="text/css">
	.st0{fill:#0078D7;stroke:#0078D7;stroke-width:0.25;stroke-linecap:round;stroke-linejoin:round;stroke-miterlimit:10;}
</style>
<g>
	<path class="st0" d="M0.8,2.39c0,0,8.41-0.27,12.18,1.43c0.93,0.31,0.77,0.56,0.77,0.56s-0.25,2.29,1.52,2.79s2.84,0.31,5.27,1.79
		c-0.09-0.27-0.06-0.49-0.06-0.49s0.53,0.49,0.7,0.76c0.16,0.27,0.52,0.06,0.67,0.15c0.15,0.09,0.73,1.03,0.73,1.03v0.22
		c0,0,0.53,0.67,1.16,0.72c-0.31,0.25-0.72,0.56-0.72,0.56s-0.53-0.71-1.92-1.39c-0.21-0.22-0.24-0.67-0.24-0.67
		s0.06-0.17-1.52-0.73c-1.58-0.56-3.17-1.39-4.88-0.34c-1.7,1.06-2.56,5.24,3.45,5.63c0.75,0.11,1.93,0.42,2.72,1.08
		c2.08,1.44,4.24,5.1,3.81,7.14c-0.36-0.89-0.73-3.9-3.72-6.1c-0.93-0.87-1.41-1.02-2.9-1.33c-1.49-0.31-3.66-0.09-5.02-2.03
		c-1.37-1.94,0-4.49,0.77-4.88c0.19-0.15,0.63-0.53,0.63-0.53s-0.93-2.21-0.93-3.11C9.8,2.47,0.8,2.52,0.8,2.52L0.5,2.48L0.8,2.39
		L0.8,2.39z"/>
	<path class="st0" d="M13.23,5.57c0,0-5.65,0.66-10.42,3.69c3.88-1.65,2.75-1.18,3.88-1.65s3.54-1.2,6.73-1.39
		C13.35,6.08,13.23,5.57,13.23,5.57L13.23,5.57z"/>
</g>
</svg>
