<?xml version="1.0" encoding="UTF-8"?><svg id="a" xmlns="http://www.w3.org/2000/svg" xmlns:xlink="http://www.w3.org/1999/xlink" viewBox="0 0 25 25"><defs><style>.d{fill:url(#c);}.e{fill:url(#b);}</style><linearGradient id="b" x1="-66.96" y1="48.01" x2="-66.96" y2="48" gradientTransform="translate(123835.33 88986.5) scale(1849.27 -1853.39)" gradientUnits="userSpaceOnUse"><stop offset="0" stop-color="#387eb8"/><stop offset="1" stop-color="#366994"/></linearGradient><linearGradient id="c" x1="-67.31" y1="48.35" x2="-67.3" y2="48.34" gradientTransform="translate(124479.78 89613.88) scale(1849.27 -1853.39)" gradientUnits="userSpaceOnUse"><stop offset="0" stop-color="#ffe052"/><stop offset="1" stop-color="#ffc331"/></linearGradient></defs><path class="e" d="M12.41,.07C6.06,.07,6.46,2.82,6.46,2.82v2.85h6.06v.86H4.06S0,6.06,0,12.47s3.54,6.18,3.54,6.18h2.12v-2.97s-.11-3.54,3.49-3.54h6.01s3.37,.05,3.37-3.26V3.38S19.04,.07,12.41,.07Zm-3.34,1.92c.6,0,1.09,.49,1.09,1.09h0c0,.6-.49,1.09-1.09,1.09h0c-.6,0-1.09-.49-1.09-1.09h0c0-.6,.49-1.09,1.09-1.09h0Z"/><path class="d" d="M12.59,24.93c6.35,0,5.95-2.75,5.95-2.75v-2.85h-6.06v-.86h8.46s4.06,.46,4.06-5.94-3.54-6.18-3.54-6.18h-2.12v2.97s.11,3.54-3.49,3.54h-6.01s-3.37-.05-3.37,3.26v5.48s-.51,3.32,6.12,3.32h0Zm3.34-1.92c-.6,0-1.09-.49-1.09-1.09h0c0-.6,.49-1.09,1.09-1.09h0c.6,0,1.09,.49,1.09,1.09h0c0,.6-.49,1.09-1.09,1.09h0Z"/></svg>