<?xml version="1.0" encoding="UTF-8"?><svg id="a" xmlns="http://www.w3.org/2000/svg"
                                           viewBox="0 0 25 25"><defs><style>.b{fill:#ffffff;}</style></defs><path
    class="b" d="M13.17,14.23h3.15c.9,0,1.46-.49,1.46-1.29,0-.75-.57-1.29-1.46-1.29h-3.15c-.1,0-.19,.09-.19,.18v2.21c.01,.1,.09,.18,.19,.18Zm0,5.1h3.26c1,0,1.6-.51,1.6-1.41,0-.78-.57-1.41-1.6-1.41h-3.26c-.1,0-.19,.09-.19,.18v2.44c.01,.12,.09,.19,.19,.19Z"/><path class="b" d="M24.71,.06L15.38,9.36h1.52c2.38,0,3.78,1.49,3.78,3.12,0,1.29-.87,2.23-1.79,2.65-.15,.06-.15,.27,.02,.33,1.08,.42,1.84,1.54,1.84,2.85,0,1.85-1.24,3.33-3.65,3.33h-6.61c-.1,0-.19-.09-.19-.18v-7.04L.06,24.62c-.13,.13-.05,.37,.15,.37H24.83c.09,0,.16-.07,.16-.16V.2c.04-.16-.16-.25-.28-.13Z"/></svg>
