<?xml version="1.0" encoding="UTF-8"?><svg id="a" xmlns="http://www.w3.org/2000/svg" viewBox="0 0 25 25"><defs><style>.b{fill:#001e36;}.c{fill:#31a8ff;}</style></defs><path class="b" d="M4.43,.31H20.57c2.45,0,4.43,1.98,4.43,4.43v15.52c0,2.45-1.98,4.43-4.43,4.43H4.43c-2.45,0-4.43-1.98-4.43-4.43V4.74C0,2.29,1.98,.31,4.43,.31Z"/><path class="c" d="M5.62,17.41V6.69c0-.07,.03-.11,.1-.11,.18,0,.34,0,.58-.01,.25-.01,.51-.01,.79-.02s.58-.01,.91-.02,.64-.01,.95-.01c.85,0,1.56,.1,2.15,.32,.52,.18,1,.47,1.4,.85,.33,.33,.59,.74,.76,1.19,.16,.44,.24,.89,.24,1.35,0,.9-.21,1.64-.62,2.22s-1,1.02-1.68,1.27c-.71,.26-1.49,.35-2.34,.35-.25,0-.42,0-.52-.01s-.25-.01-.45-.01v3.34c.01,.07-.04,.14-.11,.15h-2.02c-.08,0-.13-.04-.13-.14h0Zm2.27-8.82v3.5c.15,.01,.28,.02,.41,.02h.55c.41,0,.81-.06,1.2-.19,.33-.09,.62-.29,.85-.55,.22-.26,.32-.61,.32-1.07,.01-.32-.07-.65-.24-.93-.18-.27-.43-.48-.73-.59-.39-.16-.8-.22-1.23-.21-.27,0-.51,0-.71,.01-.21-.01-.35,0-.43,.01h0Zm12.1,2.86c-.31-.17-.65-.28-1-.35-.39-.08-.77-.14-1.17-.14-.21-.01-.43,.02-.62,.07-.14,.03-.25,.1-.32,.21-.05,.08-.08,.19-.08,.28s.04,.19,.1,.27c.09,.11,.22,.21,.35,.28,.24,.12,.49,.24,.74,.34,.56,.19,1.1,.45,1.6,.76,.34,.22,.62,.51,.82,.86,.17,.33,.25,.7,.24,1.07,.01,.49-.14,.98-.41,1.39-.29,.42-.7,.74-1.17,.93-.51,.22-1.14,.33-1.89,.33-.48,0-.95-.04-1.42-.14-.36-.06-.73-.18-1.06-.33-.07-.04-.12-.11-.11-.2v-1.81s.01-.07,.04-.09,.06-.01,.09,.01c.41,.24,.83,.41,1.29,.51,.4,.1,.81,.16,1.23,.16s.68-.05,.86-.15c.17-.07,.28-.25,.28-.44,0-.15-.08-.28-.25-.42s-.51-.29-1.02-.49c-.53-.19-1.02-.44-1.48-.75-.32-.23-.59-.53-.79-.89-.17-.33-.25-.7-.24-1.06,0-.45,.12-.88,.35-1.26,.26-.42,.65-.75,1.09-.96,.49-.25,1.1-.36,1.84-.36,.43,0,.86,.03,1.29,.09,.31,.04,.61,.12,.9,.24,.04,.01,.08,.05,.1,.09,.01,.04,.02,.08,.02,.12v1.7s-.02,.08-.05,.1c-.09,.02-.15,.02-.19,0h0Z"/></svg>