<?xml version="1.0" encoding="utf-8"?>
<!-- Generator: Adobe Illustrator 26.2.1, SVG Export Plug-In . SVG Version: 6.00 Build 0)  -->
<svg version="1.1" id="a" xmlns="http://www.w3.org/2000/svg" xmlns:xlink="http://www.w3.org/1999/xlink" x="0px" y="0px"
	 viewBox="0 0 25 25" style="enable-background:new 0 0 25 25;" xml:space="preserve">
<style type="text/css">
	.st0{fill:#44B06B;}
</style>
<g>
	<path class="st0" d="M22.2,2.4H2.7C1.2,2.4,0,3.6,0,5.1v17.5l3.8-3.8h18.5c1.5,0,2.7-1.2,2.7-2.7v-11C25,3.6,23.8,2.4,22.2,2.4
		 M5.8,14.7c0,0.4-0.3,0.7-0.7,0.7c-0.4,0-0.7-0.3-0.7-0.7V6.9c0-0.4,0.3-0.7,0.7-0.7c0.4,0,0.7,0.3,0.7,0.7V14.7z M9.2,14.7
		c0,0.4-0.3,0.7-0.7,0.7c-0.4,0-0.7-0.3-0.7-0.7V9.6c0-0.4,0.3-0.7,0.7-0.7c0.4,0,0.7,0.3,0.7,0.7V14.7z M9.3,7.2C9.3,7.7,9,8,8.6,8
		H8.5C8,8,7.7,7.7,7.7,7.2V7.2c0-0.4,0.3-0.8,0.8-0.8h0.1C9,6.4,9.3,6.7,9.3,7.2L9.3,7.2z M14.5,15.3c-0.3,0.2-0.7,0.2-1.1,0.2
		c-1.3,0-1.9-0.6-1.9-1.8v-3.5h-0.7c-0.2,0-0.4-0.2-0.4-0.4v0c0-0.1,0.1-0.3,0.2-0.3l1.6-1.6c0.1-0.1,0.2-0.1,0.3-0.2
		c0.2,0,0.4,0.2,0.4,0.4v0v0.8h1.2c0.4,0,0.7,0.3,0.7,0.7c0,0.4-0.3,0.7-0.7,0.7H13v3.4c0,0.5,0.3,0.5,0.6,0.5c0.1,0,0.3,0,0.4-0.1
		c0.1,0,0.2,0,0.3-0.1c0.3,0,0.6,0.3,0.6,0.6C14.9,14.9,14.7,15.2,14.5,15.3 M19,14.1c0.5,0,1.1-0.1,1.5-0.3
		c0.1-0.1,0.2-0.1,0.3-0.1c0.4,0,0.7,0.3,0.7,0.6v0c0,0.3-0.2,0.5-0.4,0.6c-0.5,0.3-1.1,0.5-2.2,0.5c-2.1,0-3.3-1.3-3.3-3.4
		c0-2.5,1.6-3.4,3-3.4c2.1,0,3,1.7,3,3.2c0,0.4-0.3,0.7-0.7,0.7h-0.1h-3.8C17.3,13.6,17.9,14.1,19,14.1"/>
	<path class="st0" d="M18.7,10.1c-0.8,0-1.5,0.6-1.6,1.4h3.1C20.1,10.7,19.5,10.1,18.7,10.1"/>
</g>
</svg>
