<?xml version="1.0" encoding="UTF-8"?><svg id="a" xmlns="http://www.w3.org/2000/svg" viewBox="0 0 25 25"><defs><style>.b{fill:#61dafb;}</style></defs><path class="b" d="M25,12.5c0-1.66-2.07-3.23-5.25-4.2,.73-3.24,.41-5.82-1.03-6.64-.33-.19-.72-.29-1.14-.29v1.14c.23,0,.42,.05,.58,.13,.69,.4,.99,1.91,.76,3.86-.06,.48-.15,.98-.26,1.5-1-.24-2.09-.43-3.24-.56-.69-.94-1.4-1.8-2.12-2.55,1.66-1.54,3.22-2.39,4.28-2.39V1.37c-1.4,0-3.24,1-5.09,2.73-1.85-1.72-3.69-2.71-5.09-2.71v1.14c1.05,0,2.62,.84,4.28,2.37-.71,.75-1.43,1.6-2.1,2.54-1.15,.12-2.24,.31-3.24,.56-.12-.51-.2-1-.26-1.48-.24-1.95,.06-3.46,.74-3.86,.15-.09,.35-.13,.59-.13V1.39c-.43,0-.82,.09-1.15,.29-1.43,.83-1.75,3.4-1.01,6.63-3.17,.98-5.23,2.54-5.23,4.19s2.07,3.23,5.25,4.2c-.73,3.24-.41,5.82,1.03,6.64,.33,.19,.72,.29,1.15,.29,1.4,0,3.24-1,5.09-2.73,1.85,1.72,3.69,2.71,5.09,2.71,.43,0,.82-.09,1.15-.29,1.43-.83,1.75-3.4,1.01-6.63,3.16-.97,5.22-2.54,5.22-4.19h0Zm-6.63-3.4c-.19,.66-.42,1.34-.69,2.01-.21-.41-.43-.82-.67-1.22-.23-.41-.48-.81-.73-1.19,.72,.11,1.42,.24,2.09,.4h0Zm-2.33,5.43c-.4,.69-.81,1.34-1.23,1.95-.76,.07-1.53,.1-2.3,.1s-1.54-.04-2.29-.1c-.42-.61-.84-1.25-1.23-1.94-.39-.67-.74-1.35-1.06-2.03,.32-.68,.67-1.37,1.05-2.03,.4-.69,.81-1.34,1.23-1.95,.76-.07,1.53-.1,2.3-.1s1.54,.04,2.29,.1c.42,.61,.84,1.25,1.23,1.94,.39,.67,.74,1.35,1.06,2.03-.32,.68-.67,1.37-1.05,2.03h0Zm1.65-.66c.28,.68,.51,1.37,.7,2.03-.67,.16-1.37,.3-2.1,.41,.25-.39,.5-.79,.73-1.21,.23-.41,.45-.82,.66-1.23h0Zm-5.17,5.44c-.47-.49-.95-1.03-1.42-1.63,.46,.02,.93,.04,1.4,.04s.95-.01,1.42-.04c-.46,.6-.93,1.14-1.4,1.63Zm-3.79-3c-.72-.11-1.42-.24-2.09-.4,.19-.66,.42-1.34,.69-2.01,.21,.41,.43,.82,.67,1.22s.48,.81,.73,1.19Zm3.77-10.6c.47,.49,.95,1.03,1.42,1.63-.46-.02-.93-.04-1.4-.04s-.95,.01-1.42,.04c.46-.6,.93-1.14,1.4-1.63Zm-3.77,3c-.25,.39-.5,.79-.73,1.21-.23,.41-.45,.82-.66,1.22-.28-.68-.51-1.37-.7-2.03,.67-.16,1.37-.3,2.1-.4h0Zm-4.61,6.38c-1.8-.77-2.97-1.78-2.97-2.58s1.17-1.81,2.97-2.58c.44-.19,.92-.36,1.41-.51,.29,1,.67,2.04,1.15,3.1-.47,1.06-.85,2.09-1.13,3.09-.5-.16-.98-.33-1.43-.52h0Zm2.74,7.28c-.69-.4-.99-1.91-.76-3.86,.06-.48,.15-.98,.26-1.5,1,.24,2.09,.43,3.24,.56,.69,.94,1.4,1.8,2.12,2.55-1.66,1.54-3.22,2.39-4.28,2.39-.23,0-.42-.05-.58-.14h0Zm12.09-3.88c.24,1.95-.06,3.46-.74,3.86-.15,.09-.35,.13-.59,.13-1.05,0-2.62-.84-4.28-2.37,.71-.75,1.43-1.6,2.1-2.54,1.15-.12,2.24-.31,3.24-.56,.12,.51,.21,1.01,.26,1.48Zm1.96-3.4c-.44,.19-.92,.36-1.41,.51-.29-1-.67-2.04-1.15-3.1,.47-1.06,.85-2.09,1.13-3.09,.5,.16,.98,.33,1.43,.52,1.8,.77,2.97,1.78,2.97,2.58,0,.8-1.17,1.81-2.98,2.58h0Z"/><circle class="b" cx="12.49" cy="12.5" r="2.33"/></svg>