<?xml version="1.0" encoding="UTF-8"?><svg id="a" xmlns="http://www.w3.org/2000/svg" viewBox="0 0 25 25"><defs><style>.b{fill:#49021f;}.c{fill:#f36;}</style></defs><path class="b" d="M4.43,.31H20.57c2.45,0,4.43,1.98,4.43,4.43v15.52c0,2.45-1.98,4.43-4.43,4.43H4.43c-2.45,0-4.43-1.98-4.43-4.43V4.74C0,2.29,1.98,.31,4.43,.31Z"/><path class="c" d="M9.08,6.69v10.73c0,.11-.05,.17-.15,.17h-2.04c-.09,0-.14-.05-.14-.17V6.69c0-.09,.05-.14,.15-.14h2.03c.06-.01,.12,.03,.14,.1,.01,.01,.01,.02,.01,.03h0Zm6.02,11.02c-.77,.01-1.54-.15-2.24-.47-.66-.3-1.2-.8-1.57-1.42-.39-.64-.57-1.43-.57-2.38-.01-.77,.19-1.53,.57-2.2,.4-.68,.97-1.24,1.66-1.61,.73-.41,1.6-.6,2.64-.6,.05,0,.12,0,.22,.01s.2,.01,.32,.02v-3.29c0-.07,.03-.11,.1-.11h2.11c.05-.01,.09,.03,.1,.07V15.67c0,.19,.01,.4,.02,.62,.02,.22,.03,.43,.04,.6,0,.07-.03,.14-.1,.17-.54,.23-1.11,.4-1.7,.5-.52,.09-1.06,.15-1.6,.15h0Zm1.02-2.08v-4.58c-.09-.02-.19-.04-.28-.05-.11-.01-.23-.02-.34-.02-.41,0-.81,.08-1.18,.27-.35,.18-.66,.44-.89,.77s-.34,.78-.34,1.32c-.01,.36,.05,.73,.18,1.07,.1,.28,.26,.53,.47,.74,.2,.19,.44,.33,.71,.42,.28,.09,.57,.14,.86,.14,.16,0,.3-.01,.44-.02,.14,.01,.26-.01,.38-.05h0Z"/></svg>