<?xml version="1.0" encoding="utf-8"?>
<!-- Generator: Adobe Illustrator 25.0.1, SVG Export Plug-In . SVG Version: 6.00 Build 0)  -->
<svg version="1.1" id="Layer_1" xmlns="http://www.w3.org/2000/svg" xmlns:xlink="http://www.w3.org/1999/xlink" x="0px" y="0px"
	 viewBox="0 0 100 100" style="enable-background:new 0 0 100 100;" xml:space="preserve">
<style type="text/css">
	.st0{fill:#FFFFFF;}
	.st1{fill:#212121;}
</style>
<circle class="st0" cx="50" cy="50" r="50"/>
<g id="web-development" transform="translate(-15.996 -16)">
	<path id="Path_23" class="st1" d="M94.2,33.5H48.7c-1.8,0-3.2,1.5-3.3,3.3v27.1h2.2V42.2h47.7v33.6c0,0.6-0.5,1.1-1.1,1.1H65V79
		h29.3c1.8,0,3.2-1.5,3.3-3.3v-39C97.5,35,96,33.5,94.2,33.5z M47.7,40v-3.3c0-0.6,0.5-1.1,1.1-1.1h45.5c0.6,0,1.1,0.5,1.1,1.1V40
		H47.7z"/>
	<circle id="Ellipse_6" class="st1" cx="49.8" cy="37.8" r="1.1"/>
	<circle id="Ellipse_7" class="st1" cx="53.1" cy="37.8" r="1.1"/>
	<circle id="Ellipse_8" class="st1" cx="56.3" cy="37.8" r="1.1"/>
	<path id="Path_24" class="st1" d="M34.7,90.8l4.3,5.6c1,1.3,2.6,2.1,4.3,2.1h32.5c0.4,0,0.8-0.2,1-0.6l5.4-11.9
		c0.2-0.5,0-1.2-0.5-1.4c-0.1-0.1-0.3-0.1-0.4-0.1H68.7l-7.1-7.1c-1-1-2.4-1.6-3.8-1.6h-5.9c0.1-0.4,0.1-0.7,0.1-1.1V71
		c0.7-0.8,1.1-1.8,1.1-2.9v-1.1c0-0.6-0.5-1.1-1.1-1.1h-5.4c-2.3,0-4.1,1.8-4.1,4.1c0,0.6,0.1,1.3,0.4,1.8l0.4,0.8v1.9
		c0,0.4,0,0.7,0.1,1.1h-1.8c-5.1,0-9.1,4.1-9.1,9.2v13.6h2.2L34.7,90.8z M40.7,95.1l-1.9-2.4l3.1-3.1l2.7,3.2
		c0.2,0.2,0.5,0.4,0.8,0.4h9.8c0.2,0,0.4-0.1,0.6-0.2l2-1.4c0.4-0.2,0.8-0.2,1.2,0l1.5,1l-0.7,1.6h-1.4c-0.3,0-0.6,0.1-0.8,0.3
		l-1.2,1.2c-0.4,0.4-1,0.6-1.5,0.6H43.3C42.3,96.3,41.3,95.9,40.7,95.1L40.7,95.1z M45.5,72.9l1.1-1.1c0.6,0.4,1.4,0.7,2.1,0.7
		c0.4,0,0.7,0,1.1-0.1v2.3c0,1.2-0.9,2.2-2.1,2.2c-1.2,0-2.2-0.9-2.2-2.1c0,0,0-0.1,0-0.1L45.5,72.9z M47.1,79
		c0.4,0.1,0.8,0.1,1.2,0l0.3,0.3l-0.4,0.9h-0.8l-0.4-0.9L47.1,79z M47.6,82.3h0.2l0.9,8.7h-1.9L47.6,82.3z M58.5,85.9l3.5,3.5
		l-0.5,1.1l-1.2-0.8c-0.5-0.4-1.2-0.5-1.8-0.5L58.5,85.9z M75.1,96.3H61.3l4.4-9.8h13.9L75.1,96.3z M65,84.4c-0.4,0-0.8,0.2-1,0.6
		l-1,2.3L61.7,86l2.8-2.8l1.2,1.2L65,84.4z M60.1,78.9l2.8,2.8l-2.8,2.8l-1.9-1.9c-0.4-0.4-1.1-0.4-1.5,0c-0.2,0.2-0.3,0.5-0.3,0.8
		V90l-1.4,0.9h-4.1l-1-9.5l0.3-0.5l2.2,2.2l1.5-1.5L50.4,78c0,0,0.1-0.1,0.1-0.1h7.3C58.6,77.9,59.5,78.3,60.1,78.9L60.1,78.9z
		 M44.8,69.5c0.3-0.8,1-1.3,1.8-1.3h4.3c0,1.2-1,2.2-2.2,2.2c-0.4,0-0.8-0.2-1.1-0.4l-0.3-0.3c-0.4-0.4-1.1-0.4-1.5,0c0,0,0,0,0,0
		l-1.1,1.1C44.6,70.3,44.6,69.9,44.8,69.5L44.8,69.5z M41.6,77.9h3.2c0,0,0.1,0.1,0.1,0.1l-3.5,3.5L43,83l2.2-2.2l0.3,0.5l-0.8,8
		l-4.9-5.7l-1.6,1.4l2.3,2.7l-3,3l-1.3-1.7c-2.4-3-1.8-7.4,1.2-9.8C38.6,78.4,40.1,77.9,41.6,77.9L41.6,77.9z"/>
	<path id="Path_25" class="st1" d="M49.8,44.3h3.3v2.2h-3.3V44.3z"/>
	<path id="Path_26" class="st1" d="M57.4,44.3h2.2v2.2h-2.2V44.3z"/>
	<path id="Path_27" class="st1" d="M61.7,44.3h7.6v2.2h-7.6V44.3z"/>
	<path id="Path_28" class="st1" d="M59.6,48.7H65v2.2h-5.4V48.7z"/>
	<path id="Path_29" class="st1" d="M67.2,48.7h5.4v2.2h-5.4V48.7z"/>
	<path id="Path_30" class="st1" d="M56.3,53h13v2.2h-13V53z"/>
	<path id="Path_31" class="st1" d="M49.8,59.5h5.4v2.2h-5.4V59.5z"/>
	<path id="Path_32" class="st1" d="M62.8,59.5h6.5v2.2h-6.5V59.5z"/>
	<path id="Path_33" class="st1" d="M58.5,59.5h2.2v2.2h-2.2V59.5z"/>
	<path id="Path_34" class="st1" d="M56.3,63.8H65V66h-8.7V63.8z"/>
	<path id="Path_35" class="st1" d="M67.2,63.8h6.5V66h-6.5V63.8z"/>
	<path id="Path_36" class="st1" d="M60.7,68.2h2.2v2.2h-2.2V68.2z"/>
	<path id="Path_37" class="st1" d="M65,68.2h7.6v2.2H65V68.2z"/>
	<path id="Path_38" class="st1" d="M60.7,72.5h6.5v2.2h-6.5V72.5z"/>
	<path id="Path_39" class="st1" d="M78.3,51.1L74,55.5c-0.4,0.4-0.4,1.1,0,1.5c0,0,0,0,0,0l4.3,4.3l1.5-1.5l-3.6-3.6l3.6-3.6
		L78.3,51.1z"/>
	<path id="Path_40" class="st1" d="M88.5,61.3l4.3-4.3c0.4-0.4,0.4-1.1,0-1.5c0,0,0,0,0,0l-4.3-4.3L87,52.7l3.6,3.6L87,59.8
		L88.5,61.3z"/>
	<path id="Path_41" class="st1" d="M80.2,64.7l4.3-17.3l2.1,0.5l-4.3,17.3L80.2,64.7z"/>
	<path id="Path_42" class="st1" d="M71,93.1c0.9,0,1.6-0.7,1.6-1.6c0-0.9-0.7-1.6-1.6-1.6c-0.9,0-1.6,0.7-1.6,1.6
		C69.3,92.4,70.1,93.1,71,93.1L71,93.1z M71,90.9c0.3,0,0.5,0.2,0.5,0.5c0,0.3-0.2,0.5-0.5,0.5c-0.3,0-0.5-0.2-0.5-0.5c0,0,0,0,0,0
		C70.4,91.2,70.7,90.9,71,90.9z"/>
</g>
</svg>
