<?xml version="1.0" encoding="utf-8"?>
<!-- Generator: Adobe Illustrator 25.2.1, SVG Export Plug-In . SVG Version: 6.00 Build 0)  -->
<svg version="1.1" id="Layer_1" xmlns="http://www.w3.org/2000/svg" xmlns:xlink="http://www.w3.org/1999/xlink" x="0px" y="0px"
	 viewBox="0 0 100 100" style="enable-background:new 0 0 100 100;" xml:space="preserve">
<style type="text/css">
	.st0{fill:#FFFFFF;}
	.st1{fill:#212121;}
</style>
<circle class="st0" cx="50" cy="50" r="50"/>
<circle class="st0" cx="50" cy="50" r="50"/>
<g>
	<path d="M77.7,21.3H56.9c-0.5,0-1,0.4-1,1c0,0.5,0.4,1,1,1h20.8c1.6,0,2.9,1.3,2.9,2.9v33.4H76l0-29.3c0-1.6-1.3-2.9-2.9-2.9H26.8
		c-1.6,0-2.9,1.3-2.9,2.9v29.3h-4.6V26.1c0-1.6,1.3-2.9,2.9-2.9h30.9c0.5,0,1-0.4,1-1c0-0.5-0.4-1-1-1H22.3c-2.6,0-4.8,2.1-4.8,4.8
		v38.6c0,2.6,2.1,4.8,4.8,4.8h21l-1,7.3h-3.4c-0.5,0-1,0.4-1,1c0,0.5,0.4,1,1,1h22.2c0.5,0,1-0.4,1-1c0-0.5-0.4-1-1-1h-3.4l-1-7.3
		h10.1c0.5,0,1-0.4,1-1s-0.4-1-1-1H22.3c-1.6,0-2.9-1.3-2.9-2.9v-3.3h61.2v3.3c0,1.6-1.3,2.9-2.9,2.9h-7.1c-0.5,0-1,0.4-1,1
		s0.4,1,1,1h7.1c2.6,0,4.8-2.1,4.8-4.8V26.1C82.5,23.5,80.4,21.3,77.7,21.3L77.7,21.3z M55.8,76.8H44.2l1-7.3h9.7L55.8,76.8z
		 M25.9,30.2c0-0.5,0.4-1,1-1h46.3c0.5,0,1,0.4,1,1v4.7H25.9L25.9,30.2z M25.9,36.8h48.2v22.7h-4.6v-4.3c0-0.5-0.4-1-1-1H52.3
		c-0.5,0-1,0.4-1,1v4.3h-2.7v-4.3c0-0.5-0.4-1-1-1H31.5c-0.5,0-1,0.4-1,1v4.3h-4.6L25.9,36.8z M67.6,59.5H53.2v-3.3h14.3V59.5z
		 M46.8,59.5H32.4v-3.3h14.3V59.5z"/>
	<path d="M29.5,30.5c-0.8,0-1.5,0.7-1.5,1.5c0,0.8,0.7,1.5,1.5,1.5c0.8,0,1.5-0.7,1.5-1.5C31,31.2,30.3,30.5,29.5,30.5z"/>
	<path d="M34.2,30.5c-0.8,0-1.5,0.7-1.5,1.5c0,0.8,0.7,1.5,1.5,1.5s1.5-0.7,1.5-1.5C35.7,31.2,35,30.5,34.2,30.5L34.2,30.5z"/>
	<path d="M38.9,30.5c-0.8,0-1.5,0.7-1.5,1.5c0,0.8,0.7,1.5,1.5,1.5c0.8,0,1.5-0.7,1.5-1.5C40.4,31.2,39.7,30.5,38.9,30.5L38.9,30.5z
		"/>
	<path d="M31.5,51.9h6.9c0.5,0,1-0.4,1-1s-0.4-1-1-1h-6v-8.4h35.1V50H42.2c-0.5,0-1,0.4-1,1s0.4,1,1,1h26.3c0.5,0,1-0.4,1-1V40.7
		c0-0.5-0.4-1-1-1h-37c-0.5,0-1,0.4-1,1V51C30.5,51.5,31,51.9,31.5,51.9L31.5,51.9z"/>
</g>
</svg>
